<?xml version="1.0" standalone="no"?>
<!DOCTYPE svg PUBLIC "-//W3C//DTD SVG 1.1//EN" "http://www.w3.org/Graphics/SVG/1.1/DTD/svg11.dtd">
<svg class="icon" style="width: 1em;height: 1em;vertical-align: middle;fill: currentColor;overflow: hidden;" viewBox="0 0 1024 1024" version="1.1" xmlns="http://www.w3.org/2000/svg"><path d="M415.786667 927.786667C226.474667 884.138667 85.333333 714.538667 85.333333 512 85.333333 276.352 276.352 85.333333 512 85.333333s426.666667 191.018667 426.666667 426.666667c0 202.538667-141.141333 372.138667-330.453334 415.786667L512 1024l-96.213333-96.213333z m-116.608-148.821334a339.328 339.328 0 0 0 135.765333 65.664l23.893333 5.504L512 903.338667l53.205333-53.205334 23.893334-5.546666a339.456 339.456 0 0 0 143.36-71.936A297.770667 297.770667 0 0 0 518.826667 682.666667c-86.869333 0-165.12 37.12-219.648 96.298666zM239.616 717.653333A382.933333 382.933333 0 0 1 518.826667 597.333333a382.805333 382.805333 0 0 1 271.445333 112.384 341.333333 341.333333 0 1 0-550.656 7.978667zM512 554.666667a170.666667 170.666667 0 1 1 0-341.333334 170.666667 170.666667 0 0 1 0 341.333334z m0-85.333334a85.333333 85.333333 0 1 0 0-170.666666 85.333333 85.333333 0 0 0 0 170.666666z" /></svg>