<?xml version="1.0" standalone="no"?>
<!DOCTYPE svg PUBLIC "-//W3C//DTD SVG 1.1//EN" "http://www.w3.org/Graphics/SVG/1.1/DTD/svg11.dtd">
<svg class="icon" style="width: 1em;height: 1em;vertical-align: middle;fill: currentColor;overflow: hidden;" viewBox="0 0 1024 1024" version="1.1" xmlns="http://www.w3.org/2000/svg"><path d="M896 128a42.666667 42.666667 0 0 1 42.666667 42.666667v682.666666a42.666667 42.666667 0 0 1-42.666667 42.666667H128a42.666667 42.666667 0 0 1-42.666667-42.666667V170.666667a42.666667 42.666667 0 0 1 42.666667-42.666667h768z m-42.666667 85.333333H170.666667v597.333334h682.666666V213.333333zM401.024 341.333333l136.490667 341.333334h-91.946667l-17.066667-42.666667h-140.373333l-17.066667 42.666667H179.157333l136.533334-341.333334h85.333333zM810.666667 341.333333v341.333334h-128a128 128 0 0 1 0-256h42.624L725.333333 341.333333h85.333334z m-85.333334 170.666667h-42.666666a42.666667 42.666667 0 0 0-4.992 85.034667L682.666667 597.333333h42.666666v-85.333333z m-366.976-47.573333L322.218667 554.666667h72.192l-36.053334-90.24z" /></svg>