<?xml version="1.0" standalone="no"?>
<!DOCTYPE svg PUBLIC "-//W3C//DTD SVG 1.1//EN" "http://www.w3.org/Graphics/SVG/1.1/DTD/svg11.dtd">
<svg class="icon" style="width: 1em;height: 1em;vertical-align: middle;fill: currentColor;overflow: hidden;" viewBox="0 0 1024 1024" version="1.1" xmlns="http://www.w3.org/2000/svg"><path d="M896 128a42.666667 42.666667 0 0 1 42.666667 42.666667v682.666666a42.666667 42.666667 0 0 1-42.666667 42.666667H128a42.666667 42.666667 0 0 1-42.666667-42.666667V170.666667a42.666667 42.666667 0 0 1 42.666667-42.666667h768zM401.024 341.333333h-85.333333l-136.533334 341.333334h91.904l17.066667-42.666667h140.373333l17.066667 42.666667h91.946667L401.024 341.333333zM810.666667 341.333333h-85.333334v85.333334h-42.666666a128 128 0 0 0-7.509334 255.786666L682.666667 682.666667h128V341.333333z m-85.333334 170.666667v85.333333h-42.666666l-4.992-0.298666a42.666667 42.666667 0 0 1 0-84.736L682.666667 512h42.666666z m-366.976-47.573333L394.410667 554.666667H322.218667l36.138666-90.24z" /></svg>