<?xml version="1.0" standalone="no"?>
<!DOCTYPE svg PUBLIC "-//W3C//DTD SVG 1.1//EN" "http://www.w3.org/Graphics/SVG/1.1/DTD/svg11.dtd">
<svg class="icon" style="width: 1em;height: 1em;vertical-align: middle;fill: currentColor;overflow: hidden;" viewBox="0 0 1024 1024" version="1.1" xmlns="http://www.w3.org/2000/svg"><path d="M512 85.333333a362.666667 362.666667 0 0 1 362.666667 362.666667c0 277.333333-234.666667 512-362.666667 512s-362.666667-234.666667-362.666667-512A362.666667 362.666667 0 0 1 512 85.333333z m0 85.333334a277.333333 277.333333 0 0 0-277.333333 277.333333c0 204.544 177.706667 426.666667 277.333333 426.666667s277.333333-222.122667 277.333333-426.666667A277.333333 277.333333 0 0 0 512 170.666667z m234.666667 298.666666c6.826667 0 13.610667 0.341333 20.266666 1.066667a192 192 0 0 1-211.2 211.2A192 192 0 0 1 746.666667 469.333333z m-469.333334 0a192 192 0 0 1 190.933334 212.266667 192 192 0 0 1-211.2-211.2C263.68 469.674667 270.506667 469.333333 277.333333 469.333333z" /></svg>