<?xml version="1.0" standalone="no"?>
<!DOCTYPE svg PUBLIC "-//W3C//DTD SVG 1.1//EN" "http://www.w3.org/Graphics/SVG/1.1/DTD/svg11.dtd">
<svg class="icon" style="width: 1em;height: 1em;vertical-align: middle;fill: currentColor;overflow: hidden;" viewBox="0 0 1024 1024" version="1.1" xmlns="http://www.w3.org/2000/svg"><path d="M938.496 777.813333c0 31.018667-17.28 90.752-56.064 123.562667-7.765333 5.973333-15.573333 2.602667-12.16-6.101333 11.306667-27.648 37.205333-91.605333 25.045333-106.325334-8.533333-11.178667-43.946667-10.368-74.154666-7.765333-13.824 1.749333-25.898667 2.56-35.328 4.48-8.661333 0.725333-10.453333-6.954667-1.749334-12.928 11.178667-7.893333 23.253333-13.866667 37.12-18.261333 49.066667-14.677333 105.813333-5.845333 113.92 3.541333 1.536 1.792 3.413333 6.826667 3.413334 19.754667z m-81.962667 55.210667a316.842667 316.842667 0 0 1-35.413333 23.466667c-90.538667 54.4-207.786667 82.901333-309.674667 82.901333-163.968 0-310.613333-60.458667-421.888-161.621333-9.514667-7.765333-1.621333-19.029333 9.514667-12.928 119.893333 69.973333 268.288 112.298667 421.930667 112.298666a831.146667 831.146667 0 0 0 300.16-57.002666c6.912-2.602667 14.677333-6.144 21.461333-8.618667 15.658667-7.04 29.44 10.368 13.909333 21.504z m-263.253333-470.613333c0-44.416 1.749333-70.570667-12.970667-93.013334-13.056-18.474667-35.541333-29.568-66.901333-27.818666-34.048 1.877333-70.613333 24.192-79.957333 65.109333-1.792 9.386667-7.296 18.602667-18.602667 20.608l-103.936-13.226667c-7.424-1.706667-18.688-7.381333-15.018667-22.229333C318.208 174.421333 418.56 133.504 513.408 128h22.314667c52.053333 0 118.912 14.890667 161.706666 53.930667 51.925333 48.469333 46.421333 113.578667 46.421334 184.32v167.552c0 50.261333 20.352 72.533333 40.874666 98.730666 5.546667 9.344 7.424 20.352-1.92 27.946667a3245.653333 3245.653333 0 0 1-81.792 70.570667c-7.424 5.674667-20.821333 6.272-26.026666 1.92-32.853333-27.52-40.874667-42.794667-61.226667-70.741334-35.413333 37.162667-65.109333 57.685333-100.48 68.821334a300.16 300.16 0 0 1-76.117333 9.216c-89.173333 0-159.829333-55.594667-159.829334-165.546667 0-87.424 46.506667-146.858667 115.2-174.976 68.693333-28.16 168.533333-37.12 200.704-37.290667z m-20.394667 221.525333c22.186667-37.205333 20.352-67.669333 20.352-135.893333-27.776 0-55.722667 1.92-79.829333 7.594666-44.586667 12.928-79.957333 41.002667-79.957333 100.48 0 46.506667 24.192 78.165333 65.066666 78.165334 5.632 0 10.581333-0.682667 14.890667-1.92 28.586667-7.936 46.421333-22.272 59.477333-48.426667z" /></svg>