<?xml version="1.0" standalone="no"?>
<!DOCTYPE svg PUBLIC "-//W3C//DTD SVG 1.1//EN" "http://www.w3.org/Graphics/SVG/1.1/DTD/svg11.dtd">
<svg class="icon" style="width: 1em;height: 1em;vertical-align: middle;fill: currentColor;overflow: hidden;" viewBox="0 0 1024 1024" version="1.1" xmlns="http://www.w3.org/2000/svg"><path d="M666.666667 623.786667c-47.232 69.077333-116.394667 101.717333-197.333334 101.717333-98.304 0-182.442667-75.648-170.368-175.957333 13.44-111.274667 99.84-159.146667 243.541334-176.768 25.642667-3.114667 36.266667-4.010667 91.605333-8.106667l5.888-0.426667v-9.173333C640 278.442667 594.432 226.133333 533.333333 226.133333c-61.312 0-104.106667 31.872-130.346666 107.776l-80.64-27.818666C360.192 196.437333 434.901333 140.8 533.333333 140.8c111.061333 0 192 92.928 192 214.272 0 113.024 6.954667 202.922667 20.608 237.098667 15.189333 38.058667 20.736 47.658667 37.717334 68.821333l-66.56 53.376c-22.314667-27.818667-32.128-44.757333-50.389334-90.538667v-0.042666z m240.298666 252.8c-11.562667 8.533333-31.658667 3.456-22.570666-18.773334 11.306667-27.648 23.338667-60.074667 11.178666-74.752-8.96-10.88-19.925333-16.298667-43.818666-16.298666-19.626667 0-29.44 2.56-42.453334 3.413333-8.704 0.554667-12.501333-12.672-3.882666-18.773333a126.293333 126.293333 0 0 1 37.12-18.261334c49.066667-14.677333 106.88-6.613333 113.92 3.541334 15.573333 22.613333-8.490667 109.610667-49.493334 139.946666z m-50.432-46.250667a322.346667 322.346667 0 0 1-35.413333 29.653333c-90.538667 68.949333-207.786667 104.96-309.674667 104.96-163.968 0-310.613333-76.501333-421.888-204.586666-9.514667-9.813333-1.621333-24.149333 9.514667-16.384 119.893333 88.618667 268.288 142.208 421.930667 142.208 96.64 0 200.874667-22.912 300.16-72.234667 6.912-3.242667 14.677333-7.68 21.461333-10.837333 15.658667-8.96 29.44 13.056 13.909333 27.221333z m-216.106666-380.586667c-53.674667 4.010667-63.829333 4.821333-87.552 7.722667-108.885333 13.354667-162.005333 42.794667-169.173334 102.314667-5.376 44.501333 34.56 80.384 85.632 80.384 86.997333 0 150.058667-52.394667 171.605334-190.421334h-0.512z" /></svg>