<?xml version="1.0" standalone="no"?>
<!DOCTYPE svg PUBLIC "-//W3C//DTD SVG 1.1//EN" "http://www.w3.org/Graphics/SVG/1.1/DTD/svg11.dtd">
<svg class="icon" style="width: 1em;height: 1em;vertical-align: middle;fill: currentColor;overflow: hidden;" viewBox="0 0 1024 1024" version="1.1" xmlns="http://www.w3.org/2000/svg"><path d="M806.442667 426.666667a127.957333 127.957333 0 0 0 173.866666 47.488 149.333333 149.333333 0 0 1-84.266666 151.466666L896 896h-256v-85.333333a128 128 0 0 0-255.786667-7.509334L384 810.666667v85.333333H128v-270.336a149.333333 149.333333 0 0 1-84.437333-151.594667A127.957333 127.957333 0 0 0 217.514667 426.666667h588.928z m-79.573334-298.666667a149.333333 149.333333 0 0 0 189.696 122.026667 149.333333 149.333333 0 0 1-140.373333 133.76L768 384H256a149.333333 149.333333 0 0 1-148.565333-133.973333A149.333333 149.333333 0 0 0 297.130667 128h429.738666z" /></svg>