<?xml version="1.0" standalone="no"?>
<!DOCTYPE svg PUBLIC "-//W3C//DTD SVG 1.1//EN" "http://www.w3.org/Graphics/SVG/1.1/DTD/svg11.dtd">
<svg class="icon" style="width: 1em;height: 1em;vertical-align: middle;fill: currentColor;overflow: hidden;" viewBox="0 0 1024 1024" version="1.1" xmlns="http://www.w3.org/2000/svg"><path d="M512 85.333333c235.648 0 426.666667 191.018667 426.666667 426.666667s-191.018667 426.666667-426.666667 426.666667S85.333333 747.648 85.333333 512 276.352 85.333333 512 85.333333z m0 85.333334a341.333333 341.333333 0 1 0 0 682.666666 341.333333 341.333333 0 0 0 0-682.666666zM376.448 654.634667l-33.706667 58.453333a35.114667 35.114667 0 1 1-60.928-35.072l25.130667-43.349333c28.16-8.789333 51.242667-2.048 69.504 19.968zM563.626667 369.493333l103.381333 178.944h91.349333a34.986667 34.986667 0 0 1 35.114667 35.072 34.986667 34.986667 0 0 1-35.114667 35.114667h-50.773333l34.261333 59.349333a35.157333 35.157333 0 0 1-60.885333 35.114667l-129.706667-224.682667c-29.44-50.773333-8.448-101.674667 12.373334-118.912z m11.861333-129.877333c16.853333 9.642667 22.528 31.146667 12.885333 48l-150.528 260.650667h108.928c35.242667 0 55.04 41.472 39.722667 70.186666h-319.146667a34.986667 34.986667 0 0 1-35.072-35.114666 34.986667 34.986667 0 0 1 35.072-35.072h89.472l114.56-198.528-35.754666-62.122667a35.157333 35.157333 0 0 1 60.885333-35.114667l15.317333 27.008 15.658667-27.008a35.114667 35.114667 0 0 1 48-12.885333z" /></svg>