<?xml version="1.0" standalone="no"?>
<!DOCTYPE svg PUBLIC "-//W3C//DTD SVG 1.1//EN" "http://www.w3.org/Graphics/SVG/1.1/DTD/svg11.dtd">
<svg class="icon" style="width: 1em;height: 1em;vertical-align: middle;fill: currentColor;overflow: hidden;" viewBox="0 0 1024 1024" version="1.1" xmlns="http://www.w3.org/2000/svg"><path d="M277.333333 490.666667a192 192 0 1 1 0-384 192 192 0 0 1 0 384z m21.333334 426.666666a192 192 0 1 1 0-384 192 192 0 0 1 0 384z m426.666666-426.666666a192 192 0 1 1 0-384 192 192 0 0 1 0 384z m0 426.666666a192 192 0 1 1 0-384 192 192 0 0 1 0 384zM277.333333 405.333333a106.666667 106.666667 0 1 0 0-213.333333 106.666667 106.666667 0 0 0 0 213.333333z m21.333334 426.666667a106.666667 106.666667 0 1 0 0-213.333333 106.666667 106.666667 0 0 0 0 213.333333z m426.666666-426.666667a106.666667 106.666667 0 1 0 0-213.333333 106.666667 106.666667 0 0 0 0 213.333333z m0 426.666667a106.666667 106.666667 0 1 0 0-213.333333 106.666667 106.666667 0 0 0 0 213.333333z" /></svg>