<?xml version="1.0" standalone="no"?>
<!DOCTYPE svg PUBLIC "-//W3C//DTD SVG 1.1//EN" "http://www.w3.org/Graphics/SVG/1.1/DTD/svg11.dtd">
<svg class="icon" style="width: 1em;height: 1em;vertical-align: middle;fill: currentColor;overflow: hidden;" viewBox="0 0 1024 1024" version="1.1" xmlns="http://www.w3.org/2000/svg"><path d="M512 938.666667C276.352 938.666667 85.333333 747.648 85.333333 512S276.352 85.333333 512 85.333333s426.666667 191.018667 426.666667 426.666667-191.018667 426.666667-426.666667 426.666667z m341.333333-426.666667a341.333333 341.333333 0 1 0-169.301333 294.869333l-43.008-73.685333A256 256 0 1 1 768 512v42.666667a42.666667 42.666667 0 0 1-85.333333 0V384h-57.770667a170.666667 170.666667 0 1 0 2.816 253.44A128 128 0 0 0 853.333333 554.666667v-42.666667z m-341.333333-85.333333a85.333333 85.333333 0 1 1 0 170.666666 85.333333 85.333333 0 0 1 0-170.666666z" /></svg>