<?xml version="1.0" standalone="no"?>
<!DOCTYPE svg PUBLIC "-//W3C//DTD SVG 1.1//EN" "http://www.w3.org/Graphics/SVG/1.1/DTD/svg11.dtd">
<svg class="icon" style="width: 1em;height: 1em;vertical-align: middle;fill: currentColor;overflow: hidden;" viewBox="0 0 1024 1024" version="1.1" xmlns="http://www.w3.org/2000/svg"><path d="M853.333333 512a341.333333 341.333333 0 1 0-151.978666 284.032l47.36 70.997333A424.661333 424.661333 0 0 1 512 938.666667C276.352 938.666667 85.333333 747.648 85.333333 512S276.352 85.333333 512 85.333333s426.666667 191.018667 426.666667 426.666667v64a149.333333 149.333333 0 0 1-272.896 83.882667A213.333333 213.333333 0 1 1 640 341.333333h85.333333v234.666667a64 64 0 0 0 128 0V512z m-341.333333-128a128 128 0 1 0 0 256 128 128 0 0 0 0-256z" /></svg>