<?xml version="1.0" standalone="no"?>
<!DOCTYPE svg PUBLIC "-//W3C//DTD SVG 1.1//EN" "http://www.w3.org/Graphics/SVG/1.1/DTD/svg11.dtd">
<svg class="icon" style="width: 1em;height: 1em;vertical-align: middle;fill: currentColor;overflow: hidden;" viewBox="0 0 1024 1024" version="1.1" xmlns="http://www.w3.org/2000/svg"><path d="M895.872 127.658667L896 896.341333a42.666667 42.666667 0 0 1-42.368 42.325334H170.368A42.368 42.368 0 0 1 128 896.341333V127.658667A42.666667 42.666667 0 0 1 170.368 85.333333h683.093333c23.424 0 42.410667 18.944 42.410667 42.325334zM384 554.666667V384a42.666667 42.666667 0 1 1 85.333333 0v170.666667a42.666667 42.666667 0 0 0 85.333334 0V384a128 128 0 0 0-256 0v170.666667a213.333333 213.333333 0 0 0 426.666666 0V341.333333h-85.333333v213.333334a128 128 0 0 1-256 0z" /></svg>