<?xml version="1.0" standalone="no"?>
<!DOCTYPE svg PUBLIC "-//W3C//DTD SVG 1.1//EN" "http://www.w3.org/Graphics/SVG/1.1/DTD/svg11.dtd">
<svg class="icon" style="width: 1em;height: 1em;vertical-align: middle;fill: currentColor;overflow: hidden;" viewBox="0 0 1024 1024" version="1.1" xmlns="http://www.w3.org/2000/svg"><path d="M597.333333 85.333333a42.666667 42.666667 0 0 1 42.666667 42.666667v42.666667h128a42.666667 42.666667 0 0 1 42.666667 42.666666v264.533334L640 341.333333v128h-42.666667c-91.392 0-170.666667 76.373333-170.666666 170.666667v128h85.333333v-128c0-44.8 40.533333-85.333333 85.333333-85.333333h42.666667v128l170.666667-136.533334V896a42.666667 42.666667 0 0 1-42.666667 42.666667H256a42.666667 42.666667 0 0 1-42.666667-42.666667V213.333333a42.666667 42.666667 0 0 1 42.666667-42.666666h128V128a42.666667 42.666667 0 0 1 42.666667-42.666667h170.666666z" /></svg>