<?xml version="1.0" standalone="no"?>
<!DOCTYPE svg PUBLIC "-//W3C//DTD SVG 1.1//EN" "http://www.w3.org/Graphics/SVG/1.1/DTD/svg11.dtd">
<svg class="icon" style="width: 1em;height: 1em;vertical-align: middle;fill: currentColor;overflow: hidden;" viewBox="0 0 1024 1024" version="1.1" xmlns="http://www.w3.org/2000/svg"><path d="M341.333333 810.666667H128a42.666667 42.666667 0 0 1-42.666667-42.666667V256a42.666667 42.666667 0 0 1 42.666667-42.666667h282.666667L360.874667 298.666667H170.666667v426.666666h170.666666v85.333334z m186.666667 0l49.792-85.333334H768V298.666667h-170.666667V213.333333h213.333334a42.666667 42.666667 0 0 1 42.666666 42.666667v512a42.666667 42.666667 0 0 1-42.666666 42.666667h-282.666667zM896 384h85.333333v256h-85.333333V384z m-384 85.333333h128l-213.333333 341.333334v-256H298.666667l213.333333-341.333334v256z" /></svg>