<?xml version="1.0" standalone="no"?>
<!DOCTYPE svg PUBLIC "-//W3C//DTD SVG 1.1//EN" "http://www.w3.org/Graphics/SVG/1.1/DTD/svg11.dtd">
<svg class="icon" style="width: 1em;height: 1em;vertical-align: middle;fill: currentColor;overflow: hidden;" viewBox="0 0 1024 1024" version="1.1" xmlns="http://www.w3.org/2000/svg"><path d="M597.333333 85.333333a42.666667 42.666667 0 0 1 42.666667 42.666667v42.666667h128a42.666667 42.666667 0 0 1 42.666667 42.666666v85.333334h-85.333334V256h-170.666666V170.666667h-85.333334v85.333333H298.666667v597.333333h426.666666v-128h85.333334v170.666667a42.666667 42.666667 0 0 1-42.666667 42.666667H256a42.666667 42.666667 0 0 1-42.666667-42.666667V213.333333a42.666667 42.666667 0 0 1 42.666667-42.666666h128V128a42.666667 42.666667 0 0 1 42.666667-42.666667h170.666666z m42.666667 256l213.333333 170.666667-213.333333 170.666667v-128h-42.666667c-44.970667 0-85.333333 40.533333-85.333333 85.333333v128h-85.333333v-128a170.666667 170.666667 0 0 1 170.666666-170.666667h42.666667V341.333333z" /></svg>