<?xml version="1.0" standalone="no"?>
<!DOCTYPE svg PUBLIC "-//W3C//DTD SVG 1.1//EN" "http://www.w3.org/Graphics/SVG/1.1/DTD/svg11.dtd">
<svg class="icon" style="width: 1em;height: 1em;vertical-align: middle;fill: currentColor;overflow: hidden;" viewBox="0 0 1024 1024" version="1.1" xmlns="http://www.w3.org/2000/svg"><path d="M746.666667 85.333333a192 192 0 0 1 125.909333 336.938667A383.573333 383.573333 0 0 1 896 554.666667 384 384 0 1 1 151.466667 422.272a192 192 0 1 1 289.749333-245.077333 386.133333 386.133333 0 0 1 141.653333 0A191.744 191.744 0 0 1 746.666667 85.333333zM426.666667 554.666667H341.333333a170.666667 170.666667 0 0 0 341.12 8.533333L682.666667 554.666667h-85.333334a85.333333 85.333333 0 0 1-170.453333 6.4L426.666667 554.666667z" /></svg>