<?xml version="1.0" standalone="no"?>
<!DOCTYPE svg PUBLIC "-//W3C//DTD SVG 1.1//EN" "http://www.w3.org/Graphics/SVG/1.1/DTD/svg11.dtd">
<svg class="icon" style="width: 1em;height: 1em;vertical-align: middle;fill: currentColor;overflow: hidden;" viewBox="0 0 1024 1024" version="1.1" xmlns="http://www.w3.org/2000/svg"><path d="M317.568 228.266667c27.264 0 52.48 2.133333 75.52 8.448a163.413333 163.413333 0 0 1 58.752 23.210666c16.810667 10.538667 29.397333 25.344 37.76 44.330667 8.405333 18.986667 12.586667 42.24 12.586667 67.541333 0 29.568-6.272 54.869333-20.949334 73.856-12.586667 19.029333-33.578667 35.882667-58.752 48.554667 35.669333 10.581333 62.933333 29.568 79.701334 54.869333 16.810667 25.344 27.306667 57.002667 27.306666 92.885334 0 29.568-6.314667 54.869333-16.810666 75.989333-10.496 21.12-27.264 40.106667-46.165334 52.778667a216.661333 216.661333 0 0 1-67.114666 29.525333c-25.173333 6.357333-50.346667 10.581333-75.52 10.581333H42.666667V228.266667h274.901333z m-16.810667 236.373333c23.082667 0 41.984-6.314667 56.661334-16.853333 14.677333-10.538667 20.992-29.568 20.992-52.778667 0-12.672-2.133333-25.344-6.314667-33.749333-4.181333-8.448-10.496-14.805333-18.858667-21.12-8.405333-4.224-16.810667-8.448-27.306666-10.538667-10.496-2.133333-20.949333-2.133333-33.578667-2.133333H170.666667v137.216h130.133333z m6.314667 249.088c12.586667 0 25.173333-2.133333 35.669333-4.224a73.386667 73.386667 0 0 0 29.354667-12.672 75.093333 75.093333 0 0 0 20.992-23.210667c4.181333-10.538667 8.405333-23.210667 8.405333-37.973333 0-29.568-8.405333-50.688-25.173333-65.450667-16.810667-12.672-39.893333-18.986667-67.157333-18.986666H170.666667v162.56h136.405333z m404.992-2.133333c16.768 16.896 41.941333 25.344 75.52 25.344 23.082667 0 44.074667-6.314667 60.842667-16.853334 16.810667-12.672 27.306667-25.344 31.488-38.016h102.826666c-16.810667 50.645333-41.984 86.528-75.52 109.738667-33.621333 21.12-73.472 33.792-121.728 33.792a245.461333 245.461333 0 0 1-90.24-16.896 167.68 167.68 0 0 1-67.157333-46.421333 167.68 167.68 0 0 1-41.941333-69.674667c-10.496-27.434667-14.72-56.96-14.72-90.752 0-31.658667 4.224-61.184 14.72-88.661333a227.84 227.84 0 0 1 44.032-71.765334c18.901333-18.986667 41.984-35.84 67.157333-46.421333a234.24 234.24 0 0 1 88.149333-16.896c35.669333 0 67.157333 6.357333 94.421334 21.12 27.306667 14.762667 48.256 31.658667 65.066666 57.002667a256.426667 256.426667 0 0 1 37.76 80.213333c4.181333 29.525333 6.272 59.093333 4.181334 92.842667H682.666667c0 33.792 12.586667 65.450667 29.397333 82.346666z m132.181333-221.610667c-14.677333-14.762667-37.76-23.210667-65.066666-23.210667a99.84 99.84 0 0 0-46.165334 10.538667c-12.586667 6.357333-20.949333 14.805333-29.354666 23.253333a56.405333 56.405333 0 0 0-14.677334 29.525334c-2.133333 10.581333-4.224 18.986667-4.224 27.434666h188.842667c-4.181333-31.658667-14.677333-52.736-29.354667-67.541333zM659.584 268.373333h235.008v57.002667H659.626667V268.373333z" /></svg>