<?xml version="1.0" standalone="no"?>
<!DOCTYPE svg PUBLIC "-//W3C//DTD SVG 1.1//EN" "http://www.w3.org/Graphics/SVG/1.1/DTD/svg11.dtd">
<svg class="icon" style="width: 1em;height: 1em;vertical-align: middle;fill: currentColor;overflow: hidden;" viewBox="0 0 1024 1024" version="1.1" xmlns="http://www.w3.org/2000/svg"><path d="M512 85.333333c235.648 0 426.666667 191.018667 426.666667 426.666667s-191.018667 426.666667-426.666667 426.666667S85.333333 747.648 85.333333 512 276.352 85.333333 512 85.333333z m0 170.666667a256 256 0 1 0 0 512 256 256 0 0 0 0-512z m0 74.666667a106.666667 106.666667 0 0 1 80.213333 176.981333c24.106667 19.456 39.253333 47.658667 39.253334 79.018667 0 58.88-53.504 106.666667-119.466667 106.666666-65.962667 0-119.466667-47.786667-119.466667-106.666666 0-31.36 15.146667-59.562667 39.253334-79.061334A106.666667 106.666667 0 0 1 512 330.666667z m0 213.333333c-32.128 0-55.466667 20.821333-55.466667 42.666667s23.338667 42.666667 55.466667 42.666666 55.466667-20.821333 55.466667-42.666666-23.338667-42.666667-55.466667-42.666667z m0-149.333333a42.666667 42.666667 0 1 0 0 85.333333 42.666667 42.666667 0 0 0 0-85.333333z" /></svg>