<?xml version="1.0" standalone="no"?>
<!DOCTYPE svg PUBLIC "-//W3C//DTD SVG 1.1//EN" "http://www.w3.org/Graphics/SVG/1.1/DTD/svg11.dtd">
<svg class="icon" style="width: 1em;height: 1em;vertical-align: middle;fill: currentColor;overflow: hidden;" viewBox="0 0 1024 1024" version="1.1" xmlns="http://www.w3.org/2000/svg"><path d="M789.333333 384c42.666667 45.226667 64 102.144 64 170.666667 0 147.882667-157.866667 182.442667-234.666666 384-28.458667-24.533333-42.666667-60.074667-42.666667-106.666667 0-148.565333 213.333333-225.706667 213.333333-448z m-170.666666-170.666667c51.2 52.821333 76.8 109.738667 76.8 170.666667 0 211.242667-257.92 242.858667-204.8 554.666667C419.541333 889.173333 384 818.048 384 725.333333c0-141.866667 234.666667-256 234.666667-512zM426.666667 42.666667c56.874667 71.125333 85.333333 135.125333 85.333333 192 0 266.666667-362.666667 350.805333-170.666667 704-111.616-24.746667-192-128-192-256C149.333333 405.333333 426.666667 362.666667 426.666667 42.666667z" /></svg>