<?xml version="1.0" standalone="no"?>
<!DOCTYPE svg PUBLIC "-//W3C//DTD SVG 1.1//EN" "http://www.w3.org/Graphics/SVG/1.1/DTD/svg11.dtd">
<svg class="icon" style="width: 1em;height: 1em;vertical-align: middle;fill: currentColor;overflow: hidden;" viewBox="0 0 1024 1024" version="1.1" xmlns="http://www.w3.org/2000/svg"><path d="M704 85.333333A234.666667 234.666667 0 0 1 938.666667 320V426.666667a127.573333 127.573333 0 0 1-42.666667 95.36V725.333333a128.042667 128.042667 0 0 1-85.333333 120.704V896a42.666667 42.666667 0 0 1-42.666667 42.666667H256a42.666667 42.666667 0 0 1-42.666667-42.666667v-49.92A128.042667 128.042667 0 0 1 128 725.333333V256a170.666667 170.666667 0 0 1 170.666667-170.666667h405.333333z m-298.666667 384H213.333333v256a42.666667 42.666667 0 0 0 37.674667 42.368L256 768h512a42.666667 42.666667 0 0 0 42.368-37.674667L810.666667 725.333333v-170.666666h-257.536A149.333333 149.333333 0 0 1 405.333333 682.666667H256v-85.333334h149.333333a64 64 0 0 0 63.701334-57.856L469.333333 533.333333a64 64 0 0 0-57.856-63.701333L405.333333 469.333333z m298.666667-298.666666H298.666667a85.333333 85.333333 0 0 0-85.12 78.933333L213.333333 256v128h192a149.333333 149.333333 0 0 1 134.954667 85.333333H810.666667a42.666667 42.666667 0 0 0 42.368-37.674666L853.333333 426.666667V320a149.333333 149.333333 0 0 0-141.141333-149.12L704 170.666667z" /></svg>