<?xml version="1.0" standalone="no"?>
<!DOCTYPE svg PUBLIC "-//W3C//DTD SVG 1.1//EN" "http://www.w3.org/Graphics/SVG/1.1/DTD/svg11.dtd">
<svg class="icon" style="width: 1em;height: 1em;vertical-align: middle;fill: currentColor;overflow: hidden;" viewBox="0 0 1024 1024" version="1.1" xmlns="http://www.w3.org/2000/svg"><path d="M298.666667 213.333333V85.333333a42.666667 42.666667 0 0 1 42.666666-42.666666h341.333334a42.666667 42.666667 0 0 1 42.666666 42.666666v128h170.666667a42.666667 42.666667 0 0 1 42.666667 42.666667v597.333333a42.666667 42.666667 0 0 1-42.666667 42.666667H128a42.666667 42.666667 0 0 1-42.666667-42.666667V256a42.666667 42.666667 0 0 1 42.666667-42.666667h170.666667z m384 426.666667h-128v42.666667h-85.333334v-42.666667H341.333333v170.666667h341.333334v-170.666667zM341.333333 298.666667v256h128v-42.666667h85.333334v42.666667h128V298.666667H341.333333z m-85.333333 256V298.666667H170.666667v256h85.333333z m512 0h85.333333V298.666667h-85.333333v256zM256 640H170.666667v170.666667h85.333333v-170.666667z m512 0v170.666667h85.333333v-170.666667h-85.333333zM384 128v85.333333h256V128H384z" /></svg>