<?xml version="1.0" standalone="no"?>
<!DOCTYPE svg PUBLIC "-//W3C//DTD SVG 1.1//EN" "http://www.w3.org/Graphics/SVG/1.1/DTD/svg11.dtd">
<svg class="icon" style="width: 1em;height: 1em;vertical-align: middle;fill: currentColor;overflow: hidden;" viewBox="0 0 1024 1024" version="1.1" xmlns="http://www.w3.org/2000/svg"><path d="M659.456 412.928l-6.058667-6.058667a233.6 233.6 0 0 0-101.973333-57.557333c-124.032-33.194667-243.157333 37.077333-276.992 163.413333-1.834667 6.826667-2.816 14.506667-4.437333 33.749334-6.570667 79.786667-25.344 139.306667-76.8 199.68 96.426667 37.888 210.688 64.597333 297.557333 64.597333a234.88 234.88 0 0 0 226.56-173.994667 234.538667 234.538667 0 0 0-57.856-223.829333zM567.04 265.216l210.730667-163.882667a42.666667 42.666667 0 0 1 56.32 3.498667l127.786666 127.744a42.666667 42.666667 0 0 1 3.498667 56.362667l-163.84 210.688a320.213333 320.213333 0 0 1-310.741333 396.458666C341.333333 896.085333 149.333333 832 42.666667 768c169.813333-128 130.005333-205.226667 149.333333-277.333333 45.141333-168.533333 206.592-266.965333 374.997333-225.450667z m145.621333 80.170667c2.773333 2.688 5.546667 5.461333 8.234667 8.277333l48.426667 48.384 105.6-135.765333-74.496-74.496-135.765334 105.6 48 48z" /></svg>