<?xml version="1.0" standalone="no"?>
<!DOCTYPE svg PUBLIC "-//W3C//DTD SVG 1.1//EN" "http://www.w3.org/Graphics/SVG/1.1/DTD/svg11.dtd">
<svg class="icon" style="width: 1em;height: 1em;vertical-align: middle;fill: currentColor;overflow: hidden;" viewBox="0 0 1024 1024" version="1.1" xmlns="http://www.w3.org/2000/svg"><path d="M341.333333 853.333333v-213.333333h85.333334v213.333333h384v-298.666666H213.333333v298.666666h128z m-170.666666-384h682.666666V341.333333h-256V170.666667h-170.666666v170.666666H170.666667v128zM128 896v-341.333333H85.333333V298.666667a42.666667 42.666667 0 0 1 42.666667-42.666667h213.333333V128a42.666667 42.666667 0 0 1 42.666667-42.666667h256a42.666667 42.666667 0 0 1 42.666667 42.666667v128h213.333333a42.666667 42.666667 0 0 1 42.666667 42.666667v256h-42.666667v341.333333a42.666667 42.666667 0 0 1-42.666667 42.666667H170.666667a42.666667 42.666667 0 0 1-42.666667-42.666667z" /></svg>