<?xml version="1.0" standalone="no"?>
<!DOCTYPE svg PUBLIC "-//W3C//DTD SVG 1.1//EN" "http://www.w3.org/Graphics/SVG/1.1/DTD/svg11.dtd">
<svg class="icon" style="width: 1em;height: 1em;vertical-align: middle;fill: currentColor;overflow: hidden;" viewBox="0 0 1024 1024" version="1.1" xmlns="http://www.w3.org/2000/svg"><path d="M566.997333 265.216l210.730667-163.882667a42.666667 42.666667 0 0 1 56.32 3.498667l127.786667 127.744a42.666667 42.666667 0 0 1 3.498666 56.362667l-163.84 210.688a320.213333 320.213333 0 0 1-310.741333 396.458666C341.333333 896.085333 149.333333 832 42.666667 768c169.813333-128 130.005333-205.226667 149.333333-277.333333 45.141333-168.533333 206.592-266.965333 374.997333-225.450667z m145.621334 80.170667c2.773333 2.688 5.546667 5.461333 8.234666 8.277333l48.426667 48.384 105.6-135.765333-74.496-74.496-135.765333 105.6 48 48z" /></svg>