<?xml version="1.0" standalone="no"?>
<!DOCTYPE svg PUBLIC "-//W3C//DTD SVG 1.1//EN" "http://www.w3.org/Graphics/SVG/1.1/DTD/svg11.dtd">
<svg class="icon" style="width: 1em;height: 1em;vertical-align: middle;fill: currentColor;overflow: hidden;" viewBox="0 0 1024 1024" version="1.1" xmlns="http://www.w3.org/2000/svg"><path d="M853.333333 469.333333V341.333333h-256V170.666667h-170.666666v170.666666H170.666667v128h682.666666z m42.666667 85.333334v341.333333a42.666667 42.666667 0 0 1-42.666667 42.666667H426.666667v-256H341.333333v256H170.666667a42.666667 42.666667 0 0 1-42.666667-42.666667v-341.333333H85.333333V298.666667a42.666667 42.666667 0 0 1 42.666667-42.666667h213.333333V128a42.666667 42.666667 0 0 1 42.666667-42.666667h256a42.666667 42.666667 0 0 1 42.666667 42.666667v128h213.333333a42.666667 42.666667 0 0 1 42.666667 42.666667v256h-42.666667z" /></svg>