<?xml version="1.0" standalone="no"?>
<!DOCTYPE svg PUBLIC "-//W3C//DTD SVG 1.1//EN" "http://www.w3.org/Graphics/SVG/1.1/DTD/svg11.dtd">
<svg class="icon" style="width: 1em;height: 1em;vertical-align: middle;fill: currentColor;overflow: hidden;" viewBox="0 0 1024 1024" version="1.1" xmlns="http://www.w3.org/2000/svg"><path d="M896 853.333333h85.333333v85.333334H42.666667v-85.333334h85.333333V128a42.666667 42.666667 0 0 1 42.666667-42.666667h682.666666a42.666667 42.666667 0 0 1 42.666667 42.666667v725.333333z m-85.333333 0V170.666667H213.333333v682.666666h597.333334zM341.333333 469.333333h128v85.333334H341.333333v-85.333334z m0-170.666666h128v85.333333H341.333333V298.666667z m0 341.333333h128v85.333333H341.333333v-85.333333z m213.333334 0h128v85.333333h-128v-85.333333z m0-170.666667h128v85.333334h-128v-85.333334z m0-170.666666h128v85.333333h-128V298.666667z" /></svg>