<?xml version="1.0" standalone="no"?>
<!DOCTYPE svg PUBLIC "-//W3C//DTD SVG 1.1//EN" "http://www.w3.org/Graphics/SVG/1.1/DTD/svg11.dtd">
<svg class="icon" style="width: 1em;height: 1em;vertical-align: middle;fill: currentColor;overflow: hidden;" viewBox="0 0 1024 1024" version="1.1" xmlns="http://www.w3.org/2000/svg"><path d="M661.333333 85.333333a149.333333 149.333333 0 0 1 146.645334 177.621334l-0.64 2.816a192.085333 192.085333 0 0 1 12.928 359.594666l-46.336 277.632a42.666667 42.666667 0 0 1-42.069334 35.669334H292.138667a42.666667 42.666667 0 0 1-42.069334-35.669334l-43.904-263.253333a128 128 0 0 1-35.370666-248.490667L170.666667 384a256 256 0 0 1 365.866666-231.253333A149.034667 149.034667 0 0 1 661.333333 85.333333zM469.333333 640H384v213.333333h85.333333v-213.333333z m170.666667 0h-85.333333v213.333333h85.333333v-213.333333z m106.666667-85.333333a106.666667 106.666667 0 1 0-40.789334-205.226667l-7.466666 3.456a85.333333 85.333333 0 0 1-113.621334-34.304l-2.986666-5.845333A170.666667 170.666667 0 0 0 426.666667 213.333333C335.274667 213.333333 260.650667 285.184 256.213333 374.058667L256 382.464l0.128 7.253333a85.333333 85.333333 0 0 1-50.602667 79.488l-6.4 2.517334A42.709333 42.709333 0 0 0 213.333333 554.666667h533.333334z" /></svg>