<?xml version="1.0" standalone="no"?>
<!DOCTYPE svg PUBLIC "-//W3C//DTD SVG 1.1//EN" "http://www.w3.org/Graphics/SVG/1.1/DTD/svg11.dtd">
<svg class="icon" style="width: 1em;height: 1em;vertical-align: middle;fill: currentColor;overflow: hidden;" viewBox="0 0 1024 1024" version="1.1" xmlns="http://www.w3.org/2000/svg"><path d="M661.333333 85.333333a149.333333 149.333333 0 0 1 146.645334 177.621334l-0.64 2.816a192.085333 192.085333 0 0 1 12.928 359.594666l-46.336 277.632a42.666667 42.666667 0 0 1-42.069334 35.669334H292.138667a42.666667 42.666667 0 0 1-42.069334-35.669334l-43.904-263.253333a128 128 0 0 1-35.370666-248.490667L170.666667 384a256 256 0 0 1 365.824-231.296A149.162667 149.162667 0 0 1 661.333333 85.333333zM384 640H292.693333l35.584 213.333333H384v-213.333333z m170.666667 0h-85.333334v213.333333h85.333334v-213.333333z m176.597333 0H640v213.333333h55.68l35.584-213.333333zM426.666667 213.333333C335.274667 213.333333 260.650667 285.184 256.213333 374.058667L256 382.464l0.128 7.253333a85.333333 85.333333 0 0 1-50.602667 79.488l-6.4 2.517334A42.709333 42.709333 0 0 0 213.333333 554.666667h533.333334a106.666667 106.666667 0 1 0-40.789334-205.226667l-7.466666 3.456a85.333333 85.333333 0 0 1-113.621334-34.304l-2.986666-5.845333A170.666667 170.666667 0 0 0 426.666667 213.333333z m234.666666-42.666666a64 64 0 0 0-54.912 31.104 256.256 256.256 0 0 1 52.906667 75.264 189.866667 189.866667 0 0 1 61.696-19.328A64 64 0 0 0 661.333333 170.666667z" /></svg>