<?xml version="1.0" standalone="no"?>
<!DOCTYPE svg PUBLIC "-//W3C//DTD SVG 1.1//EN" "http://www.w3.org/Graphics/SVG/1.1/DTD/svg11.dtd">
<svg class="icon" style="width: 1em;height: 1em;vertical-align: middle;fill: currentColor;overflow: hidden;" viewBox="0 0 1024 1024" version="1.1" xmlns="http://www.w3.org/2000/svg"><path d="M725.333333 128h170.666667a42.666667 42.666667 0 0 1 42.666667 42.666667v682.666666a42.666667 42.666667 0 0 1-42.666667 42.666667H128a42.666667 42.666667 0 0 1-42.666667-42.666667V170.666667a42.666667 42.666667 0 0 1 42.666667-42.666667h170.666667V42.666667h85.333333v85.333333h256V42.666667h85.333333v85.333333zM170.666667 384v426.666667h682.666666V384H170.666667z m85.333333 85.333333h85.333333v85.333334H256v-85.333334z m0 170.666667h85.333333v85.333333H256v-85.333333z m170.666667-170.666667h341.333333v85.333334h-341.333333v-85.333334z m0 170.666667h213.333333v85.333333h-213.333333v-85.333333z" /></svg>