<?xml version="1.0" standalone="no"?>
<!DOCTYPE svg PUBLIC "-//W3C//DTD SVG 1.1//EN" "http://www.w3.org/Graphics/SVG/1.1/DTD/svg11.dtd">
<svg class="icon" style="width: 1em;height: 1em;vertical-align: middle;fill: currentColor;overflow: hidden;" viewBox="0 0 1024 1024" version="1.1" xmlns="http://www.w3.org/2000/svg"><path d="M810.666667 853.333333H213.333333v42.666667a42.666667 42.666667 0 0 1-42.666666 42.666667H128a42.666667 42.666667 0 0 1-42.666667-42.666667V469.333333l105.813334-246.954666A85.333333 85.333333 0 0 1 269.653333 170.666667h484.693334a85.333333 85.333333 0 0 1 78.421333 51.712L938.666667 469.333333v426.666667a42.666667 42.666667 0 0 1-42.666667 42.666667h-42.666667a42.666667 42.666667 0 0 1-42.666666-42.666667v-42.666667z m42.666666-298.666666H170.666667v213.333333h682.666666v-213.333333zM178.176 469.333333h667.648l-91.434667-213.333333H269.653333l-91.434666 213.333333zM277.333333 725.333333a64 64 0 1 1 0-128 64 64 0 0 1 0 128z m469.333334 0a64 64 0 1 1 0-128 64 64 0 0 1 0 128z" /></svg>