<?xml version="1.0" standalone="no"?>
<!DOCTYPE svg PUBLIC "-//W3C//DTD SVG 1.1//EN" "http://www.w3.org/Graphics/SVG/1.1/DTD/svg11.dtd">
<svg class="icon" style="width: 1em;height: 1em;vertical-align: middle;fill: currentColor;overflow: hidden;" viewBox="0 0 1024 1024" version="1.1" xmlns="http://www.w3.org/2000/svg"><path d="M604.672 128c22.613333 0 44.330667 8.96 60.330667 25.002667l205.994666 205.994666A85.333333 85.333333 0 0 1 896 419.328V725.333333h85.333333v85.333334h-346.709333a170.752 170.752 0 0 1-330.581333 0H128a42.666667 42.666667 0 0 1-42.666667-42.666667V213.333333a85.333333 85.333333 0 0 1 85.333334-85.333333h434.005333zM469.333333 682.666667a85.333333 85.333333 0 1 0-0.042666 170.624A85.333333 85.333333 0 0 0 469.333333 682.666667z m135.338667-469.333334H170.666667v512h133.376a170.752 170.752 0 0 1 330.581333 0H810.666667V419.328L604.672 213.333333zM597.333333 298.666667v256H256V298.666667h341.333333z m-85.333333 85.333333H341.333333v85.333333h170.666667V384z" /></svg>