<?xml version="1.0" standalone="no"?>
<!DOCTYPE svg PUBLIC "-//W3C//DTD SVG 1.1//EN" "http://www.w3.org/Graphics/SVG/1.1/DTD/svg11.dtd">
<svg class="icon" style="width: 1em;height: 1em;vertical-align: middle;fill: currentColor;overflow: hidden;" viewBox="0 0 1024 1024" version="1.1" xmlns="http://www.w3.org/2000/svg"><path d="M896 128a42.666667 42.666667 0 0 1 42.666667 42.666667v597.333333a42.666667 42.666667 0 0 1-42.666667 42.666667H275.413333L85.333333 960V170.666667a42.666667 42.666667 0 0 1 42.666667-42.666667h768zM467.712 345.6l-19.072-29.354667C372.394667 349.312 320 416.213333 320 490.88c0 42.453333 11.818667 68.650667 33.792 91.989333 13.824 14.677333 35.712 25.130667 58.624 25.130667a74.666667 74.666667 0 0 0 74.666667-74.666667c0-39.253333-30.336-70.869333-68.864-74.453333a88.32 88.32 0 0 0-20.437334 0.426667v-3.925334c0.256-18.005333 3.925333-69.674667 62.037334-105.216l7.893333-4.565333-19.072-29.354667z m194.261333-29.354667c-76.245333 33.066667-128.64 99.968-128.64 174.634667 0 42.453333 11.818667 68.650667 33.792 91.989333 13.824 14.677333 35.712 25.130667 58.624 25.130667a74.666667 74.666667 0 0 0 74.666667-74.666667c0-39.253333-30.336-70.869333-68.864-74.453333a88.32 88.32 0 0 0-20.437333 0.426667c0-13.354667-1.237333-75.178667 69.930666-113.706667z" /></svg>