<?xml version="1.0" standalone="no"?>
<!DOCTYPE svg PUBLIC "-//W3C//DTD SVG 1.1//EN" "http://www.w3.org/Graphics/SVG/1.1/DTD/svg11.dtd">
<svg class="icon" style="width: 1em;height: 1em;vertical-align: middle;fill: currentColor;overflow: hidden;" viewBox="0 0 1024 1024" version="1.1" xmlns="http://www.w3.org/2000/svg"><path d="M85.333333 512C85.333333 276.352 276.352 85.333333 512 85.333333s426.666667 191.018667 426.666667 426.666667-191.018667 426.666667-426.666667 426.666667H85.333333l124.970667-124.970667A425.344 425.344 0 0 1 85.333333 512z m205.994667 341.333333H512a341.333333 341.333333 0 1 0-341.333333-341.333333c0 91.818667 36.309333 177.706667 99.968 241.365333l60.330666 60.330667-39.637333 39.637333zM469.333333 256h85.333334v512h-85.333334V256zM298.666667 384h85.333333v256H298.666667V384z m341.333333 0h85.333333v256h-85.333333V384z" /></svg>