<?xml version="1.0" standalone="no"?>
<!DOCTYPE svg PUBLIC "-//W3C//DTD SVG 1.1//EN" "http://www.w3.org/Graphics/SVG/1.1/DTD/svg11.dtd">
<svg class="icon" style="width: 1em;height: 1em;vertical-align: middle;fill: currentColor;overflow: hidden;" viewBox="0 0 1024 1024" version="1.1" xmlns="http://www.w3.org/2000/svg"><path d="M512 85.333333c235.648 0 426.666667 191.018667 426.666667 426.666667s-191.018667 426.666667-426.666667 426.666667a424.832 424.832 0 0 1-200.874667-50.133334L85.333333 938.666667l50.176-225.706667A425.216 425.216 0 0 1 85.333333 512C85.333333 276.352 276.352 85.333333 512 85.333333z m0 85.333334a341.333333 341.333333 0 0 0-301.226667 502.016l14.933334 27.904-27.989334 125.696 125.781334-27.904 27.861333 14.890666A339.2 339.2 0 0 0 512 853.333333a341.333333 341.333333 0 0 0 0-682.666666z m0 128a128 128 0 0 1 128 128v42.666666h42.666667v213.333334H341.333333v-213.333334h42.666667v-42.666666a128 128 0 0 1 128-128z m85.333333 256h-170.666666v42.666666h170.666666v-42.666666z m-85.333333-170.666667c-23.552 0-42.666667 19.2-42.666667 42.666667v42.666666h85.333334v-42.666666a42.666667 42.666667 0 0 0-42.666667-42.666667z" /></svg>