<?xml version="1.0" standalone="no"?>
<!DOCTYPE svg PUBLIC "-//W3C//DTD SVG 1.1//EN" "http://www.w3.org/Graphics/SVG/1.1/DTD/svg11.dtd">
<svg class="icon" style="width: 1em;height: 1em;vertical-align: middle;fill: currentColor;overflow: hidden;" viewBox="0 0 1024 1024" version="1.1" xmlns="http://www.w3.org/2000/svg"><path d="M896 128a42.666667 42.666667 0 0 1 42.666667 42.666667v597.333333a42.666667 42.666667 0 0 1-42.666667 42.666667H275.413333L85.333333 960V170.666667a42.666667 42.666667 0 0 1 42.666667-42.666667h768z m-42.666667 85.333333H170.666667v571.093334L245.888 725.333333H853.333333V213.333333z m-128 85.333334v341.333333h-85.333333V298.666667h85.333333z m-256 42.666666v85.290667L554.666667 426.666667v85.333333l-85.333334-0.042667V597.333333H384v-85.376L298.666667 512v-85.333333l85.333333-0.042667V341.333333h85.333333z" /></svg>