<?xml version="1.0" standalone="no"?>
<!DOCTYPE svg PUBLIC "-//W3C//DTD SVG 1.1//EN" "http://www.w3.org/Graphics/SVG/1.1/DTD/svg11.dtd">
<svg class="icon" style="width: 1em;height: 1em;vertical-align: middle;fill: currentColor;overflow: hidden;" viewBox="0 0 1024 1024" version="1.1" xmlns="http://www.w3.org/2000/svg"><path d="M275.413333 810.666667L85.333333 960V170.666667a42.666667 42.666667 0 0 1 42.666667-42.666667h768a42.666667 42.666667 0 0 1 42.666667 42.666667v597.333333a42.666667 42.666667 0 0 1-42.666667 42.666667H275.413333zM170.666667 784.426667L245.888 725.333333H853.333333V213.333333H170.666667v571.093334zM572.330667 469.333333l105.6 105.6-60.330667 60.330667L512 529.664 406.4 635.306667l-60.330667-60.330667L451.669333 469.333333 346.026667 363.733333l60.330666-60.330666L512 409.002667l105.6-105.6 60.330667 60.330666L572.330667 469.333333z" /></svg>