<?xml version="1.0" standalone="no"?>
<!DOCTYPE svg PUBLIC "-//W3C//DTD SVG 1.1//EN" "http://www.w3.org/Graphics/SVG/1.1/DTD/svg11.dtd">
<svg class="icon" style="width: 1em;height: 1em;vertical-align: middle;fill: currentColor;overflow: hidden;" viewBox="0 0 1024 1024" version="1.1" xmlns="http://www.w3.org/2000/svg"><path d="M896 128a42.666667 42.666667 0 0 1 42.666667 42.666667v682.666666a42.666667 42.666667 0 0 1-42.666667 42.666667H128a42.666667 42.666667 0 0 1-42.666667-42.666667V170.666667a42.666667 42.666667 0 0 1 42.666667-42.666667h768zM384 341.333333c-94.208 0-170.666667 76.458667-170.666667 170.666667s76.458667 170.666667 170.666667 170.666667c46.933333 0 89.6-19.2 120.661333-50.005334l-60.330666-60.330666a85.333333 85.333333 0 1 1 0.042666-120.618667l60.330667-60.330667A170.026667 170.026667 0 0 0 384 341.333333z m298.666667 0c-94.208 0-170.666667 76.458667-170.666667 170.666667a170.709333 170.709333 0 0 0 291.328 120.661333l-60.330667-60.330666a85.333333 85.333333 0 1 1 0.042667-120.618667l60.330667-60.330667A170.026667 170.026667 0 0 0 682.666667 341.333333z" /></svg>