<?xml version="1.0" standalone="no"?>
<!DOCTYPE svg PUBLIC "-//W3C//DTD SVG 1.1//EN" "http://www.w3.org/Graphics/SVG/1.1/DTD/svg11.dtd">
<svg class="icon" style="width: 1em;height: 1em;vertical-align: middle;fill: currentColor;overflow: hidden;" viewBox="0 0 1024 1024" version="1.1" xmlns="http://www.w3.org/2000/svg"><path d="M896 128a42.666667 42.666667 0 0 1 42.666667 42.666667v682.666666a42.666667 42.666667 0 0 1-42.666667 42.666667H128a42.666667 42.666667 0 0 1-42.666667-42.666667V170.666667a42.666667 42.666667 0 0 1 42.666667-42.666667h768z m-42.666667 85.333333H170.666667v597.333334h682.666666V213.333333zM384 341.333333c47.146667 0 89.813333 19.114667 120.704 50.048l-60.330667 60.330667a85.333333 85.333333 0 1 0-0.042666 120.618667l60.330666 60.330666A170.709333 170.709333 0 0 1 213.333333 512c0-94.208 76.458667-170.666667 170.666667-170.666667z m298.666667 0c47.146667 0 89.813333 19.114667 120.704 50.048l-60.330667 60.330667a85.333333 85.333333 0 1 0-0.042667 120.618667l60.330667 60.330666A170.709333 170.709333 0 0 1 512 512c0-94.208 76.458667-170.666667 170.666667-170.666667z" /></svg>