<?xml version="1.0" standalone="no"?>
<!DOCTYPE svg PUBLIC "-//W3C//DTD SVG 1.1//EN" "http://www.w3.org/Graphics/SVG/1.1/DTD/svg11.dtd">
<svg class="icon" style="width: 1em;height: 1em;vertical-align: middle;fill: currentColor;overflow: hidden;" viewBox="0 0 1024 1024" version="1.1" xmlns="http://www.w3.org/2000/svg"><path d="M704 563.285333L554.666667 662.826667v153.429333L819.072 640 704 563.285333zM627.072 512L512 435.285333 396.928 512 512 588.714667 627.072 512zM853.333333 463.744L780.928 512 853.333333 560.256V463.786667zM819.072 384L554.666667 207.744v153.429333l149.333333 99.541334L819.072 384zM320 460.714667L469.333333 361.173333V207.744L204.928 384 320 460.714667zM204.928 640L469.333333 816.256v-153.429333l-149.333333-99.541334L204.928 640zM170.666667 560.256L243.072 512 170.666667 463.744v96.512zM85.333333 384a42.666667 42.666667 0 0 1 18.986667-35.498667l384-256a42.666667 42.666667 0 0 1 47.36 0l384 256A42.666667 42.666667 0 0 1 938.666667 384v256a42.666667 42.666667 0 0 1-18.986667 35.498667l-384 256a42.666667 42.666667 0 0 1-47.36 0l-384-256A42.666667 42.666667 0 0 1 85.333333 640V384z" /></svg>