<?xml version="1.0" standalone="no"?>
<!DOCTYPE svg PUBLIC "-//W3C//DTD SVG 1.1//EN" "http://www.w3.org/Graphics/SVG/1.1/DTD/svg11.dtd">
<svg class="icon" style="width: 1em;height: 1em;vertical-align: middle;fill: currentColor;overflow: hidden;" viewBox="0 0 1024 1024" version="1.1" xmlns="http://www.w3.org/2000/svg"><path d="M298.666667 85.333333v853.333334H128V85.333333h170.666667z m85.333333 0h426.88C857.898667 85.333333 896 123.648 896 170.24v683.52c0 46.890667-38.101333 84.906667-85.12 84.906667H384V85.333333z m554.666667 170.666667h85.333333v170.666667h-85.333333V256z m0 256h85.333333v170.666667h-85.333333v-170.666667z m-298.666667 0a85.333333 85.333333 0 1 0 0-170.666667 85.333333 85.333333 0 0 0 0 170.666667z m-128 170.666667h256a128 128 0 0 0-256 0z" /></svg>