<?xml version="1.0" standalone="no"?>
<!DOCTYPE svg PUBLIC "-//W3C//DTD SVG 1.1//EN" "http://www.w3.org/Graphics/SVG/1.1/DTD/svg11.dtd">
<svg class="icon" style="width: 1em;height: 1em;vertical-align: middle;fill: currentColor;overflow: hidden;" viewBox="0 0 1024 1024" version="1.1" xmlns="http://www.w3.org/2000/svg"><path d="M128 85.333333h682.88C857.898667 85.333333 896 123.648 896 170.24v683.52c0 46.890667-38.101333 84.906667-85.12 84.906667H128V85.333333z m170.666667 85.333334H213.333333v682.666666h85.333334V170.666667z m85.333333 682.666666h426.666667V170.666667H384v682.666666z m85.333333-170.666666a128 128 0 0 1 256 0h-256z m128-170.666667a85.333333 85.333333 0 1 1 0-170.666667 85.333333 85.333333 0 0 1 0 170.666667z m341.333334-256h85.333333v170.666667h-85.333333V256z m0 256h85.333333v170.666667h-85.333333v-170.666667z" /></svg>