<?xml version="1.0" standalone="no"?>
<!DOCTYPE svg PUBLIC "-//W3C//DTD SVG 1.1//EN" "http://www.w3.org/Graphics/SVG/1.1/DTD/svg11.dtd">
<svg class="icon" style="width: 1em;height: 1em;vertical-align: middle;fill: currentColor;overflow: hidden;" viewBox="0 0 1024 1024" version="1.1" xmlns="http://www.w3.org/2000/svg"><path d="M512 85.333333c235.52 0 426.666667 191.146667 426.666667 426.666667s-191.146667 426.666667-426.666667 426.666667S85.333333 747.52 85.333333 512 276.48 85.333333 512 85.333333z m0 85.333334c-188.586667 0-341.333333 152.746667-341.333333 341.333333s152.746667 341.333333 341.333333 341.333333 341.333333-152.746667 341.333333-341.333333-152.746667-341.333333-341.333333-341.333333z m0 128c77.653333 0 145.621333 41.514667 182.954667 103.594666l-73.130667 43.904A128 128 0 1 0 512 640a127.914667 127.914667 0 0 0 109.781333-62.122667l73.173334 43.861334A213.290667 213.290667 0 0 1 298.666667 512c0-117.76 95.573333-213.333333 213.333333-213.333333z" /></svg>