<?xml version="1.0" standalone="no"?>
<!DOCTYPE svg PUBLIC "-//W3C//DTD SVG 1.1//EN" "http://www.w3.org/Graphics/SVG/1.1/DTD/svg11.dtd">
<svg class="icon" style="width: 1em;height: 1em;vertical-align: middle;fill: currentColor;overflow: hidden;" viewBox="0 0 1024 1024" version="1.1" xmlns="http://www.w3.org/2000/svg"><path d="M512 938.666667C276.48 938.666667 85.333333 747.52 85.333333 512S276.48 85.333333 512 85.333333s426.666667 191.146667 426.666667 426.666667-191.146667 426.666667-426.666667 426.666667z m0-213.333334c117.76 0 213.333333-95.573333 213.333333-213.333333a213.418667 213.418667 0 0 0-396.288-109.738667l73.173334 43.861334A127.872 127.872 0 0 1 512 384c70.741333 0 128 57.258667 128 128s-57.258667 128-128 128a127.914667 127.914667 0 0 1-109.824-62.165333l-73.130667 43.946666A213.376 213.376 0 0 0 512 725.333333z" /></svg>