<?xml version="1.0" standalone="no"?>
<!DOCTYPE svg PUBLIC "-//W3C//DTD SVG 1.1//EN" "http://www.w3.org/Graphics/SVG/1.1/DTD/svg11.dtd">
<svg class="icon" style="width: 1em;height: 1em;vertical-align: middle;fill: currentColor;overflow: hidden;" viewBox="0 0 1024 1024" version="1.1" xmlns="http://www.w3.org/2000/svg"><path d="M469.333333 896a64 64 0 0 0-128 0H128a42.666667 42.666667 0 0 1-42.666667-42.666667V170.666667a42.666667 42.666667 0 0 1 42.666667-42.666667h213.333333a64 64 0 0 0 128 0h426.666667a42.666667 42.666667 0 0 1 42.666667 42.666667v234.666666a106.666667 106.666667 0 1 0 0 213.333334V853.333333a42.666667 42.666667 0 0 1-42.666667 42.666667H469.333333zM405.333333 448a64 64 0 1 0 0-128 64 64 0 0 0 0 128z m0 256a64 64 0 1 0 0-128 64 64 0 0 0 0 128z" /></svg>