<?xml version="1.0" standalone="no"?>
<!DOCTYPE svg PUBLIC "-//W3C//DTD SVG 1.1//EN" "http://www.w3.org/Graphics/SVG/1.1/DTD/svg11.dtd">
<svg class="icon" style="width: 1em;height: 1em;vertical-align: middle;fill: currentColor;overflow: hidden;" viewBox="0 0 1024 1024" version="1.1" xmlns="http://www.w3.org/2000/svg"><path d="M896 597.333333v298.666667a42.666667 42.666667 0 0 1-42.666667 42.666667H170.666667a42.666667 42.666667 0 0 1-42.666667-42.666667v-298.666667a85.333333 85.333333 0 1 0 0-170.666666V128a42.666667 42.666667 0 0 1 42.666667-42.666667h682.666666a42.666667 42.666667 0 0 1 42.666667 42.666667v298.666667a85.333333 85.333333 0 1 0 0 170.666666zM384 256v85.333333h256V256H384z m0 426.666667v85.333333h256v-85.333333H384z" /></svg>