<?xml version="1.0" standalone="no"?>
<!DOCTYPE svg PUBLIC "-//W3C//DTD SVG 1.1//EN" "http://www.w3.org/Graphics/SVG/1.1/DTD/svg11.dtd">
<svg class="icon" style="width: 1em;height: 1em;vertical-align: middle;fill: currentColor;overflow: hidden;" viewBox="0 0 1024 1024" version="1.1" xmlns="http://www.w3.org/2000/svg"><path d="M597.333333 853.333333h-170.666666v85.333334H341.333333v-85.333334H213.333333a42.666667 42.666667 0 0 1-42.666666-42.666666v-128H85.333333v-85.333334h85.333334v-170.666666H85.333333V341.333333h85.333334V213.333333a42.666667 42.666667 0 0 1 42.666666-42.666666h128V85.333333h85.333334v85.333334h170.666666V85.333333h85.333334v85.333334h128a42.666667 42.666667 0 0 1 42.666666 42.666666v128h85.333334v85.333334h-85.333334v170.666666h85.333334v85.333334h-85.333334v128a42.666667 42.666667 0 0 1-42.666666 42.666666h-128v85.333334h-85.333334v-85.333334zM298.666667 298.666667v170.666666h170.666666V298.666667H298.666667z" /></svg>