<?xml version="1.0" standalone="no"?>
<!DOCTYPE svg PUBLIC "-//W3C//DTD SVG 1.1//EN" "http://www.w3.org/Graphics/SVG/1.1/DTD/svg11.dtd">
<svg class="icon" style="width: 1em;height: 1em;vertical-align: middle;fill: currentColor;overflow: hidden;" viewBox="0 0 1024 1024" version="1.1" xmlns="http://www.w3.org/2000/svg"><path d="M512 85.333333c235.52 0 426.666667 191.146667 426.666667 426.666667s-191.146667 426.666667-426.666667 426.666667S85.333333 747.52 85.333333 512 276.48 85.333333 512 85.333333z m0 85.333334c-188.373333 0-341.333333 152.96-341.333333 341.333333s152.96 341.333333 341.333333 341.333333 341.333333-152.96 341.333333-341.333333-152.96-341.333333-341.333333-341.333333z m0 85.333333c117.802667 0 213.333333 114.602667 213.333333 256s-95.530667 256-213.333333 256c-92.885333 0-171.904-71.253333-201.173333-170.666667l90.325333 0.042667C423.253333 648.362667 464.64 682.666667 512 682.666667c70.698667 0 128-76.373333 128-170.666667s-57.301333-170.666667-128-170.666667c-47.36 0-88.746667 34.346667-110.890667 85.333334H469.333333l-106.666666 128L256 426.666667h54.784C340.096 327.253333 419.114667 256 512 256z" /></svg>