<?xml version="1.0" standalone="no"?>
<!DOCTYPE svg PUBLIC "-//W3C//DTD SVG 1.1//EN" "http://www.w3.org/Graphics/SVG/1.1/DTD/svg11.dtd">
<svg class="icon" style="width: 1em;height: 1em;vertical-align: middle;fill: currentColor;overflow: hidden;" viewBox="0 0 1024 1024" version="1.1" xmlns="http://www.w3.org/2000/svg"><path d="M512 85.333333c235.52 0 426.666667 191.146667 426.666667 426.666667s-191.146667 426.666667-426.666667 426.666667S85.333333 747.52 85.333333 512 276.48 85.333333 512 85.333333z m0 170.666667C422.186667 256 345.344 322.56 313.898667 416.853333l-3.114667 9.813334H256l106.666667 128 106.666666-128H401.109333C423.253333 375.68 464.64 341.333333 512 341.333333c70.698667 0 128 76.373333 128 170.666667s-57.301333 170.666667-128 170.666667c-44.714667 0-84.096-30.592-107.008-76.928L401.152 597.333333H310.826667c29.226667 99.413333 108.288 170.666667 201.173333 170.666667 117.802667 0 213.333333-114.602667 213.333333-256s-95.530667-256-213.333333-256z" /></svg>