<?xml version="1.0" standalone="no"?>
<!DOCTYPE svg PUBLIC "-//W3C//DTD SVG 1.1//EN" "http://www.w3.org/Graphics/SVG/1.1/DTD/svg11.dtd">
<svg class="icon" style="width: 1em;height: 1em;vertical-align: middle;fill: currentColor;overflow: hidden;" viewBox="0 0 1024 1024" version="1.1" xmlns="http://www.w3.org/2000/svg"><path d="M512 85.333333c235.648 0 426.666667 191.018667 426.666667 426.666667s-191.018667 426.666667-426.666667 426.666667S85.333333 747.648 85.333333 512 276.352 85.333333 512 85.333333z m0 85.333334a341.333333 341.333333 0 1 0 0 682.666666 341.333333 341.333333 0 0 0 0-682.666666zM384 341.333333c47.146667 0 89.813333 19.114667 120.704 50.048l-60.330667 60.330667a85.333333 85.333333 0 1 0-0.042666 120.661333l60.330666 60.288A170.709333 170.709333 0 0 1 213.333333 512c0-94.208 76.458667-170.666667 170.666667-170.666667z m298.666667 0c47.146667 0 89.813333 19.114667 120.704 50.048l-60.330667 60.330667a85.333333 85.333333 0 1 0-0.042667 120.661333l60.330667 60.288A170.709333 170.709333 0 0 1 512 512c0-94.208 76.458667-170.666667 170.666667-170.666667z" /></svg>