<?xml version="1.0" standalone="no"?>
<!DOCTYPE svg PUBLIC "-//W3C//DTD SVG 1.1//EN" "http://www.w3.org/Graphics/SVG/1.1/DTD/svg11.dtd">
<svg class="icon" style="width: 1em;height: 1em;vertical-align: middle;fill: currentColor;overflow: hidden;" viewBox="0 0 1024 1024" version="1.1" xmlns="http://www.w3.org/2000/svg"><path d="M181.589333 242.005333l152.746667 152.618667a106.666667 106.666667 0 0 0 85.333333 159.829333L426.666667 554.666667h170.666666l3.84 0.341333a21.333333 21.333333 0 0 1 0 41.984L597.333333 597.333333H362.666667v85.333334H469.333333v85.333333h85.333334v-85.333333h42.666666c5.162667 0 10.24-0.384 15.232-1.066667l7.381334-1.322667 162.048 162.133334A424.917333 424.917333 0 0 1 512 938.666667C276.352 938.666667 85.333333 747.648 85.333333 512c0-102.4 36.096-196.437333 96.256-269.994667zM512 85.333333c235.648 0 426.666667 191.018667 426.666667 426.666667 0 102.4-36.096 196.437333-96.256 269.994667l-152.704-152.618667a106.666667 106.666667 0 0 0-85.333334-159.786667L597.333333 469.333333h-170.666666l-3.84-0.341333a21.333333 21.333333 0 0 1 0-41.984L426.666667 426.666667h234.666666V341.333333H554.666667V256h-85.333334v85.333333h-42.666666c-5.162667 0-10.24 0.384-15.189334 1.066667l-7.381333 1.322667-162.090667-162.133334A424.917333 424.917333 0 0 1 512 85.333333z" /></svg>