<?xml version="1.0" standalone="no"?>
<!DOCTYPE svg PUBLIC "-//W3C//DTD SVG 1.1//EN" "http://www.w3.org/Graphics/SVG/1.1/DTD/svg11.dtd">
<svg class="icon" style="width: 1em;height: 1em;vertical-align: middle;fill: currentColor;overflow: hidden;" viewBox="0 0 1024 1024" version="1.1" xmlns="http://www.w3.org/2000/svg"><path d="M512 85.333333c235.52 0 426.666667 191.146667 426.666667 426.666667s-191.146667 426.666667-426.666667 426.666667S85.333333 747.52 85.333333 512 276.48 85.333333 512 85.333333z m0 170.666667c-117.802667 0-213.333333 114.602667-213.333333 256s95.530667 256 213.333333 256 213.333333-114.602667 213.333333-256-95.530667-256-213.333333-256z m99.2 148.138667c18.005333 29.44 28.8 66.986667 28.8 107.861333 0 94.293333-57.301333 170.666667-128 170.666667-16.128 0-31.573333-3.968-45.781333-11.221334l-6.997334-3.925333 151.978667-263.381333zM512 341.333333c16.128 0 31.573333 3.968 45.781333 11.221334l6.997334 3.925333-151.978667 263.381333C394.794667 590.421333 384 552.874667 384 512c0-94.293333 57.301333-170.666667 128-170.666667z" /></svg>