<?xml version="1.0" standalone="no"?>
<!DOCTYPE svg PUBLIC "-//W3C//DTD SVG 1.1//EN" "http://www.w3.org/Graphics/SVG/1.1/DTD/svg11.dtd">
<svg class="icon" style="width: 1em;height: 1em;vertical-align: middle;fill: currentColor;overflow: hidden;" viewBox="0 0 1024 1024" version="1.1" xmlns="http://www.w3.org/2000/svg"><path d="M469.333333 298.666667V170.666667a42.666667 42.666667 0 0 1 42.666667-42.666667h384a42.666667 42.666667 0 0 1 42.666667 42.666667v682.666666a42.666667 42.666667 0 0 1-42.666667 42.666667H128a42.666667 42.666667 0 0 1-42.666667-42.666667V341.333333a42.666667 42.666667 0 0 1 42.666667-42.666666h341.333333z m-256 384v85.333333h213.333334v-85.333333H213.333333z m384 0v85.333333h213.333334v-85.333333h-213.333334z m0-128v85.333333h213.333334v-85.333333h-213.333334z m0-128v85.333333h213.333334v-85.333333h-213.333334z m-384 128v85.333333h213.333334v-85.333333H213.333333z" /></svg>