<?xml version="1.0" standalone="no"?>
<!DOCTYPE svg PUBLIC "-//W3C//DTD SVG 1.1//EN" "http://www.w3.org/Graphics/SVG/1.1/DTD/svg11.dtd">
<svg class="icon" style="width: 1em;height: 1em;vertical-align: middle;fill: currentColor;overflow: hidden;" viewBox="0 0 1024 1024" version="1.1" xmlns="http://www.w3.org/2000/svg"><path d="M170.666667 341.333333h682.666666v554.666667a42.666667 42.666667 0 0 1-42.666666 42.666667H213.333333a42.666667 42.666667 0 0 1-42.666666-42.666667V341.333333z m85.333333 85.333334v426.666666h512V426.666667H256z m128 85.333333h85.333333v256H384v-256z m170.666667 0h85.333333v256h-85.333333v-256zM298.666667 213.333333V128a42.666667 42.666667 0 0 1 42.666666-42.666667h341.333334a42.666667 42.666667 0 0 1 42.666666 42.666667v85.333333h213.333334v85.333334H85.333333V213.333333h213.333334z m85.333333-42.666666v42.666666h256V170.666667H384z" /></svg>