<?xml version="1.0" standalone="no"?>
<!DOCTYPE svg PUBLIC "-//W3C//DTD SVG 1.1//EN" "http://www.w3.org/Graphics/SVG/1.1/DTD/svg11.dtd">
<svg class="icon" style="width: 1em;height: 1em;vertical-align: middle;fill: currentColor;overflow: hidden;" viewBox="0 0 1024 1024" version="1.1" xmlns="http://www.w3.org/2000/svg"><path d="M810.666667 341.333333h85.333333a42.666667 42.666667 0 0 1 42.666667 42.666667v512a42.666667 42.666667 0 0 1-42.666667 42.666667h-341.333333a42.666667 42.666667 0 0 1-42.666667-42.666667v-42.666667H170.666667a42.666667 42.666667 0 0 1-42.666667-42.666666V128a42.666667 42.666667 0 0 1 42.666667-42.666667h597.333333a42.666667 42.666667 0 0 1 42.666667 42.666667v213.333333z m-85.333334 0V170.666667H213.333333v597.333333h298.666667V384a42.666667 42.666667 0 0 1 42.666667-42.666667h170.666666z m-128 85.333334v426.666666h256V426.666667h-256z" /></svg>