<?xml version="1.0" standalone="no"?>
<!DOCTYPE svg PUBLIC "-//W3C//DTD SVG 1.1//EN" "http://www.w3.org/Graphics/SVG/1.1/DTD/svg11.dtd">
<svg class="icon" style="width: 1em;height: 1em;vertical-align: middle;fill: currentColor;overflow: hidden;" viewBox="0 0 1024 1024" version="1.1" xmlns="http://www.w3.org/2000/svg"><path d="M509.866667 85.333333c235.648 0 426.666667 191.018667 426.666666 426.666667s-191.018667 426.666667-426.666666 426.666667a425.045333 425.045333 0 0 1-266.624-93.525334l-201.301334 25.173334 73.386667-195.669334A424.277333 424.277333 0 0 1 83.2 512c0-235.648 191.018667-426.666667 426.666667-426.666667z m0 85.333334a341.333333 341.333333 0 0 0-341.333334 341.333333c0 50.261333 10.837333 98.901333 31.488 143.445333l7.509334 16.213334-36.138667 96.426666 98.773333-12.330666 14.421334 12.672A339.626667 339.626667 0 0 0 509.866667 853.333333a341.333333 341.333333 0 0 0 0-682.666666zM341.333333 298.666667h161.706667c145.92 0 232.106667 83.456 236.373333 201.770666l0.128 9.173334v1.152c0 120.064-83.712 210.005333-227.712 214.4l-11.221333 0.170666H341.333333V298.666667h161.706667H341.333333z m163.456 104.874666h-47.274666v216.96h47.274666c66.816 0 112-36.053333 115.370667-100.053333l0.213333-7.808v-1.194667c0-68.266667-46.08-107.946667-115.584-107.946666z" /></svg>