<?xml version="1.0" standalone="no"?>
<!DOCTYPE svg PUBLIC "-//W3C//DTD SVG 1.1//EN" "http://www.w3.org/Graphics/SVG/1.1/DTD/svg11.dtd">
<svg class="icon" style="width: 1em;height: 1em;vertical-align: middle;fill: currentColor;overflow: hidden;" viewBox="0 0 1024 1024" version="1.1" xmlns="http://www.w3.org/2000/svg"><path d="M469.333333 87.466667v128.853333a298.666667 298.666667 0 1 0 221.525334 534.869333l91.178666 91.178667A425.216 425.216 0 0 1 512 938.666667C276.352 938.666667 85.333333 747.648 85.333333 512c0-221.226667 168.405333-403.157333 384-424.533333zM936.533333 554.666667a424.448 424.448 0 0 1-94.165333 227.328l-91.178667-91.136A296.874667 296.874667 0 0 0 807.637333 554.666667h128.938667zM554.752 87.466667a426.837333 426.837333 0 0 1 381.866667 381.866666H807.68a298.88 298.88 0 0 0-252.928-252.970666V87.424z" /></svg>