<?xml version="1.0" standalone="no"?>
<!DOCTYPE svg PUBLIC "-//W3C//DTD SVG 1.1//EN" "http://www.w3.org/Graphics/SVG/1.1/DTD/svg11.dtd">
<svg class="icon" style="width: 1em;height: 1em;vertical-align: middle;fill: currentColor;overflow: hidden;" viewBox="0 0 1024 1024" version="1.1" xmlns="http://www.w3.org/2000/svg"><path d="M469.333333 87.466667v85.845333a341.376 341.376 0 1 0 251.989334 608.341333l60.714666 60.714667A425.216 425.216 0 0 1 512 938.666667C276.352 938.666667 85.333333 747.648 85.333333 512c0-221.226667 168.405333-403.157333 384-424.533333zM936.533333 554.666667a424.448 424.448 0 0 1-94.165333 227.328l-60.714667-60.672A339.712 339.712 0 0 0 850.688 554.666667h85.888zM554.752 87.466667a426.837333 426.837333 0 0 1 381.866667 381.866666h-85.888a341.546667 341.546667 0 0 0-295.978667-296.021333V87.424z" /></svg>