<?xml version="1.0" standalone="no"?>
<!DOCTYPE svg PUBLIC "-//W3C//DTD SVG 1.1//EN" "http://www.w3.org/Graphics/SVG/1.1/DTD/svg11.dtd">
<svg class="icon" style="width: 1em;height: 1em;vertical-align: middle;fill: currentColor;overflow: hidden;" viewBox="0 0 1024 1024" version="1.1" xmlns="http://www.w3.org/2000/svg"><path d="M512 85.333333l181.034667 181.034667-60.373334 60.330667L512 205.994667 391.338667 326.698667 330.965333 266.368 512 85.333333zM85.333333 512l181.034667-181.034667 60.330667 60.373334L205.994667 512l120.704 120.661333-60.330667 60.373334L85.333333 512z m853.333334 0l-181.034667 181.034667-60.330667-60.373334L818.005333 512l-120.704-120.661333 60.330667-60.373334L938.666667 512z m-426.666667 85.333333a85.333333 85.333333 0 1 1 0-170.666666 85.333333 85.333333 0 0 1 0 170.666666z m0 341.333334l-181.034667-181.034667 60.373334-60.330667L512 818.005333l120.661333-120.704 60.373334 60.330667L512 938.666667z" /></svg>