<?xml version="1.0" standalone="no"?>
<!DOCTYPE svg PUBLIC "-//W3C//DTD SVG 1.1//EN" "http://www.w3.org/Graphics/SVG/1.1/DTD/svg11.dtd">
<svg class="icon" style="width: 1em;height: 1em;vertical-align: middle;fill: currentColor;overflow: hidden;" viewBox="0 0 1024 1024" version="1.1" xmlns="http://www.w3.org/2000/svg"><path d="M541.184 171.904a341.333333 341.333333 0 1 0 310.912 310.912 338.602667 338.602667 0 0 0-25.728-104.106667l64-64.085333A423.808 423.808 0 0 1 938.666667 512c0 235.648-191.018667 426.666667-426.666667 426.666667S85.333333 747.648 85.333333 512 276.352 85.333333 512 85.333333a425.898667 425.898667 0 0 1 197.376 48.298667l-64.042667 64a338.816 338.816 0 0 0-104.106666-25.728zM874.026667 89.6L934.4 149.973333l-392.192 392.192-60.245333 0.128-0.085334-60.458666L874.026667 89.6z" /></svg>