<?xml version="1.0" standalone="no"?>
<!DOCTYPE svg PUBLIC "-//W3C//DTD SVG 1.1//EN" "http://www.w3.org/Graphics/SVG/1.1/DTD/svg11.dtd">
<svg class="icon" style="width: 1em;height: 1em;vertical-align: middle;fill: currentColor;overflow: hidden;" viewBox="0 0 1024 1024" version="1.1" xmlns="http://www.w3.org/2000/svg"><path d="M512 85.333333c235.648 0 426.666667 191.018667 426.666667 426.666667a424.874667 424.874667 0 0 1-45.44 191.829333 84.352 84.352 0 0 0-16.981334-33.066666l-5.248-5.76L810.666667 604.672l-60.330667 60.330667-4.992 5.418666a85.333333 85.333333 0 0 0 71.637333 140.032A425.557333 425.557333 0 0 1 512 938.666667C276.352 938.666667 85.333333 747.648 85.333333 512S276.352 85.333333 512 85.333333z m0 554.666667c-58.88 0-112.213333 23.893333-150.784 62.421333l-7.082667 7.424 40.32 36.693334C428.16 733.098667 468.565333 725.333333 512 725.333333c38.613333 0 74.837333 6.144 106.069333 16.896l11.477334 4.266667 40.32-36.693333A212.778667 212.778667 0 0 0 512 640z m-149.333333-213.333333a64 64 0 1 0 0 128 64 64 0 0 0 0-128z m298.666666 0a64 64 0 1 0 0 128 64 64 0 0 0 0-128z" /></svg>