<?xml version="1.0" standalone="no"?>
<!DOCTYPE svg PUBLIC "-//W3C//DTD SVG 1.1//EN" "http://www.w3.org/Graphics/SVG/1.1/DTD/svg11.dtd">
<svg class="icon" style="width: 1em;height: 1em;vertical-align: middle;fill: currentColor;overflow: hidden;" viewBox="0 0 1024 1024" version="1.1" xmlns="http://www.w3.org/2000/svg"><path d="M783.530667 468.48a170.666667 170.666667 0 0 1 0 241.322667l-241.365334 241.365333a42.666667 42.666667 0 0 1-60.330666 0l-241.365334-241.365333a170.666667 170.666667 0 0 1 241.365334-241.365334l30.122666 30.165334 30.208-30.165334a170.666667 170.666667 0 0 1 241.365334 0zM300.8 528.725333a85.461333 85.461333 0 0 0 0 120.704l211.2 211.2 211.2-211.2c33.28-33.322667 33.28-87.381333 0-120.704a85.418667 85.418667 0 0 0-120.746667 0.085334l-90.538666 90.368-90.453334-90.453334a85.376 85.376 0 0 0-120.661333 0zM512 42.666667c94.293333 0 170.666667 76.373333 170.666667 170.666666s-76.373333 170.666667-170.666667 170.666667-170.666667-76.373333-170.666667-170.666667 76.373333-170.666667 170.666667-170.666666z m0 85.333333a85.333333 85.333333 0 1 0-0.042667 170.624A85.333333 85.333333 0 0 0 512 128z" /></svg>