<?xml version="1.0" standalone="no"?>
<!DOCTYPE svg PUBLIC "-//W3C//DTD SVG 1.1//EN" "http://www.w3.org/Graphics/SVG/1.1/DTD/svg11.dtd">
<svg class="icon" style="width: 1em;height: 1em;vertical-align: middle;fill: currentColor;overflow: hidden;" viewBox="0 0 1024 1024" version="1.1" xmlns="http://www.w3.org/2000/svg"><path d="M263.253333 768a128.042667 128.042667 0 0 1 241.493334 0H938.666667v85.333333H504.746667a128.042667 128.042667 0 0 1-241.493334 0H85.333333v-85.333333h177.92z m256-298.666667a128.042667 128.042667 0 0 1 241.493334 0H938.666667v85.333334h-177.92a128.042667 128.042667 0 0 1-241.493334 0H85.333333v-85.333334h433.92z m-256-298.666666a128.042667 128.042667 0 0 1 241.493334 0H938.666667v85.333333H504.746667a128.042667 128.042667 0 0 1-241.493334 0H85.333333V170.666667h177.92zM384 256a42.666667 42.666667 0 1 0 0-85.333333 42.666667 42.666667 0 0 0 0 85.333333z m256 298.666667a42.666667 42.666667 0 1 0 0-85.333334 42.666667 42.666667 0 0 0 0 85.333334z m-256 298.666666a42.666667 42.666667 0 1 0 0-85.333333 42.666667 42.666667 0 0 0 0 85.333333z" /></svg>