<?xml version="1.0" standalone="no"?>
<!DOCTYPE svg PUBLIC "-//W3C//DTD SVG 1.1//EN" "http://www.w3.org/Graphics/SVG/1.1/DTD/svg11.dtd">
<svg class="icon" style="width: 1em;height: 1em;vertical-align: middle;fill: currentColor;overflow: hidden;" viewBox="0 0 1024 1024" version="1.1" xmlns="http://www.w3.org/2000/svg"><path d="M448 362.666667a42.666667 42.666667 0 0 1-42.666667 42.666666H256.042667c-14.336 0-21.376 11.136-21.376 22.698667 0 56.32 10.837333 101.205333 28.330666 136.234667 9.216 18.474667 17.024 28.586667 22.314667 33.706666 31.36 32.426667 80.469333 49.493333 131.925333 46.464 4.053333-0.256 8.490667-2.730667 14.165334-8.874666a64.426667 64.426667 0 0 0 9.130666-12.501334 85.333333 85.333333 0 0 1 107.989334-45.781333c29.568 11.008 54.485333 18.517333 77.354666 23.893333 8.362667 1.962667 16 3.541333 25.002667 5.205334-3.285333-0.597333 17.152 3.157333 22.101333 4.181333 14.506667 2.986667 25.514667 6.229333 37.674667 12.373333a217.045333 217.045333 0 0 1 75.733333 62.933334 1383.253333 1383.253333 0 0 0 3.712-86.442667 1458.432 1458.432 0 0 0-23.850666-284.714667c-3.157333-16.981333-10.069333-23.978667-28.288-30.634666a164.138667 164.138667 0 0 0-25.045334-6.613334c-6.272-1.194667-27.733333-4.693333-29.568-5.034666a54314.666667 54314.666667 0 0 1-99.84-17.450667l-22.528-3.925333a85.333333 85.333333 0 0 1-65.024-53.76 489.258667 489.258667 0 0 0-1.450666-3.754667 238.72 238.72 0 0 0-29.952-1.536c-11.562667 0-16.554667 5.290667-16.554667 19.754667V362.666667z m265.813333 496.597333c15.018667-15.189333 23.893333-35.370667 25.045334-56.618667 2.304-44.202667-35.157333-105.813333-98.858667-112.384-26.325333-2.688-67.669333-13.056-121.258667-33.024 0 0-29.866667 68.394667-96.426666 72.362667-71.04 4.266667-146.346667-18.474667-198.4-72.362667 0 0-74.581333-69.973333-74.581334-229.205333 0-34.730667 12.373333-60.672 27.648-81.237333 40.96-55.125333 106.88-118.613333 176.341334-183.637334C384 134.4 413.909333 106.666667 464.554667 106.666667c87.04 0 98.986667 28.330667 111.146666 60.330666l121.770667 21.290667c38.698667 7.082667 134.4 13.482667 152.661333 110.677333 42.922667 231.253333 19.541333 421.12 14.805334 455.466667-30.293333 218.496-203.605333 207.829333-210.389334 207.829333-87.850667 0-135.594667-58.581333-135.808-114.218666a106.410667 106.410667 0 0 1 44.288-86.784 110.336 110.336 0 0 1 65.152-20.394667c13.013333 0 29.312 13.568 29.312 32.128a31.573333 31.573333 0 0 1-16.298666 27.52c-9.514667 5.290667-47.872 7.424-47.872 36.906667 0 13.525333 14.933333 47.530667 59.136 47.530666a86.613333 86.613333 0 0 0 61.312-25.685333z m-76.629333-405.76c7.082667-17.706667 26.752-26.965333 50.005333-24.832 23.210667 2.858667 40.789333 17.066667 42.922667 36.181333 0 3.541333 0.725333 7.808-0.725333 9.941334-1.365333 2.133333-2.816 2.858667-4.266667 2.858666-9.088 1.408-23.168 0-43.562667-2.133333-20.48-2.133333-34.474667-4.266667-42.922666-8.533333-1.408-0.725333-2.816-1.408-3.541334-3.541334s0.682667-6.4 2.133334-9.941333z" /></svg>