<?xml version="1.0" standalone="no"?>
<!DOCTYPE svg PUBLIC "-//W3C//DTD SVG 1.1//EN" "http://www.w3.org/Graphics/SVG/1.1/DTD/svg11.dtd">
<svg class="icon" style="width: 1em;height: 1em;vertical-align: middle;fill: currentColor;overflow: hidden;" viewBox="0 0 1024 1024" version="1.1" xmlns="http://www.w3.org/2000/svg"><path d="M554.666667 850.688A341.376 341.376 0 0 0 512 170.666667a341.333333 341.333333 0 0 0-42.666667 680.021333V597.333333H384v-85.333333h85.333333v-70.570667c0-57.045333 5.973333-77.738667 17.066667-98.602666A116.309333 116.309333 0 0 1 534.869333 294.4c16.298667-8.746667 36.565333-13.994667 71.978667-16.256 14.037333-0.896 32.213333 0.213333 54.528 3.413333v81.066667H640c-39.125333 0-55.296 1.834667-64.938667 6.997333a31.018667 31.018667 0 0 0-13.397333 13.397334c-5.12 9.642667-6.997333 19.2-6.997333 58.368V512h106.666666l-21.333333 85.333333h-85.333333v253.354667zM512 938.666667C276.352 938.666667 85.333333 747.648 85.333333 512S276.352 85.333333 512 85.333333s426.666667 191.018667 426.666667 426.666667-191.018667 426.666667-426.666667 426.666667z" /></svg>