<?xml version="1.0" standalone="no"?>
<!DOCTYPE svg PUBLIC "-//W3C//DTD SVG 1.1//EN" "http://www.w3.org/Graphics/SVG/1.1/DTD/svg11.dtd">
<svg class="icon" style="width: 1em;height: 1em;vertical-align: middle;fill: currentColor;overflow: hidden;" viewBox="0 0 1024 1024" version="1.1" xmlns="http://www.w3.org/2000/svg"><path d="M682.666667 85.333333l213.333333 213.333334v597.674666a42.368 42.368 0 0 1-42.368 42.325334H170.368A42.666667 42.666667 0 0 1 128 896.341333V127.658667C128 104.277333 146.986667 85.333333 170.368 85.333333H682.666667z m-213.333334 554.666667v85.333333h85.333334v-85.333333h-85.333334z m85.333334-70.186667A149.418667 149.418667 0 0 0 512 277.333333a149.376 149.376 0 0 0-146.474667 120.021334l83.712 16.768A64 64 0 1 1 512 490.666667a42.666667 42.666667 0 0 0-42.666667 42.666666V597.333333h85.333334v-27.52z" /></svg>