<?xml version="1.0" standalone="no"?>
<!DOCTYPE svg PUBLIC "-//W3C//DTD SVG 1.1//EN" "http://www.w3.org/Graphics/SVG/1.1/DTD/svg11.dtd">
<svg class="icon" style="width: 1em;height: 1em;vertical-align: middle;fill: currentColor;overflow: hidden;" viewBox="0 0 1024 1024" version="1.1" xmlns="http://www.w3.org/2000/svg"><path d="M853.333333 85.333333a128 128 0 0 1 128 128v85.333334h-85.333333v512a128 128 0 0 1-128 128H170.666667a128 128 0 0 1-128-128v-85.333334h682.666666v85.333334a42.666667 42.666667 0 0 0 37.674667 42.368L768 853.333333a42.666667 42.666667 0 0 0 42.368-37.674666L810.666667 810.666667V170.666667H256a42.666667 42.666667 0 0 0-42.368 37.674666L213.333333 213.333333v426.666667H128V213.333333a128 128 0 0 1 128-128h597.333333z" /></svg>