<?xml version="1.0" standalone="no"?>
<!DOCTYPE svg PUBLIC "-//W3C//DTD SVG 1.1//EN" "http://www.w3.org/Graphics/SVG/1.1/DTD/svg11.dtd">
<svg class="icon" style="width: 1em;height: 1em;vertical-align: middle;fill: currentColor;overflow: hidden;" viewBox="0 0 1024 1024" version="1.1" xmlns="http://www.w3.org/2000/svg"><path d="M682.666667 85.333333l213.333333 213.333334v597.034666A42.666667 42.666667 0 0 1 853.632 938.666667H170.368A42.666667 42.666667 0 0 1 128 896.341333V127.658667C128 104.277333 147.072 85.333333 170.624 85.333333H682.666667z m0 284.458667H341.333333V312.874667h142.208V256h56.917334l-0.042667 56.874667h99.541333L640 170.666667H213.333333v682.666666h597.333334V341.333333l-128-0.042666v28.501333z m-284.458667 256v85.290667H682.666667V768H341.333333v-142.208h56.874667zM512 611.541333a42.666667 42.666667 0 1 1 0 85.333334 42.666667 42.666667 0 0 1 0-85.333334zM512 384a106.666667 106.666667 0 1 1 0 213.333333 106.666667 106.666667 0 0 1 0-213.333333z m0 56.874667a49.792 49.792 0 1 0 0 99.584 49.792 49.792 0 0 0 0-99.584z" /></svg>