<?xml version="1.0" standalone="no"?>
<!DOCTYPE svg PUBLIC "-//W3C//DTD SVG 1.1//EN" "http://www.w3.org/Graphics/SVG/1.1/DTD/svg11.dtd">
<svg class="icon" style="width: 1em;height: 1em;vertical-align: middle;fill: currentColor;overflow: hidden;" viewBox="0 0 1024 1024" version="1.1" xmlns="http://www.w3.org/2000/svg"><path d="M597.333333 384V170.666667H213.333333v682.666666h258.389334a212.906667 212.906667 0 0 0 50.346666 46.293334l59.306667 39.04H170.368A42.368 42.368 0 0 1 128 896.341333V127.658667C128 104.746667 147.157333 85.333333 170.752 85.333333h469.12L896 341.333333v42.666667h-298.666667z m-85.333333 85.333333h384v253.824c0 42.24-21.376 81.749333-57.002667 105.173334L704 917.248l-134.997333-88.917333A125.994667 125.994667 0 0 1 512 723.2V469.333333z m85.333333 253.824c0 13.482667 6.912 26.197333 18.602667 33.92l88.064 58.026667 88.064-58.026667a40.704 40.704 0 0 0 18.602667-33.92V554.666667h-213.333334v168.490666z" /></svg>