<?xml version="1.0" standalone="no"?>
<!DOCTYPE svg PUBLIC "-//W3C//DTD SVG 1.1//EN" "http://www.w3.org/Graphics/SVG/1.1/DTD/svg11.dtd">
<svg class="icon" style="width: 1em;height: 1em;vertical-align: middle;fill: currentColor;overflow: hidden;" viewBox="0 0 1024 1024" version="1.1" xmlns="http://www.w3.org/2000/svg"><path d="M769.322667 708.992l182.741333 182.698667-60.373333 60.373333-182.698667-182.741333A382.293333 382.293333 0 0 1 469.333333 853.333333c-211.968 0-384-172.032-384-384s172.032-384 384-384 384 172.032 384 384a382.293333 382.293333 0 0 1-84.010666 239.658667zM710.784 384A256 256 0 0 0 469.333333 213.333333c-141.44 0-256 114.56-256 256h85.333334a170.709333 170.709333 0 0 1 252.16-149.973333L512 384h198.784zM725.333333 469.333333h-85.333333a170.709333 170.709333 0 0 1-252.16 149.973334L426.666667 554.666667H227.882667A256 256 0 0 0 469.333333 725.333333c141.44 0 256-114.56 256-256z" /></svg>