<?xml version="1.0" standalone="no"?>
<!DOCTYPE svg PUBLIC "-//W3C//DTD SVG 1.1//EN" "http://www.w3.org/Graphics/SVG/1.1/DTD/svg11.dtd">
<svg class="icon" style="width: 1em;height: 1em;vertical-align: middle;fill: currentColor;overflow: hidden;" viewBox="0 0 1024 1024" version="1.1" xmlns="http://www.w3.org/2000/svg"><path d="M896 128a42.666667 42.666667 0 0 1 42.666667 42.666667v682.666666a42.666667 42.666667 0 0 1-42.666667 42.666667H128a42.666667 42.666667 0 0 1-42.666667-42.666667V170.666667a42.666667 42.666667 0 0 1 42.666667-42.666667h768zM447.146667 213.290667L170.666667 213.333333v597.333334h373.162666a1120 1120 0 0 1-6.954666-43.52c-12.672 0.554667-20.949333 0.853333-24.874667 0.853333-94.208 0-187.648-31.146667-279.68-92.501333l47.36-70.997334C358.314667 656.938667 435.541333 682.666667 512 682.666667c5.674667 0 11.306667-0.128 16.981333-0.426667-1.024-21.205333-1.024-60.16 0.298667-84.906667H405.333333v-42.666666c0-139.733333 13.653333-253.44 41.813334-341.376z m90.453333 0C509.226667 280.832 493.056 401.493333 491.093333 512h133.248l-5.973333 47.957333a681.770667 681.770667 0 0 0-4.608 107.52c43.221333-12.8 86.656-33.706667 130.56-62.976l47.36 70.997334c-56.32 37.546667-113.152 63.786667-170.368 78.506666 2.432 18.474667 5.546667 37.376 9.344 56.618667L853.333333 810.666667V213.333333l-315.733333-0.042666zM298.666667 298.666667a42.666667 42.666667 0 0 1 42.666666 42.666666v42.666667a42.666667 42.666667 0 0 1-85.333333 0V341.333333a42.666667 42.666667 0 0 1 42.666667-42.666666z m426.666666 0a42.666667 42.666667 0 0 1 42.666667 42.666666v42.666667a42.666667 42.666667 0 0 1-85.333333 0V341.333333a42.666667 42.666667 0 0 1 42.666666-42.666666z" /></svg>