<?xml version="1.0" standalone="no"?>
<!DOCTYPE svg PUBLIC "-//W3C//DTD SVG 1.1//EN" "http://www.w3.org/Graphics/SVG/1.1/DTD/svg11.dtd">
<svg class="icon" style="width: 1em;height: 1em;vertical-align: middle;fill: currentColor;overflow: hidden;" viewBox="0 0 1024 1024" version="1.1" xmlns="http://www.w3.org/2000/svg"><path d="M512 85.333333c235.648 0 426.666667 191.018667 426.666667 426.666667s-191.018667 426.666667-426.666667 426.666667S85.333333 747.648 85.333333 512c0-62.464 13.397333-121.770667 37.546667-175.189333 19.882667-40.064 52.608-79.957333 78.933333-93.610667-27.861333 54.741333-41.514667 108.373333-44.373333 144.341333 19.370667-64 56.106667-117.632 107.52-155.477333 88.149333-64.810667 206.848-67.712 254.122667-26.453333-87.722667 30.165333-183.296 151.381333-162.261334 293.376 3.413333 23.466667 10.453333 46.250667 20.864 67.498666-16.384-43.093333-17.834667-103.808 8.618667-143.274666 29.525333-43.946667 71.594667-53.248 94.122667-48.469334-8.874667-1.877333-28.501333 35.669333-31.402667 42.282667a126.72 126.72 0 0 0-10.709333 53.333333 144.853333 144.853333 0 0 0 43.946666 101.546667c82.005333 79.829333 214.314667 48.426667 273.578667-42.752 40.661333-62.762667 45.610667-169.301333-6.613333-253.952a295.04 295.04 0 0 0-46.250667-56.32c-78.933333-75.349333-191.146667-109.653333-297.898667-94.08-47.189333 7.552-87.338667 21.162667-120.490666 40.789333C330.88 119.381333 422.826667 85.333333 512 85.333333z" /></svg>