<?xml version="1.0" standalone="no"?>
<!DOCTYPE svg PUBLIC "-//W3C//DTD SVG 1.1//EN" "http://www.w3.org/Graphics/SVG/1.1/DTD/svg11.dtd">
<svg class="icon" style="width: 1em;height: 1em;vertical-align: middle;fill: currentColor;overflow: hidden;" viewBox="0 0 1024 1024" version="1.1" xmlns="http://www.w3.org/2000/svg"><path d="M682.666667 42.666667a42.666667 42.666667 0 0 1 42.666666 42.666666v128h170.666667a42.666667 42.666667 0 0 1 42.666667 42.666667v597.333333a42.666667 42.666667 0 0 1-42.666667 42.666667H128a42.666667 42.666667 0 0 1-42.666667-42.666667V256a42.666667 42.666667 0 0 1 42.666667-42.666667h170.666667V85.333333a42.666667 42.666667 0 0 1 42.666666-42.666666h341.333334z m170.666666 256H170.666667v512h682.666666V298.666667z m-298.666666 85.333333v128h128v85.333333h-128.042667L554.666667 725.333333h-85.333334l-0.042666-128H341.333333v-85.333333h128V384h85.333334z m85.333333-256H384v85.333333h256V128z" /></svg>