<?xml version="1.0" standalone="no"?>
<!DOCTYPE svg PUBLIC "-//W3C//DTD SVG 1.1//EN" "http://www.w3.org/Graphics/SVG/1.1/DTD/svg11.dtd">
<svg class="icon" style="width: 1em;height: 1em;vertical-align: middle;fill: currentColor;overflow: hidden;" viewBox="0 0 1024 1024" version="1.1" xmlns="http://www.w3.org/2000/svg"><path d="M512 85.333333c235.52 0 426.666667 191.146667 426.666667 426.666667s-191.146667 426.666667-426.666667 426.666667S85.333333 747.52 85.333333 512 276.48 85.333333 512 85.333333z m0 768c188.885333 0 341.333333-152.448 341.333333-341.333333s-152.448-341.333333-341.333333-341.333333a340.906667 340.906667 0 0 0-341.333333 341.333333c0 188.885333 152.448 341.333333 341.333333 341.333333z m0-85.333333c-141.653333 0-256-114.346667-256-256s114.346667-256 256-256 256 114.346667 256 256-114.346667 256-256 256z m0-341.333333c-46.933333 0-85.333333 38.4-85.333333 85.333333s38.4 85.333333 85.333333 85.333333 85.333333-38.4 85.333333-85.333333-38.4-85.333333-85.333333-85.333333z" /></svg>