<?xml version="1.0" standalone="no"?>
<!DOCTYPE svg PUBLIC "-//W3C//DTD SVG 1.1//EN" "http://www.w3.org/Graphics/SVG/1.1/DTD/svg11.dtd">
<svg class="icon" style="width: 1em;height: 1em;vertical-align: middle;fill: currentColor;overflow: hidden;" viewBox="0 0 1024 1024" version="1.1" xmlns="http://www.w3.org/2000/svg"><path d="M938.666667 384h-85.333334V298.666667h-358.997333l-85.333333-85.333334H170.666667v597.333334h317.738666a212.053333 212.053333 0 0 0 70.997334 85.333333H128a42.666667 42.666667 0 0 1-42.666667-42.666667V170.666667a42.666667 42.666667 0 0 1 42.666667-42.666667h316.330667l85.333333 85.333333H896a42.666667 42.666667 0 0 1 42.666667 42.666667v128z m-384 85.333333h384v253.824c0 42.24-21.376 81.749333-57.002667 105.173334L746.666667 917.248l-134.997334-88.917333A125.994667 125.994667 0 0 1 554.666667 723.2V469.333333z m85.333333 253.824c0 13.482667 6.912 26.197333 18.602667 33.92l88.064 58.026667 88.064-58.026667a40.704 40.704 0 0 0 18.602666-33.92V554.666667h-213.333333v168.490666z" /></svg>