<?xml version="1.0" standalone="no"?>
<!DOCTYPE svg PUBLIC "-//W3C//DTD SVG 1.1//EN" "http://www.w3.org/Graphics/SVG/1.1/DTD/svg11.dtd">
<svg class="icon" style="width: 1em;height: 1em;vertical-align: middle;fill: currentColor;overflow: hidden;" viewBox="0 0 1024 1024" version="1.1" xmlns="http://www.w3.org/2000/svg"><path d="M444.330667 128l85.333333 85.333333H896a42.666667 42.666667 0 0 1 42.666667 42.666667v597.333333a42.666667 42.666667 0 0 1-42.666667 42.666667H128a42.666667 42.666667 0 0 1-42.666667-42.666667V170.666667a42.666667 42.666667 0 0 1 42.666667-42.666667h316.330667zM768 768h-170.666667v-128h85.333334v-85.333333h-85.333334v-85.333334h85.333334V384h-85.333334V298.666667h-102.997333l-85.333333-85.333334H170.666667v597.333334h682.666666V298.666667h-170.666666v85.333333h85.333333v85.333333h-85.333333v85.333334h85.333333v213.333333z" /></svg>