<?xml version="1.0" standalone="no"?>
<!DOCTYPE svg PUBLIC "-//W3C//DTD SVG 1.1//EN" "http://www.w3.org/Graphics/SVG/1.1/DTD/svg11.dtd">
<svg class="icon" style="width: 1em;height: 1em;vertical-align: middle;fill: currentColor;overflow: hidden;" viewBox="0 0 1024 1024" version="1.1" xmlns="http://www.w3.org/2000/svg"><path d="M529.664 213.333333H896a42.666667 42.666667 0 0 1 42.666667 42.666667v597.333333a42.666667 42.666667 0 0 1-42.666667 42.666667H128a42.666667 42.666667 0 0 1-42.666667-42.666667V170.666667a42.666667 42.666667 0 0 1 42.666667-42.666667h316.330667l85.333333 85.333333z m-163.114667 375.850667l-42.282666 24.405333 42.666666 73.856 42.282667-24.405333c16.768 15.829333 37.205333 27.861333 59.946667 34.602667v48.853333h85.290666V697.6a149.12 149.12 0 0 0 59.904-34.602667l42.282667 24.405334 42.666667-73.813334-42.282667-24.448a149.674667 149.674667 0 0 0 0-69.205333l42.24-24.448-42.624-73.813333-42.325333 24.405333a149.12 149.12 0 0 0-59.904-34.645333V362.666667h-85.290667v48.810666a149.12 149.12 0 0 0-59.904 34.645334L366.933333 421.674667l-42.666666 73.898666 42.282666 24.405334a149.674667 149.674667 0 0 0 0 69.205333z m145.237334 29.354667a64 64 0 1 1 0-127.914667 64 64 0 0 1 0 127.914667z" /></svg>