<?xml version="1.0" standalone="no"?>
<!DOCTYPE svg PUBLIC "-//W3C//DTD SVG 1.1//EN" "http://www.w3.org/Graphics/SVG/1.1/DTD/svg11.dtd">
<svg class="icon" style="width: 1em;height: 1em;vertical-align: middle;fill: currentColor;overflow: hidden;" viewBox="0 0 1024 1024" version="1.1" xmlns="http://www.w3.org/2000/svg"><path d="M256 298.666667V170.666667a42.666667 42.666667 0 0 1 42.666667-42.666667h273.664l85.333333 85.333333H896a42.666667 42.666667 0 0 1 42.666667 42.666667v426.666667a42.666667 42.666667 0 0 1-42.666667 42.666666h-128v128a42.666667 42.666667 0 0 1-42.666667 42.666667H128a42.666667 42.666667 0 0 1-42.666667-42.666667V341.333333a42.666667 42.666667 0 0 1 42.666667-42.666666h128z m0 85.333333H170.666667v426.666667h512v-85.333334H256V384z m85.333333-170.666667v426.666667h512V298.666667h-230.997333l-85.333333-85.333334H341.333333z" /></svg>