<?xml version="1.0" standalone="no"?>
<!DOCTYPE svg PUBLIC "-//W3C//DTD SVG 1.1//EN" "http://www.w3.org/Graphics/SVG/1.1/DTD/svg11.dtd">
<svg class="icon" style="width: 1em;height: 1em;vertical-align: middle;fill: currentColor;overflow: hidden;" viewBox="0 0 1024 1024" version="1.1" xmlns="http://www.w3.org/2000/svg"><path d="M529.664 213.333333H896a42.666667 42.666667 0 0 1 42.666667 42.666667v597.333333a42.666667 42.666667 0 0 1-42.666667 42.666667H128a42.666667 42.666667 0 0 1-42.666667-42.666667V170.666667a42.666667 42.666667 0 0 1 42.666667-42.666667h316.330667l85.333333 85.333333zM341.333333 384v209.237333c0 38.058667 19.029333 73.557333 50.645334 94.677334L512 767.914667l120.021333-80A113.792 113.792 0 0 0 682.666667 593.237333V384H341.333333z m85.333334 209.237333V469.333333h170.666666v123.904a28.458667 28.458667 0 0 1-12.672 23.68L512 665.344l-72.661333-48.426667a28.458667 28.458667 0 0 1-12.672-23.68z" /></svg>