<?xml version="1.0" standalone="no"?>
<!DOCTYPE svg PUBLIC "-//W3C//DTD SVG 1.1//EN" "http://www.w3.org/Graphics/SVG/1.1/DTD/svg11.dtd">
<svg class="icon" style="width: 1em;height: 1em;vertical-align: middle;fill: currentColor;overflow: hidden;" viewBox="0 0 1024 1024" version="1.1" xmlns="http://www.w3.org/2000/svg"><path d="M529.664 213.333333H896a42.666667 42.666667 0 0 1 42.666667 42.666667v597.333333a42.666667 42.666667 0 0 1-42.666667 42.666667H128a42.666667 42.666667 0 0 1-42.666667-42.666667V170.666667a42.666667 42.666667 0 0 1 42.666667-42.666667h316.330667l85.333333 85.333333zM170.666667 213.333333v597.333334h682.666666V298.666667h-358.997333l-85.333333-85.333334H170.666667z m298.666666 170.666667h85.333334v341.333333h-85.333334V384z m170.666667 128h85.333333v213.333333h-85.333333v-213.333333z m-341.333333 85.333333h85.333333v128H298.666667v-128z" /></svg>