<?xml version="1.0" standalone="no"?>
<!DOCTYPE svg PUBLIC "-//W3C//DTD SVG 1.1//EN" "http://www.w3.org/Graphics/SVG/1.1/DTD/svg11.dtd">
<svg class="icon" style="width: 1em;height: 1em;vertical-align: middle;fill: currentColor;overflow: hidden;" viewBox="0 0 1024 1024" version="1.1" xmlns="http://www.w3.org/2000/svg"><path d="M512 85.333333c235.648 0 426.666667 191.018667 426.666667 426.666667s-191.018667 426.666667-426.666667 426.666667S85.333333 747.648 85.333333 512 276.352 85.333333 512 85.333333z m71.253333 597.333334h-142.506666l-58.88 80.938666 23.637333 72.789334A341.034667 341.034667 0 0 0 512 853.333333c37.162667 0 72.96-5.973333 106.496-16.938666l23.594667-72.789334L583.210667 682.666667z m-357.376-218.794667l-55.125333 39.978667L170.666667 512c0 73.813333 23.424 142.122667 63.232 197.973333h81.493333l56.448-77.653333-43.861333-135.253333-102.101334-33.194667z m572.245334 0l-102.101334 33.194667-43.861333 135.253333 56.405333 77.653333h81.493334A339.797333 339.797333 0 0 0 853.333333 512l-0.128-8.149333-55.082666-39.978667zM609.706667 184.874667l-55.04 40.106666V332.373333l114.944 83.498667 95.530666-31.018667 23.637334-72.661333a341.930667 341.930667 0 0 0-179.029334-127.317333z m-195.498667 0a341.930667 341.930667 0 0 0-179.029333 127.36l23.637333 72.618666 95.530667 31.018667L469.333333 332.373333V224.981333l-55.082666-40.106666z" /></svg>