<?xml version="1.0" standalone="no"?>
<!DOCTYPE svg PUBLIC "-//W3C//DTD SVG 1.1//EN" "http://www.w3.org/Graphics/SVG/1.1/DTD/svg11.dtd">
<svg class="icon" style="width: 1em;height: 1em;vertical-align: middle;fill: currentColor;overflow: hidden;" viewBox="0 0 1024 1024" version="1.1" xmlns="http://www.w3.org/2000/svg"><path d="M853.333333 554.666667c-71.594667 0-138.624 19.626667-195.968 53.717333A639.317333 639.317333 0 0 1 774.272 810.666667H853.333333v-256z m-170.496 256C599.210667 610.218667 401.408 469.333333 170.666667 469.333333v341.333334h512.170666zM170.666667 384c163.413333 0 312.448 61.226667 425.557333 161.962667A467.157333 467.157333 0 0 1 853.333333 469.333333V128h43.008c23.381333 0 42.325333 18.986667 42.325334 42.368v683.264a42.666667 42.666667 0 0 1-42.325334 42.368H127.658667A42.368 42.368 0 0 1 85.333333 853.632V170.368A42.666667 42.666667 0 0 1 127.658667 128H256V42.666667h85.333333v170.666666H170.666667v170.666667z m597.333333-341.333333v170.666666h-341.333333V128h256V42.666667h85.333333z m-64 384a64 64 0 1 1 0-128 64 64 0 0 1 0 128z" /></svg>