<?xml version="1.0" standalone="no"?>
<!DOCTYPE svg PUBLIC "-//W3C//DTD SVG 1.1//EN" "http://www.w3.org/Graphics/SVG/1.1/DTD/svg11.dtd">
<svg class="icon" style="width: 1em;height: 1em;vertical-align: middle;fill: currentColor;overflow: hidden;" viewBox="0 0 1024 1024" version="1.1" xmlns="http://www.w3.org/2000/svg"><path d="M725.333333 170.666667a256 256 0 0 1 256 256v170.666666a256 256 0 0 1-256 256H298.666667a256 256 0 0 1-256-256v-170.666666a256 256 0 0 1 256-256h426.666666z m0 85.333333H298.666667a170.666667 170.666667 0 0 0-170.453334 162.133333L128 426.666667v170.666666a170.666667 170.666667 0 0 0 162.133333 170.453334L298.666667 768h426.666666a170.666667 170.666667 0 0 0 170.453334-162.133333L896 597.333333v-170.666666a170.666667 170.666667 0 0 0-162.133333-170.453334L725.333333 256z m-298.666666 128v85.333333h85.333333v85.333334H426.624L426.666667 640H341.333333l-0.042666-85.333333H256v-85.333334h85.333333V384h85.333334z m341.333333 170.666667v85.333333h-85.333333v-85.333333h85.333333z m-85.333333-170.666667v85.333333h-85.333334V384h85.333334z" /></svg>