<?xml version="1.0" standalone="no"?>
<!DOCTYPE svg PUBLIC "-//W3C//DTD SVG 1.1//EN" "http://www.w3.org/Graphics/SVG/1.1/DTD/svg11.dtd">
<svg class="icon" style="width: 1em;height: 1em;vertical-align: middle;fill: currentColor;overflow: hidden;" viewBox="0 0 1024 1024" version="1.1" xmlns="http://www.w3.org/2000/svg"><path d="M512 85.333333a425.813333 425.813333 0 0 1 330.368 156.629334L572.330667 512l270.037333 270.037333A425.813333 425.813333 0 0 1 512 938.666667C276.352 938.666667 85.333333 747.648 85.333333 512S276.352 85.333333 512 85.333333z m0 85.333334a341.333333 341.333333 0 1 0 200.405333 617.685333l8.874667-6.698667-269.653333-269.653333 269.653333-269.696-8.874667-6.656a339.797333 339.797333 0 0 0-187.477333-64.725333L512 170.666667z m0 42.666666a64 64 0 1 1 0 128 64 64 0 0 1 0-128z" /></svg>