<?xml version="1.0" standalone="no"?>
<!DOCTYPE svg PUBLIC "-//W3C//DTD SVG 1.1//EN" "http://www.w3.org/Graphics/SVG/1.1/DTD/svg11.dtd">
<svg class="icon" style="width: 1em;height: 1em;vertical-align: middle;fill: currentColor;overflow: hidden;" viewBox="0 0 1024 1024" version="1.1" xmlns="http://www.w3.org/2000/svg"><path d="M512 85.333333a384 384 0 0 1 384 384v320a149.333333 149.333333 0 0 1-272.64 84.309334 127.957333 127.957333 0 0 1-222.848 0 149.333333 149.333333 0 0 1-272.298667-76.074667L128 789.290667V469.333333a384 384 0 0 1 384-384z m170.666667 469.333334h-85.333334a85.333333 85.333333 0 0 1-170.453333 6.4L426.666667 554.666667H341.333333l0.213334 8.533333a170.666667 170.666667 0 0 0 340.906666 0L682.666667 554.666667z m-170.666667-256a85.333333 85.333333 0 1 0 0 170.666666 85.333333 85.333333 0 0 0 0-170.666666z" /></svg>