<?xml version="1.0" standalone="no"?>
<!DOCTYPE svg PUBLIC "-//W3C//DTD SVG 1.1//EN" "http://www.w3.org/Graphics/SVG/1.1/DTD/svg11.dtd">
<svg class="icon" style="width: 1em;height: 1em;vertical-align: middle;fill: currentColor;overflow: hidden;" viewBox="0 0 1024 1024" version="1.1" xmlns="http://www.w3.org/2000/svg"><path d="M512 85.333333a384 384 0 0 1 384 384v320a149.333333 149.333333 0 0 1-272.64 84.309334 127.957333 127.957333 0 0 1-222.848 0 149.333333 149.333333 0 0 1-272.298667-76.074667L128 789.290667V469.333333a384 384 0 0 1 384-384z m0 426.666667c-47.146667 0-85.333333 47.786667-85.333333 106.666667s38.186667 106.666667 85.333333 106.666666 85.333333-47.786667 85.333333-106.666666-38.186667-106.666667-85.333333-106.666667zM405.333333 341.333333a64 64 0 1 0 0 128 64 64 0 0 0 0-128z m213.333334 0a64 64 0 1 0 0 128 64 64 0 0 0 0-128z" /></svg>