<?xml version="1.0" standalone="no"?>
<!DOCTYPE svg PUBLIC "-//W3C//DTD SVG 1.1//EN" "http://www.w3.org/Graphics/SVG/1.1/DTD/svg11.dtd">
<svg class="icon" style="width: 1em;height: 1em;vertical-align: middle;fill: currentColor;overflow: hidden;" viewBox="0 0 1024 1024" version="1.1" xmlns="http://www.w3.org/2000/svg"><path d="M512 85.333333c149.333333 0 256 128 298.666667 256 128 42.666667 170.666667 159.146667 170.666666 256l-118.4 33.834667a42.666667 42.666667 0 0 0-30.933333 41.002667v63.829333A74.666667 74.666667 0 0 1 757.333333 810.666667h-25.429333a85.333333 85.333333 0 0 0-71.168 38.229333C621.141333 908.8 571.562667 938.666667 512 938.666667c-59.562667 0-109.141333-29.909333-148.736-89.770667A85.333333 85.333333 0 0 0 292.096 810.666667H266.666667a74.666667 74.666667 0 0 1-74.666667-74.666667v-63.829333a42.666667 42.666667 0 0 0-30.933333-41.002667L42.666667 597.333333c0-96.682667 42.666667-213.333333 170.666666-256 42.666667-128 149.333333-256 298.666667-256z m0 426.666667c-35.328 0-64 47.786667-64 106.666667S476.672 725.333333 512 725.333333s64-47.786667 64-106.666666S547.328 512 512 512zM405.333333 341.333333a64 64 0 1 0 0 128 64 64 0 0 0 0-128z m213.333334 0a64 64 0 1 0 0 128 64 64 0 0 0 0-128z" /></svg>