<?xml version="1.0" standalone="no"?>
<!DOCTYPE svg PUBLIC "-//W3C//DTD SVG 1.1//EN" "http://www.w3.org/Graphics/SVG/1.1/DTD/svg11.dtd">
<svg class="icon" style="width: 1em;height: 1em;vertical-align: middle;fill: currentColor;overflow: hidden;" viewBox="0 0 1024 1024" version="1.1" xmlns="http://www.w3.org/2000/svg"><path d="M512 85.333333c149.333333 0 256 128 298.666667 256 128 42.666667 170.666667 159.146667 170.666666 256l-118.4 33.834667a42.666667 42.666667 0 0 0-30.933333 41.002667v63.829333A74.666667 74.666667 0 0 1 757.333333 810.666667h-25.429333a85.333333 85.333333 0 0 0-71.168 38.229333C621.141333 908.8 571.562667 938.666667 512 938.666667c-59.562667 0-109.141333-29.909333-148.736-89.770667A85.333333 85.333333 0 0 0 292.096 810.666667H266.666667a74.666667 74.666667 0 0 1-74.666667-74.666667v-63.829333a42.666667 42.666667 0 0 0-30.933333-41.002667L42.666667 597.333333c0-96.682667 42.666667-213.333333 170.666666-256 42.666667-128 149.333333-256 298.666667-256z m0 85.333334C421.973333 170.666667 338.56 246.954667 298.197333 357.162667l-3.925333 11.136-13.482667 40.533333-40.490666 13.44c-53.546667 17.877333-88.192 57.216-103.424 109.226667l-0.981334 3.669333 48.64 13.952a128 128 0 0 1 92.586667 115.328l0.213333 7.722667V725.333333h14.762667a170.666667 170.666667 0 0 1 136.533333 68.266667l5.802667 8.192C459.008 838.954667 482.816 853.333333 512 853.333333c27.221333 0 49.792-12.501333 72.661333-44.373333l4.906667-7.168a170.666667 170.666667 0 0 1 132.266667-76.16l10.069333-0.298667h14.762667v-53.162666a128 128 0 0 1 85.461333-120.746667l7.381333-2.304 48.597334-13.952-0.981334-3.712c-14.378667-49.109333-46.08-86.912-94.72-105.984l-8.704-3.2-40.533333-13.482667-13.44-40.490666C690.986667 252.16 605.013333 170.666667 512 170.666667z m0 341.333333c35.328 0 64 47.786667 64 106.666667S547.328 725.333333 512 725.333333s-64-47.786667-64-106.666666 28.672-106.666667 64-106.666667zM405.333333 341.333333a64 64 0 1 1 0 128 64 64 0 0 1 0-128z m213.333334 0a64 64 0 1 1 0 128 64 64 0 0 1 0-128z" /></svg>