<?xml version="1.0" standalone="no"?>
<!DOCTYPE svg PUBLIC "-//W3C//DTD SVG 1.1//EN" "http://www.w3.org/Graphics/SVG/1.1/DTD/svg11.dtd">
<svg class="icon" style="width: 1em;height: 1em;vertical-align: middle;fill: currentColor;overflow: hidden;" viewBox="0 0 1024 1024" version="1.1" xmlns="http://www.w3.org/2000/svg"><path d="M768 682.666667v-85.333334h42.666667V170.666667H256v428.16A150.613333 150.613333 0 0 1 277.333333 597.333333H341.333333v85.333334H277.333333a64 64 0 0 0 0 128H426.666667v85.333333H277.333333A149.333333 149.333333 0 0 1 128 746.666667V213.333333a128 128 0 0 1 128-128h597.333333a42.666667 42.666667 0 0 1 42.666667 42.666667v725.333333a42.666667 42.666667 0 0 1-42.666667 42.666667h-170.666666v-85.333333h128v-128h-42.666667zM298.666667 213.333333h85.333333v85.333334H298.666667V213.333333z m0 128h85.333333v85.333334H298.666667V341.333333z m298.666666 384v256h-85.333333v-256H384l170.666667-213.333333 170.666666 213.333333h-128z" /></svg>