<?xml version="1.0" standalone="no"?>
<!DOCTYPE svg PUBLIC "-//W3C//DTD SVG 1.1//EN" "http://www.w3.org/Graphics/SVG/1.1/DTD/svg11.dtd">
<svg class="icon" style="width: 1em;height: 1em;vertical-align: middle;fill: currentColor;overflow: hidden;" viewBox="0 0 1024 1024" version="1.1" xmlns="http://www.w3.org/2000/svg"><path d="M554.666667 896v106.666667l-128-85.333334-128 85.333334V896h-21.333334A149.333333 149.333333 0 0 1 128 746.666667V213.333333a128 128 0 0 1 128-128h597.333333a42.666667 42.666667 0 0 1 42.666667 42.666667v725.333333a42.666667 42.666667 0 0 1-42.666667 42.666667h-298.666666z m-256-85.333333v-85.333334h256v85.333334h256v-128H277.333333a64 64 0 0 0 0 128H298.666667zM298.666667 213.333333v85.333334h85.333333V213.333333H298.666667z m0 128v85.333334h85.333333V341.333333H298.666667z m0 128v85.333334h85.333333v-85.333334H298.666667z" /></svg>