<?xml version="1.0" standalone="no"?>
<!DOCTYPE svg PUBLIC "-//W3C//DTD SVG 1.1//EN" "http://www.w3.org/Graphics/SVG/1.1/DTD/svg11.dtd">
<svg class="icon" style="width: 1em;height: 1em;vertical-align: middle;fill: currentColor;overflow: hidden;" viewBox="0 0 1024 1024" version="1.1" xmlns="http://www.w3.org/2000/svg"><path d="M554.666667 896h213.333333v85.333333H256v-85.333333h213.333333v-44.8a426.752 426.752 0 0 1-327.850666-212.821333l74.112-42.325334A341.333333 341.333333 0 1 0 681.386667 130.261333l42.325333-74.112A426.496 426.496 0 0 1 938.666667 426.666667c0 221.226667-168.405333 403.157333-384 424.533333V896z m-42.666667-170.666667a298.666667 298.666667 0 1 1 0-597.333333 298.666667 298.666667 0 0 1 0 597.333333z m0-85.333333a213.333333 213.333333 0 1 0 0-426.666667 213.333333 213.333333 0 0 0 0 426.666667z" /></svg>