<?xml version="1.0" standalone="no"?>
<!DOCTYPE svg PUBLIC "-//W3C//DTD SVG 1.1//EN" "http://www.w3.org/Graphics/SVG/1.1/DTD/svg11.dtd">
<svg class="icon" style="width: 1em;height: 1em;vertical-align: middle;fill: currentColor;overflow: hidden;" viewBox="0 0 1024 1024" version="1.1" xmlns="http://www.w3.org/2000/svg"><path d="M512 682.666667l128 256H384l128-256z m-112.085333 10.88a213.333333 213.333333 0 1 1 224.213333 0l-57.856-115.669334a85.333333 85.333333 0 1 0-108.544 0l-57.813333 115.626667z m-95.616 191.232A426.538667 426.538667 0 0 1 85.333333 512C85.333333 276.352 276.352 85.333333 512 85.333333s426.666667 191.018667 426.666667 426.666667a426.538667 426.538667 0 0 1-218.965334 372.778667l-57.301333-114.688a298.666667 298.666667 0 1 0-300.8 0l-57.301333 114.688z" /></svg>