<?xml version="1.0" standalone="no"?>
<!DOCTYPE svg PUBLIC "-//W3C//DTD SVG 1.1//EN" "http://www.w3.org/Graphics/SVG/1.1/DTD/svg11.dtd">
<svg class="icon" style="width: 1em;height: 1em;vertical-align: middle;fill: currentColor;overflow: hidden;" viewBox="0 0 1024 1024" version="1.1" xmlns="http://www.w3.org/2000/svg"><path d="M87.466667 554.666667h85.845333a341.376 341.376 0 0 0 677.376 0h85.888c-21.418667 215.594667-203.349333 384-424.576 384-221.226667 0-403.157333-168.405333-424.533333-384z m0-85.333334c21.333333-215.594667 203.264-384 424.533333-384s403.157333 168.405333 424.533333 384h-85.845333a341.376 341.376 0 0 0-677.376 0H87.424zM512 597.333333a85.333333 85.333333 0 1 1 0-170.666666 85.333333 85.333333 0 0 1 0 170.666666z" /></svg>