<?xml version="1.0" standalone="no"?>
<!DOCTYPE svg PUBLIC "-//W3C//DTD SVG 1.1//EN" "http://www.w3.org/Graphics/SVG/1.1/DTD/svg11.dtd">
<svg class="icon" style="width: 1em;height: 1em;vertical-align: middle;fill: currentColor;overflow: hidden;" viewBox="0 0 1024 1024" version="1.1" xmlns="http://www.w3.org/2000/svg"><path d="M597.333333 426.666667h-170.666666v170.666666h170.666666v-170.666666z m85.333334 0v170.666666h128v-170.666666h-128z m-85.333334 384v-128h-170.666666v128h170.666666z m85.333334 0h128v-128h-128v128zM597.333333 213.333333h-170.666666v128h170.666666V213.333333z m85.333334 0v128h128V213.333333h-128z m-341.333334 213.333334H213.333333v170.666666h128v-170.666666z m0 384v-128H213.333333v128h128zM341.333333 213.333333H213.333333v128h128V213.333333zM170.666667 128h682.666666a42.666667 42.666667 0 0 1 42.666667 42.666667v682.666666a42.666667 42.666667 0 0 1-42.666667 42.666667H170.666667a42.666667 42.666667 0 0 1-42.666667-42.666667V170.666667a42.666667 42.666667 0 0 1 42.666667-42.666667z" /></svg>