<?xml version="1.0" standalone="no"?>
<!DOCTYPE svg PUBLIC "-//W3C//DTD SVG 1.1//EN" "http://www.w3.org/Graphics/SVG/1.1/DTD/svg11.dtd">
<svg class="icon" style="width: 1em;height: 1em;vertical-align: middle;fill: currentColor;overflow: hidden;" viewBox="0 0 1024 1024" version="1.1" xmlns="http://www.w3.org/2000/svg"><path d="M597.333333 426.666667v170.666666h-170.666666v-170.666666h170.666666z m85.333334 0h213.333333v170.666666h-213.333333v-170.666666z m-85.333334 469.333333h-170.666666v-213.333333h170.666666v213.333333z m85.333334 0v-213.333333h213.333333v170.666666a42.666667 42.666667 0 0 1-42.666667 42.666667h-170.666666zM597.333333 128v213.333333h-170.666666V128h170.666666z m85.333334 0h170.666666a42.666667 42.666667 0 0 1 42.666667 42.666667v170.666666h-213.333333V128z m-341.333334 298.666667v170.666666H128v-170.666666h213.333333z m0 469.333333H170.666667a42.666667 42.666667 0 0 1-42.666667-42.666667v-170.666666h213.333333v213.333333zM341.333333 128v213.333333H128V170.666667a42.666667 42.666667 0 0 1 42.666667-42.666667h170.666666z" /></svg>