<?xml version="1.0" standalone="no"?>
<!DOCTYPE svg PUBLIC "-//W3C//DTD SVG 1.1//EN" "http://www.w3.org/Graphics/SVG/1.1/DTD/svg11.dtd">
<svg class="icon" style="width: 1em;height: 1em;vertical-align: middle;fill: currentColor;overflow: hidden;" viewBox="0 0 1024 1024" version="1.1" xmlns="http://www.w3.org/2000/svg"><path d="M426.666667 842.581333V699.733333c0-54.741333 42.453333-97.792 105.258666-122.368A361.898667 361.898667 0 0 0 405.333333 554.666667c-80.64 0-155.136 26.325333-215.338666 70.826666A342.058667 342.058667 0 0 0 426.666667 842.581333z m378.88-156.245333C788.693333 663.594667 732.586667 640 661.333333 640c-85.589333 0-149.333333 34.005333-149.333333 59.733333V853.333333a341.162667 341.162667 0 0 0 293.546667-166.997333zM407.466667 490.666667a96 96 0 1 0 0-192 96 96 0 0 0 0 192z m253.866666 42.666666a85.333333 85.333333 0 1 0 0-170.666666 85.333333 85.333333 0 0 0 0 170.666666zM512 938.666667C276.352 938.666667 85.333333 747.648 85.333333 512S276.352 85.333333 512 85.333333s426.666667 191.018667 426.666667 426.666667-191.018667 426.666667-426.666667 426.666667z" /></svg>