<?xml version="1.0" standalone="no"?>
<!DOCTYPE svg PUBLIC "-//W3C//DTD SVG 1.1//EN" "http://www.w3.org/Graphics/SVG/1.1/DTD/svg11.dtd">
<svg class="icon" style="width: 1em;height: 1em;vertical-align: middle;fill: currentColor;overflow: hidden;" viewBox="0 0 1024 1024" version="1.1" xmlns="http://www.w3.org/2000/svg"><path d="M407.466667 490.666667a96 96 0 1 1 0-192 96 96 0 0 1 0 192z m19.2 351.914666V699.733333c0-20.821333 6.144-39.978667 17.237333-57.088a276.181333 276.181333 0 0 0-214.741333 60.458667A341.845333 341.845333 0 0 0 426.666667 842.624zM189.994667 625.493333A361.045333 361.045333 0 0 1 405.333333 554.666667c44.501333 0 87.168 8.021333 126.592 22.698666 37.461333-14.634667 82.133333-22.698667 129.408-22.698666 70.826667 0 135.893333 18.090667 179.456 49.322666a341.333333 341.333333 0 1 0-650.794666 21.504z m615.509333 60.842667C788.736 663.594667 732.629333 640 661.333333 640c-85.589333 0-149.333333 34.005333-149.333333 59.733333V853.333333a341.162667 341.162667 0 0 0 293.546667-166.997333zM512 938.666667C276.352 938.666667 85.333333 747.648 85.333333 512S276.352 85.333333 512 85.333333s426.666667 191.018667 426.666667 426.666667-191.018667 426.666667-426.666667 426.666667z m149.333333-405.333334a85.333333 85.333333 0 1 1 0-170.666666 85.333333 85.333333 0 0 1 0 170.666666z" /></svg>