<?xml version="1.0" standalone="no"?>
<!DOCTYPE svg PUBLIC "-//W3C//DTD SVG 1.1//EN" "http://www.w3.org/Graphics/SVG/1.1/DTD/svg11.dtd">
<svg class="icon" style="width: 1em;height: 1em;vertical-align: middle;fill: currentColor;overflow: hidden;" viewBox="0 0 1024 1024" version="1.1" xmlns="http://www.w3.org/2000/svg"><path d="M256 743.168A341.461333 341.461333 0 0 1 384 85.333333a341.461333 341.461333 0 0 1 318.208 217.557334A234.666667 234.666667 0 0 1 810.666667 759.168v-90.88a149.333333 149.333333 0 1 0-170.666667-239.445333V426.666667a256 256 0 1 0-384 221.738666v94.762667zM426.666667 725.333333a85.333333 85.333333 0 1 1 0-170.666666 85.333333 85.333333 0 0 1 0 170.666666z m213.333333 128a85.333333 85.333333 0 1 1 0-170.666666 85.333333 85.333333 0 0 1 0 170.666666z m-213.333333 128a85.333333 85.333333 0 1 1 0-170.666666 85.333333 85.333333 0 0 1 0 170.666666z" /></svg>