<?xml version="1.0" standalone="no"?>
<!DOCTYPE svg PUBLIC "-//W3C//DTD SVG 1.1//EN" "http://www.w3.org/Graphics/SVG/1.1/DTD/svg11.dtd">
<svg class="icon" style="width: 1em;height: 1em;vertical-align: middle;fill: currentColor;overflow: hidden;" viewBox="0 0 1024 1024" version="1.1" xmlns="http://www.w3.org/2000/svg"><path d="M810.453333 759.210667a170.666667 170.666667 0 0 0-216.96-155.477334A170.709333 170.709333 0 0 0 256 640c0 46.08 18.261333 87.850667 47.872 118.528a341.333333 341.333333 0 1 1 398.293333-455.68 234.666667 234.666667 0 0 1 108.245334 456.362667zM426.666667 725.333333a85.333333 85.333333 0 1 1 0-170.666666 85.333333 85.333333 0 0 1 0 170.666666z m213.333333 128a85.333333 85.333333 0 1 1 0-170.666666 85.333333 85.333333 0 0 1 0 170.666666z m-213.333333 128a85.333333 85.333333 0 1 1 0-170.666666 85.333333 85.333333 0 0 1 0 170.666666z" /></svg>