<?xml version="1.0" standalone="no"?>
<!DOCTYPE svg PUBLIC "-//W3C//DTD SVG 1.1//EN" "http://www.w3.org/Graphics/SVG/1.1/DTD/svg11.dtd">
<svg class="icon" style="width: 1em;height: 1em;vertical-align: middle;fill: currentColor;overflow: hidden;" viewBox="0 0 1024 1024" version="1.1" xmlns="http://www.w3.org/2000/svg"><path d="M213.333333 384a42.666667 42.666667 0 0 1 42.666667 42.666667 297.386667 297.386667 0 0 1 184.746667 64h92.586666c56.874667 0 107.946667 24.746667 143.104 64H810.666667a213.333333 213.333333 0 0 1 192.682666 121.642666C902.442667 809.472 739.072 896 554.666667 896c-119.04 0-219.733333-25.728-301.226667-70.741333A42.581333 42.581333 0 0 1 213.333333 853.333333H85.333333a42.666667 42.666667 0 0 1-42.666666-42.666666v-384a42.666667 42.666667 0 0 1 42.666666-42.666667h128z m42.709334 128L256 726.272l1.92 1.365333C334.506667 781.397333 434.261333 810.666667 554.666667 810.666667c128.170667 0 247.424-49.322667 334.293333-133.546667l5.674667-5.674667-5.12-4.266666a127.744 127.744 0 0 0-70.101334-26.88L810.666667 640h-90.069334c3.072 13.738667 4.736 27.989333 4.736 42.666667v42.666666H341.333333v-85.333333l289.706667-0.042667-1.450667-3.328a106.709333 106.709333 0 0 0-89.258666-60.416L533.333333 576H408.32A212.693333 212.693333 0 0 0 256.085333 512zM170.666667 469.333333H128v298.666667h42.666667v-298.666667z m597.333333-256a128 128 0 1 1 0 256 128 128 0 0 1 0-256z m0 85.333334a42.666667 42.666667 0 1 0 0 85.333333 42.666667 42.666667 0 0 0 0-85.333333z m-298.666667-213.333334a128 128 0 1 1 0 256 128 128 0 0 1 0-256z m0 85.333334a42.666667 42.666667 0 1 0 0 85.333333 42.666667 42.666667 0 0 0 0-85.333333z" /></svg>