<?xml version="1.0" standalone="no"?>
<!DOCTYPE svg PUBLIC "-//W3C//DTD SVG 1.1//EN" "http://www.w3.org/Graphics/SVG/1.1/DTD/svg11.dtd">
<svg class="icon" style="width: 1em;height: 1em;vertical-align: middle;fill: currentColor;overflow: hidden;" viewBox="0 0 1024 1024" version="1.1" xmlns="http://www.w3.org/2000/svg"><path d="M725.333333 85.333333v85.333334l-170.666666-0.042667V256h128v85.333333c94.293333 0 170.666667 76.373333 170.666666 170.666667v341.333333a85.333333 85.333333 0 0 1-85.333333 85.333334H256a85.333333 85.333333 0 0 1-85.333333-85.333334v-341.333333c0-94.293333 76.373333-170.666667 170.666666-170.666667V256h128V170.624L320 170.666667c-26.88 0-58.453333 20.906667-93.866667 68.266666L157.866667 187.733333C207.786667 121.173333 261.546667 85.333333 320 85.333333H725.333333z m-170.666666 426.666667h-85.333334v85.333333H384v85.333334h85.290667L469.333333 768h85.333334l-0.042667-85.333333H640v-85.333334h-85.333333v-85.333333z" /></svg>