<?xml version="1.0" standalone="no"?>
<!DOCTYPE svg PUBLIC "-//W3C//DTD SVG 1.1//EN" "http://www.w3.org/Graphics/SVG/1.1/DTD/svg11.dtd">
<svg class="icon" style="width: 1em;height: 1em;vertical-align: middle;fill: currentColor;overflow: hidden;" viewBox="0 0 1024 1024" version="1.1" xmlns="http://www.w3.org/2000/svg"><path d="M512 85.333333a298.666667 298.666667 0 0 1 298.666667 298.666667h45.824a42.666667 42.666667 0 0 1 42.538666 39.381333l36.096 469.333334a42.666667 42.666667 0 0 1-39.253333 45.824L892.586667 938.666667H131.413333a42.666667 42.666667 0 0 1-42.666666-42.666667l0.128-3.285333 36.096-469.333334A42.666667 42.666667 0 0 1 167.509333 384H213.333333a298.666667 298.666667 0 0 1 298.666667-298.666667z m304.938667 384H207.018667l-29.568 384H846.506667l-29.568-384zM597.333333 554.666667v85.333333h-170.666666v-85.333333h170.666666z m-85.333333-384a213.333333 213.333333 0 0 0-213.12 204.074666L298.666667 384h426.666666a213.333333 213.333333 0 0 0-204.074666-213.12L512 170.666667z" /></svg>