<?xml version="1.0" standalone="no"?>
<!DOCTYPE svg PUBLIC "-//W3C//DTD SVG 1.1//EN" "http://www.w3.org/Graphics/SVG/1.1/DTD/svg11.dtd">
<svg class="icon" style="width: 1em;height: 1em;vertical-align: middle;fill: currentColor;overflow: hidden;" viewBox="0 0 1024 1024" version="1.1" xmlns="http://www.w3.org/2000/svg"><path d="M595.2 85.333333H853.333333a42.666667 42.666667 0 0 1 42.666667 42.666667v768a42.666667 42.666667 0 0 1-42.666667 42.666667H170.666667a42.666667 42.666667 0 0 1-42.666667-42.666667v-343.466667c14.037333 1.408 28.288 2.133333 42.666667 2.133334 235.648 0 426.666667-191.018667 426.666666-426.666667 0-14.378667-0.725333-28.629333-2.133333-42.666667zM640 682.666667v85.333333h85.333333v-85.333333h-85.333333zM509.354667 85.333333A341.333333 341.333333 0 0 1 128 466.688V128a42.666667 42.666667 0 0 1 42.666667-42.666667h338.688z" /></svg>