<?xml version="1.0" standalone="no"?>
<!DOCTYPE svg PUBLIC "-//W3C//DTD SVG 1.1//EN" "http://www.w3.org/Graphics/SVG/1.1/DTD/svg11.dtd">
<svg class="icon" style="width: 1em;height: 1em;vertical-align: middle;fill: currentColor;overflow: hidden;" viewBox="0 0 1024 1024" version="1.1" xmlns="http://www.w3.org/2000/svg"><path d="M259.541333 554.666667a256 256 0 1 1 504.917334 0h-87.168a170.666667 170.666667 0 1 0-330.581334 0H259.541333zM85.333333 640h426.666667v85.333333H85.333333v-85.333333z m512 0h341.333334v85.333333h-341.333334v-85.333333z m85.333334 170.666667h170.666666v85.333333h-170.666666v-85.333333zM170.666667 810.666667h426.666666v85.333333H170.666667v-85.333333z m298.666666-768h85.333334v128h-85.333334V42.666667zM149.973333 210.304l60.330667-60.330667L300.8 240.469333 240.469333 300.8 149.973333 210.346667zM813.653333 149.973333l60.330667 60.330667-90.496 90.496-60.330667-60.330667 90.496-90.496zM981.333333 469.333333v85.333334h-128v-85.333334h128zM170.666667 469.333333v85.333334H42.666667v-85.333334h128z" /></svg>