<?xml version="1.0" standalone="no"?>
<!DOCTYPE svg PUBLIC "-//W3C//DTD SVG 1.1//EN" "http://www.w3.org/Graphics/SVG/1.1/DTD/svg11.dtd">
<svg class="icon" style="width: 1em;height: 1em;vertical-align: middle;fill: currentColor;overflow: hidden;" viewBox="0 0 1024 1024" version="1.1" xmlns="http://www.w3.org/2000/svg"><path d="M704 128C833.621333 128 938.666667 234.666667 938.666667 384c0 298.666667-320 469.333333-426.666667 533.333333-84.352-50.602667-302.208-167.978667-389.589333-362.624L42.666667 554.666667v-85.333334h51.626666A406.826667 406.826667 0 0 1 85.333333 384c0-149.333333 106.666667-256 234.666667-256C399.36 128 469.333333 170.666667 512 213.333333c42.666667-42.666667 112.64-85.333333 192-85.333333z m0 85.333333c-45.909333 0-95.573333 24.32-131.669333 60.330667L512 333.994667l-60.330667-60.330667C415.573333 237.653333 365.909333 213.333333 320 213.333333 237.226667 213.333333 170.666667 283.989333 170.666667 384c0 29.226667 3.84 57.685333 11.392 85.333333h92.458666L362.666667 322.389333l128 213.333334L530.517333 469.333333H725.333333v85.333334h-146.517333L490.666667 701.610667l-128-213.333334L322.816 554.666667H217.941333c33.706667 58.624 84.693333 113.834667 150.912 166.528 31.786667 25.258667 65.706667 48.853333 103.296 72.533333 12.757333 8.064 25.386667 15.786667 39.850667 24.405333 14.464-8.618667 27.093333-16.341333 39.850667-24.362666a1149.994667 1149.994667 0 0 0 103.253333-72.576C782.293333 620.074667 853.333333 509.568 853.333333 384c0-100.693333-65.578667-170.666667-149.333333-170.666667z" /></svg>