<?xml version="1.0" standalone="no"?>
<!DOCTYPE svg PUBLIC "-//W3C//DTD SVG 1.1//EN" "http://www.w3.org/Graphics/SVG/1.1/DTD/svg11.dtd">
<svg class="icon" style="width: 1em;height: 1em;vertical-align: middle;fill: currentColor;overflow: hidden;" viewBox="0 0 1024 1024" version="1.1" xmlns="http://www.w3.org/2000/svg"><path d="M810.666667 597.333333v128h128v85.333334h-128.042667L810.666667 938.666667h-85.333334l-0.042666-128H597.333333v-85.333334h128v-128h85.333334z m53.034666-394.368a256 256 0 0 1 10.069334 351.36l-60.586667-60.501333c56.789333-65.024 53.802667-166.997333-9.898667-230.570667a170.709333 170.709333 0 0 0-234.24-6.528l-56.96 51.114667-57.002666-51.072a170.624 170.624 0 0 0-234.410667 6.570667 170.666667 170.666667 0 0 0-8.192 232.576l359.765333 360.362666L512 916.693333l-361.813333-362.325333A256 256 0 0 1 512 193.237333a255.914667 255.914667 0 0 1 351.658667 9.728z" /></svg>