<?xml version="1.0" standalone="no"?>
<!DOCTYPE svg PUBLIC "-//W3C//DTD SVG 1.1//EN" "http://www.w3.org/Graphics/SVG/1.1/DTD/svg11.dtd">
<svg class="icon" style="width: 1em;height: 1em;vertical-align: middle;fill: currentColor;overflow: hidden;" viewBox="0 0 1024 1024" version="1.1" xmlns="http://www.w3.org/2000/svg"><path d="M704 128C833.621333 128 938.666667 234.666667 938.666667 384c0 298.666667-320 469.333333-426.666667 533.333333-84.394667-50.645333-302.250667-167.978667-389.632-362.666666h200.448l39.850667-66.389334 128 213.333334L578.816 554.666667H725.333333v-85.333334h-194.816l-39.850666 66.389334-128-213.333334L274.517333 469.333333H94.293333A407.722667 407.722667 0 0 1 85.333333 384c0-149.333333 106.666667-256 234.666667-256C399.36 128 469.333333 170.666667 512 213.333333c42.666667-42.666667 112.64-85.333333 192-85.333333z" /></svg>