<?xml version="1.0" standalone="no"?>
<!DOCTYPE svg PUBLIC "-//W3C//DTD SVG 1.1//EN" "http://www.w3.org/Graphics/SVG/1.1/DTD/svg11.dtd">
<svg class="icon" style="width: 1em;height: 1em;vertical-align: middle;fill: currentColor;overflow: hidden;" viewBox="0 0 1024 1024" version="1.1" xmlns="http://www.w3.org/2000/svg"><path d="M810.666667 810.666667V418.090667l-298.666667-235.605334-298.666667 235.605334V810.666667h597.333334z m85.333333 42.666666a42.666667 42.666667 0 0 1-42.666667 42.666667H170.666667a42.666667 42.666667 0 0 1-42.666667-42.666667V397.397333a42.666667 42.666667 0 0 1 16.213333-33.493333l341.333334-269.269333a42.666667 42.666667 0 0 1 52.906666 0l341.333334 269.226666a42.666667 42.666667 0 0 1 16.213333 33.536V853.333333zM298.666667 512h85.333333a128 128 0 0 0 256 0h85.333333a213.333333 213.333333 0 0 1-426.666666 0z" /></svg>