<?xml version="1.0" standalone="no"?>
<!DOCTYPE svg PUBLIC "-//W3C//DTD SVG 1.1//EN" "http://www.w3.org/Graphics/SVG/1.1/DTD/svg11.dtd">
<svg class="icon" style="width: 1em;height: 1em;vertical-align: middle;fill: currentColor;overflow: hidden;" viewBox="0 0 1024 1024" version="1.1" xmlns="http://www.w3.org/2000/svg"><path d="M469.333333 85.333333v85.333334H298.666667v682.666666h426.666666v-384h85.333334v426.666667a42.666667 42.666667 0 0 1-42.666667 42.666667H256a42.666667 42.666667 0 0 1-42.666667-42.666667V128a42.666667 42.666667 0 0 1 42.666667-42.666667h213.333333z m85.333334 213.333334a85.333333 85.333333 0 0 1 85.333333 85.333333h-85.333333V298.666667z m0-128a213.333333 213.333333 0 0 1 213.333333 213.333333h-85.333333a128 128 0 0 0-128-128V170.666667z m0-128a341.333333 341.333333 0 0 1 341.333333 341.333333h-85.333333a256 256 0 0 0-256-256V42.666667z" /></svg>