<?xml version="1.0" standalone="no"?>
<!DOCTYPE svg PUBLIC "-//W3C//DTD SVG 1.1//EN" "http://www.w3.org/Graphics/SVG/1.1/DTD/svg11.dtd">
<svg class="icon" style="width: 1em;height: 1em;vertical-align: middle;fill: currentColor;overflow: hidden;" viewBox="0 0 1024 1024" version="1.1" xmlns="http://www.w3.org/2000/svg"><path d="M896 640v128h128v85.333333h-128v128h-85.333333v-128h-128v-85.333333h128v-128h85.333333z m0.341333-512c23.381333 0 42.325333 18.986667 42.325334 42.368v398.890667A255.573333 255.573333 0 0 0 853.333333 554.666667V213.333333H170.666667l0.042666 597.333334 396.458667-396.501334a42.624 42.624 0 0 1 56.32-3.584l3.968 3.626667 151.296 151.466667a256.128 256.128 0 0 0-166.826667 330.368L127.658667 896A42.368 42.368 0 0 1 85.333333 853.632V170.368A42.666667 42.666667 0 0 1 127.658667 128h768.682666zM341.333333 298.666667a85.333333 85.333333 0 1 1 0 170.666666 85.333333 85.333333 0 0 1 0-170.666666z" /></svg>