<?xml version="1.0" standalone="no"?>
<!DOCTYPE svg PUBLIC "-//W3C//DTD SVG 1.1//EN" "http://www.w3.org/Graphics/SVG/1.1/DTD/svg11.dtd">
<svg class="icon" style="width: 1em;height: 1em;vertical-align: middle;fill: currentColor;overflow: hidden;" viewBox="0 0 1024 1024" version="1.1" xmlns="http://www.w3.org/2000/svg"><path d="M682.666667 384l186.496 74.624a42.666667 42.666667 0 0 1 26.837333 39.594667V896a42.666667 42.666667 0 0 1-42.666667 42.666667H170.666667a42.666667 42.666667 0 0 1-42.666667-42.666667v-397.781333c0-17.450667 10.624-33.152 26.837333-39.594667L341.333333 384h341.333334z m170.666666 213.333333H341.333333v213.333334h512v-213.333334zM682.666667 128a42.666667 42.666667 0 0 1 42.666666 42.666667v170.666666H298.666667V170.666667a42.666667 42.666667 0 0 1 42.666666-42.666667h341.333334z" /></svg>