<?xml version="1.0" standalone="no"?>
<!DOCTYPE svg PUBLIC "-//W3C//DTD SVG 1.1//EN" "http://www.w3.org/Graphics/SVG/1.1/DTD/svg11.dtd">
<svg class="icon" style="width: 1em;height: 1em;vertical-align: middle;fill: currentColor;overflow: hidden;" viewBox="0 0 1024 1024" version="1.1" xmlns="http://www.w3.org/2000/svg"><path d="M853.333333 554.666667a42.666667 42.666667 0 0 1 42.666667 42.666666v256a42.666667 42.666667 0 0 1-42.666667 42.666667H170.666667a42.666667 42.666667 0 0 1-42.666667-42.666667v-256a42.666667 42.666667 0 0 1 42.666667-42.666666h682.666666z m-42.666666 85.333333H213.333333v170.666667h597.333334v-170.666667zM512 42.666667a213.333333 213.333333 0 1 1-0.042667 426.709333A213.333333 213.333333 0 0 1 512 42.666667z m42.666667 85.333333h-85.333334v85.290667L384 213.333333v85.333334l85.333333-0.042667V384h85.333334V298.624L640 298.666667V213.333333l-85.333333-0.042666V128z" /></svg>