<?xml version="1.0" standalone="no"?>
<!DOCTYPE svg PUBLIC "-//W3C//DTD SVG 1.1//EN" "http://www.w3.org/Graphics/SVG/1.1/DTD/svg11.dtd">
<svg class="icon" style="width: 1em;height: 1em;vertical-align: middle;fill: currentColor;overflow: hidden;" viewBox="0 0 1024 1024" version="1.1" xmlns="http://www.w3.org/2000/svg"><path d="M170.666667 128h682.666666a42.666667 42.666667 0 0 1 42.666667 42.666667v682.666666a42.666667 42.666667 0 0 1-42.666667 42.666667H170.666667a42.666667 42.666667 0 0 1-42.666667-42.666667V170.666667a42.666667 42.666667 0 0 1 42.666667-42.666667z m127.488 472.106667a160.853333 160.853333 0 0 0-3.84 33.706666c0 39.552 20.565333 65.792 64.341333 65.792 36.309333 0 65.749333-22.442667 86.954667-58.666666l-12.928 54.058666h72.106666l41.216-171.989333c10.282667-43.52 30.293333-66.133333 60.544-66.133333 23.808 0 38.613333 15.36 38.613334 40.832 0 7.381333-0.64 15.402667-3.2 24.106666l-21.248 79.061334a123.306667 123.306667 0 0 0-4.522667 33.493333c0 37.546667 21.248 64.981333 65.706667 64.981333 37.973333 0 68.266667-25.429333 84.992-86.4l-28.330667-11.392c-14.165333 40.874667-26.453333 48.213333-36.096 48.213334-9.642667 0-14.805333-6.656-14.805333-20.053334 0-6.016 1.28-12.714667 3.242666-20.778666l20.608-77.013334c5.12-18.090667 7.082667-34.133333 7.082667-48.853333 0-57.6-33.493333-87.68-74.069333-87.68-37.973333 0-76.629333 35.626667-95.914667 73.173333l14.122667-67.370666h-110.08l-15.488 59.306666h51.541333l-31.744 132.181334c-24.874667 57.6-70.656 58.538667-76.373333 57.173333-9.472-2.176-15.488-5.930667-15.488-18.688 0-7.338667 1.28-17.92 4.522666-30.634667l48.298667-199.338666H295.552l-15.445333 59.306666h50.858666l-32.853333 139.605334z m69.845333-232.106667a48 48 0 1 0 0-96 48 48 0 0 0 0 96z" /></svg>