<?xml version="1.0" standalone="no"?>
<!DOCTYPE svg PUBLIC "-//W3C//DTD SVG 1.1//EN" "http://www.w3.org/Graphics/SVG/1.1/DTD/svg11.dtd">
<svg class="icon" style="width: 1em;height: 1em;vertical-align: middle;fill: currentColor;overflow: hidden;" viewBox="0 0 1024 1024" version="1.1" xmlns="http://www.w3.org/2000/svg"><path d="M185.258667 60.074667L954.581333 829.44a64 64 0 0 1-90.496 90.538667l-196.096-196.138667L517.12 874.666667 341.333333 698.88V810.666667a42.666667 42.666667 0 0 1-85.333333 0v-170.666667a42.666667 42.666667 0 0 0-85.034667-4.992L170.666667 640v42.666667a42.666667 42.666667 0 0 1-85.333334 0V307.797333a340.309333 340.309333 0 0 1 92.501334-240.085333l7.424-7.637333z m10.282666 130.986666l-2.176 4.693334a255.701333 255.701333 0 0 0-22.272 89.728L170.666667 298.666667l-0.042667 5.12a255.317333 255.317333 0 0 0 67.413333 170.794666l7.552 7.893334 271.488 271.488 120.704-120.661334L195.541333 191.061333z" /></svg>