<?xml version="1.0" standalone="no"?>
<!DOCTYPE svg PUBLIC "-//W3C//DTD SVG 1.1//EN" "http://www.w3.org/Graphics/SVG/1.1/DTD/svg11.dtd">
<svg class="icon" style="width: 1em;height: 1em;vertical-align: middle;fill: currentColor;overflow: hidden;" viewBox="0 0 1024 1024" version="1.1" xmlns="http://www.w3.org/2000/svg"><path d="M896 128v85.333333c0 410.752-229.248 597.333333-512 597.333334H223.701333A727.722667 727.722667 0 0 0 213.333333 938.666667H128c0-58.154667 4.949333-110.933333 14.762667-159.232C132.949333 724.224 128 649.301333 128 554.666667 128 319.018667 319.018667 128 554.666667 128c85.333333 0 170.666667 42.666667 341.333333 0z m-341.333333 85.333333a341.333333 341.333333 0 0 0-341.333334 341.333334c0 15.445333 0.128 30.336 0.426667 44.629333 53.504-84.394667 131.882667-151.082667 234.410667-209.664l42.325333 74.069333C368.682667 533.333333 287.872 612.437333 246.442667 725.333333H384c256.64 0 421.162667-169.514667 426.538667-495.445333-58.538667 5.674667-112.938667 2.048-180.053334-8.021333C581.418667 214.485333 571.776 213.333333 554.666667 213.333333z" /></svg>