<?xml version="1.0" standalone="no"?>
<!DOCTYPE svg PUBLIC "-//W3C//DTD SVG 1.1//EN" "http://www.w3.org/Graphics/SVG/1.1/DTD/svg11.dtd">
<svg class="icon" style="width: 1em;height: 1em;vertical-align: middle;fill: currentColor;overflow: hidden;" viewBox="0 0 1024 1024" version="1.1" xmlns="http://www.w3.org/2000/svg"><path d="M425.514667 768H469.333333v-213.333333h85.333334v213.333333h43.818666c5.632-51.285333 31.786667-93.610667 74.24-139.818667 4.821333-5.205333 35.498667-36.992 39.125334-41.514666a256 256 0 1 0-399.786667-0.085334c3.669333 4.565333 34.432 36.394667 39.168 41.557334 42.496 46.250667 68.650667 88.576 74.282667 139.861333zM426.666667 853.333333v42.666667h170.666666v-42.666667h-170.666666z m-181.162667-213.333333a341.333333 341.333333 0 1 1 532.906667 0.085333C751.957333 673.024 682.666667 725.333333 682.666667 789.333333V896a85.333333 85.333333 0 0 1-85.333334 85.333333h-170.666666a85.333333 85.333333 0 0 1-85.333334-85.333333v-106.666667C341.333333 725.333333 272 673.024 245.504 640z" /></svg>