<?xml version="1.0" standalone="no"?>
<!DOCTYPE svg PUBLIC "-//W3C//DTD SVG 1.1//EN" "http://www.w3.org/Graphics/SVG/1.1/DTD/svg11.dtd">
<svg class="icon" style="width: 1em;height: 1em;vertical-align: middle;fill: currentColor;overflow: hidden;" viewBox="0 0 1024 1024" version="1.1" xmlns="http://www.w3.org/2000/svg"><path d="M298.666667 426.666667h554.666666a42.666667 42.666667 0 0 1 42.666667 42.666666v426.666667a42.666667 42.666667 0 0 1-42.666667 42.666667H170.666667a42.666667 42.666667 0 0 1-42.666667-42.666667V469.333333a42.666667 42.666667 0 0 1 42.666667-42.666666h42.666666V384a298.666667 298.666667 0 0 1 565.845334-133.589333l-76.330667 38.144A213.333333 213.333333 0 0 0 298.666667 384v42.666667z m-85.333334 85.333333v341.333333h597.333334v-341.333333H213.333333z m213.333334 128h170.666666v85.333333h-170.666666v-85.333333z" /></svg>