<?xml version="1.0" standalone="no"?>
<!DOCTYPE svg PUBLIC "-//W3C//DTD SVG 1.1//EN" "http://www.w3.org/Graphics/SVG/1.1/DTD/svg11.dtd">
<svg class="icon" style="width: 1em;height: 1em;vertical-align: middle;fill: currentColor;overflow: hidden;" viewBox="0 0 1024 1024" version="1.1" xmlns="http://www.w3.org/2000/svg"><path d="M810.666667 426.666667h42.666666a42.666667 42.666667 0 0 1 42.666667 42.666666v426.666667a42.666667 42.666667 0 0 1-42.666667 42.666667H170.666667a42.666667 42.666667 0 0 1-42.666667-42.666667V469.333333a42.666667 42.666667 0 0 1 42.666667-42.666666h42.666666V384a298.666667 298.666667 0 1 1 597.333334 0v42.666667zM213.333333 512v341.333333h597.333334v-341.333333H213.333333z m256 85.333333h85.333334v170.666667h-85.333334v-170.666667z m256-170.666666V384A213.333333 213.333333 0 0 0 298.666667 384v42.666667h426.666666z" /></svg>