<?xml version="1.0" standalone="no"?>
<!DOCTYPE svg PUBLIC "-//W3C//DTD SVG 1.1//EN" "http://www.w3.org/Graphics/SVG/1.1/DTD/svg11.dtd">
<svg class="icon" style="width: 1em;height: 1em;vertical-align: middle;fill: currentColor;overflow: hidden;" viewBox="0 0 1024 1024" version="1.1" xmlns="http://www.w3.org/2000/svg"><path d="M256 341.333333V298.666667a256 256 0 1 1 512 0v42.666666h85.333333a42.666667 42.666667 0 0 1 42.666667 42.666667v512a42.666667 42.666667 0 0 1-42.666667 42.666667H170.666667a42.666667 42.666667 0 0 1-42.666667-42.666667V384a42.666667 42.666667 0 0 1 42.666667-42.666667h85.333333z m554.666667 85.333334H213.333333v426.666666h597.333334V426.666667z m-341.333334 244.565333a85.333333 85.333333 0 1 1 85.333334 0V768h-85.333334v-96.768zM341.333333 341.333333h341.333334V298.666667a170.666667 170.666667 0 1 0-341.333334 0v42.666666z" /></svg>