<?xml version="1.0" standalone="no"?>
<!DOCTYPE svg PUBLIC "-//W3C//DTD SVG 1.1//EN" "http://www.w3.org/Graphics/SVG/1.1/DTD/svg11.dtd">
<svg class="icon" style="width: 1em;height: 1em;vertical-align: middle;fill: currentColor;overflow: hidden;" viewBox="0 0 1024 1024" version="1.1" xmlns="http://www.w3.org/2000/svg"><path d="M95.701333 292.437333L490.24 55.893333a42.666667 42.666667 0 0 1 43.904 0l394.154667 236.586667a21.333333 21.333333 0 0 1 10.368 18.304V853.333333a42.666667 42.666667 0 0 1-42.666667 42.666667H128a42.666667 42.666667 0 0 1-42.666667-42.666667V310.741333a21.333333 21.333333 0 0 1 10.368-18.304zM170.666667 347.008V810.666667h682.666666V346.965333l-341.162666-204.8L170.666667 346.965333z m343.893333 237.44l225.962667-190.421333 54.954666 65.28-280.32 236.245333-286.293333-235.946667 54.272-65.877333 231.424 190.72z" /></svg>