<?xml version="1.0" standalone="no"?>
<!DOCTYPE svg PUBLIC "-//W3C//DTD SVG 1.1//EN" "http://www.w3.org/Graphics/SVG/1.1/DTD/svg11.dtd">
<svg class="icon" style="width: 1em;height: 1em;vertical-align: middle;fill: currentColor;overflow: hidden;" viewBox="0 0 1024 1024" version="1.1" xmlns="http://www.w3.org/2000/svg"><path d="M938.666667 569.216A256 256 0 0 0 611.882667 896H128a42.666667 42.666667 0 0 1-42.666667-42.666667V170.666667a42.666667 42.666667 0 0 1 42.666667-42.666667h768a42.666667 42.666667 0 0 1 42.666667 42.666667v398.549333z m-424.106667-70.741333L240.981333 266.154667 185.728 331.178667l329.386667 279.68 323.456-279.893334-55.808-64.554666-268.16 232.064zM896 768h128v85.333333h-128v128h-85.333333v-128h-128v-85.333333h128v-128h85.333333v128z" /></svg>