<?xml version="1.0" standalone="no"?>
<!DOCTYPE svg PUBLIC "-//W3C//DTD SVG 1.1//EN" "http://www.w3.org/Graphics/SVG/1.1/DTD/svg11.dtd">
<svg class="icon" style="width: 1em;height: 1em;vertical-align: middle;fill: currentColor;overflow: hidden;" viewBox="0 0 1024 1024" version="1.1" xmlns="http://www.w3.org/2000/svg"><path d="M853.333333 308.821333l-338.261333 302.933334L170.666667 307.882667V810.666667h301.653333a296.533333 296.533333 0 0 0 25.770667 85.333333H128a42.666667 42.666667 0 0 1-42.666667-42.666667V170.666667a42.666667 42.666667 0 0 1 42.666667-42.666667h768a42.666667 42.666667 0 0 1 42.666667 42.666667v352.213333a297.472 297.472 0 0 0-85.333334-41.173333V308.821333zM832.042667 213.333333H192.469333l322.133334 284.245334L832.085333 213.333333z m-119.210667 670.208a128 128 0 0 0 170.709333-170.709333l-170.709333 170.666667z m-60.373333-60.373333l170.709333-170.666667a128 128 0 0 0-170.709333 170.709334zM768 981.333333a213.333333 213.333333 0 1 1 0-426.666666 213.333333 213.333333 0 0 1 0 426.666666z" /></svg>