<?xml version="1.0" standalone="no"?>
<!DOCTYPE svg PUBLIC "-//W3C//DTD SVG 1.1//EN" "http://www.w3.org/Graphics/SVG/1.1/DTD/svg11.dtd">
<svg class="icon" style="width: 1em;height: 1em;vertical-align: middle;fill: currentColor;overflow: hidden;" viewBox="0 0 1024 1024" version="1.1" xmlns="http://www.w3.org/2000/svg"><path d="M680.533333 102.101333l241.365334 241.365334a42.666667 42.666667 0 0 1 0 60.330666l-331.904 331.904-90.453334 30.165334-60.373333 60.330666a42.666667 42.666667 0 0 1-60.330667 0l-181.034666-181.034666a42.666667 42.666667 0 0 1 0-60.330667l60.330666-60.330667 30.165334-90.496 331.904-331.904a42.666667 42.666667 0 0 1 60.330666 0z m30.165334 150.869334l-271.530667 271.530666 60.330667 60.330667 271.530666-271.530667-60.330666-60.330666zM182.698667 720.597333l120.704 120.704-60.330667 60.330667-181.034667-60.330667 120.661334-120.704z" /></svg>