<?xml version="1.0" standalone="no"?>
<!DOCTYPE svg PUBLIC "-//W3C//DTD SVG 1.1//EN" "http://www.w3.org/Graphics/SVG/1.1/DTD/svg11.dtd">
<svg class="icon" style="width: 1em;height: 1em;vertical-align: middle;fill: currentColor;overflow: hidden;" viewBox="0 0 1024 1024" version="1.1" xmlns="http://www.w3.org/2000/svg"><path d="M512 938.666667C276.352 938.666667 85.333333 747.648 85.333333 512S276.352 85.333333 512 85.333333s426.666667 191.018667 426.666667 426.666667-191.018667 426.666667-426.666667 426.666667z m215.509333-161.962667l-36.778666-147.072a42.666667 42.666667 0 0 0-41.386667-32.298667H374.656a42.666667 42.666667 0 0 0-41.386667 32.298667l-36.778666 147.072A339.925333 339.925333 0 0 0 512 853.333333a339.925333 339.925333 0 0 0 215.509333-76.629333zM426.666667 512h170.666666v-64l-44.288-155.093333a42.666667 42.666667 0 0 0-82.090666 0L426.666667 448V512z" /></svg>