<?xml version="1.0" standalone="no"?>
<!DOCTYPE svg PUBLIC "-//W3C//DTD SVG 1.1//EN" "http://www.w3.org/Graphics/SVG/1.1/DTD/svg11.dtd">
<svg class="icon" style="width: 1em;height: 1em;vertical-align: middle;fill: currentColor;overflow: hidden;" viewBox="0 0 1024 1024" version="1.1" xmlns="http://www.w3.org/2000/svg"><path d="M426.666667 448l44.288-155.093333a42.666667 42.666667 0 0 1 82.090666 0L597.333333 448V512h30.72a42.666667 42.666667 0 0 1 41.386667 32.298667l58.069333 232.405333a341.333333 341.333333 0 1 0-431.018666 0l58.112-232.405333A42.666667 42.666667 0 0 1 395.946667 512H426.666667v-64z m85.333333 405.333333a339.285333 339.285333 0 0 0 139.306667-29.610666L594.688 597.333333h-165.376l-56.618667 226.389334A339.2 339.2 0 0 0 512 853.333333z m0 85.333334C276.352 938.666667 85.333333 747.648 85.333333 512S276.352 85.333333 512 85.333333s426.666667 191.018667 426.666667 426.666667-191.018667 426.666667-426.666667 426.666667z" /></svg>