<?xml version="1.0" standalone="no"?>
<!DOCTYPE svg PUBLIC "-//W3C//DTD SVG 1.1//EN" "http://www.w3.org/Graphics/SVG/1.1/DTD/svg11.dtd">
<svg class="icon" style="width: 1em;height: 1em;vertical-align: middle;fill: currentColor;overflow: hidden;" viewBox="0 0 1024 1024" version="1.1" xmlns="http://www.w3.org/2000/svg"><path d="M512 283.904a289.536 289.536 0 0 1 110.762667 228.010667A289.536 289.536 0 0 1 512 739.84a289.536 289.536 0 0 1-110.762667-227.968A289.536 289.536 0 0 1 512 283.904z m-37.12-24.832A332.074667 332.074667 0 0 0 358.4 512a332.074667 332.074667 0 0 0 116.394667 252.842667 290.048 290.048 0 1 1 0.128-505.770667z m74.325333 505.770667A332.074667 332.074667 0 0 0 665.6 512a332.074667 332.074667 0 0 0-116.48-252.928 290.048 290.048 0 1 1 0.128 505.770667z" /></svg>