<?xml version="1.0" standalone="no"?>
<!DOCTYPE svg PUBLIC "-//W3C//DTD SVG 1.1//EN" "http://www.w3.org/Graphics/SVG/1.1/DTD/svg11.dtd">
<svg class="icon" style="width: 1em;height: 1em;vertical-align: middle;fill: currentColor;overflow: hidden;" viewBox="0 0 1024 1024" version="1.1" xmlns="http://www.w3.org/2000/svg"><path d="M512 362.666667l90.282667 217.088 234.325333 18.773333-178.517333 152.917333 54.528 228.693334L512 857.6l-200.618667 122.538667 54.528-228.693334-178.517333-152.917333 234.325333-18.773333L512 362.666667z m0 222.165333l-31.530667 75.818667-81.749333 6.528 62.293333 53.376-19.072 79.829333L512 757.589333l70.016 42.794667-19.029333-79.786667 62.250666-53.418666-81.706666-6.528L512 584.832zM341.333333 85.333333v384H256V85.333333h85.333333z m426.666667 0v384h-85.333333V85.333333h85.333333z m-213.333333 0v213.333334h-85.333334V85.333333h85.333334z" /></svg>