<?xml version="1.0" standalone="no"?>
<!DOCTYPE svg PUBLIC "-//W3C//DTD SVG 1.1//EN" "http://www.w3.org/Graphics/SVG/1.1/DTD/svg11.dtd">
<svg class="icon" style="width: 1em;height: 1em;vertical-align: middle;fill: currentColor;overflow: hidden;" viewBox="0 0 1024 1024" version="1.1" xmlns="http://www.w3.org/2000/svg"><path d="M170.666667 128h682.666666a42.666667 42.666667 0 0 1 42.666667 42.666667v682.666666a42.666667 42.666667 0 0 1-42.666667 42.666667H170.666667a42.666667 42.666667 0 0 1-42.666667-42.666667V170.666667a42.666667 42.666667 0 0 1 42.666667-42.666667z m42.666666 85.333333v597.333334h597.333334V213.333333H213.333333z m524.8 466.773334l40.746667 40.704v2.133333h-209.962667v-2.133333l42.837334-40.704c4.266667-4.266667 6.4-8.533333 6.4-14.976V412.330667c0-10.752 0-25.728 2.176-38.570667l-141.397334 353.493333h-2.133333L331.093333 401.578667c-2.133333-8.533333-4.266667-8.533333-6.4-12.8v214.186666c-2.176 15.018667 0 27.861333 6.4 40.746667l57.856 77.098667v2.133333H234.666667v-2.133333l57.856-79.274667c6.4-12.8 8.533333-27.818667 6.4-40.704V365.226667c0-10.709333-2.133333-23.594667-10.666667-32.128L249.642667 279.466667V277.333333h149.973333l124.245333 276.394667L633.173333 277.333333h145.706667v2.133334l-40.704 47.146666c-4.266667 4.266667-6.4 10.709333-6.4 14.976v325.674667c0 4.266667 2.133333 10.709333 6.4 12.842667z" /></svg>