<?xml version="1.0" standalone="no"?>
<!DOCTYPE svg PUBLIC "-//W3C//DTD SVG 1.1//EN" "http://www.w3.org/Graphics/SVG/1.1/DTD/svg11.dtd">
<svg class="icon" style="width: 1em;height: 1em;vertical-align: middle;fill: currentColor;overflow: hidden;" viewBox="0 0 1024 1024" version="1.1" xmlns="http://www.w3.org/2000/svg"><path d="M896 42.666667v512A384 384 0 1 1 314.666667 225.194667L597.333333 61.994667v118.186666L896 42.666667z m-85.333333 133.205333l-298.666667 137.557333v-103.68L366.805333 293.589333a298.538667 298.538667 0 0 0-153.258666 249.386667L213.333333 554.666667a298.666667 298.666667 0 0 0 597.162667 10.24L810.666667 554.666667V175.872zM512 341.333333a213.333333 213.333333 0 1 1 0 426.666667 213.333333 213.333333 0 0 1 0-426.666667z m0 85.333334a128 128 0 1 0 0 256 128 128 0 0 0 0-256z" /></svg>