<?xml version="1.0" standalone="no"?>
<!DOCTYPE svg PUBLIC "-//W3C//DTD SVG 1.1//EN" "http://www.w3.org/Graphics/SVG/1.1/DTD/svg11.dtd">
<svg class="icon" style="width: 1em;height: 1em;vertical-align: middle;fill: currentColor;overflow: hidden;" viewBox="0 0 1024 1024" version="1.1" xmlns="http://www.w3.org/2000/svg"><path d="M128 128h768a42.666667 42.666667 0 0 1 42.666667 42.666667v682.666666a42.666667 42.666667 0 0 1-42.666667 42.666667H128a42.666667 42.666667 0 0 1-42.666667-42.666667V170.666667a42.666667 42.666667 0 0 1 42.666667-42.666667z m42.666667 85.333333v597.333334h682.666666V213.333333H170.666667z m192 384H597.333333a21.333333 21.333333 0 1 0 0-42.666666h-170.666666a106.666667 106.666667 0 1 1 0-213.333334h42.666666V256h85.333334v85.333333h106.666666v85.333334H426.666667a21.333333 21.333333 0 1 0 0 42.666666h170.666666a106.666667 106.666667 0 1 1 0 213.333334h-42.666666v85.333333h-85.333334v-85.333333H362.666667v-85.333334z" /></svg>