<?xml version="1.0" standalone="no"?>
<!DOCTYPE svg PUBLIC "-//W3C//DTD SVG 1.1//EN" "http://www.w3.org/Graphics/SVG/1.1/DTD/svg11.dtd">
<svg class="icon" style="width: 1em;height: 1em;vertical-align: middle;fill: currentColor;overflow: hidden;" viewBox="0 0 1024 1024" version="1.1" xmlns="http://www.w3.org/2000/svg"><path d="M128 128h768a42.666667 42.666667 0 0 1 42.666667 42.666667v682.666666a42.666667 42.666667 0 0 1-42.666667 42.666667H128a42.666667 42.666667 0 0 1-42.666667-42.666667V170.666667a42.666667 42.666667 0 0 1 42.666667-42.666667z m42.666667 85.333333v597.333334h682.666666V213.333333H170.666667z m258.133333 256H640v85.333334h-211.2a106.666667 106.666667 0 0 0 173.397333 60.16l72.533334 48.341333A192 192 0 0 1 342.528 554.666667H298.666667v-85.333334h43.818666a192 192 0 0 1 332.288-108.501333L602.197333 409.173333A106.666667 106.666667 0 0 0 428.8 469.333333z" /></svg>