<?xml version="1.0" standalone="no"?>
<!DOCTYPE svg PUBLIC "-//W3C//DTD SVG 1.1//EN" "http://www.w3.org/Graphics/SVG/1.1/DTD/svg11.dtd">
<svg class="icon" style="width: 1em;height: 1em;vertical-align: middle;fill: currentColor;overflow: hidden;" viewBox="0 0 1024 1024" version="1.1" xmlns="http://www.w3.org/2000/svg"><path d="M512 938.666667C276.352 938.666667 85.333333 747.648 85.333333 512S276.352 85.333333 512 85.333333s426.666667 191.018667 426.666667 426.666667-191.018667 426.666667-426.666667 426.666667z m0-85.333334a341.333333 341.333333 0 1 0 0-682.666666 341.333333 341.333333 0 0 0 0 682.666666z m-128-298.666666H341.333333v-85.333334h42.666667v-42.666666a149.333333 149.333333 0 0 1 287.829333-55.936l-84.736 21.162666A63.957333 63.957333 0 0 0 469.333333 426.666667v42.666666h128v85.333334h-128v85.333333h213.333334v85.333333H341.333333v-85.333333h42.666667v-85.333333z" /></svg>