<?xml version="1.0" standalone="no"?>
<!DOCTYPE svg PUBLIC "-//W3C//DTD SVG 1.1//EN" "http://www.w3.org/Graphics/SVG/1.1/DTD/svg11.dtd">
<svg class="icon" style="width: 1em;height: 1em;vertical-align: middle;fill: currentColor;overflow: hidden;" viewBox="0 0 1024 1024" version="1.1" xmlns="http://www.w3.org/2000/svg"><path d="M682.666667 867.584v-93.824a320.938667 320.938667 0 0 0 154.581333-182.656 384 384 0 0 1-453.205333-383.573333A320.768 320.768 0 0 0 219.776 426.666667H132.992a405.546667 405.546667 0 0 1 364.288-339.754667 298.666667 298.666667 0 0 0 440.149333 372.394667A405.461333 405.461333 0 0 1 682.666667 867.626667zM298.666667 853.333333h298.666666v85.333334H298.666667v-85.333334z m-128-341.333333h256v85.333333H170.666667v-85.333333z m-85.333334 170.666667h426.666667v85.333333H85.333333v-85.333333z" /></svg>