<?xml version="1.0" standalone="no"?>
<!DOCTYPE svg PUBLIC "-//W3C//DTD SVG 1.1//EN" "http://www.w3.org/Graphics/SVG/1.1/DTD/svg11.dtd">
<svg class="icon" style="width: 1em;height: 1em;vertical-align: middle;fill: currentColor;overflow: hidden;" viewBox="0 0 1024 1024" version="1.1" xmlns="http://www.w3.org/2000/svg"><path d="M369.92 213.632a298.666667 298.666667 0 0 1 322.133333-166.442667 192 192 0 0 0 242.090667 242.090667c2.986667 16.896 4.522667 34.304 4.522667 52.053333a297.344 297.344 0 0 1-36.906667 143.914667A234.666667 234.666667 0 0 1 746.666667 896H384a341.333333 341.333333 0 0 1-14.08-682.368z m92.885333 8.832a342.016 342.016 0 0 1 239.36 208.426667 235.904 235.904 0 0 1 126.293334 10.453333c9.642667-18.133333 16.768-37.76 20.821333-58.453333a277.418667 277.418667 0 0 1-250.794667-250.88 213.461333 213.461333 0 0 0-135.68 90.453333z" /></svg>