<?xml version="1.0" standalone="no"?>
<!DOCTYPE svg PUBLIC "-//W3C//DTD SVG 1.1//EN" "http://www.w3.org/Graphics/SVG/1.1/DTD/svg11.dtd">
<svg class="icon" style="width: 1em;height: 1em;vertical-align: middle;fill: currentColor;overflow: hidden;" viewBox="0 0 1024 1024" version="1.1" xmlns="http://www.w3.org/2000/svg"><path d="M192 448c-35.2 0-64 28.8-64 64s28.8 64 64 64S256 547.2 256 512s-28.8-64-64-64z m640 0c-35.2 0-64 28.8-64 64s28.8 64 64 64S896 547.2 896 512s-28.8-64-64-64z m-320 0c-35.2 0-64 28.8-64 64s28.8 64 64 64 64-28.8 64-64-28.8-64-64-64z" /></svg>