<?xml version="1.0" standalone="no"?>
<!DOCTYPE svg PUBLIC "-//W3C//DTD SVG 1.1//EN" "http://www.w3.org/Graphics/SVG/1.1/DTD/svg11.dtd">
<svg class="icon" style="width: 1em;height: 1em;vertical-align: middle;fill: currentColor;overflow: hidden;" viewBox="0 0 1024 1024" version="1.1" xmlns="http://www.w3.org/2000/svg"><path d="M475.349333 170.666667c-67.498667 0-101.845333 7.210667-133.461333 24.106666a147.328 147.328 0 0 0-61.781333 61.781334C263.210667 288.128 256 322.517333 256 389.973333v243.968c0 67.498667 7.210667 101.845333 24.106667 133.461334 14.378667 26.88 34.901333 47.402667 61.781333 61.781333 31.573333 16.896 65.962667 24.106667 133.461333 24.106667h73.301334c67.498667 0 101.845333-7.210667 133.461333-24.106667a147.328 147.328 0 0 0 61.781333-61.781333c16.896-31.573333 24.106667-65.962667 24.106667-133.461334V389.973333c0-67.498667-7.210667-101.845333-24.106667-133.461333a147.328 147.328 0 0 0-61.781333-61.781333C650.538667 177.877333 616.149333 170.666667 548.693333 170.666667h-73.386666z m0-85.333334h73.301334c85.930667 0 132.010667 11.861333 173.738666 34.176a232.618667 232.618667 0 0 1 96.768 96.768c22.314667 41.728 34.176 87.808 34.176 173.738667v243.968c0 85.930667-11.861333 132.010667-34.176 173.738667a232.618667 232.618667 0 0 1-96.768 96.768c-41.728 22.314667-87.808 34.176-173.738666 34.176H475.306667c-85.930667 0-132.010667-11.861333-173.738667-34.176A232.618667 232.618667 0 0 1 204.8 807.722667c-22.272-41.728-34.133333-87.808-34.133333-173.738667V389.973333c0-85.930667 11.861333-132.010667 34.176-173.738666A232.618667 232.618667 0 0 1 301.653333 119.509333C343.338667 97.194667 389.418667 85.333333 475.349333 85.333333zM469.333333 256h85.333334v213.333333h-85.333334V256z" /></svg>