<?xml version="1.0" standalone="no"?>
<!DOCTYPE svg PUBLIC "-//W3C//DTD SVG 1.1//EN" "http://www.w3.org/Graphics/SVG/1.1/DTD/svg11.dtd">
<svg class="icon" style="width: 1em;height: 1em;vertical-align: middle;fill: currentColor;overflow: hidden;" viewBox="0 0 1024 1024" version="1.1" xmlns="http://www.w3.org/2000/svg"><path d="M793.002667 853.333333H170.666667a21.333333 21.333333 0 0 1-17.066667-34.133333l17.066667-22.741333V426.666667c0-56.746667 13.824-110.250667 38.357333-157.312L59.434667 119.808l60.373333-60.373333 844.757333 844.8-60.373333 60.330666L793.002667 853.333333zM273.408 333.738667A255.36 255.36 0 0 0 256 426.666667v341.333333h451.669333L273.408 333.738667zM853.333333 673.536l-85.333333-85.333333V426.666667a256 256 0 0 0-383.573333-221.994667L322.56 142.72A341.333333 341.333333 0 0 1 853.333333 426.666667v246.869333zM405.333333 896h213.333334a106.666667 106.666667 0 1 1-213.333334 0z" /></svg>