<?xml version="1.0" standalone="no"?>
<!DOCTYPE svg PUBLIC "-//W3C//DTD SVG 1.1//EN" "http://www.w3.org/Graphics/SVG/1.1/DTD/svg11.dtd">
<svg class="icon" style="width: 1em;height: 1em;vertical-align: middle;fill: currentColor;overflow: hidden;" viewBox="0 0 1024 1024" version="1.1" xmlns="http://www.w3.org/2000/svg"><path d="M630.016 832.426667a341.461333 341.461333 0 0 0 0-640.853334C712.96 255.018667 768 381.226667 768 512s-54.997333 257.024-137.984 320.426667zM393.984 191.573333a341.461333 341.461333 0 0 0 0 640.853334C311.04 768.981333 256 642.773333 256 512s54.997333-257.024 137.984-320.426667zM512 938.666667C276.352 938.666667 85.333333 747.648 85.333333 512S276.352 85.333333 512 85.333333s426.666667 191.018667 426.666667 426.666667-191.018667 426.666667-426.666667 426.666667z m0-149.333334c85.333333 0 170.666667-129.408 170.666667-277.333333s-85.333333-277.333333-170.666667-277.333333S341.333333 364.074667 341.333333 512s85.333333 277.333333 170.666667 277.333333z" /></svg>