<?xml version="1.0" standalone="no"?>
<!DOCTYPE svg PUBLIC "-//W3C//DTD SVG 1.1//EN" "http://www.w3.org/Graphics/SVG/1.1/DTD/svg11.dtd">
<svg class="icon" style="width: 1em;height: 1em;vertical-align: middle;fill: currentColor;overflow: hidden;" viewBox="0 0 1024 1024" version="1.1" xmlns="http://www.w3.org/2000/svg"><path d="M245.930667 341.333333l-12.586667-31.146666a42.666667 42.666667 0 0 1 23.594667-55.552l395.605333-159.829334a42.666667 42.666667 0 0 1 55.509333 23.552l239.786667 593.408a42.666667 42.666667 0 0 1-23.594667 55.552L528.64 927.146667a42.666667 42.666667 0 0 1-55.552-23.594667L469.333333 894.293333V896H298.666667a42.666667 42.666667 0 0 1-42.666667-42.666667v-11.52l-142.933333-57.728a42.666667 42.666667 0 0 1-23.552-55.552L245.930667 341.333333zM341.333333 810.666667h94.250667L341.333333 577.408V810.666667z m-85.333333-266.410667l-71.381333 176.682667L256 751.274667v-207.018667z m72.448-226.517333l207.786667 514.304 316.501333-127.872-207.786667-514.261334-316.501333 127.829334z m127.061333 86.741333a42.666667 42.666667 0 1 1-31.957333-79.146667 42.666667 42.666667 0 0 1 32 79.146667z" /></svg>