<?xml version="1.0" standalone="no"?>
<!DOCTYPE svg PUBLIC "-//W3C//DTD SVG 1.1//EN" "http://www.w3.org/Graphics/SVG/1.1/DTD/svg11.dtd">
<svg class="icon" style="width: 1em;height: 1em;vertical-align: middle;fill: currentColor;overflow: hidden;" viewBox="0 0 1024 1024" version="1.1" xmlns="http://www.w3.org/2000/svg"><path d="M170.666667 807.338667l-57.6-23.253334a42.666667 42.666667 0 0 1-23.552-55.552L170.666667 527.658667v279.68zM378.026667 896H298.666667a42.666667 42.666667 0 0 1-42.666667-42.666667v-259.328L378.026667 896zM256.938667 254.634667l395.605333-159.829334a42.666667 42.666667 0 0 1 55.509333 23.552l239.786667 593.408a42.666667 42.666667 0 0 1-23.594667 55.552L528.64 927.146667a42.666667 42.666667 0 0 1-55.552-23.594667L233.386667 310.186667a42.666667 42.666667 0 0 1 23.594666-55.509334zM384 384a42.666667 42.666667 0 1 0 0-85.333333 42.666667 42.666667 0 0 0 0 85.333333z" /></svg>