<?xml version="1.0" standalone="no"?>
<!DOCTYPE svg PUBLIC "-//W3C//DTD SVG 1.1//EN" "http://www.w3.org/Graphics/SVG/1.1/DTD/svg11.dtd">
<svg class="icon" style="width: 1em;height: 1em;vertical-align: middle;fill: currentColor;overflow: hidden;" viewBox="0 0 1024 1024" version="1.1" xmlns="http://www.w3.org/2000/svg"><path d="M298.666667 469.333333a192 192 0 1 1 0-384 192 192 0 0 1 0 384z m448 170.666667a170.666667 170.666667 0 1 1 0-341.333333 170.666667 170.666667 0 0 1 0 341.333333z m0 42.666667a192 192 0 0 1 192 192v21.333333h-384v-21.333333a192 192 0 0 1 192-192zM298.666667 512a213.333333 213.333333 0 0 1 213.333333 213.333333v170.666667H85.333333v-170.666667a213.333333 213.333333 0 0 1 213.333334-213.333333z" /></svg>