<?xml version="1.0" standalone="no"?>
<!DOCTYPE svg PUBLIC "-//W3C//DTD SVG 1.1//EN" "http://www.w3.org/Graphics/SVG/1.1/DTD/svg11.dtd">
<svg class="icon" style="width: 1em;height: 1em;vertical-align: middle;fill: currentColor;overflow: hidden;" viewBox="0 0 1024 1024" version="1.1" xmlns="http://www.w3.org/2000/svg"><path d="M856.192 361.728c20.992 37.546667 23.722667 85.930667 12.8 141.952-31.573333 162.389333-139.776 218.453333-277.930667 218.453333h-21.333333a34.346667 34.346667 0 0 0-33.877333 29.013334l-1.706667 9.386666-26.88 170.368-1.365333 7.253334a34.304 34.304 0 0 1-33.877334 28.970666H329.386667a20.608 20.608 0 0 1-20.352-23.808L316.501333 896h64.768l40.533334-256.853333h59.093333c199.594667 0 330.666667-93.994667 375.296-277.418667z m-126.293333-217.173333c32.512 37.034667 41.941333 77.226667 32.085333 140.16-0.810667 5.248-1.706667 10.24-2.645333 15.36-31.36 160.981333-131.797333 232.362667-296.789334 232.362666H382.165333c-26.88 0-50.090667 17.664-57.770666 42.752l-0.597334-0.085333-39.68 251.477333H133.162667a2.176 2.176 0 0 1-2.133334-2.56l110.848-704.426666A40.533333 40.533333 0 0 1 281.898667 85.333333h254.976c93.141333 0 158.549333 20.010667 192.981333 59.221334z" /></svg>