<?xml version="1.0" standalone="no"?>
<!DOCTYPE svg PUBLIC "-//W3C//DTD SVG 1.1//EN" "http://www.w3.org/Graphics/SVG/1.1/DTD/svg11.dtd">
<svg class="icon" style="width: 1em;height: 1em;vertical-align: middle;fill: currentColor;overflow: hidden;" viewBox="0 0 1024 1024" version="1.1" xmlns="http://www.w3.org/2000/svg"><path d="M213.333333 341.333333v512h170.666667V341.333333H213.333333zM128 298.666667l170.666667-213.333334 170.666666 213.333334v640H128V298.666667z m682.666667 384v-85.333334h-128v-85.333333h128v-85.333333h-85.333334V341.333333h85.333334V256h-170.666667v597.333333h170.666667v-85.333333h-85.333334v-85.333333h85.333334zM597.333333 170.666667h256a42.666667 42.666667 0 0 1 42.666667 42.666666v682.666667a42.666667 42.666667 0 0 1-42.666667 42.666667h-256a42.666667 42.666667 0 0 1-42.666666-42.666667V213.333333a42.666667 42.666667 0 0 1 42.666666-42.666666z" /></svg>