<?xml version="1.0" standalone="no"?>
<!DOCTYPE svg PUBLIC "-//W3C//DTD SVG 1.1//EN" "http://www.w3.org/Graphics/SVG/1.1/DTD/svg11.dtd">
<svg class="icon" style="width: 1em;height: 1em;vertical-align: middle;fill: currentColor;overflow: hidden;" viewBox="0 0 1024 1024" version="1.1" xmlns="http://www.w3.org/2000/svg"><path d="M768 85.333333a42.666667 42.666667 0 0 1 42.666667 42.666667v341.333333h-85.333334V170.666667H298.666667v682.666666h170.666666v85.333334H256a42.666667 42.666667 0 0 1-42.666667-42.666667V128a42.666667 42.666667 0 0 1 42.666667-42.666667h512z m-128 426.666667a170.666667 170.666667 0 0 1 147.029333 257.365333l94.293334 94.293334-60.288 60.373333-94.378667-94.293333A170.666667 170.666667 0 1 1 640 512z m0 85.333333a85.333333 85.333333 0 1 0 0 170.666667 85.333333 85.333333 0 0 0 0-170.666667z" /></svg>