<?xml version="1.0" standalone="no"?>
<!DOCTYPE svg PUBLIC "-//W3C//DTD SVG 1.1//EN" "http://www.w3.org/Graphics/SVG/1.1/DTD/svg11.dtd">
<svg class="icon" style="width: 1em;height: 1em;vertical-align: middle;fill: currentColor;overflow: hidden;" viewBox="0 0 1024 1024" version="1.1" xmlns="http://www.w3.org/2000/svg"><path d="M768 85.333333a42.666667 42.666667 0 0 1 42.666667 42.666667v298.666667h-85.333334V170.666667H298.666667v682.666666h213.333333v85.333334H256a42.666667 42.666667 0 0 1-42.666667-42.666667V128a42.666667 42.666667 0 0 1 42.666667-42.666667h512z m0 426.666667a128 128 0 0 1 128 128v42.666667h42.666667v213.333333a42.666667 42.666667 0 0 1-42.666667 42.666667h-256a42.666667 42.666667 0 0 1-42.666667-42.666667v-213.333333h42.666667v-42.666667a128 128 0 0 1 128-128z m85.333333 256h-170.666666v85.333333h170.666666v-85.333333z m-85.333333-170.666667c-21.674667 0-42.666667 19.2-42.666667 42.666667v42.666667h85.333334v-42.666667a42.666667 42.666667 0 0 0-42.666667-42.666667z" /></svg>