<?xml version="1.0" standalone="no"?>
<!DOCTYPE svg PUBLIC "-//W3C//DTD SVG 1.1//EN" "http://www.w3.org/Graphics/SVG/1.1/DTD/svg11.dtd">
<svg class="icon" style="width: 1em;height: 1em;vertical-align: middle;fill: currentColor;overflow: hidden;" viewBox="0 0 1024 1024" version="1.1" xmlns="http://www.w3.org/2000/svg"><path d="M631.594667 170.666667A256 256 0 0 0 981.333333 520.405333V810.666667a42.496 42.496 0 0 1-42.752 42.709333H85.418667A42.666667 42.666667 0 0 1 42.666667 810.666667V213.333333c0-23.552 18.773333-42.666667 42.752-42.666666h546.133333zM853.333333 469.333333a170.666667 170.666667 0 1 1 0-341.333333 170.666667 170.666667 0 0 1 0 341.333333z m0-85.333333a85.333333 85.333333 0 1 0 0-170.666667 85.333333 85.333333 0 0 0 0 170.666667z m-42.666666 256v128h85.333333v-128h-85.333333z" /></svg>