<?xml version="1.0" standalone="no"?>
<!DOCTYPE svg PUBLIC "-//W3C//DTD SVG 1.1//EN" "http://www.w3.org/Graphics/SVG/1.1/DTD/svg11.dtd">
<svg class="icon" style="width: 1em;height: 1em;vertical-align: middle;fill: currentColor;overflow: hidden;" viewBox="0 0 1024 1024" version="1.1" xmlns="http://www.w3.org/2000/svg"><path d="M469.333333 23.168c14.08-1.237333 28.288-1.834667 42.666667-1.834667C782.976 21.333333 1002.666667 241.024 1002.666667 512c0 14.378667-0.597333 28.586667-1.834667 42.666667h-64.256c-21.418667 215.594667-203.349333 384-424.576 384-235.648 0-426.666667-191.018667-426.666667-426.666667 0-221.226667 168.405333-403.157333 384-424.533333V23.125333zM469.333333 554.666667V173.312A341.376 341.376 0 0 0 512 853.333333a341.376 341.376 0 0 0 338.688-298.666666H469.333333z m445.781334-85.333334A405.461333 405.461333 0 0 0 554.666667 108.885333V469.333333h360.448z" /></svg>