<?xml version="1.0" standalone="no"?>
<!DOCTYPE svg PUBLIC "-//W3C//DTD SVG 1.1//EN" "http://www.w3.org/Graphics/SVG/1.1/DTD/svg11.dtd">
<svg class="icon" style="width: 1em;height: 1em;vertical-align: middle;fill: currentColor;overflow: hidden;" viewBox="0 0 1024 1024" version="1.1" xmlns="http://www.w3.org/2000/svg"><path d="M256 85.333333a298.666667 298.666667 0 0 1 264.405333 159.616A276.906667 276.906667 0 0 1 746.666667 128H896v106.666667a277.333333 277.333333 0 0 1-277.333333 277.333333H554.666667v42.666667h213.333333v298.666666a85.333333 85.333333 0 0 1-85.333333 85.333334H341.333333a85.333333 85.333333 0 0 1-85.333333-85.333334v-298.666666h213.333333v-85.333334H384a298.666667 298.666667 0 0 1-298.666667-298.666666V85.333333h170.666667z m426.666667 554.666667H341.333333v213.333333h341.333334v-213.333333z m128-426.666667h-64A192 192 0 0 0 554.666667 405.333333v21.333334h64A192 192 0 0 0 810.666667 234.666667V213.333333zM256 170.666667H170.666667a213.333333 213.333333 0 0 0 213.333333 213.333333h85.333333a213.333333 213.333333 0 0 0-213.333333-213.333333z" /></svg>