<?xml version="1.0" standalone="no"?>
<!DOCTYPE svg PUBLIC "-//W3C//DTD SVG 1.1//EN" "http://www.w3.org/Graphics/SVG/1.1/DTD/svg11.dtd">
<svg class="icon" style="width: 1em;height: 1em;vertical-align: middle;fill: currentColor;overflow: hidden;" viewBox="0 0 1024 1024" version="1.1" xmlns="http://www.w3.org/2000/svg"><path d="M896 128v85.333333a298.666667 298.666667 0 0 1-298.666667 298.666667h-42.666666v42.666667h213.333333v298.666666a85.333333 85.333333 0 0 1-85.333333 85.333334H341.333333a85.333333 85.333333 0 0 1-85.333333-85.333334v-298.666666h213.333333v-128a298.666667 298.666667 0 0 1 298.666667-298.666667h128zM234.666667 85.333333a319.573333 319.573333 0 0 1 261.290666 135.210667A339.328 339.328 0 0 0 426.666667 426.666667v42.666666h-21.333334A320 320 0 0 1 85.333333 149.333333V85.333333h149.333334z" /></svg>