<?xml version="1.0" standalone="no"?>
<!DOCTYPE svg PUBLIC "-//W3C//DTD SVG 1.1//EN" "http://www.w3.org/Graphics/SVG/1.1/DTD/svg11.dtd">
<svg class="icon" style="width: 1em;height: 1em;vertical-align: middle;fill: currentColor;overflow: hidden;" viewBox="0 0 1024 1024" version="1.1" xmlns="http://www.w3.org/2000/svg"><path d="M963.584 725.802667c-18.346667 23.168-63.232 39.68-63.232 39.68l-334.208 120.192V797.013333l245.930667-87.765333c27.946667-9.984 32.213333-24.149333 9.514666-31.573333-22.613333-7.466667-63.616-5.333333-91.562666 4.736l-163.84 57.770666v-91.946666l9.386666-3.2s47.36-16.810667 113.962667-24.192c66.56-7.338667 148.138667 1.024 212.138667 25.301333 72.106667 22.826667 80.213333 56.448 61.909333 79.616z m-365.653333-150.912V348.245333c0-26.624-4.864-51.114667-29.824-58.026666-19.072-6.144-30.933333 11.605333-30.933334 38.186666V896l-152.917333-48.597333V170.666667c65.024 12.074667 159.744 40.661333 210.645333 57.813333 129.493333 44.501333 173.397333 99.925333 173.397334 224.725333 0 121.642667-75.008 167.765333-170.325334 121.685334z m-494.208 212.906666c-74.026667-20.906667-86.357333-64.426667-52.608-89.472 31.189333-23.125333 84.224-40.533333 84.224-40.533333l219.221333-78.08v89.002667l-157.738667 56.533333c-27.861333 9.984-32.170667 24.149333-9.514666 31.573333 22.656 7.466667 63.701333 5.333333 91.605333-4.693333l75.648-27.477333v79.573333l-15.061333 2.56c-75.690667 12.373333-156.330667 7.210667-235.776-18.986667z" /></svg>