<?xml version="1.0" standalone="no"?>
<!DOCTYPE svg PUBLIC "-//W3C//DTD SVG 1.1//EN" "http://www.w3.org/Graphics/SVG/1.1/DTD/svg11.dtd">
<svg class="icon" style="width: 1em;height: 1em;vertical-align: middle;fill: currentColor;overflow: hidden;" viewBox="0 0 1024 1024" version="1.1" xmlns="http://www.w3.org/2000/svg"><path d="M170.666667 554.666667v213.333333h682.666666v-213.333333H170.666667z m69.034666-85.333334h544.597334a42.666667 42.666667 0 0 0 38.144-61.738666L768 298.666667H256L201.557333 407.594667A42.666667 42.666667 0 0 0 239.701333 469.333333zM938.666667 576V896a42.666667 42.666667 0 0 1-42.666667 42.666667h-42.666667a42.666667 42.666667 0 0 1-42.666666-42.666667v-42.666667H213.333333v42.666667a42.666667 42.666667 0 0 1-42.666666 42.666667H128a42.666667 42.666667 0 0 1-42.666667-42.666667v-320l-53.034666-13.226667A42.666667 42.666667 0 0 1 0 521.386667v-30.72a21.333333 21.333333 0 0 1 21.333333-21.333334H85.333333l104.405334-208.810666A85.333333 85.333333 0 0 1 266.112 213.333333H341.333333V128h128v85.333333h85.333334V128h128v85.333333h75.264a85.333333 85.333333 0 0 1 76.330666 47.189334L938.666667 469.333333h64a21.333333 21.333333 0 0 1 21.333333 21.333334v30.72a42.666667 42.666667 0 0 1-32.298667 41.386666L938.666667 576zM213.333333 597.333333c98.858667 0 165.504 32.213333 199.936 96.597334a21.333333 21.333333 0 0 1-18.816 31.402666H256a42.666667 42.666667 0 0 1-42.666667-42.666666v-85.333334z m597.333334 0v85.333334a42.666667 42.666667 0 0 1-42.666667 42.666666h-138.453333a21.333333 21.333333 0 0 1-18.773334-31.402666C645.12 629.504 711.765333 597.333333 810.666667 597.333333z" /></svg>