<?xml version="1.0" standalone="no"?>
<!DOCTYPE svg PUBLIC "-//W3C//DTD SVG 1.1//EN" "http://www.w3.org/Graphics/SVG/1.1/DTD/svg11.dtd">
<svg class="icon" style="width: 1em;height: 1em;vertical-align: middle;fill: currentColor;overflow: hidden;" viewBox="0 0 1024 1024" version="1.1" xmlns="http://www.w3.org/2000/svg"><path d="M256 810.666667H128a42.666667 42.666667 0 0 1-42.666667-42.666667V341.333333a42.666667 42.666667 0 0 1 42.666667-42.666666h128V128a42.666667 42.666667 0 0 1 42.666667-42.666667h426.666666a42.666667 42.666667 0 0 1 42.666667 42.666667v170.666667h128a42.666667 42.666667 0 0 1 42.666667 42.666666v426.666667a42.666667 42.666667 0 0 1-42.666667 42.666667h-128v85.333333a42.666667 42.666667 0 0 1-42.666667 42.666667H298.666667a42.666667 42.666667 0 0 1-42.666667-42.666667v-85.333333z m0-85.333334v-42.666666a42.666667 42.666667 0 0 1 42.666667-42.666667h426.666666a42.666667 42.666667 0 0 1 42.666667 42.666667v42.666666h85.333333V384H170.666667v341.333333h85.333333zM341.333333 170.666667v128h341.333334V170.666667H341.333333z m0 554.666666v128h341.333334v-128H341.333333z m-128-298.666666h128v85.333333H213.333333v-85.333333z" /></svg>