<?xml version="1.0" standalone="no"?>
<!DOCTYPE svg PUBLIC "-//W3C//DTD SVG 1.1//EN" "http://www.w3.org/Graphics/SVG/1.1/DTD/svg11.dtd">
<svg class="icon" style="width: 1em;height: 1em;vertical-align: middle;fill: currentColor;overflow: hidden;" viewBox="0 0 1024 1024" version="1.1" xmlns="http://www.w3.org/2000/svg"><path d="M725.333333 85.333333a42.666667 42.666667 0 0 1 42.666667 42.666667v170.666667h128a42.666667 42.666667 0 0 1 42.666667 42.666666l0.042666 228.096a235.349333 235.349333 0 0 0-85.333333-74.453333L853.333333 384H170.666667v341.333333h85.333333v-42.666666a42.666667 42.666667 0 0 1 42.666667-42.666667h222.165333l-3.029333 12.074667-1.28 0.853333A203.221333 203.221333 0 0 0 450.858667 725.333333H341.333333v128h87.893334a201.813333 201.813333 0 0 0 34.858666 85.333334H298.666667a42.666667 42.666667 0 0 1-42.666667-42.666667v-85.333333H128a42.666667 42.666667 0 0 1-42.666667-42.666667V341.333333a42.666667 42.666667 0 0 1 42.666667-42.666666h128V128a42.666667 42.666667 0 0 1 42.666667-42.666667h426.666666z m21.333334 469.333334a149.333333 149.333333 0 0 1 149.333333 149.333333l-0.042667 4.394667a117.333333 117.333333 0 0 1-24.789333 230.058666L864 938.666667h-234.666667l-7.168-0.213334a117.333333 117.333333 0 0 1-24.704-230.058666L597.333333 704a149.333333 149.333333 0 0 1 149.333334-149.333333z m0 85.333333a64 64 0 0 0-62.848 51.84l-0.853334 5.973333L682.666667 704v69.12l-61.610667 17.322667a32 32 0 0 0 3.413333 62.549333l4.650667 0.341333h235.093333a32 32 0 0 0 8.106667-62.890666l-43.221333-12.074667L810.666667 773.12V704l-0.298667-6.144A64 64 0 0 0 746.666667 640zM341.333333 426.666667v85.333333H213.333333v-85.333333h128z m341.333334-256H341.333333v128h341.333334V170.666667z" /></svg>