<?xml version="1.0" standalone="no"?>
<!DOCTYPE svg PUBLIC "-//W3C//DTD SVG 1.1//EN" "http://www.w3.org/Graphics/SVG/1.1/DTD/svg11.dtd">
<svg class="icon" style="width: 1em;height: 1em;vertical-align: middle;fill: currentColor;overflow: hidden;" viewBox="0 0 1024 1024" version="1.1" xmlns="http://www.w3.org/2000/svg"><path d="M938.666667 810.666667v85.333333h-85.333334v-85.333333H170.666667v85.333333H85.333333v-85.333333a42.666667 42.666667 0 0 1-42.666666-42.666667V256a42.666667 42.666667 0 0 1 42.666666-42.666667h418.56a276.522667 276.522667 0 0 1 200.106667-85.333333 276.48 276.48 0 0 1 200.106667 85.333333H938.666667a42.666667 42.666667 0 0 1 42.666666 42.666667v512a42.666667 42.666667 0 0 1-42.666666 42.666667z m-234.666667-213.333334a192 192 0 1 0 0-384 192 192 0 0 0 0 384z m0-85.333333a106.666667 106.666667 0 1 1 0-213.333333 106.666667 106.666667 0 0 1 0 213.333333zM170.666667 554.666667v85.333333h85.333333v-85.333333H170.666667z m170.666666 0v85.333333h85.333334v-85.333333H341.333333z" /></svg>