<?xml version="1.0" standalone="no"?>
<!DOCTYPE svg PUBLIC "-//W3C//DTD SVG 1.1//EN" "http://www.w3.org/Graphics/SVG/1.1/DTD/svg11.dtd">
<svg class="icon" style="width: 1em;height: 1em;vertical-align: middle;fill: currentColor;overflow: hidden;" viewBox="0 0 1024 1024" version="1.1" xmlns="http://www.w3.org/2000/svg"><path d="M938.666667 810.666667v85.333333h-85.333334v-85.333333H170.666667v85.333333H85.333333v-85.333333a42.666667 42.666667 0 0 1-42.666666-42.666667V256a42.666667 42.666667 0 0 1 42.666666-42.666667h449.194667A255.36 255.36 0 0 1 725.333333 128c75.818667 0 143.957333 32.981333 190.805334 85.333333H938.666667a42.666667 42.666667 0 0 1 42.666666 42.666667v512a42.666667 42.666667 0 0 1-42.666666 42.666667zM483.882667 298.666667H128v426.666666h768v-150.528A256 256 0 0 1 483.882667 298.666667zM725.333333 554.666667a170.666667 170.666667 0 1 0 0-341.333334 170.666667 170.666667 0 0 0 0 341.333334zM213.333333 554.666667h85.333334v85.333333H213.333333v-85.333333z m128 0h85.333334v85.333333H341.333333v-85.333333z" /></svg>