<?xml version="1.0" standalone="no"?>
<!DOCTYPE svg PUBLIC "-//W3C//DTD SVG 1.1//EN" "http://www.w3.org/Graphics/SVG/1.1/DTD/svg11.dtd">
<svg class="icon" style="width: 1em;height: 1em;vertical-align: middle;fill: currentColor;overflow: hidden;" viewBox="0 0 1024 1024" version="1.1" xmlns="http://www.w3.org/2000/svg"><path d="M512 938.666667C276.352 938.666667 85.333333 747.648 85.333333 512S276.352 85.333333 512 85.333333s426.666667 191.018667 426.666667 426.666667-191.018667 426.666667-426.666667 426.666667z m-42.666667-298.666667v85.333333h85.333334v-85.333333h-85.333334z m85.333334-70.186667A149.418667 149.418667 0 0 0 512 277.333333a149.376 149.376 0 0 0-146.474667 120.021334l83.712 16.768A64 64 0 1 1 512 490.666667a42.666667 42.666667 0 0 0-42.666667 42.666666V597.333333h85.333334v-27.52z" /></svg>