<?xml version="1.0" standalone="no"?>
<!DOCTYPE svg PUBLIC "-//W3C//DTD SVG 1.1//EN" "http://www.w3.org/Graphics/SVG/1.1/DTD/svg11.dtd">
<svg class="icon" style="width: 1em;height: 1em;vertical-align: middle;fill: currentColor;overflow: hidden;" viewBox="0 0 1024 1024" version="1.1" xmlns="http://www.w3.org/2000/svg"><path d="M256 128V42.666667h85.333333v85.333333h555.008c23.381333 0 42.325333 18.986667 42.325334 42.368v683.264a42.666667 42.666667 0 0 1-42.325334 42.368H127.658667A42.368 42.368 0 0 1 85.333333 853.632V170.368A42.666667 42.666667 0 0 1 127.658667 128H256z m128 512a128 128 0 1 0 0-256 128 128 0 0 0 0 256z m213.333333-256v85.333333h170.666667V384h-170.666667z m0 170.666667v85.333333h170.666667v-85.333333h-170.666667z" /></svg>