<?xml version="1.0" standalone="no"?>
<!DOCTYPE svg PUBLIC "-//W3C//DTD SVG 1.1//EN" "http://www.w3.org/Graphics/SVG/1.1/DTD/svg11.dtd">
<svg class="icon" style="width: 1em;height: 1em;vertical-align: middle;fill: currentColor;overflow: hidden;" viewBox="0 0 1024 1024" version="1.1" xmlns="http://www.w3.org/2000/svg"><path d="M512 170.666667c259.2 0 469.333333 210.133333 469.333333 469.333333v213.333333h-85.333333v-213.333333a384 384 0 0 0-372.693333-383.829333L512 256a384 384 0 0 0-383.829333 372.693333L128 640v213.333333H42.666667v-213.333333C42.666667 380.8 252.8 170.666667 512 170.666667z m0 170.666666a298.666667 298.666667 0 0 1 298.666667 298.666667v213.333333h-85.333334v-213.333333a213.333333 213.333333 0 0 0-204.074666-213.12L512 426.666667a213.333333 213.333333 0 0 0-213.12 204.074666L298.666667 640v213.333333H213.333333v-213.333333a298.666667 298.666667 0 0 1 298.666667-298.666667z m0 170.666667a128 128 0 0 1 128 128v213.333333h-85.333333v-213.333333a42.666667 42.666667 0 0 0-37.674667-42.368L512 597.333333a42.666667 42.666667 0 0 0-42.368 37.674667L469.333333 640v213.333333H384v-213.333333a128 128 0 0 1 128-128z" /></svg>