<?xml version="1.0" standalone="no"?>
<!DOCTYPE svg PUBLIC "-//W3C//DTD SVG 1.1//EN" "http://www.w3.org/Graphics/SVG/1.1/DTD/svg11.dtd">
<svg class="icon" style="width: 1em;height: 1em;vertical-align: middle;fill: currentColor;overflow: hidden;" viewBox="0 0 1024 1024" version="1.1" xmlns="http://www.w3.org/2000/svg"><path d="M512 85.333333c235.648 0 426.666667 191.018667 426.666667 426.666667s-191.018667 426.666667-426.666667 426.666667S85.333333 747.648 85.333333 512 276.352 85.333333 512 85.333333z m0 85.333334a341.333333 341.333333 0 1 0 0 682.666666 341.333333 341.333333 0 0 0 0-682.666666z m21.333333 128a149.333333 149.333333 0 0 1 77.653334 276.906666L719.701333 725.333333h-105.472l-93.013333-128H426.666667v128H341.333333V298.666667h192z m0 85.333333H426.666667v128h106.666666a64 64 0 0 0 63.701334-57.856L597.333333 448A64 64 0 0 0 533.333333 384z" /></svg>