<?xml version="1.0" standalone="no"?>
<!DOCTYPE svg PUBLIC "-//W3C//DTD SVG 1.1//EN" "http://www.w3.org/Graphics/SVG/1.1/DTD/svg11.dtd">
<svg class="icon" style="width: 1em;height: 1em;vertical-align: middle;fill: currentColor;overflow: hidden;" viewBox="0 0 1024 1024" version="1.1" xmlns="http://www.w3.org/2000/svg"><path d="M271.530667 256l374.784 412.288 30.72-12.074667c71.893333-28.202667 122.197333-91.989333 131.925333-166.229333A277.418667 277.418667 0 0 1 515.285333 256H271.488zM597.333333 213.333333a192 192 0 0 0 286.464 167.168c7.936 26.368 12.202667 54.229333 12.202667 83.072 0 123.349333-77.738667 228.864-187.733333 272.085334L853.333333 896H128V170.666667h474.069333A192.64 192.64 0 0 0 597.333333 213.333333z m192 106.666667a106.666667 106.666667 0 1 1 0-213.333333 106.666667 106.666667 0 0 1 0 213.333333zM213.333333 318.72V810.666667h447.146667L213.333333 318.72z" /></svg>