<?xml version="1.0" standalone="no"?>
<!DOCTYPE svg PUBLIC "-//W3C//DTD SVG 1.1//EN" "http://www.w3.org/Graphics/SVG/1.1/DTD/svg11.dtd">
<svg class="icon" style="width: 1em;height: 1em;vertical-align: middle;fill: currentColor;overflow: hidden;" viewBox="0 0 1024 1024" version="1.1" xmlns="http://www.w3.org/2000/svg"><path d="M768 85.333333a42.666667 42.666667 0 0 1 42.666667 42.666667v768a42.666667 42.666667 0 0 1-42.666667 42.666667H256a42.666667 42.666667 0 0 1-42.666667-42.666667V128a42.666667 42.666667 0 0 1 42.666667-42.666667h512z m-42.666667 85.333334H298.666667v682.666666h426.666666V170.666667z m-85.333333 469.333333v85.333333h-85.333333v-85.333333h85.333333z m-170.666667 0v85.333333H384v-85.333333h85.333333z m85.333334-384v85.333333h85.333333v85.333334h-85.376L554.666667 512h-85.333334l-0.042666-85.333333H384V341.333333h85.333333V256h85.333334z" /></svg>