<?xml version="1.0" standalone="no"?>
<!DOCTYPE svg PUBLIC "-//W3C//DTD SVG 1.1//EN" "http://www.w3.org/Graphics/SVG/1.1/DTD/svg11.dtd">
<svg class="icon" style="width: 1em;height: 1em;vertical-align: middle;fill: currentColor;overflow: hidden;" viewBox="0 0 1024 1024" version="1.1" xmlns="http://www.w3.org/2000/svg"><path d="M597.333333 192V384c235.648 0 426.666667 191.018667 426.666667 426.666667 0 11.648-0.426667 23.168-1.365333 34.56a384.128 384.128 0 0 0-326.613334-205.013334L682.666667 640h-85.333334v192L256 512l341.333333-320z m-256 0v116.778667L124.586667 512l216.704 203.136L341.333333 832 0 512l341.333333-320z m170.666667 196.949333L380.757333 512 512 635.008V554.666667h172.117333l14.805334 0.298666c54.826667 1.834667 107.690667 13.226667 156.842666 32.682667A340.650667 340.650667 0 0 0 597.333333 469.333333h-85.333333V388.949333z" /></svg>