<?xml version="1.0" standalone="no"?>
<!DOCTYPE svg PUBLIC "-//W3C//DTD SVG 1.1//EN" "http://www.w3.org/Graphics/SVG/1.1/DTD/svg11.dtd">
<svg class="icon" style="width: 1em;height: 1em;vertical-align: middle;fill: currentColor;overflow: hidden;" viewBox="0 0 1024 1024" version="1.1" xmlns="http://www.w3.org/2000/svg"><path d="M554.666667 173.013333A384 384 0 0 1 896 554.666667v384H128v-384a384 384 0 0 1 341.333333-381.653334V42.666667h85.333334v130.346666zM810.666667 853.333333v-298.666666a298.666667 298.666667 0 0 0-597.333334 0v298.666666h597.333334z m-298.666667-85.333333a213.333333 213.333333 0 1 1 0-426.666667 213.333333 213.333333 0 0 1 0 426.666667z m0-85.333333a128 128 0 1 0 0-256 128 128 0 0 0 0 256z m0-85.333334a42.666667 42.666667 0 1 1 0-85.333333 42.666667 42.666667 0 0 1 0 85.333333z" /></svg>