<?xml version="1.0" standalone="no"?>
<!DOCTYPE svg PUBLIC "-//W3C//DTD SVG 1.1//EN" "http://www.w3.org/Graphics/SVG/1.1/DTD/svg11.dtd">
<svg class="icon" style="width: 1em;height: 1em;vertical-align: middle;fill: currentColor;overflow: hidden;" viewBox="0 0 1024 1024" version="1.1" xmlns="http://www.w3.org/2000/svg"><path d="M210.304 563.498667l90.496 90.496 60.330667-60.330667-90.453334-90.496 90.453334-90.496 120.704 120.661333 60.330666-60.330666L421.546667 352.298667 512 261.802667l90.496 90.496 60.373333-60.330667-90.538666-90.496 120.704-120.704a42.666667 42.666667 0 0 1 60.330666 0l211.2 211.2a42.666667 42.666667 0 0 1 0 60.330667l-633.6 633.6a42.666667 42.666667 0 0 1-60.330666 0l-211.2-211.2a42.666667 42.666667 0 0 1 0-60.330667l150.869333-150.869333z" /></svg>