<?xml version="1.0" standalone="no"?>
<!DOCTYPE svg PUBLIC "-//W3C//DTD SVG 1.1//EN" "http://www.w3.org/Graphics/SVG/1.1/DTD/svg11.dtd">
<svg class="icon" style="width: 1em;height: 1em;vertical-align: middle;fill: currentColor;overflow: hidden;" viewBox="0 0 1024 1024" version="1.1" xmlns="http://www.w3.org/2000/svg"><path d="M426.666667 853.333333H256v85.333334H170.666667v-85.333334H128a42.666667 42.666667 0 0 1-42.666667-42.666666V170.666667a42.666667 42.666667 0 0 1 42.666667-42.666667h298.666667V67.84a21.333333 21.333333 0 0 1 24.832-21.034667l451.498666 75.264a42.666667 42.666667 0 0 1 35.669334 42.069334V256h42.666666v85.333333h-42.666666v298.666667h42.666666v85.333333h-42.666666v91.861334a42.666667 42.666667 0 0 1-35.669334 42.069333L853.333333 867.541333V938.666667h-85.333333v-56.874667l-316.501333 52.736A21.333333 21.333333 0 0 1 426.666667 913.493333V853.333333z m85.333333-15.36l341.333333-56.917333V200.277333l-341.333333-56.874666v694.528zM704 597.333333c-35.328 0-64-47.786667-64-106.666666S668.672 384 704 384s64 47.786667 64 106.666667-28.672 106.666667-64 106.666666z" /></svg>