<?xml version="1.0" standalone="no"?>
<!DOCTYPE svg PUBLIC "-//W3C//DTD SVG 1.1//EN" "http://www.w3.org/Graphics/SVG/1.1/DTD/svg11.dtd">
<svg class="icon" style="width: 1em;height: 1em;vertical-align: middle;fill: currentColor;overflow: hidden;" viewBox="0 0 1024 1024" version="1.1" xmlns="http://www.w3.org/2000/svg"><path d="M213.333333 213.333333v597.333334h597.333334V333.994667L690.005333 213.333333H213.333333zM170.666667 128h554.666666l158.165334 158.165333a42.666667 42.666667 0 0 1 12.501333 30.165334V853.333333a42.666667 42.666667 0 0 1-42.666667 42.666667H170.666667a42.666667 42.666667 0 0 1-42.666667-42.666667V170.666667a42.666667 42.666667 0 0 1 42.666667-42.666667z m341.333333 640a128 128 0 1 1 0-256 128 128 0 0 1 0 256zM256 256h384v170.666667H256V256z" /></svg>