<?xml version="1.0" standalone="no"?>
<!DOCTYPE svg PUBLIC "-//W3C//DTD SVG 1.1//EN" "http://www.w3.org/Graphics/SVG/1.1/DTD/svg11.dtd">
<svg class="icon" style="width: 1em;height: 1em;vertical-align: middle;fill: currentColor;overflow: hidden;" viewBox="0 0 1024 1024" version="1.1" xmlns="http://www.w3.org/2000/svg"><path d="M554.666667 85.333333v42.666667h298.666666v85.333333h-298.666666v597.333334h170.666666v85.333333H298.666667v-85.333333h170.666666V213.333333H170.666667V128h298.666666V85.333333h85.333334zM213.333333 270.634667l120.661334 120.704A170.624 170.624 0 0 1 213.333333 682.666667a170.624 170.624 0 0 1-120.661333-291.328L213.333333 270.634667z m597.333334 0l120.661333 120.704A170.624 170.624 0 0 1 810.666667 682.666667a170.624 170.624 0 0 1-120.661334-291.328L810.666667 270.634667zM213.333333 391.338667l-60.330666 60.330666a85.333333 85.333333 0 1 0 120.661333 0L213.333333 391.338667z m597.333334 0l-60.330667 60.330666a85.333333 85.333333 0 1 0 120.661333 0L810.666667 391.338667z" /></svg>