<?xml version="1.0" standalone="no"?>
<!DOCTYPE svg PUBLIC "-//W3C//DTD SVG 1.1//EN" "http://www.w3.org/Graphics/SVG/1.1/DTD/svg11.dtd">
<svg class="icon" style="width: 1em;height: 1em;vertical-align: middle;fill: currentColor;overflow: hidden;" viewBox="0 0 1024 1024" version="1.1" xmlns="http://www.w3.org/2000/svg"><path d="M554.666667 85.333333v54.528l213.333333 71.168 154.965333-51.626666 27.008 80.896-129.365333 43.136 132.096 363.178666A255.402667 255.402667 0 0 1 768 725.333333a255.36 255.36 0 0 1-184.704-78.72l132.010667-363.178666L554.666667 229.845333V810.666667h170.666666v85.333333H298.666667v-85.333333h170.666666V229.845333L308.565333 283.434667l132.096 363.178666A255.232 255.232 0 0 1 256 725.333333a255.36 255.36 0 0 1-184.704-78.72l132.010667-363.178666-129.28-43.093334 27.008-80.981333L256 210.986667l213.333333-71.125334V85.333333h85.333334z m213.333333 303.061334L707.498667 554.666667h120.96L768 388.394667z m-512 0L195.498667 554.666667h120.96L256 388.394667z" /></svg>