<?xml version="1.0" standalone="no"?>
<!DOCTYPE svg PUBLIC "-//W3C//DTD SVG 1.1//EN" "http://www.w3.org/Graphics/SVG/1.1/DTD/svg11.dtd">
<svg class="icon" style="width: 1em;height: 1em;vertical-align: middle;fill: currentColor;overflow: hidden;" viewBox="0 0 1024 1024" version="1.1" xmlns="http://www.w3.org/2000/svg"><path d="M241.962667 181.632L572.330667 512 512 572.330667 364.970667 425.301333a170.666667 170.666667 0 1 0 157.738666-83.626666l-77.013333-77.013334a256 256 0 1 1-142.378667 98.986667L242.346667 302.677333a341.333333 341.333333 0 1 0 136.362666-105.002666L314.624 133.632A424.832 424.832 0 0 1 512 85.333333c235.648 0 426.666667 191.018667 426.666667 426.666667s-191.018667 426.666667-426.666667 426.666667S85.333333 747.648 85.333333 512a425.813333 425.813333 0 0 1 156.629334-330.368z" /></svg>