<?xml version="1.0" standalone="no"?>
<!DOCTYPE svg PUBLIC "-//W3C//DTD SVG 1.1//EN" "http://www.w3.org/Graphics/SVG/1.1/DTD/svg11.dtd">
<svg class="icon" style="width: 1em;height: 1em;vertical-align: middle;fill: currentColor;overflow: hidden;" viewBox="0 0 1024 1024" version="1.1" xmlns="http://www.w3.org/2000/svg"><path d="M512 572.330667l-108.970667 108.970666a170.666667 170.666667 0 1 1-60.330666-60.330666L451.669333 512 194.773333 255.146667a85.333333 85.333333 0 0 1 0-120.746667L512 451.712l317.226667-317.226667a85.333333 85.333333 0 0 1 0 120.661334L572.373333 512l108.928 108.970667a170.666667 170.666667 0 1 1-60.330666 60.330666L512 572.330667zM256 853.333333a85.333333 85.333333 0 1 0 0-170.666666 85.333333 85.333333 0 0 0 0 170.666666z m512 0a85.333333 85.333333 0 1 0 0-170.666666 85.333333 85.333333 0 0 0 0 170.666666z" /></svg>