<?xml version="1.0" standalone="no"?>
<!DOCTYPE svg PUBLIC "-//W3C//DTD SVG 1.1//EN" "http://www.w3.org/Graphics/SVG/1.1/DTD/svg11.dtd">
<svg class="icon" style="width: 1em;height: 1em;vertical-align: middle;fill: currentColor;overflow: hidden;" viewBox="0 0 1024 1024" version="1.1" xmlns="http://www.w3.org/2000/svg"><path d="M426.666667 256c0 31.232-8.405333 60.544-23.04 85.76L512 451.626667l287.061333-287.061334a85.333333 85.333333 0 0 1 120.661334 0l-516.693334 516.693334a170.666667 170.666667 0 1 1-60.330666-60.330667L451.669333 512 342.698667 403.029333A170.666667 170.666667 0 1 1 426.666667 256zM341.333333 256a85.333333 85.333333 0 1 0-170.666666 0 85.333333 85.333333 0 0 0 170.666666 0z m578.389334 603.392a85.333333 85.333333 0 0 1-120.661334 0l-226.858666-226.816 60.373333-60.373333 287.146667 287.189333zM682.666667 469.333333h85.333333v85.333334h-85.333333v-85.333334z m170.666666 0h85.333334v85.333334h-85.333334v-85.333334zM256 469.333333h85.333333v85.333334H256v-85.333334z m-170.666667 0h85.333334v85.333334H85.333333v-85.333334z m170.666667 384a85.333333 85.333333 0 1 0 0-170.666666 85.333333 85.333333 0 0 0 0 170.666666z" /></svg>