<?xml version="1.0" standalone="no"?>
<!DOCTYPE svg PUBLIC "-//W3C//DTD SVG 1.1//EN" "http://www.w3.org/Graphics/SVG/1.1/DTD/svg11.dtd">
<svg class="icon" style="width: 1em;height: 1em;vertical-align: middle;fill: currentColor;overflow: hidden;" viewBox="0 0 1024 1024" version="1.1" xmlns="http://www.w3.org/2000/svg"><path d="M403.029333 342.698667L512 451.669333l287.061333-287.061333a85.333333 85.333333 0 0 1 120.661334 0l-516.693334 516.693333a170.666667 170.666667 0 1 1-60.330666-60.330666L451.669333 512 342.698667 403.029333a170.666667 170.666667 0 1 1 60.330666-60.330666z m229.546667 229.546666l287.146667 287.146667a85.333333 85.333333 0 0 1-120.661334 0l-226.858666-226.816 60.373333-60.373333z m-316.245333 135.424a85.333333 85.333333 0 1 0-120.661334 120.661334 85.333333 85.333333 0 0 0 120.661334-120.661334z m0-391.338666a85.333333 85.333333 0 1 0-120.661334-120.661334 85.333333 85.333333 0 0 0 120.661334 120.661334z" /></svg>