<?xml version="1.0" standalone="no"?>
<!DOCTYPE svg PUBLIC "-//W3C//DTD SVG 1.1//EN" "http://www.w3.org/Graphics/SVG/1.1/DTD/svg11.dtd">
<svg class="icon" style="width: 1em;height: 1em;vertical-align: middle;fill: currentColor;overflow: hidden;" viewBox="0 0 1024 1024" version="1.1" xmlns="http://www.w3.org/2000/svg"><path d="M469.333333 85.333333l311.381334 97.28a42.666667 42.666667 0 0 1 29.952 40.746667V298.666667h85.333333a42.666667 42.666667 0 0 1 42.666667 42.666666v341.333334a42.666667 42.666667 0 0 1-42.666667 42.666666l-137.386667 0.042667c-16.512 21.76-36.565333 40.96-59.733333 56.746667L469.333333 938.666667l-229.546666-156.501334A256 256 0 0 1 128 570.624V223.36a42.666667 42.666667 0 0 1 29.952-40.704L469.333333 85.333333z m0 89.344L213.333333 254.72v315.904a170.666667 170.666667 0 0 0 66.474667 135.210667l8.064 5.802666L469.333333 835.413333 630.698667 725.333333H426.666667a42.666667 42.666667 0 0 1-42.666667-42.666666V341.333333a42.666667 42.666667 0 0 1 42.666667-42.666666h298.666666V254.72l-256-80.042667zM469.333333 512v128h384v-128h-384z m0-85.333333h384V384h-384v42.666667z" /></svg>