<?xml version="1.0" standalone="no"?>
<!DOCTYPE svg PUBLIC "-//W3C//DTD SVG 1.1//EN" "http://www.w3.org/Graphics/SVG/1.1/DTD/svg11.dtd">
<svg class="icon" style="width: 1em;height: 1em;vertical-align: middle;fill: currentColor;overflow: hidden;" viewBox="0 0 1024 1024" version="1.1" xmlns="http://www.w3.org/2000/svg"><path d="M256 128a298.752 298.752 0 0 1 294.954667 251.52A276.437333 276.437333 0 0 1 746.666667 298.666667H938.666667v106.666666a277.333333 277.333333 0 0 1-277.333334 277.333334H554.666667v213.333333h-85.333334v-341.333333H384a298.666667 298.666667 0 0 1-298.666667-298.666667V128h170.666667z m597.333333 256h-106.666666a192 192 0 0 0-192 192v21.333333h106.666666A192 192 0 0 0 853.333333 405.333333V384zM256 213.333333H170.666667v42.666667a213.333333 213.333333 0 0 0 213.333333 213.333333h85.333333v-42.666666a213.333333 213.333333 0 0 0-213.333333-213.333334z" /></svg>