<?xml version="1.0" standalone="no"?>
<!DOCTYPE svg PUBLIC "-//W3C//DTD SVG 1.1//EN" "http://www.w3.org/Graphics/SVG/1.1/DTD/svg11.dtd">
<svg class="icon" style="width: 1em;height: 1em;vertical-align: middle;fill: currentColor;overflow: hidden;" viewBox="0 0 1024 1024" version="1.1" xmlns="http://www.w3.org/2000/svg"><path d="M90.965333 581.546667a424.192 424.192 0 0 1 0-139.093334c47.018667 1.109333 89.258667-21.418667 105.685334-61.056 16.426667-39.68 2.474667-85.504-31.573334-117.888a424.192 424.192 0 0 1 98.389334-98.432c32.426667 34.048 78.250667 48 117.930666 31.573334 39.68-16.426667 62.165333-58.709333 61.013334-105.685334a424.192 424.192 0 0 1 139.178666 0c-1.152 47.018667 21.376 89.258667 61.013334 105.685334 39.68 16.426667 85.504 2.474667 117.888-31.573334a424.192 424.192 0 0 1 98.432 98.389334c-34.048 32.426667-48 78.250667-31.573334 117.930666 16.426667 39.68 58.709333 62.165333 105.685334 61.013334a424.192 424.192 0 0 1 0 139.178666c-47.018667-1.152-89.258667 21.376-105.685334 61.013334-16.426667 39.68-2.474667 85.504 31.573334 117.888a424.192 424.192 0 0 1-98.389334 98.432c-32.426667-34.048-78.250667-48-117.930666-31.573334-39.68 16.426667-62.165333 58.709333-61.013334 105.685334a424.192 424.192 0 0 1-139.178666 0c1.152-47.018667-21.376-89.258667-61.013334-105.685334-39.68-16.426667-85.504-2.474667-117.888 31.573334a424.192 424.192 0 0 1-98.432-98.389334c34.048-32.426667 48-78.250667 31.573334-117.930666-16.426667-39.68-58.709333-62.165333-105.685334-61.013334zM512 640a128 128 0 1 0 0-256 128 128 0 0 0 0 256z" /></svg>