<?xml version="1.0" standalone="no"?>
<!DOCTYPE svg PUBLIC "-//W3C//DTD SVG 1.1//EN" "http://www.w3.org/Graphics/SVG/1.1/DTD/svg11.dtd">
<svg class="icon" style="width: 1em;height: 1em;vertical-align: middle;fill: currentColor;overflow: hidden;" viewBox="0 0 1024 1024" version="1.1" xmlns="http://www.w3.org/2000/svg"><path d="M853.333333 682.666667h85.333334v256h-256v-85.333334H341.333333v85.333334H85.333333v-256h85.333334V341.333333H85.333333V85.333333h256v85.333334h341.333334V85.333333h256v256h-85.333334v341.333334z m-85.333333 0V341.333333h-85.333333V256H341.333333v85.333333H256v341.333334h85.333333v85.333333h341.333334v-85.333333h85.333333zM170.666667 170.666667v85.333333h85.333333V170.666667H170.666667z m0 597.333333v85.333333h85.333333v-85.333333H170.666667zM768 170.666667v85.333333h85.333333V170.666667h-85.333333z m0 597.333333v85.333333h85.333333v-85.333333h-85.333333z" /></svg>