<?xml version="1.0" standalone="no"?>
<!DOCTYPE svg PUBLIC "-//W3C//DTD SVG 1.1//EN" "http://www.w3.org/Graphics/SVG/1.1/DTD/svg11.dtd">
<svg class="icon" style="width: 1em;height: 1em;vertical-align: middle;fill: currentColor;overflow: hidden;" viewBox="0 0 1024 1024" version="1.1" xmlns="http://www.w3.org/2000/svg"><path d="M213.333333 196.437333v391.893334a170.666667 170.666667 0 0 0 75.989334 141.994666L512 878.805333l222.677333-148.48A170.666667 170.666667 0 0 0 810.666667 588.373333V196.437333L512 130.133333 213.333333 196.437333zM161.408 120.576L512 42.666667l350.592 77.909333a42.666667 42.666667 0 0 1 33.408 41.642667v426.112a256 256 0 0 1-114.005333 212.992L512 981.333333l-269.994667-180.010666A256 256 0 0 1 128 588.373333V162.218667a42.666667 42.666667 0 0 1 33.408-41.642667zM512 576l-125.397333 65.92 23.936-139.605333-101.418667-98.901334 140.202667-20.394666L512 256l62.72 127.018667 140.16 20.394666-101.418667 98.901334 23.893334 139.605333L512 576z" /></svg>