<?xml version="1.0" standalone="no"?>
<!DOCTYPE svg PUBLIC "-//W3C//DTD SVG 1.1//EN" "http://www.w3.org/Graphics/SVG/1.1/DTD/svg11.dtd">
<svg class="icon" style="width: 1em;height: 1em;vertical-align: middle;fill: currentColor;overflow: hidden;" viewBox="0 0 1024 1024" version="1.1" xmlns="http://www.w3.org/2000/svg"><path d="M554.666667 853.333333h256v-170.666666h-170.666667v-85.333334h170.666667V256h-85.333334v213.333333l-170.666666-68.266666V853.333333z m-85.333334 0V401.066667L298.666667 469.333333V256H213.333333v597.333333h256zM298.666667 170.666667V128h426.666666v42.666667h128a42.666667 42.666667 0 0 1 42.666667 42.666666v682.666667a42.666667 42.666667 0 0 1-42.666667 42.666667H170.666667a42.666667 42.666667 0 0 1-42.666667-42.666667V213.333333a42.666667 42.666667 0 0 1 42.666667-42.666666h128z m213.333333 170.666666l149.333333-128h-298.666666L512 341.333333z" /></svg>