<?xml version="1.0" standalone="no"?>
<!DOCTYPE svg PUBLIC "-//W3C//DTD SVG 1.1//EN" "http://www.w3.org/Graphics/SVG/1.1/DTD/svg11.dtd">
<svg class="icon" style="width: 1em;height: 1em;vertical-align: middle;fill: currentColor;overflow: hidden;" viewBox="0 0 1024 1024" version="1.1" xmlns="http://www.w3.org/2000/svg"><path d="M512 42.666667a213.333333 213.333333 0 0 1 213.333333 213.333333v85.333333h128a42.666667 42.666667 0 0 1 42.666667 42.666667v512a42.666667 42.666667 0 0 1-42.666667 42.666667H170.666667a42.666667 42.666667 0 0 1-42.666667-42.666667V384a42.666667 42.666667 0 0 1 42.666667-42.666667h128V256a213.333333 213.333333 0 0 1 213.333333-213.333333z m213.333333 426.666666h-85.333333v42.666667a42.666667 42.666667 0 0 0 85.034667 4.992L725.333333 512v-42.666667z m-341.333333 0H298.666667v42.666667a42.666667 42.666667 0 0 0 85.034666 4.992L384 512v-42.666667z m128-341.333333a128 128 0 0 0-127.786667 120.490667L384 256v85.333333h256V256a128 128 0 0 0-120.490667-127.786667L512 128z" /></svg>