<?xml version="1.0" standalone="no"?>
<!DOCTYPE svg PUBLIC "-//W3C//DTD SVG 1.1//EN" "http://www.w3.org/Graphics/SVG/1.1/DTD/svg11.dtd">
<svg class="icon" style="width: 1em;height: 1em;vertical-align: middle;fill: currentColor;overflow: hidden;" viewBox="0 0 1024 1024" version="1.1" xmlns="http://www.w3.org/2000/svg"><path d="M277.333333 85.333333h469.333334a42.666667 42.666667 0 0 1 34.133333 17.066667L896 256v640a42.666667 42.666667 0 0 1-42.666667 42.666667H170.666667a42.666667 42.666667 0 0 1-42.666667-42.666667V256l115.2-153.6a42.666667 42.666667 0 0 1 34.133333-17.066667z m512 170.666667L725.333333 170.666667H298.666667L234.666667 256h554.666666zM384 426.666667H298.666667v85.333333a213.333333 213.333333 0 0 0 426.666666 0v-85.333333h-85.333333v85.333333a128 128 0 0 1-256 0v-85.333333z" /></svg>