<?xml version="1.0" standalone="no"?>
<!DOCTYPE svg PUBLIC "-//W3C//DTD SVG 1.1//EN" "http://www.w3.org/Graphics/SVG/1.1/DTD/svg11.dtd">
<svg class="icon" style="width: 1em;height: 1em;vertical-align: middle;fill: currentColor;overflow: hidden;" viewBox="0 0 1024 1024" version="1.1" xmlns="http://www.w3.org/2000/svg"><path d="M170.666667 273.664L32.298667 135.338667l60.373333-60.373334L230.997333 213.333333h650.325334a42.666667 42.666667 0 0 1 40.874666 54.912l-102.4 341.333334a42.666667 42.666667 0 0 1-40.874666 30.421333H256v85.333333h469.333333v85.333334H213.333333a42.666667 42.666667 0 0 1-42.666666-42.666667V273.664zM256 298.666667v256h491.178667l76.8-256H256z m-21.333333 682.666666a64 64 0 1 1 0-128 64 64 0 0 1 0 128z m512 0a64 64 0 1 1 0-128 64 64 0 0 1 0 128z" /></svg>