<?xml version="1.0" standalone="no"?>
<!DOCTYPE svg PUBLIC "-//W3C//DTD SVG 1.1//EN" "http://www.w3.org/Graphics/SVG/1.1/DTD/svg11.dtd">
<svg class="icon" style="width: 1em;height: 1em;vertical-align: middle;fill: currentColor;overflow: hidden;" viewBox="0 0 1024 1024" version="1.1" xmlns="http://www.w3.org/2000/svg"><path d="M298.666667 341.333333V256a213.333333 213.333333 0 1 1 426.666666 0v85.333333h128a42.666667 42.666667 0 0 1 42.666667 42.666667v512a42.666667 42.666667 0 0 1-42.666667 42.666667H170.666667a42.666667 42.666667 0 0 1-42.666667-42.666667V384a42.666667 42.666667 0 0 1 42.666667-42.666667h128z m0 85.333334H213.333333v426.666666h597.333334V426.666667h-85.333334v85.333333h-85.333333v-85.333333H384v85.333333H298.666667v-85.333333z m85.333333-85.333334h256V256a128 128 0 0 0-256 0v85.333333z" /></svg>