<?xml version="1.0" standalone="no"?>
<!DOCTYPE svg PUBLIC "-//W3C//DTD SVG 1.1//EN" "http://www.w3.org/Graphics/SVG/1.1/DTD/svg11.dtd">
<svg class="icon" style="width: 1em;height: 1em;vertical-align: middle;fill: currentColor;overflow: hidden;" viewBox="0 0 1024 1024" version="1.1" xmlns="http://www.w3.org/2000/svg"><path d="M655.616 146.688L792.618667 384H938.666667v85.333333h-49.792l-32.298667 387.541334a42.666667 42.666667 0 0 1-42.496 39.125333H209.92a42.666667 42.666667 0 0 1-42.496-39.125333L135.082667 469.333333H85.333333V384h146.005334l137.045333-237.312 73.898667 42.666667L329.898667 384h364.16l-112.341334-194.645333 73.898667-42.666667zM803.242667 469.333333H220.714667l28.458666 341.333334h525.610667l28.458667-341.333334zM554.666667 554.666667v170.666666h-85.333334v-170.666666h85.333334z m-170.666667 0v170.666666H298.666667v-170.666666h85.333333z m341.333333 0v170.666666h-85.333333v-170.666666h85.333333z" /></svg>