<?xml version="1.0" standalone="no"?>
<!DOCTYPE svg PUBLIC "-//W3C//DTD SVG 1.1//EN" "http://www.w3.org/Graphics/SVG/1.1/DTD/svg11.dtd">
<svg class="icon" style="width: 1em;height: 1em;vertical-align: middle;fill: currentColor;overflow: hidden;" viewBox="0 0 1024 1024" version="1.1" xmlns="http://www.w3.org/2000/svg"><path d="M512 128c182.784 0 350.72 63.872 482.56 170.496L512 896 29.44 298.538667A764.458667 764.458667 0 0 1 512 128z m0 512a256.426667 256.426667 0 0 0-85.333333 14.506667l85.333333 105.685333 85.333333-105.685333a259.157333 259.157333 0 0 0-85.333333-14.506667z m0-426.666667c-129.194667 0-252.714667 35.925333-359.253333 102.058667l217.941333 269.824A339.84 339.84 0 0 1 512 554.666667c50.389333 0 98.261333 10.922667 141.312 30.549333L871.253333 315.306667A679.594667 679.594667 0 0 0 512 213.333333z" /></svg>