<?xml version="1.0" standalone="no"?>
<!DOCTYPE svg PUBLIC "-//W3C//DTD SVG 1.1//EN" "http://www.w3.org/Graphics/SVG/1.1/DTD/svg11.dtd">
<svg class="icon" style="width: 1em;height: 1em;vertical-align: middle;fill: currentColor;overflow: hidden;" viewBox="0 0 1024 1024" version="1.1" xmlns="http://www.w3.org/2000/svg"><path d="M256 170.666667v682.666666h512V333.994667L604.672 170.666667H256zM213.333333 85.333333h426.666667l200.832 200.832a42.666667 42.666667 0 0 1 12.501333 30.165334V896a42.666667 42.666667 0 0 1-42.666666 42.666667H213.333333a42.666667 42.666667 0 0 1-42.666666-42.666667V128a42.666667 42.666667 0 0 1 42.666666-42.666667z m341.333334 341.333334v341.333333h-85.333334v-256H341.333333v-85.333333h213.333334z m-213.333334 128h85.333334v85.333333H341.333333v-85.333333z m256 0h85.333334v85.333333h-85.333334v-85.333333z m0-128h85.333334v85.333333h-85.333334v-85.333333z m-256 256h85.333334v85.333333H341.333333v-85.333333z m256 0h85.333334v85.333333h-85.333334v-85.333333z" /></svg>