<?xml version="1.0" standalone="no"?>
<!DOCTYPE svg PUBLIC "-//W3C//DTD SVG 1.1//EN" "http://www.w3.org/Graphics/SVG/1.1/DTD/svg11.dtd">
<svg class="icon" style="width: 1em;height: 1em;vertical-align: middle;fill: currentColor;overflow: hidden;" viewBox="0 0 1024 1024" version="1.1" xmlns="http://www.w3.org/2000/svg"><path d="M768 768v128a42.666667 42.666667 0 0 1-42.666667 42.666667H298.666667a42.666667 42.666667 0 0 1-42.666667-42.666667v-128H128a42.666667 42.666667 0 0 1-42.666667-42.666667v-213.333333C85.333333 276.352 276.352 85.333333 512 85.333333s426.666667 191.018667 426.666667 426.666667v213.333333a42.666667 42.666667 0 0 1-42.666667 42.666667h-128zM320 597.333333a64 64 0 1 0 0-128 64 64 0 0 0 0 128z m384 0a64 64 0 1 0 0-128 64 64 0 0 0 0 128z" /></svg>