<?xml version="1.0" standalone="no"?>
<!DOCTYPE svg PUBLIC "-//W3C//DTD SVG 1.1//EN" "http://www.w3.org/Graphics/SVG/1.1/DTD/svg11.dtd">
<svg class="icon" style="width: 1em;height: 1em;vertical-align: middle;fill: currentColor;overflow: hidden;" viewBox="0 0 1024 1024" version="1.1" xmlns="http://www.w3.org/2000/svg"><path d="M512 85.333333c235.648 0 426.666667 191.018667 426.666667 426.666667v160.597333a85.333333 85.333333 0 0 1-47.189334 76.330667L768 810.666667v42.666666a128 128 0 0 1-120.490667 127.786667L637.866667 981.333333a106.666667 106.666667 0 0 0 1.877333-14.08L640 960V938.666667a85.333333 85.333333 0 0 0-78.933333-85.12L554.666667 853.333333h-85.333334a85.333333 85.333333 0 0 0-85.12 78.933334L384 938.666667v21.333333c0 7.296 0.725333 14.464 2.133333 21.333333H384a128 128 0 0 1-128-128v-42.666666l-123.477333-61.738667A85.333333 85.333333 0 0 1 85.333333 672.554667V512C85.333333 276.352 276.352 85.333333 512 85.333333z m0 85.333334a341.333333 341.333333 0 0 0-341.162667 330.666666L170.666667 512v160.597333l170.666666 85.333334v67.882666l3.2-3.584a170.325333 170.325333 0 0 1 116.181334-54.016L469.333333 768l88.448 0.042667 9.514667 0.426666a170.24 170.24 0 0 1 108.8 50.218667l6.570667 7.125333v-67.882666l170.666666-85.333334V512a341.333333 341.333333 0 0 0-341.333333-341.333333z m-170.666667 298.666666a85.333333 85.333333 0 1 1 0 170.666667 85.333333 85.333333 0 0 1 0-170.666667z m341.333334 0a85.333333 85.333333 0 1 1 0 170.666667 85.333333 85.333333 0 0 1 0-170.666667z" /></svg>