<?xml version="1.0" standalone="no"?>
<!DOCTYPE svg PUBLIC "-//W3C//DTD SVG 1.1//EN" "http://www.w3.org/Graphics/SVG/1.1/DTD/svg11.dtd">
<svg class="icon" style="width: 1em;height: 1em;vertical-align: middle;fill: currentColor;overflow: hidden;" viewBox="0 0 1024 1024" version="1.1" xmlns="http://www.w3.org/2000/svg"><path d="M278.485333 619.264A84.181333 84.181333 0 0 1 194.56 703.146667a84.181333 84.181333 0 0 1-83.925333-83.925334c0-46.208 37.717333-83.968 83.925333-83.968h83.968v83.968z m42.325334 0c0-46.208 37.717333-83.968 83.925333-83.968 46.208 0 83.968 37.76 83.968 83.968v210.218667a84.181333 84.181333 0 0 1-83.968 83.925333 84.181333 84.181333 0 0 1-83.925333-83.925333v-210.218667z m83.925333-340.778667A84.181333 84.181333 0 0 1 320.853333 194.56c0-46.208 37.717333-83.925333 83.925334-83.925333 46.208 0 83.968 37.717333 83.968 83.925333v83.968H404.736z m0 42.325334c46.208 0 83.968 37.717333 83.968 83.925333a84.181333 84.181333 0 0 1-83.968 83.968H194.56a84.181333 84.181333 0 0 1-83.925333-83.968c0-46.208 37.717333-83.925333 83.925333-83.925333h210.218667z m340.778667 83.925333c0-46.208 37.76-83.925333 83.968-83.925333s83.925333 37.717333 83.925333 83.925333a84.181333 84.181333 0 0 1-83.925333 83.968h-83.968V404.736z m-42.325334 0a84.181333 84.181333 0 0 1-83.925333 83.968 84.181333 84.181333 0 0 1-83.968-83.968V194.56c0-46.208 37.76-83.925333 83.968-83.925333s83.925333 37.717333 83.925333 83.925333v210.218667z m-83.925333 340.778667c46.208 0 83.925333 37.76 83.925333 83.968a84.181333 84.181333 0 0 1-83.925333 83.925333 84.181333 84.181333 0 0 1-83.968-83.925333v-83.968h83.968z m0-42.325334a84.181333 84.181333 0 0 1-83.968-83.925333c0-46.208 37.76-83.968 83.968-83.968h210.218667c46.208 0 83.925333 37.76 83.925333 83.968a84.181333 84.181333 0 0 1-83.925333 83.925333h-210.218667z" /></svg>