<?xml version="1.0" standalone="no"?>
<!DOCTYPE svg PUBLIC "-//W3C//DTD SVG 1.1//EN" "http://www.w3.org/Graphics/SVG/1.1/DTD/svg11.dtd">
<svg class="icon" style="width: 1em;height: 1em;vertical-align: middle;fill: currentColor;overflow: hidden;" viewBox="0 0 1024 1024" version="1.1" xmlns="http://www.w3.org/2000/svg"><path d="M656.896 451.413333l0.853333-10.624a1382.058667 1382.058667 0 0 0 3.541334-99.242666c0-37.12-12.544-63.402667-38.997334-88.021334-28.16-26.197333-62.250667-40.192-110.506666-40.192-48.512 0-83.541333 14.293333-107.093334 37.888-29.696 29.653333-40.874667 51.968-40.874666 89.6 0 22.229333 2.602667 85.077333 4.096 111.701334a85.333333 85.333333 0 0 1-20.010667 59.818666c2.346667 4.181333 4.48 8.704 6.528 13.525334 12.8 32.896 8.448 65.834667-6.485333 96.896-16.725333 34.901333-31.189333 59.434667-60.16 91.904a340.181333 340.181333 0 0 1-27.392 27.434666 85.290667 85.290667 0 0 1 17.578666 24.106667 251.136 251.136 0 0 1 67.626667 3.157333c34.56 6.229333 56.490667 18.517333 93.610667 45.269334l0.682666 0.469333 9.088 6.485333c26.410667 18.773333 37.418667 23.296 62.848 23.296 25.984 0 38.826667-5.162667 64.981334-23.552l8.832-6.229333c37.376-26.965333 60.032-39.594667 95.189333-45.909333a284.330667 284.330667 0 0 1 66.517333-3.157334 85.290667 85.290667 0 0 1 17.792-24.192 358.784 358.784 0 0 1-26.282666-26.282666 394.026667 394.026667 0 0 1-61.738667-92.16c-15.488-31.957333-20.053333-65.706667-5.845333-99.029334 1.706667-4.181333 3.626667-8.106667 5.632-11.776a85.333333 85.333333 0 0 1-20.010667-61.226666z m-440.106667-4.352c17.877333 0 25.6 13.013333 52.010667 13.013334 6.698667 0 11.093333-1.493333 13.909333-2.816-0.384-6.656-4.224-84.736-4.224-116.437334 0-72.021333 30.72-114.773333 65.834667-149.930666C379.434667 155.733333 434.133333 128 511.829333 128c77.653333 0 130.816 27.861333 168.618667 63.061333 37.802667 35.2 66.176 82.346667 66.176 150.528 0 66.346667-4.224 110.677333-4.608 115.882667a25.173333 25.173333 0 0 0 11.904 2.773333c26.88 0 26.88-13.226667 56.746667-13.226666 29.226667 0 41.941333 24.32 41.941333 35.114666 0 26.496-35.541333 41.258667-56.746667 48.042667-15.744 4.992-39.722667 12.416-45.866666 27.093333-3.157333 7.424-1.834667 17.066667 3.925333 28.928 0.128 0.341333 53.76 123.008 167.68 141.909334 10.026667 1.493333 16.682667 10.282667 16.682667 20.608 0 14.165333-15.786667 26.325333-30.976 33.365333-18.901333 8.533333-46.549333 15.786667-83.285334 21.546667-1.834667 3.328-5.717333 20.693333-10.026666 37.845333-5.76 23.125333-34.176 15.616-42.282667 13.909333A213.205333 213.205333 0 0 0 695.082667 853.333333c-20.565333 3.712-38.954667 16.128-59.52 30.976-30.421333 21.504-62.506667 45.909333-123.733334 45.909334-61.269333 0-91.477333-24.405333-121.898666-45.909334-20.565333-14.848-38.613333-27.178667-59.562667-30.976-38.314667-6.954667-66.986667 1.536-76.586667 2.432-9.642667 0.853333-35.925333 10.410667-42.496-13.952-1.92-7.082667-8.149333-34.474667-10.026666-38.186666-36.522667-5.76-64.341333-13.354667-83.285334-21.888-15.573333-7.04-30.976-18.901333-30.976-33.237334 0-10.026667 6.741333-18.773333 16.682667-20.565333 112.810667-20.608 160.682667-128.213333 167.338667-142.08 5.632-11.776 6.869333-21.333333 3.882666-28.970667-6.101333-14.634667-30.037333-21.888-45.781333-27.093333-4.48-1.450667-57.002667-15.914667-57.002667-47.658667 0-10.24 8.746667-24.448 24.832-31.146666a58.026667 58.026667 0 0 1 19.84-3.925334z" /></svg>