<?xml version="1.0" standalone="no"?>
<!DOCTYPE svg PUBLIC "-//W3C//DTD SVG 1.1//EN" "http://www.w3.org/Graphics/SVG/1.1/DTD/svg11.dtd">
<svg class="icon" style="width: 1em;height: 1em;vertical-align: middle;fill: currentColor;overflow: hidden;" viewBox="0 0 1024 1024" version="1.1" xmlns="http://www.w3.org/2000/svg"><path d="M506.496 928.597333c-50.773333 0-84.650667-23.936-114.901333-45.056-21.461333-15.232-41.642667-29.696-65.408-33.706666a194.901333 194.901333 0 0 0-34.261334-2.816c-20.138667 0-36.138667 3.029333-47.530666 5.333333-7.253333 1.28-13.312 2.474667-18.090667 2.474667-4.949333 0-11.221333-1.365333-13.653333-9.728-2.133333-6.826667-3.456-13.312-4.778667-19.584-3.413333-15.786667-6.272-25.472-12.202667-26.453334-63.530667-9.685333-101.546667-24.32-108.970666-41.642666-0.597333-1.877333-1.322667-3.84-1.322667-5.333334-0.426667-5.333333 3.413333-9.685333 8.746667-10.666666 50.389333-8.362667 95.658667-35.157333 133.888-79.274667 29.696-34.261333 44.16-67.370667 45.482666-70.954667 0-0.426667 0.384-0.426667 0.384-0.426666 7.253333-14.976 8.746667-27.733333 4.352-38.186667-8.149333-19.626667-35.2-27.989333-53.632-33.706667-4.736-1.28-8.746667-2.816-12.16-3.968-15.786667-6.272-42.069333-19.626667-38.613333-38.058666 2.474667-13.312 20.138667-22.826667 34.602667-22.826667 4.010667 0 7.424 0.597333 10.24 2.133333 16.213333 7.381333 30.848 11.178667 43.392 11.178667 15.616 0 23.04-5.888 24.917333-7.765333a1063.68 1063.68 0 0 0-1.493333-25.301334c-3.84-58.24-8.192-130.517333 10.24-171.946666 55.381333-124.032 172.928-133.973333 207.744-133.973334L518.656 128h2.133333c34.773333 0 152.32 9.685333 207.701334 133.930667 18.645333 41.429333 14.08 113.92 10.24 171.946666l-0.341334 2.858667c-0.426667 7.765333-0.981333 15.189333-1.365333 22.826667 1.92 1.493333 8.746667 7.210667 22.826667 7.381333 12.202667-0.341333 25.514667-4.352 40.704-11.221333a34.304 34.304 0 0 1 13.312-2.816c5.333333 0 10.666667 1.28 15.232 2.816h0.384c12.757333 4.778667 21.12 13.696 21.12 23.04 0.384 8.746667-6.485333 22.058667-38.997334 35.2-3.413333 1.28-7.424 2.858667-12.16 3.968-18.090667 5.546667-45.098667 14.293333-53.674666 33.706666-4.736 10.24-2.816 23.381333 4.394666 38.186667 0 0.426667 0.384 0.426667 0.384 0.426667 2.090667 5.290667 57.045333 130.090667 179.370667 150.442666a10.496 10.496 0 0 1 8.746667 10.666667 11.392 11.392 0 0 1-1.322667 5.504c-7.424 17.493333-45.098667 31.744-109.013333 41.642667-5.888 0.938667-8.746667 10.666667-12.16 26.453333a291.456 291.456 0 0 1-4.778667 19.584c-1.877333 6.272-5.888 9.685333-12.714667 9.685333h-0.981333a95.573333 95.573333 0 0 1-18.048-2.090666 225.493333 225.493333 0 0 0-47.573333-4.949334 212.053333 212.053333 0 0 0-34.218667 2.858667c-23.594667 3.84-43.946667 18.474667-65.450667 33.706667-30.592 20.906667-64.64 44.842667-115.072 44.842666h-10.837333z" /></svg>