<?xml version="1.0" standalone="no"?>
<!DOCTYPE svg PUBLIC "-//W3C//DTD SVG 1.1//EN" "http://www.w3.org/Graphics/SVG/1.1/DTD/svg11.dtd">
<svg class="icon" style="width: 1em;height: 1em;vertical-align: middle;fill: currentColor;overflow: hidden;" viewBox="0 0 1024 1024" version="1.1" xmlns="http://www.w3.org/2000/svg"><path d="M257.152 743.68A341.461333 341.461333 0 0 1 384 85.333333a341.461333 341.461333 0 0 1 318.208 217.557334A234.666667 234.666667 0 0 1 768 767.061333a256 256 0 0 0-510.848-23.424zM554.666667 694.058667l83.797333-48.384 42.666667 73.898666L597.333333 768l83.797334 48.384-42.666667 73.898667L554.666667 841.898667V938.666667h-85.333334v-96.768l-83.797333 48.384-42.666667-73.898667L426.666667 768l-83.797334-48.384 42.666667-73.898667L469.333333 694.101333V597.333333h85.333334v96.768z" /></svg>