<?xml version="1.0" standalone="no"?>
<!DOCTYPE svg PUBLIC "-//W3C//DTD SVG 1.1//EN" "http://www.w3.org/Graphics/SVG/1.1/DTD/svg11.dtd">
<svg class="icon" style="width: 1em;height: 1em;vertical-align: middle;fill: currentColor;overflow: hidden;" viewBox="0 0 1024 1024" version="1.1" xmlns="http://www.w3.org/2000/svg"><path d="M554.666667 694.101333l83.797333-48.384 42.666667 73.898667L597.333333 768l83.797334 48.384-42.666667 73.898667L554.666667 841.898667V938.666667h-85.333334v-96.768l-83.797333 48.384-42.666667-73.898667L426.666667 768l-83.797334-48.384 42.666667-73.898667L469.333333 694.101333V597.333333h85.333334v96.768zM725.333333 768v-85.333333h21.333334a149.333333 149.333333 0 1 0-106.666667-253.866667V426.666667a256 256 0 1 0-341.333333 241.450666v89.130667a341.333333 341.333333 0 1 1 403.541333-454.4A234.666667 234.666667 0 1 1 746.666667 768l-21.333334 0.042667z" /></svg>