<?xml version="1.0" standalone="no"?>
<!DOCTYPE svg PUBLIC "-//W3C//DTD SVG 1.1//EN" "http://www.w3.org/Graphics/SVG/1.1/DTD/svg11.dtd">
<svg class="icon" style="width: 1em;height: 1em;vertical-align: middle;fill: currentColor;overflow: hidden;" viewBox="0 0 1024 1024" version="1.1" xmlns="http://www.w3.org/2000/svg"><path d="M563.2 85.589333C906.24 89.301333 938.666667 138.666667 938.666667 512l-0.256 51.2C934.698667 906.24 885.333333 938.666667 512 938.666667l-51.2-0.256c-326.741333-3.541333-371.669333-48.469333-375.210667-375.253334L85.333333 498.816l0.256-37.973333c3.626667-334.933333 50.773333-373.76 400.298667-375.466667l77.269333 0.213333zM352 298.666667h-24.874667a28.458667 28.458667 0 0 0-28.16 24.234666L298.666667 327.125333v156.416c0 14.293333 10.538667 26.112 24.234666 28.16l4.224 0.298667h24.874667a160 160 0 0 1 159.786667 151.466667l0.213333 8.533333v24.874667c0 14.293333 10.538667 26.112 24.234667 28.16l4.224 0.298666h156.416a28.458667 28.458667 0 0 0 28.16-24.234666l0.298666-4.224v-24.874667a373.333333 373.333333 0 0 0-362.325333-373.162667L352 298.666667z" /></svg>