<?xml version="1.0" standalone="no"?>
<!DOCTYPE svg PUBLIC "-//W3C//DTD SVG 1.1//EN" "http://www.w3.org/Graphics/SVG/1.1/DTD/svg11.dtd">
<svg class="icon" style="width: 1em;height: 1em;vertical-align: middle;fill: currentColor;overflow: hidden;" viewBox="0 0 1024 1024" version="1.1" xmlns="http://www.w3.org/2000/svg"><path d="M512 85.333333c236.8 0 426.666667 192 426.666667 426.666667s-192 426.666667-426.666667 426.666667S85.333333 746.666667 85.333333 512 277.333333 85.333333 512 85.333333z m0 85.333334c-187.52 0-341.333333 153.813333-341.333333 341.333333s153.813333 341.333333 341.333333 341.333333 341.333333-153.813333 341.333333-341.333333c0-188.330667-152.448-341.333333-341.333333-341.333333z m160 539.733333c-100.266667-61.866667-226.133333-74.666667-375.466667-40.533333-14.933333 4.266667-27.733333-6.4-32-19.2-4.266667-14.933333 6.4-27.733333 19.2-32 162.133333-36.266667 302.933333-21.333333 413.866667 46.933333 14.933333 6.4 17.066667 23.466667 10.666667 36.266667-8.533333 12.8-23.466667 17.066667-36.266667 8.533333z m42.666667-115.2c-115.2-70.4-290.133333-91.733333-424.533334-49.066667-17.066667 4.266667-36.266667-4.266667-40.533333-21.333333-4.266667-17.066667 4.266667-36.266667 21.333333-40.533333 155.733333-46.933333 347.733333-23.466667 480 57.6 12.8 6.4 19.2 27.733333 8.533334 42.666666s-29.866667 21.333333-44.8 10.666667zM268.8 416c-21.333333 6.4-42.666667-6.4-49.066667-25.6-6.4-21.333333 6.4-42.666667 25.6-49.066667 151.466667-44.8 401.066667-36.266667 558.933334 57.6 19.2 10.666667 25.6 36.266667 14.933333 55.466667-10.666667 14.933333-36.266667 21.333333-55.466667 10.666667C627.2 384 398.933333 375.466667 268.8 416z" /></svg>