<?xml version="1.0" standalone="no"?>
<!DOCTYPE svg PUBLIC "-//W3C//DTD SVG 1.1//EN" "http://www.w3.org/Graphics/SVG/1.1/DTD/svg11.dtd">
<svg class="icon" style="width: 1em;height: 1em;vertical-align: middle;fill: currentColor;overflow: hidden;" viewBox="0 0 1024 1024" version="1.1" xmlns="http://www.w3.org/2000/svg"><path d="M896 128a42.666667 42.666667 0 0 1 42.666667 42.666667v682.666666a42.666667 42.666667 0 0 1-42.666667 42.666667H128a42.666667 42.666667 0 0 1-42.666667-42.666667V170.666667a42.666667 42.666667 0 0 1 42.666667-42.666667h768z m-179.541333 111.829333a94.848 94.848 0 0 0-91.008 68.266667h-85.248l-104.96 178.56H373.888a94.72 94.72 0 1 0 0 52.992h62.762667l103.125333 176.341333h86.101333a94.762667 94.762667 0 1 0 0-53.034666h-56.192l-87.722666-150.869334 87.594666-150.954666h55.893334a94.848 94.848 0 1 0 91.008-121.301334z m0.469333 402.218667a49.877333 49.877333 0 1 1-48.810667 59.52s-1.322667-9.685333 0-19.370667c4.522667-22.826667 24.661333-40.106667 48.810667-40.106666z m-433.152-179.626667a49.92 49.92 0 0 1 49.834667 49.834667 49.834667 49.834667 0 0 1-99.626667 0c0-27.477333 22.314667-49.792 49.792-49.792z m433.066667-179.584a49.877333 49.877333 0 0 1 0 99.626667 49.92 49.92 0 0 1-48.810667-40.149333c-1.109333-8.789333 0-19.029333 0-19.029334a49.834667 49.834667 0 0 1 48.810667-40.448z" /></svg>