<?xml version="1.0" standalone="no"?>
<!DOCTYPE svg PUBLIC "-//W3C//DTD SVG 1.1//EN" "http://www.w3.org/Graphics/SVG/1.1/DTD/svg11.dtd">
<svg class="icon" style="width: 1em;height: 1em;vertical-align: middle;fill: currentColor;overflow: hidden;" viewBox="0 0 1024 1024" version="1.1" xmlns="http://www.w3.org/2000/svg"><path d="M725.333333 170.666667a213.333333 213.333333 0 1 1-38.058666 423.253333l-113.109334 84.864A170.624 170.624 0 0 1 405.333333 874.666667a170.624 170.624 0 0 1-169.216-193.024L72.874667 615.68l32-79.104 163.242666 65.92a170.496 170.496 0 0 1 157.696-67.925333l87.125334-130.602667A213.333333 213.333333 0 0 1 725.333333 170.666667zM405.333333 618.666667c-19.797333 0-38.058667 6.741333-52.522666 18.090666l68.522666 27.690667a42.666667 42.666667 0 1 1-32 79.104L320.853333 715.946667a85.376 85.376 0 0 0 169.856-11.904 85.333333 85.333333 0 0 0-85.333333-85.333334z m143.530667-114.773334l-41.941333 62.976c12.117333 8.96 23.04 19.541333 32.341333 31.36l58.026667-43.52a215.722667 215.722667 0 0 1-48.426667-50.816zM725.333333 256a128 128 0 1 0 0 256 128 128 0 0 0 0-256z m0 42.666667a85.333333 85.333333 0 1 1 0.042667 170.624A85.333333 85.333333 0 0 1 725.333333 298.666667z" /></svg>