<?xml version="1.0" standalone="no"?>
<!DOCTYPE svg PUBLIC "-//W3C//DTD SVG 1.1//EN" "http://www.w3.org/Graphics/SVG/1.1/DTD/svg11.dtd">
<svg class="icon" style="width: 1em;height: 1em;vertical-align: middle;fill: currentColor;overflow: hidden;" viewBox="0 0 1024 1024" version="1.1" xmlns="http://www.w3.org/2000/svg"><path d="M930.133333 597.376a427.050667 427.050667 0 0 1-358.4 337.152v-86.4A341.76 341.76 0 0 0 842.581333 597.333333l87.552 0.042667z m-748.714666 0a341.76 341.76 0 0 0 266.538666 249.941333v86.613334A427.093333 427.093333 0 0 1 93.866667 597.333333h87.552zM768 469.333333v85.333334h-42.666667a170.666667 170.666667 0 0 0-170.453333 162.133333L554.666667 725.333333v42.666667h-85.333334v-42.666667a170.666667 170.666667 0 0 0-162.133333-170.453333L298.666667 554.666667H256v-85.333334h512z m-256-384c221.226667 0 403.157333 168.405333 424.533333 384h-85.845333a341.376 341.376 0 0 0-677.376 0H87.424C108.842667 253.738667 290.773333 85.333333 512 85.333333z" /></svg>