<?xml version="1.0" standalone="no"?>
<!DOCTYPE svg PUBLIC "-//W3C//DTD SVG 1.1//EN" "http://www.w3.org/Graphics/SVG/1.1/DTD/svg11.dtd">
<svg class="icon" style="width: 1em;height: 1em;vertical-align: middle;fill: currentColor;overflow: hidden;" viewBox="0 0 1024 1024" version="1.1" xmlns="http://www.w3.org/2000/svg"><path d="M341.333333 128v85.333333H256v170.666667c0 94.293333 76.373333 170.666667 170.666667 170.666667s170.666667-76.373333 170.666666-170.666667V213.333333h-85.333333V128h128a42.666667 42.666667 0 0 1 42.666667 42.666667v213.333333a256.085333 256.085333 0 0 1-213.333334 252.458667V704a149.333333 149.333333 0 0 0 289.066667 52.778667 128 128 0 1 1 87.424 6.314666A234.666667 234.666667 0 0 1 384 704v-67.541333A256.042667 256.042667 0 0 1 170.666667 384V170.666667a42.666667 42.666667 0 0 1 42.666666-42.666667h128z m469.333334 469.333333a42.666667 42.666667 0 1 0 0 85.333334 42.666667 42.666667 0 0 0 0-85.333334z" /></svg>