<?xml version="1.0" standalone="no"?>
<!DOCTYPE svg PUBLIC "-//W3C//DTD SVG 1.1//EN" "http://www.w3.org/Graphics/SVG/1.1/DTD/svg11.dtd">
<svg class="icon" style="width: 1em;height: 1em;vertical-align: middle;fill: currentColor;overflow: hidden;" viewBox="0 0 1024 1024" version="1.1" xmlns="http://www.w3.org/2000/svg"><path d="M896 496.896V896a42.666667 42.666667 0 0 1-42.666667 42.666667H170.666667a42.666667 42.666667 0 0 1-42.666667-42.666667v-399.104A170.026667 170.026667 0 0 1 85.333333 384V128a42.666667 42.666667 0 0 1 42.666667-42.666667h768a42.666667 42.666667 0 0 1 42.666667 42.666667v256a170.24 170.24 0 0 1-42.666667 112.896z m-85.333333 52.394667a170.965333 170.965333 0 0 1-170.666667-52.394667A170.24 170.24 0 0 1 512 554.666667a170.24 170.24 0 0 1-128-57.770667 170.24 170.24 0 0 1-170.666667 52.394667V853.333333h597.333334v-304.042666zM597.333333 384a42.666667 42.666667 0 0 1 85.333334 0 85.333333 85.333333 0 1 0 170.666666 0V170.666667H170.666667v213.333333a85.333333 85.333333 0 1 0 170.666666 0 42.666667 42.666667 0 1 1 85.333334 0 85.333333 85.333333 0 1 0 170.666666 0z" /></svg>