<?xml version="1.0" standalone="no"?>
<!DOCTYPE svg PUBLIC "-//W3C//DTD SVG 1.1//EN" "http://www.w3.org/Graphics/SVG/1.1/DTD/svg11.dtd">
<svg class="icon" style="width: 1em;height: 1em;vertical-align: middle;fill: currentColor;overflow: hidden;" viewBox="0 0 1024 1024" version="1.1" xmlns="http://www.w3.org/2000/svg"><path d="M938.666667 853.333333v85.333334H85.333333v-85.333334h42.666667v-288.341333A191.829333 191.829333 0 0 1 42.666667 405.333333c0-35.285333 9.557333-69.290667 27.008-98.261333L185.386667 106.666667a42.666667 42.666667 0 0 1 36.949333-21.333334H801.706667a42.666667 42.666667 0 0 1 36.949333 21.333334l115.285333 199.765333A191.829333 191.829333 0 0 1 896 564.992V853.333333h42.666667zM246.997333 170.666667L143.189333 350.421333a106.666667 106.666667 0 0 0 190.549334 94.549334c14.293333-35.712 64.853333-35.712 79.189333 0a106.666667 106.666667 0 0 0 198.144 0c14.293333-35.712 64.853333-35.712 79.189333 0a106.666667 106.666667 0 1 0 190.165334-95.232L776.96 170.666667H247.04z" /></svg>