<?xml version="1.0" standalone="no"?>
<!DOCTYPE svg PUBLIC "-//W3C//DTD SVG 1.1//EN" "http://www.w3.org/Graphics/SVG/1.1/DTD/svg11.dtd">
<svg class="icon" style="width: 1em;height: 1em;vertical-align: middle;fill: currentColor;overflow: hidden;" viewBox="0 0 1024 1024" version="1.1" xmlns="http://www.w3.org/2000/svg"><path d="M640 128a42.666667 42.666667 0 0 1 42.666667 42.666667v85.333333h213.333333a42.666667 42.666667 0 0 1 42.666667 42.666667v554.666666a42.666667 42.666667 0 0 1-42.666667 42.666667H128a42.666667 42.666667 0 0 1-42.666667-42.666667V298.666667a42.666667 42.666667 0 0 1 42.666667-42.666667h213.333333V170.666667a42.666667 42.666667 0 0 1 42.666667-42.666667h256z m42.666667 213.333333H341.333333v469.333334h341.333334V341.333333zM170.666667 341.333333v469.333334h85.333333V341.333333H170.666667z m426.666666-128h-170.666666v42.666667h170.666666V213.333333z m170.666667 128v469.333334h85.333333V341.333333h-85.333333z" /></svg>