<?xml version="1.0" standalone="no"?>
<!DOCTYPE svg PUBLIC "-//W3C//DTD SVG 1.1//EN" "http://www.w3.org/Graphics/SVG/1.1/DTD/svg11.dtd">
<svg class="icon" style="width: 1em;height: 1em;vertical-align: middle;fill: currentColor;overflow: hidden;" viewBox="0 0 1024 1024" version="1.1" xmlns="http://www.w3.org/2000/svg"><path d="M532.693333 133.162667l331.008 82.773333c18.986667 4.693333 32.298667 21.76 32.298667 41.386667V298.666667h42.666667c46.933333 0 85.333333 38.4 85.333333 85.333333v128a128 128 0 0 1-128 128h-17.962667a256.042667 256.042667 0 0 1-123.562666 134.741333l-204.330667 102.186667a85.418667 85.418667 0 0 1-76.288 0l-204.373333-102.186667A256.213333 256.213333 0 0 1 146.005333 640H128a128 128 0 0 1-128-128V384a85.333333 85.333333 0 0 1 85.333333-85.333333h42.666667v-41.386667c0-19.541333 13.312-36.608 32.298667-41.386667l331.008-82.730666c13.568-3.413333 27.818667-3.413333 41.386666 0zM128 384H85.333333v128a42.666667 42.666667 0 0 0 42.666667 42.666667V384z m810.666667 0h-42.666667v170.666667a42.666667 42.666667 0 0 0 42.666667-42.666667V384z" /></svg>