<?xml version="1.0" standalone="no"?>
<!DOCTYPE svg PUBLIC "-//W3C//DTD SVG 1.1//EN" "http://www.w3.org/Graphics/SVG/1.1/DTD/svg11.dtd">
<svg class="icon" style="width: 1em;height: 1em;vertical-align: middle;fill: currentColor;overflow: hidden;" viewBox="0 0 1024 1024" version="1.1" xmlns="http://www.w3.org/2000/svg"><path d="M170.666667 213.333333v597.333334h682.666666V213.333333H170.666667zM128 128h768a42.666667 42.666667 0 0 1 42.666667 42.666667v682.666666a42.666667 42.666667 0 0 1-42.666667 42.666667H128a42.666667 42.666667 0 0 1-42.666667-42.666667V170.666667a42.666667 42.666667 0 0 1 42.666667-42.666667z m172.8 175.829333l60.330667 60.373334A212.650667 212.650667 0 0 0 298.666667 514.986667c0 58.88 23.893333 112.213333 62.464 150.869333L300.8 726.186667A297.728 297.728 0 0 1 213.333333 514.986667c0-82.474667 33.450667-157.141333 87.466667-211.2z m422.4 0a297.728 297.728 0 0 1 87.466667 211.2 297.728 297.728 0 0 1-87.466667 211.2l-60.330667-60.330666A212.650667 212.650667 0 0 0 725.333333 514.986667c0-58.88-23.893333-112.213333-62.464-150.826667L723.2 303.786667zM512 557.696a42.666667 42.666667 0 1 0 0-85.333333 42.666667 42.666667 0 0 0 0 85.333333z m0 85.333333a128 128 0 1 1 0-256 128 128 0 0 1 0 256z" /></svg>