<?xml version="1.0" standalone="no"?>
<!DOCTYPE svg PUBLIC "-//W3C//DTD SVG 1.1//EN" "http://www.w3.org/Graphics/SVG/1.1/DTD/svg11.dtd">
<svg class="icon" style="width: 1em;height: 1em;vertical-align: middle;fill: currentColor;overflow: hidden;" viewBox="0 0 1024 1024" version="1.1" xmlns="http://www.w3.org/2000/svg"><path d="M512 128v768H324.266667A196.266667 196.266667 0 0 1 128 699.733333V324.266667A196.266667 196.266667 0 0 1 324.266667 128H512z m-85.333333 85.333333H324.266667A110.933333 110.933333 0 0 0 213.333333 324.266667v375.466666A110.933333 110.933333 0 0 0 324.266667 810.666667H426.666667V213.333333z m-106.666667 213.333334a64 64 0 1 1 0-128 64 64 0 0 1 0 128zM597.333333 128h102.4A196.266667 196.266667 0 0 1 896 324.266667v375.466666a196.266667 196.266667 0 0 1-196.266667 196.266667H597.333333V128z m128 499.2a76.8 76.8 0 1 0 0-153.6 76.8 76.8 0 0 0 0 153.6z" /></svg>