<?xml version="1.0" standalone="no"?>
<!DOCTYPE svg PUBLIC "-//W3C//DTD SVG 1.1//EN" "http://www.w3.org/Graphics/SVG/1.1/DTD/svg11.dtd">
<svg class="icon" style="width: 1em;height: 1em;vertical-align: middle;fill: currentColor;overflow: hidden;" viewBox="0 0 1024 1024" version="1.1" xmlns="http://www.w3.org/2000/svg"><path d="M384 128a128 128 0 0 0 256 0h256a42.666667 42.666667 0 0 1 42.666667 42.666667v298.666666a42.666667 42.666667 0 0 1-42.666667 42.666667h-85.376L810.666667 853.333333a42.666667 42.666667 0 0 1-42.666667 42.666667H256a42.666667 42.666667 0 0 1-42.666667-42.666667l-0.042666-341.376L128 512a42.666667 42.666667 0 0 1-42.666667-42.666667V170.666667a42.666667 42.666667 0 0 1 42.666667-42.666667h256z m469.333333 85.290667h-145.792l-0.725333 1.749333a213.418667 213.418667 0 0 1-185.6 126.08L512 341.333333a213.376 213.376 0 0 1-194.816-126.293333L316.416 213.333333H170.666667v213.333334l127.957333-0.042667V810.666667H725.333333l-0.042666-384L853.333333 426.624v-213.333333z" /></svg>