<?xml version="1.0" standalone="no"?>
<!DOCTYPE svg PUBLIC "-//W3C//DTD SVG 1.1//EN" "http://www.w3.org/Graphics/SVG/1.1/DTD/svg11.dtd">
<svg class="icon" style="width: 1em;height: 1em;vertical-align: middle;fill: currentColor;overflow: hidden;" viewBox="0 0 1024 1024" version="1.1" xmlns="http://www.w3.org/2000/svg"><path d="M542.165333 759.168C577.450667 794.453333 609.92 810.666667 640 810.666667c16.128 0 29.013333-2.858667 52.778667-11.776l16.725333-6.485334C754.304 774.4 776.917333 768 810.666667 768c51.797333 0 101.504 23.253333 148.736 67.413333l9.429333 9.088-60.330667 60.330667C873.216 869.546667 840.746667 853.333333 810.666667 853.333333c-16.128 0-29.013333 2.858667-52.778667 11.776l-16.725333 6.485334c-44.8 17.962667-67.413333 24.405333-101.162667 24.405333-51.797333 0-101.504-23.253333-148.736-67.413333l-9.429333-9.088 60.330666-60.330667zM384 128a128 128 0 0 0 256 0h256a42.666667 42.666667 0 0 1 42.666667 42.666667v298.666666a42.666667 42.666667 0 0 1-42.666667 42.666667h-170.752v-85.333333L853.333333 426.624v-213.333333h-145.792l-0.725333 1.749333a213.418667 213.418667 0 0 1-185.6 126.08L512 341.333333a213.376 213.376 0 0 1-194.816-126.293333L316.416 213.333333H170.666667v213.333334l127.957333-0.042667V810.666667H426.666667v85.333333H256a42.666667 42.666667 0 0 1-42.666667-42.666667l-0.042666-341.376L128 512a42.666667 42.666667 0 0 1-42.666667-42.666667V170.666667a42.666667 42.666667 0 0 1 42.666667-42.666667h256z m158.165333 460.501333C577.450667 623.786667 609.92 640 640 640c16.128 0 29.013333-2.858667 52.778667-11.776l16.725333-6.485333C754.304 603.733333 776.917333 597.333333 810.666667 597.333333c51.797333 0 101.504 23.253333 148.736 67.413334l9.429333 9.088-60.330667 60.330666C873.216 698.88 840.746667 682.666667 810.666667 682.666667c-16.128 0-29.013333 2.858667-52.778667 11.776l-16.725333 6.485333c-44.8 17.962667-67.413333 24.405333-101.162667 24.405333-51.797333 0-101.504-23.253333-148.736-67.413333l-9.429333-9.088 60.330666-60.330667z" /></svg>