<?xml version="1.0" standalone="no"?>
<!DOCTYPE svg PUBLIC "-//W3C//DTD SVG 1.1//EN" "http://www.w3.org/Graphics/SVG/1.1/DTD/svg11.dtd">
<svg class="icon" style="width: 1em;height: 1em;vertical-align: middle;fill: currentColor;overflow: hidden;" viewBox="0 0 1024 1024" version="1.1" xmlns="http://www.w3.org/2000/svg"><path d="M732.672 597.333333H618.666667v58.666667c23.466667-9.429333 49.194667-20.906667 77.312-34.56l-3.498667-10.154667 40.192-13.952z m35.328-12.245333l5.12-1.792c27.349333 78.976 44.117333 128.512 50.56 149.333333l-81.578667 25.173334c-3.157333-10.24-9.216-28.672-18.218666-55.168-259.456 123.093333-369.962667 87.637333-384.341334-81.365334l85.034667-7.253333c4.266667 49.706667 14.677333 69.205333 38.272 74.752 16.768 3.968 40.106667 2.688 70.485333-4.437333V597.333333H384v-85.333333h21.888l-49.792-59.306667c44.501333-37.376 79.274667-78.08 104.448-122.197333-22.101333 5.76-44.245333 11.946667-66.176 18.56a595.413333 595.413333 0 0 1-74.837333 89.984l-59.733334-60.928c54.272-53.248 99.541333-124.16 135.509334-213.077333l79.104 32a926.293333 926.293333 0 0 1-20.48 46.976c157.952-39.936 310.4-56.192 389.888-29.013334 52.181333 17.834667 81.877333 59.349333 93.312 110.250667 7.253333 32.256 13.354667 114.730667 13.354666 218.581333 0 119.765333-2.389333 160.853333-14.506666 197.205334-12.672 37.973333-29.696 60.501333-60.032 84.650666-28.032 22.314667-66.261333 32.554667-112.853334 35.114667-28.714667 1.578667-58.368 0.128-89.386666-3.413333a836.864 836.864 0 0 1-25.429334-3.2l11.264-84.565334a2433.664 2433.664 0 0 0 23.722667 2.986667c26.666667 2.986667 51.882667 4.266667 75.178667 2.986667 30.464-1.706667 53.12-7.722667 64.341333-16.64 18.176-14.506667 25.216-23.808 32.256-44.970667 7.936-23.637333 10.112-61.781333 10.112-170.154667 0-98.090667-5.674667-175.018667-11.264-199.808-5.546667-24.618667-17.493333-41.386667-37.674667-48.298666-51.498667-17.578667-162.176-8.277333-283.818666 17.792l26.24 11.178666c-5.546667 12.885333-11.648 25.6-18.346667 37.973334H768v85.333333h-149.333333V512H768v73.088zM533.333333 448h-51.541333A583.893333 583.893333 0 0 1 418.048 512H533.333333v-64z m-428.330666-18.688L151.04 357.418667c45.312 28.970667 125.226667 103.552 142.421333 134.869333 52.864 96.426667 8.405333 178.176-133.205333 341.205333l-64.426667-55.936c114.645333-132.010667 149.333333-195.84 122.794667-244.224-9.130667-16.64-79.232-82.090667-113.578667-104.021333z m114.346666-105.770667c-44.757333 0-80.341333-32.512-80.554666-72.234666 0-40.106667 35.84-72.576 80.512-72.576 44.373333 0 80.341333 32.341333 80.341333 72.576 0 39.893333-35.968 72.234667-80.341333 72.234666z" /></svg>