<?xml version="1.0" standalone="no"?>
<!DOCTYPE svg PUBLIC "-//W3C//DTD SVG 1.1//EN" "http://www.w3.org/Graphics/SVG/1.1/DTD/svg11.dtd">
<svg class="icon" style="width: 1em;height: 1em;vertical-align: middle;fill: currentColor;overflow: hidden;" viewBox="0 0 1024 1024" version="1.1" xmlns="http://www.w3.org/2000/svg"><path d="M341.333333 213.333333a170.666667 170.666667 0 1 1 341.333334 0v224.213334a298.666667 298.666667 0 1 1-341.333334 0V213.333333z m48.810667 294.186667a213.333333 213.333333 0 1 0 243.712 0L597.333333 482.048V213.333333a85.333333 85.333333 0 1 0-170.666666 0v268.714667l-36.522667 25.472z m79.189333 9.856V213.333333h85.333334v304.042667A170.752 170.752 0 0 1 512 853.333333a170.666667 170.666667 0 0 1-42.666667-335.957333zM512 768a85.333333 85.333333 0 1 0 0-170.666667 85.333333 85.333333 0 0 0 0 170.666667z" /></svg>