<?xml version="1.0" standalone="no"?>
<!DOCTYPE svg PUBLIC "-//W3C//DTD SVG 1.1//EN" "http://www.w3.org/Graphics/SVG/1.1/DTD/svg11.dtd">
<svg class="icon" style="width: 1em;height: 1em;vertical-align: middle;fill: currentColor;overflow: hidden;" viewBox="0 0 1024 1024" version="1.1" xmlns="http://www.w3.org/2000/svg"><path d="M85.333333 213.333333l298.666667-128 256 128 268.928-115.242666a21.333333 21.333333 0 0 1 29.738667 19.626666V810.666667l-298.666667 128-256-128-268.928 115.242666a21.333333 21.333333 0 0 1-29.738667-19.626666V213.333333z m170.666667 256v85.333334h85.333333v-85.333334H256z m170.666667 0v85.333334h85.333333v-85.333334h-85.333333z m256-2.56l-52.778667-52.821333-45.269333 45.226667L637.397333 512l-52.778666 52.778667 45.226666 45.269333L682.666667 557.269333l52.778666 52.778667 45.269334-45.226667L727.936 512l52.778667-52.778667-45.226667-45.269333L682.666667 466.730667z" /></svg>