<?xml version="1.0" standalone="no"?>
<!DOCTYPE svg PUBLIC "-//W3C//DTD SVG 1.1//EN" "http://www.w3.org/Graphics/SVG/1.1/DTD/svg11.dtd">
<svg class="icon" style="width: 1em;height: 1em;vertical-align: middle;fill: currentColor;overflow: hidden;" viewBox="0 0 1024 1024" version="1.1" xmlns="http://www.w3.org/2000/svg"><path d="M810.666667 512H213.333333v341.333333h597.333334v-341.333333zM213.333333 426.666667V85.333333h597.333334v341.333334h42.666666a42.666667 42.666667 0 0 1 42.666667 42.666666v426.666667a42.666667 42.666667 0 0 1-42.666667 42.666667H170.666667a42.666667 42.666667 0 0 1-42.666667-42.666667V469.333333a42.666667 42.666667 0 0 1 42.666667-42.666666h42.666666z m85.333334 0h426.666666V170.666667H298.666667v256z m85.333333-170.666667h85.333333v85.333333H384V256z m170.666667 0h85.333333v85.333333h-85.333333V256z" /></svg>