<?xml version="1.0" standalone="no"?>
<!DOCTYPE svg PUBLIC "-//W3C//DTD SVG 1.1//EN" "http://www.w3.org/Graphics/SVG/1.1/DTD/svg11.dtd">
<svg class="icon" style="width: 1em;height: 1em;vertical-align: middle;fill: currentColor;overflow: hidden;" viewBox="0 0 1024 1024" version="1.1" xmlns="http://www.w3.org/2000/svg"><path d="M938.666667 512c0 235.605333-191.018667 426.666667-426.666667 426.666667S85.333333 747.605333 85.333333 512C85.333333 276.352 276.352 85.333333 512 85.333333s426.666667 191.018667 426.666667 426.666667zM221.866667 454.997333a56.96 56.96 0 1 0 0 113.92 56.96 56.96 0 0 0 0-113.92z m406.741333 258.944a56.917333 56.917333 0 1 0 56.917333 98.56 56.917333 56.917333 0 0 0-56.917333-98.56zM345.6 512c0-56.32 27.989333-106.026667 70.784-136.106667l-41.642667-69.802666a248.021333 248.021333 0 0 0-102.357333 143.829333 80 80 0 0 1 0 124.16 248.021333 248.021333 0 0 0 102.314667 143.829333l41.685333-69.802666A166.058667 166.058667 0 0 1 345.6 512zM512 345.6a166.4 166.4 0 0 1 165.717333 151.637333l81.194667-1.194666a246.656 246.656 0 0 0-73.514667-160.512A79.872 79.872 0 0 1 578.133333 273.493333a248.704 248.704 0 0 0-175.786666 16.64l39.552 70.954667A165.76 165.76 0 0 1 512 345.6z m0 332.8c-25.045333 0-48.768-5.546667-70.101333-15.488l-39.552 70.912a246.357333 246.357333 0 0 0 175.786666 16.64 79.872 79.872 0 0 1 107.264-62.037333 246.698667 246.698667 0 0 0 73.514667-160.512l-81.194667-1.152A166.314667 166.314667 0 0 1 512 678.4z m116.565333-368.341333a56.96 56.96 0 1 0 56.96-98.645334 56.96 56.96 0 0 0-56.96 98.645334z" /></svg>