<?xml version="1.0" standalone="no"?>
<!DOCTYPE svg PUBLIC "-//W3C//DTD SVG 1.1//EN" "http://www.w3.org/Graphics/SVG/1.1/DTD/svg11.dtd">
<svg class="icon" style="width: 1em;height: 1em;vertical-align: middle;fill: currentColor;overflow: hidden;" viewBox="0 0 1024 1024" version="1.1" xmlns="http://www.w3.org/2000/svg"><path d="M369.792 822.314667l42.922667-74.325334a256.042667 256.042667 0 0 0 353.365333-203.989333h85.845333A340.053333 340.053333 0 0 1 807.594667 682.666667a341.333333 341.333333 0 0 1-61.952 78.293333 106.368 106.368 0 0 0-84.309334 9.685333 106.368 106.368 0 0 0-50.517333 68.096 340.437333 340.437333 0 0 1-241.066667-16.426666z m-55.466667-32a340.437333 340.437333 0 0 1-134.656-200.533334A106.410667 106.410667 0 0 0 213.333333 512c0-30.72-12.970667-58.410667-33.749333-77.866667A341.333333 341.333333 0 0 1 216.405333 341.333333a340.053333 340.053333 0 0 1 97.92-107.690666l42.922667 74.325333a256.042667 256.042667 0 0 0 0 408.021333l-42.88 74.325334z m55.466667-588.629334a341.632 341.632 0 0 1 240.981333-16.512 106.538667 106.538667 0 0 0 134.869334 77.866667 341.632 341.632 0 0 1 106.24 216.96h-85.888A255.573333 255.573333 0 0 0 640 290.304a255.573333 255.573333 0 0 0-227.285333-14.293333L369.792 201.685333zM682.666667 216.405333a64 64 0 1 1 64-110.848A64 64 0 0 1 682.666667 216.405333zM170.666667 512a64 64 0 1 1-128 0 64 64 0 0 1 128 0z m512 295.594667a64 64 0 1 1 64 110.848 64 64 0 0 1-64-110.848z" /></svg>