<?xml version="1.0" standalone="no"?>
<!DOCTYPE svg PUBLIC "-//W3C//DTD SVG 1.1//EN" "http://www.w3.org/Graphics/SVG/1.1/DTD/svg11.dtd">
<svg class="icon" style="width: 1em;height: 1em;vertical-align: middle;fill: currentColor;overflow: hidden;" viewBox="0 0 1024 1024" version="1.1" xmlns="http://www.w3.org/2000/svg"><path d="M597.333333 608.085333v89.173334A256 256 0 0 0 256 938.666667l-85.333333-0.042667a341.333333 341.333333 0 0 1 426.666666-330.581333zM512 554.666667c-141.44 0-256-114.56-256-256s114.56-256 256-256 256 114.56 256 256-114.56 256-256 256z m0-85.333334c94.293333 0 170.666667-76.373333 170.666667-170.666666s-76.373333-170.666667-170.666667-170.666667-170.666667 76.373333-170.666667 170.666667 76.373333 170.666667 170.666667 170.666666z m281.002667 256l-78.037334-77.994666 60.373334-60.373334L956.330667 768l-180.992 181.034667-60.373334-60.373334L793.002667 810.666667H640v-85.333334h153.002667z" /></svg>