<?xml version="1.0" standalone="no"?>
<!DOCTYPE svg PUBLIC "-//W3C//DTD SVG 1.1//EN" "http://www.w3.org/Graphics/SVG/1.1/DTD/svg11.dtd">
<svg class="icon" style="width: 1em;height: 1em;vertical-align: middle;fill: currentColor;overflow: hidden;" viewBox="0 0 1024 1024" version="1.1" xmlns="http://www.w3.org/2000/svg"><path d="M853.333333 938.666667h-85.333333v-85.333334a128 128 0 0 0-128-128H384a128 128 0 0 0-128 128v85.333334H170.666667v-85.333334a213.333333 213.333333 0 0 1 213.333333-213.333333h256a213.333333 213.333333 0 0 1 213.333333 213.333333v85.333334z m-341.333333-384a256 256 0 1 1 0-512 256 256 0 0 1 0 512z m0-85.333334a170.666667 170.666667 0 1 0 0-341.333333 170.666667 170.666667 0 0 0 0 341.333333z" /></svg>