<?xml version="1.0" standalone="no"?>
<!DOCTYPE svg PUBLIC "-//W3C//DTD SVG 1.1//EN" "http://www.w3.org/Graphics/SVG/1.1/DTD/svg11.dtd">
<svg class="icon" style="width: 1em;height: 1em;vertical-align: middle;fill: currentColor;overflow: hidden;" viewBox="0 0 1024 1024" version="1.1" xmlns="http://www.w3.org/2000/svg"><path d="M42.666667 938.666667a341.333333 341.333333 0 1 1 682.666666 0h-85.333333a256 256 0 1 0-512 0H42.666667z m341.333333-384c-141.44 0-256-114.56-256-256s114.56-256 256-256 256 114.56 256 256-114.56 256-256 256z m0-85.333334c94.293333 0 170.666667-76.373333 170.666667-170.666666s-76.373333-170.666667-170.666667-170.666667-170.666667 76.373333-170.666667 170.666667 76.373333 170.666667 170.666667 170.666666zM919.381333 33.450667A594.858667 594.858667 0 0 1 981.333333 298.666667c0 95.274667-22.314667 185.344-61.952 265.216l-70.186666-51.029334A510.08 510.08 0 0 0 896 298.666667a510.293333 510.293333 0 0 0-46.805333-214.186667L919.381333 33.450667z m-140.885333 102.4A425.386667 425.386667 0 0 1 810.666667 298.666667a425.386667 425.386667 0 0 1-32.170667 162.816l-71.552-52.053334A340.906667 340.906667 0 0 0 725.333333 298.666667a340.906667 340.906667 0 0 0-18.346666-110.762667l71.509333-52.053333z" /></svg>