<?xml version="1.0" standalone="no"?>
<!DOCTYPE svg PUBLIC "-//W3C//DTD SVG 1.1//EN" "http://www.w3.org/Graphics/SVG/1.1/DTD/svg11.dtd">
<svg class="icon" style="width: 1em;height: 1em;vertical-align: middle;fill: currentColor;overflow: hidden;" viewBox="0 0 1024 1024" version="1.1" xmlns="http://www.w3.org/2000/svg"><path d="M767.701333 128.170667c103.808 0 170.88 64.512 170.88 191.829333 0 73.386667-42.581333 168.106667-78.165333 223.36-118.997333 184.874667-265.941333 372.906667-411.434667 372.906667-158.122667 0-199.253333-291.456-217.258666-359.765334-18.005333-68.309333-22.741333-94.293333-49.92-137.941333-13.525333 9.386667-32.426667 22.570667-56.746667 39.68a21.333333 21.333333 0 0 1-29.568-4.992L39.466667 375.765333a21.333333 21.333333 0 0 1 1.152-26.453333C161.237333 209.706667 261.461333 139.861333 341.333333 139.861333c102.058667 0 133.290667 120.149333 141.824 180.181334 12.8 90.325333 29.44 202.154667 53.077334 250.538666 23.765333-33.792 93.013333-123.221333 83.925333-170.24-4.010667-20.736-56.192 7.808-80.512 3.328-18.133333-3.413333-34.389333-17.152-34.389333-43.776 0-55.893333 79.018667-231.68 262.442666-231.68z m0.298667 85.333333c-93.653333 0-138.709333 65.408-155.861333 94.208 53.333333 1.962667 84.053333 34.901333 91.008 76.928 16.597333 99.413333-81.749333 209.92-99.797334 237.44-16.896 25.728-130.602667 141.994667-181.333333-143.36a6845.44 6845.44 0 0 1-28.373333-178.602667c-7.253333-49.109333-37.248-75.221333-52.48-75.221333-35.925333 0-81.92 27.733333-164.48 107.306667 81.28-4.906667 108.586667 97.109333 124.416 155.008 34.816 127.317333 67.029333 343.722667 154.453333 343.722666 73.685333 0 189.397333-112.896 314.453333-300.373333 8.917333-13.269333 83.882667-129.024 83.882667-214.869333 0-102.186667-62.677333-102.186667-85.888-102.186667z" /></svg>