<?xml version="1.0" standalone="no"?>
<!DOCTYPE svg PUBLIC "-//W3C//DTD SVG 1.1//EN" "http://www.w3.org/Graphics/SVG/1.1/DTD/svg11.dtd">
<svg class="icon" style="width: 1em;height: 1em;vertical-align: middle;fill: currentColor;overflow: hidden;" viewBox="0 0 1024 1024" version="1.1" xmlns="http://www.w3.org/2000/svg"><path d="M50.048 354.176c-11.989333-17.621333-10.752-17.621333 13.994667-39.338667 52.565333-46.165333 102.144-96.682667 159.402666-137.045333 51.84-36.352 120.576-59.818667 167.552-2.005333 43.264 53.290667 44.288 134.058667 55.253334 198.4 10.965333 66.730667 21.461333 134.997333 44.842666 198.826666 6.485333 17.962667 18.901333 51.925333 41.301334 54.784 28.928 3.968 58.368-46.762667 71.808-65.706666 34.858667-50.346667 82.133333-118.144 76.16-182.869334-5.888-68.778667-80.128-55.850667-126.549334-39.424 7.466667-77.184 79.274667-163.968 148.48-193.28 73.386667-30.464 182.442667-29.952 219.306667 52.778667 39.381333 89.685333 3.968 193.834667-38.912 275.114667-46.805333 88.234667-107.050667 169.898667-171.434667 246.186666-56.789333 67.754667-123.989333 142.08-208.64 174.464-96.725333 36.864-154.026667-34.986667-186.965333-118.186666-35.968-90.581333-53.845333-192.256-79.786667-286.592-10.922667-39.850667-23.893333-85.205333-49.792-118.101334-33.792-42.453333-72.192-2.56-105.557333 20.352-11.477333-11.392-20.949333-25.898667-30.464-38.357333z" /></svg>