<?xml version="1.0" standalone="no"?>
<!DOCTYPE svg PUBLIC "-//W3C//DTD SVG 1.1//EN" "http://www.w3.org/Graphics/SVG/1.1/DTD/svg11.dtd">
<svg class="icon" style="width: 1em;height: 1em;vertical-align: middle;fill: currentColor;overflow: hidden;" viewBox="0 0 1024 1024" version="1.1" xmlns="http://www.w3.org/2000/svg"><path d="M148.992 344.106667L203.861333 810.666667h616.277334l54.869333-466.56-171.093333 114.048L512 189.482667l-191.914667 268.672-171.093333-114.048zM119.509333 221.866667L298.666667 341.333333l178.602666-250.026666a42.666667 42.666667 0 0 1 69.461334 0L725.333333 341.333333l179.2-119.466666a42.666667 42.666667 0 0 1 66.005334 40.533333l-70.101334 595.925333a42.666667 42.666667 0 0 1-42.368 37.674667H165.930667a42.666667 42.666667 0 0 1-42.368-37.674667L53.461333 262.357333A42.666667 42.666667 0 0 1 119.466667 221.866667zM512 640a85.333333 85.333333 0 1 1 0-170.666667 85.333333 85.333333 0 0 1 0 170.666667z" /></svg>