<?xml version="1.0" standalone="no"?>
<!DOCTYPE svg PUBLIC "-//W3C//DTD SVG 1.1//EN" "http://www.w3.org/Graphics/SVG/1.1/DTD/svg11.dtd">
<svg class="icon" style="width: 1em;height: 1em;vertical-align: middle;fill: currentColor;overflow: hidden;" viewBox="0 0 1024 1024" version="1.1" xmlns="http://www.w3.org/2000/svg"><path d="M128 128h768a42.666667 42.666667 0 0 1 42.666667 42.666667v682.666666a42.666667 42.666667 0 0 1-42.666667 42.666667H128a42.666667 42.666667 0 0 1-42.666667-42.666667V170.666667a42.666667 42.666667 0 0 1 42.666667-42.666667z m341.333333 234.666667v298.666666h85.333334v-298.666666h-85.333334z m-12.16 0H366.976l-63.872 175.488L239.232 362.666667H149.034667l111.402666 297.130666h85.333334L457.173333 362.666667z m225.493334 213.333333h64a106.666667 106.666667 0 1 0 0-213.333333H597.333333v298.666666h85.333334v-85.333333z m0-85.333333v-42.666667h64a21.333333 21.333333 0 1 1 0 42.666667H682.666667z" /></svg>