<?xml version="1.0" standalone="no"?>
<!DOCTYPE svg PUBLIC "-//W3C//DTD SVG 1.1//EN" "http://www.w3.org/Graphics/SVG/1.1/DTD/svg11.dtd">
<svg class="icon" style="width: 1em;height: 1em;vertical-align: middle;fill: currentColor;overflow: hidden;" viewBox="0 0 1024 1024" version="1.1" xmlns="http://www.w3.org/2000/svg"><path d="M827.306667 134.869333l60.288 60.330667-105.6 105.6 105.6 105.6L781.994667 512l105.6 105.642667-105.6 105.6 105.6 105.6-60.330667 60.330666-165.930667-165.973333 105.6-105.557333L661.333333 512l105.6-105.6L661.333333 300.8l165.973334-165.930667z m-277.461334 24.661334a21.333333 21.333333 0 0 1 4.821334 13.482666v677.973334a21.333333 21.333333 0 0 1-34.858667 16.512L293.973333 682.624 128 682.666667a42.666667 42.666667 0 0 1-42.666667-42.666667V384a42.666667 42.666667 0 0 1 42.666667-42.666667h165.930667l225.877333-184.832a21.333333 21.333333 0 0 1 30.037333 2.986667z" /></svg>