<?xml version="1.0" standalone="no"?>
<!DOCTYPE svg PUBLIC "-//W3C//DTD SVG 1.1//EN" "http://www.w3.org/Graphics/SVG/1.1/DTD/svg11.dtd">
<svg class="icon" style="width: 1em;height: 1em;vertical-align: middle;fill: currentColor;overflow: hidden;" viewBox="0 0 1024 1024" version="1.1" xmlns="http://www.w3.org/2000/svg"><path d="M469.333333 896v-45.653333A298.752 298.752 0 0 1 213.333333 554.666667V341.333333a298.666667 298.666667 0 1 1 597.333334 0v213.333334a298.752 298.752 0 0 1-256 295.68V896h170.666666v85.333333H298.666667v-85.333333h170.666666z m42.666667-768a213.333333 213.333333 0 0 0-213.333333 213.333333v213.333334a213.333333 213.333333 0 0 0 426.666666 0V341.333333a213.333333 213.333333 0 0 0-213.333333-213.333333z m0 256a42.666667 42.666667 0 1 0 0-85.333333 42.666667 42.666667 0 0 0 0 85.333333z m0 85.333333a128 128 0 1 1 0-256 128 128 0 0 1 0 256z" /></svg>