<?xml version="1.0" standalone="no"?>
<!DOCTYPE svg PUBLIC "-//W3C//DTD SVG 1.1//EN" "http://www.w3.org/Graphics/SVG/1.1/DTD/svg11.dtd">
<svg class="icon" style="width: 1em;height: 1em;vertical-align: middle;fill: currentColor;overflow: hidden;" viewBox="0 0 1024 1024" version="1.1" xmlns="http://www.w3.org/2000/svg"><path d="M309.461333 789.077333l30.890667 18.048A339.328 339.328 0 0 0 512 853.333333a341.333333 341.333333 0 1 0-341.333333-341.333333 339.2 339.2 0 0 0 46.250666 171.690667l18.005334 30.890666-27.861334 102.442667 102.4-27.946667zM85.504 938.666667l57.685333-211.968A424.704 424.704 0 0 1 85.333333 512C85.333333 276.352 276.352 85.333333 512 85.333333s426.666667 191.018667 426.666667 426.666667-191.018667 426.666667-426.666667 426.666667a424.704 424.704 0 0 1-214.613333-57.813334L85.504 938.666667zM358.016 311.808c5.717333-0.426667 11.477333-0.426667 17.194667-0.170667 2.304 0.170667 4.608 0.426667 6.912 0.682667 6.784 0.768 14.250667 4.906667 16.768 10.624 12.714667 28.842667 25.088 57.898667 37.034666 87.04 2.645333 6.485333 1.066667 14.805333-3.968 22.912a186.88 186.88 0 0 1-11.221333 15.872c-4.821333 6.186667-15.189333 17.536-15.189333 17.536s-4.224 5.034667-2.602667 11.306667c0.597333 2.389333 2.56 5.845333 4.352 8.746666l2.517333 4.053334c10.922667 18.218667 25.6 36.693333 43.52 54.101333 5.12 4.949333 10.112 10.026667 15.488 14.762667 19.968 17.621333 42.581333 32 66.986667 42.666666l0.213333 0.085334c3.626667 1.578667 5.461333 2.432 10.752 4.693333 2.645333 1.109333 5.376 2.090667 8.149334 2.816a14.933333 14.933333 0 0 0 15.658666-5.546667c30.890667-37.418667 33.706667-39.850667 33.962667-39.850666v0.085333a20.565333 20.565333 0 0 1 16.128-5.418667c2.56 0.170667 5.162667 0.64 7.552 1.706667 22.656 10.368 59.733333 26.538667 59.733333 26.538667l24.832 11.136c4.181333 2.005333 7.978667 6.741333 8.106667 11.306666 0.170667 2.858667 0.426667 7.466667-0.554667 15.914667-1.365333 11.050667-4.693333 24.32-8.021333 31.274667a49.28 49.28 0 0 1-8.96 12.885333 101.461333 101.461333 0 0 1-14.08 12.288 158.293333 158.293333 0 0 1-5.333333 3.84 214.357333 214.357333 0 0 1-16.341334 9.386667 84.906667 84.906667 0 0 1-35.541333 9.813333c-7.893333 0.426667-15.786667 1.024-23.722667 0.597333-0.341333 0-24.234667-3.712-24.234666-3.712a403.114667 403.114667 0 0 1-163.84-87.296c-9.642667-8.490667-18.56-17.621333-27.690667-26.709333-37.973333-37.76-66.645333-78.506667-84.053333-116.992A148.053333 148.053333 0 0 1 294.4 410.453333a116.437333 116.437333 0 0 1 24.064-71.68c3.114667-4.010667 6.058667-8.192 11.136-13.013333 5.418667-5.12 8.832-7.850667 12.544-9.728a41.002667 41.002667 0 0 1 15.829333-4.266667z" /></svg>