<?xml version="1.0" standalone="no"?>
<!DOCTYPE svg PUBLIC "-//W3C//DTD SVG 1.1//EN" "http://www.w3.org/Graphics/SVG/1.1/DTD/svg11.dtd">
<svg class="icon" style="width: 1em;height: 1em;vertical-align: middle;fill: currentColor;overflow: hidden;" viewBox="0 0 1024 1024" version="1.1" xmlns="http://www.w3.org/2000/svg"><path d="M204.672 660.693333c47.957333-107.52 136.533333-232.106667 191.445333-297.045333-53.248-53.162667-92.245333-82.389333-120.234666-98.133333A340.352 340.352 0 0 0 170.666667 512c0 53.333333 12.202667 103.765333 34.005333 148.693333z m172.842667-462.506666C445.781333 215.466667 512 254.250667 512 254.250667v-0.213334s66.218667-38.570667 134.442667-55.893333A340.224 340.224 0 0 0 512 170.666667c-47.786667 0-93.226667 9.813333-134.485333 27.52z m370.602666 67.328c-27.946667 15.786667-66.901333 45.013333-120.149333 98.133333 54.912 64.981333 143.445333 189.482667 191.402667 297.002667A339.968 339.968 0 0 0 853.333333 512c0-96.853333-40.362667-184.32-105.216-246.485333z m17.408 475.008c-59.861333-95.402667-174.506667-210.944-253.525333-270.634667-78.933333 59.733333-193.664 175.274667-253.482667 270.72A340.48 340.48 0 0 0 512 853.333333a340.48 340.48 0 0 0 253.525333-112.810666zM512 938.666667C276.352 938.666667 85.333333 747.648 85.333333 512S276.352 85.333333 512 85.333333s426.666667 191.018667 426.666667 426.666667-191.018667 426.666667-426.666667 426.666667z" /></svg>