<?xml version="1.0" standalone="no"?>
<!DOCTYPE svg PUBLIC "-//W3C//DTD SVG 1.1//EN" "http://www.w3.org/Graphics/SVG/1.1/DTD/svg11.dtd">
<svg class="icon" style="width: 1em;height: 1em;vertical-align: middle;fill: currentColor;overflow: hidden;" viewBox="0 0 1024 1024" version="1.1" xmlns="http://www.w3.org/2000/svg"><path d="M352.426667 352.426667C249.088 375.594667 170.666667 478.208 170.666667 594.56a251.861333 251.861333 0 0 0 499.328 46.848 85.333333 85.333333 0 0 1 48.170666-61.781333c20.565333-9.472 38.826667-20.181333 54.784-31.701334-36.821333-25.728-50.602667-79.445333-20.053333-120.917333a417.962667 417.962667 0 0 0 59.349333-113.109333 812.373333 812.373333 0 0 1-156.501333 53.973333c-53.802667 12.928-102.058667-27.221333-105.216-77.397333-50.346667 24.405333-113.92 43.093333-198.058667 61.952z m469.162666 125.184c49.749333 0 81.792-18.090667 117.077334-25.045334-13.866667 61.781333-64 148.906667-184.746667 204.586667A337.194667 337.194667 0 0 1 85.333333 594.602667C85.333333 439.04 190.592 301.226667 333.824 269.141333 501.12 231.68 577.194667 202.325333 635.733333 85.333333c29.397333 56.874667 29.397333 123.392 0 199.552 120.149333-28.586667 216.490667-79.018667 289.024-151.381333 0 204.885333-77.738667 306.602667-103.210666 344.106667z m-249.173333 167.765333c24.917333 6.186667 24.917333 35.498667 24.917333 43.52v43.605333c0 23.936-14.592 32.981333-36.010666 32.981334H330.325333c-20.266667-3.712-31.317333-14.762667-31.317333-33.194667v-40.533333c0-20.266667 9.216-34.986667 18.432-46.08l134.485333-143.744H321.109333c-12.885333 0-22.101333-9.216-22.101333-25.770667-1.877333-31.36 3.669333-81.066667 27.605333-92.16 3.712 0 3.712 5.546667 3.712 7.381333-3.712 7.381333 0 12.885333 9.216 12.885334h165.845334c36.821333 0 58.922667 0 71.850666-3.669334 5.546667-1.834667 9.216 0 7.381334 5.546667-3.712 12.885333-1.877333 27.605333-1.877334 40.533333 0 42.368 0 58.965333-33.152 92.117334l-114.261333 125.312 121.6-0.085334c13.482667 0 15.530667-6.229333 15.530667-18.645333z" /></svg>