<?xml version="1.0" standalone="no"?>
<!DOCTYPE svg PUBLIC "-//W3C//DTD SVG 1.1//EN" "http://www.w3.org/Graphics/SVG/1.1/DTD/svg11.dtd">
<svg class="icon" style="width: 1em;height: 1em;vertical-align: middle;fill: currentColor;overflow: hidden;" viewBox="0 0 1024 1024" version="1.1" xmlns="http://www.w3.org/2000/svg"><path d="M512 554.666667a128 128 0 0 1 88.746667 220.245333L519.253333 853.333333H640v85.333334H384v-73.557334l157.568-151.68A42.666667 42.666667 0 1 0 469.333333 682.666667H384a128 128 0 0 1 128-128z m256 0v170.666666h85.333333v-170.666666h85.333334v384h-85.333334v-128h-170.666666v-256h85.333333zM170.666667 512a340.693333 340.693333 0 0 0 128 266.496v103.082667A426.453333 426.453333 0 0 1 85.333333 512h85.333334z m341.333333-426.666667c221.226667 0 403.157333 168.405333 424.533333 384h-85.845333A341.376 341.376 0 0 0 250.24 292.906667L341.333333 384H85.333333V128l104.405334 104.362667A425.813333 425.813333 0 0 1 512 85.333333z" /></svg>