<?xml version="1.0" standalone="no"?>
<!DOCTYPE svg PUBLIC "-//W3C//DTD SVG 1.1//EN" "http://www.w3.org/Graphics/SVG/1.1/DTD/svg11.dtd">
<svg class="icon" style="width: 1em;height: 1em;vertical-align: middle;fill: currentColor;overflow: hidden;" viewBox="0 0 1024 1024" version="1.1" xmlns="http://www.w3.org/2000/svg"><path d="M608.256 927.744L512 1024l-96.256-96.256C226.56 884.053333 85.333333 714.410667 85.333333 512 85.333333 276.48 276.48 85.333333 512 85.333333s426.666667 191.146667 426.666667 426.666667c0 202.410667-141.226667 372.053333-330.410667 415.744z m-351.274667-269.994667C319.616 751.189333 413.653333 810.666667 518.826667 810.666667c105.130667 0 199.210667-59.434667 261.802666-152.917334A382.634667 382.634667 0 0 0 518.826667 554.666667a382.634667 382.634667 0 0 0-261.845334 103.082666zM512 469.333333a128 128 0 1 0 0-256 128 128 0 0 0 0 256z" /></svg>