<?xml version="1.0" standalone="no"?>
<!DOCTYPE svg PUBLIC "-//W3C//DTD SVG 1.1//EN" "http://www.w3.org/Graphics/SVG/1.1/DTD/svg11.dtd">
<svg class="icon" style="width: 1em;height: 1em;vertical-align: middle;fill: currentColor;overflow: hidden;" viewBox="0 0 1024 1024" version="1.1" xmlns="http://www.w3.org/2000/svg"><path d="M128 213.12C128 166.101333 166.101333 128 213.12 128h597.76C857.898667 128 896 166.101333 896 213.12v597.76A85.12 85.12 0 0 1 810.88 896H213.12A85.12 85.12 0 0 1 128 810.88V213.12zM271.232 768h490.24a298.325333 298.325333 0 0 0-245.12-128 298.325333 298.325333 0 0 0-245.12 128zM512 554.666667a149.333333 149.333333 0 1 0 0-298.666667 149.333333 149.333333 0 0 0 0 298.666667z" /></svg>