<?xml version="1.0" standalone="no"?>
<!DOCTYPE svg PUBLIC "-//W3C//DTD SVG 1.1//EN" "http://www.w3.org/Graphics/SVG/1.1/DTD/svg11.dtd">
<svg class="icon" style="width: 1em;height: 1em;vertical-align: middle;fill: currentColor;overflow: hidden;" viewBox="0 0 1024 1024" version="1.1" xmlns="http://www.w3.org/2000/svg"><path d="M529.066667 577.408l213.333333 284.458667a21.333333 21.333333 0 0 1-17.066667 34.133333H298.666667a21.333333 21.333333 0 0 1-17.066667-34.133333l213.333333-284.458667a21.333333 21.333333 0 0 1 34.133334 0zM512 696.746667L426.666667 810.666667h170.666666l-85.333333-113.92zM768 810.666667v-85.333334h85.333333V213.333333H170.666667v512h85.333333v85.333334H127.658667A42.410667 42.410667 0 0 1 85.333333 768V170.666667c0-23.552 19.413333-42.666667 42.325334-42.666667h768.682666c23.381333 0 42.325333 18.986667 42.325334 42.666667v597.333333c0 23.552-19.413333 42.666667-42.325334 42.666667H768z" /></svg>