<?xml version="1.0" standalone="no"?>
<!DOCTYPE svg PUBLIC "-//W3C//DTD SVG 1.1//EN" "http://www.w3.org/Graphics/SVG/1.1/DTD/svg11.dtd">
<svg class="icon" style="width: 1em;height: 1em;vertical-align: middle;fill: currentColor;overflow: hidden;" viewBox="0 0 1024 1024" version="1.1" xmlns="http://www.w3.org/2000/svg"><path d="M469.333333 384h426.666667a42.666667 42.666667 0 0 1 42.666667 42.666667v426.666666a42.666667 42.666667 0 0 1-42.666667 42.666667H469.333333a42.666667 42.666667 0 0 1-42.666666-42.666667V426.666667a42.666667 42.666667 0 0 1 42.666666-42.666667z m42.666667 85.333333v341.333334h341.333333v-341.333334h-341.333333z m-256-17.664l77.994667-78.037333 60.373333 60.373333L213.333333 614.997333 32.298667 434.005333l60.373333-60.373333L170.666667 451.669333V341.333333a213.333333 213.333333 0 0 1 213.333333-213.333333h170.666667v85.333333H384a128 128 0 0 0-128 128v110.336z" /></svg>