<?xml version="1.0" standalone="no"?>
<!DOCTYPE svg PUBLIC "-//W3C//DTD SVG 1.1//EN" "http://www.w3.org/Graphics/SVG/1.1/DTD/svg11.dtd">
<svg class="icon" style="width: 1em;height: 1em;vertical-align: middle;fill: currentColor;overflow: hidden;" viewBox="0 0 1024 1024" version="1.1" xmlns="http://www.w3.org/2000/svg"><path d="M256 426.666667h128l-170.666667 213.333333-170.666666-213.333333h128V341.333333a213.333333 213.333333 0 0 1 213.333333-213.333333h170.666667v85.333333H384a128 128 0 0 0-128 128v85.333334z m213.333333-42.666667h426.666667a42.666667 42.666667 0 0 1 42.666667 42.666667v426.666666a42.666667 42.666667 0 0 1-42.666667 42.666667H469.333333a42.666667 42.666667 0 0 1-42.666666-42.666667V426.666667a42.666667 42.666667 0 0 1 42.666666-42.666667z" /></svg>