<?xml version="1.0" standalone="no"?>
<!DOCTYPE svg PUBLIC "-//W3C//DTD SVG 1.1//EN" "http://www.w3.org/Graphics/SVG/1.1/DTD/svg11.dtd">
<svg class="icon" style="width: 1em;height: 1em;vertical-align: middle;fill: currentColor;overflow: hidden;" viewBox="0 0 1024 1024" version="1.1" xmlns="http://www.w3.org/2000/svg"><path d="M572.330667 256l78.037333 77.994667-60.373333 60.373333L409.002667 213.333333 589.994667 32.298667l60.373333 60.373333L572.330667 170.666667H682.666667a213.333333 213.333333 0 0 1 213.333333 213.333333v170.666667h-85.333333V384a128 128 0 0 0-128-128h-110.336zM640 469.333333v426.666667a42.666667 42.666667 0 0 1-42.666667 42.666667H170.666667a42.666667 42.666667 0 0 1-42.666667-42.666667V469.333333a42.666667 42.666667 0 0 1 42.666667-42.666666h426.666666a42.666667 42.666667 0 0 1 42.666667 42.666666z m-85.333333 42.666667H213.333333v341.333333h341.333334v-341.333333z" /></svg>