<?xml version="1.0" standalone="no"?>
<!DOCTYPE svg PUBLIC "-//W3C//DTD SVG 1.1//EN" "http://www.w3.org/Graphics/SVG/1.1/DTD/svg11.dtd">
<svg class="icon" style="width: 1em;height: 1em;vertical-align: middle;fill: currentColor;overflow: hidden;" viewBox="0 0 1024 1024" version="1.1" xmlns="http://www.w3.org/2000/svg"><path d="M512 85.333333c235.648 0 426.666667 191.018667 426.666667 426.666667s-191.018667 426.666667-426.666667 426.666667S85.333333 747.648 85.333333 512 276.352 85.333333 512 85.333333zM376.448 654.634667c-16.853333-20.352-37.802667-27.605333-63.104-21.717334l-6.4 1.749334-25.173333 43.349333a35.114667 35.114667 0 0 0 58.282666 39.082667l2.645334-3.968 33.706666-58.496zM563.626667 369.493333c-20.821333 17.237333-41.813333 68.138667-12.373334 118.912l129.706667 224.682667a35.157333 35.157333 0 0 0 62.976-30.805333l-2.090667-4.266667-34.218666-59.392h50.773333a34.986667 34.986667 0 0 0 35.072-35.114667 34.986667 34.986667 0 0 0-30.72-34.816l-4.394667-0.256h-91.306666L573.44 386.432l-9.813333-16.896z m11.861333-129.877333a35.2 35.2 0 0 0-45.354667 8.96l-2.645333 3.925333-15.658667 27.008-15.317333-27.008a35.157333 35.157333 0 0 0-62.976 30.805334l2.090667 4.266666 35.754666 62.165334-114.56 198.528H267.349333a34.986667 34.986667 0 0 0-35.072 35.072c0 17.962667 13.312 32.682667 30.677334 34.858666l4.394666 0.256h319.146667c14.506667-27.306667-2.56-66.090667-34.56-69.888l-5.162667-0.298666h-108.928l150.528-260.693334a35.114667 35.114667 0 0 0-12.885333-47.957333z" /></svg>