<?xml version="1.0" standalone="no"?>
<!DOCTYPE svg PUBLIC "-//W3C//DTD SVG 1.1//EN" "http://www.w3.org/Graphics/SVG/1.1/DTD/svg11.dtd">
<svg class="icon" style="width: 1em;height: 1em;vertical-align: middle;fill: currentColor;overflow: hidden;" viewBox="0 0 1024 1024" version="1.1" xmlns="http://www.w3.org/2000/svg"><path d="M671.104 350.208c-20.181333-1.578667-41.856 3.242667-75.050667 15.914667 2.816-1.066667-31.658667 12.373333-41.301333 15.786666-21.418667 7.466667-39.04 11.562667-58.794667 11.562667-19.541333 0-37.546667-3.925333-58.282666-10.88a506.453333 506.453333 0 0 1-21.546667-7.936c-3.498667-1.365333-16.298667-6.485333-19.114667-7.552-27.648-10.837333-43.221333-14.933333-56.149333-14.592-49.152 0.64-95.701333 29.013333-122.709333 76.032-55.125333 95.744-24.618667 268.757333 55.978666 385.322667 42.922667 61.610667 66.389333 83.626667 75.861334 83.328 9.472-0.426667 16.426667-2.432 33.408-9.6l7.125333-3.029334c42.88-18.304 72.96-26.368 118.229333-26.368 43.562667 0 72.661333 7.936 113.834667 25.685334l7.168 3.072c16.981333 7.253333 23.125333 8.874667 33.792 8.618666 15.274667-0.213333 34.090667-17.792 75.861333-79.104 11.434667-16.682667 21.546667-34.261333 30.293334-52.053333a313.770667 313.770667 0 0 1-16.725334-14.805333c-54.997333-52.394667-89.002667-123.050667-89.941333-210.346667a282.666667 282.666667 0 0 1 60.16-178.389333 175.957333 175.957333 0 0 0-52.096-10.666667z m6.613333-85.077333c30.208 2.048 116.736 11.264 173.056 93.696-4.608 2.56-103.424 59.904-102.4 179.712 1.536 143.36 125.44 190.976 126.976 191.488-1.024 3.584-19.968 68.096-65.536 134.656-39.424 57.856-80.384 115.2-144.896 116.224-63.488 1.536-83.968-37.376-156.16-37.376-72.704 0-95.232 36.352-155.136 38.912-62.464 2.048-109.568-62.464-149.504-119.808-81.408-117.76-143.36-331.776-59.904-476.672 41.472-72.192 115.2-117.76 195.584-118.784 60.928-1.536 118.784 40.96 156.16 40.96 36.864 0 102.912-49.152 181.76-43.008z m-48.64-77.824c-33.28 39.936-87.552 71.168-140.288 67.072-7.168-54.272 19.456-111.104 50.176-146.432 34.304-39.936 91.648-69.632 139.264-71.68 6.144 55.296-15.872 111.104-49.152 151.04z" /></svg>