<?xml version="1.0" standalone="no"?>
<!DOCTYPE svg PUBLIC "-//W3C//DTD SVG 1.1//EN" "http://www.w3.org/Graphics/SVG/1.1/DTD/svg11.dtd">
<svg class="icon" style="width: 1em;height: 1em;vertical-align: middle;fill: currentColor;overflow: hidden;" viewBox="0 0 1024 1024" version="1.1" xmlns="http://www.w3.org/2000/svg"><path d="M298.666667 490.666667a192 192 0 1 1 0-384 192 192 0 0 1 0 384z m0 426.666666a192 192 0 1 1 0-384 192 192 0 0 1 0 384z m426.666666-426.666666a192 192 0 1 1 0-384 192 192 0 0 1 0 384z m0 426.666666a192 192 0 1 1 0-384 192 192 0 0 1 0 384z" /></svg>