<?xml version="1.0" standalone="no"?>
<!DOCTYPE svg PUBLIC "-//W3C//DTD SVG 1.1//EN" "http://www.w3.org/Graphics/SVG/1.1/DTD/svg11.dtd">
<svg class="icon" style="width: 1em;height: 1em;vertical-align: middle;fill: currentColor;overflow: hidden;" viewBox="0 0 1024 1024" version="1.1" xmlns="http://www.w3.org/2000/svg"><path d="M512 85.333333c235.648 0 426.666667 191.018667 426.666667 426.666667s-191.018667 426.666667-426.666667 426.666667S85.333333 747.648 85.333333 512 276.352 85.333333 512 85.333333z m15.616 484.949334l-148.010667 256.426666a343.594667 343.594667 0 0 0 190.250667 21.76 423.978667 423.978667 0 0 1 33.450667-234.410666l-75.690667-43.776z m150.101333 86.656a339.456 339.456 0 0 0-25.045333 166.144 342.272 342.272 0 0 0 131.285333-104.789334l-106.24-61.354666z m-299.733333-173.013334a424.533333 424.533333 0 0 1-186.24 146.261334 341.76 341.76 0 0 0 113.962667 153.770666l148.010666-256.341333-75.733333-43.690667z m473.728-5.546666l-11.008 5.12a339.072 339.072 0 0 0-120.32 99.541333l106.325333 61.397333a340.266667 340.266667 0 0 0 25.002667-166.101333zM170.666667 512c0 11.349333 0.554667 22.613333 1.621333 33.664a339.2 339.2 0 0 0 131.328-104.704L197.290667 379.605333A340.266667 340.266667 0 0 0 170.666667 512z m547.626666-271.957333l-148.010666 256.341333 75.733333 43.733333a424.533333 424.533333 0 0 1 186.282667-146.346666 341.973333 341.973333 0 0 0-103.210667-145.152l-10.794667-8.576zM512 170.666667c-19.754667 0-39.082667 1.706667-57.898667 4.906666a423.594667 423.594667 0 0 1-33.450666 234.410667l75.733333 43.733333 148.010667-256.426666A340.266667 340.266667 0 0 0 512 170.666667z m-140.672 30.293333l-8.149333 3.754667a342.741333 342.741333 0 0 0-123.136 100.992l106.24 61.354666a339.456 339.456 0 0 0 25.045333-166.101333z" /></svg>