<?xml version="1.0" standalone="no"?>
<!DOCTYPE svg PUBLIC "-//W3C//DTD SVG 1.1//EN" "http://www.w3.org/Graphics/SVG/1.1/DTD/svg11.dtd">
<svg class="icon" style="width: 1em;height: 1em;vertical-align: middle;fill: currentColor;overflow: hidden;" viewBox="0 0 1024 1024" version="1.1" xmlns="http://www.w3.org/2000/svg"><path d="M527.616 570.282667l75.733333 43.733333a425.813333 425.813333 0 0 0-13.269333 317.44A422.869333 422.869333 0 0 1 512 938.666667a425.130667 425.130667 0 0 1-175.36-37.546667l190.976-330.837333z m150.058667 86.698666l180.650666 104.277334a428.074667 428.074667 0 0 1-186.154666 146.346666 340.821333 340.821333 0 0 1 0.341333-237.653333l5.162667-12.970667zM378.026667 483.925333l75.733333 43.690667-190.976 330.666667a427.776 427.776 0 0 1-153.173333-204.16 425.728 425.728 0 0 0 259.626666-158.421334l8.789334-11.776z m556.629333-30.976c2.688 19.328 4.053333 39.04 4.053333 59.050667a425.130667 425.130667 0 0 1-37.546666 175.36l-180.736-104.32a340.693333 340.693333 0 0 1 207.616-128.896l6.613333-1.194667zM122.922667 336.682667l180.693333 104.32a340.906667 340.906667 0 0 1-214.229333 130.133333A432.64 432.64 0 0 1 85.333333 512a425.813333 425.813333 0 0 1 37.546667-175.36z m638.336-171.008a427.776 427.776 0 0 1 153.173333 204.16 426.026667 426.026667 0 0 0-259.669333 158.506666l-8.746667 11.776-75.733333-43.733333 190.976-330.666667zM512 85.333333a425.813333 425.813333 0 0 1 175.36 37.546667l-190.976 330.837333L420.650667 410.026667a425.813333 425.813333 0 0 0 13.269333-317.525334A423.338667 423.338667 0 0 1 512 85.333333z m-160.128 31.146667a340.992 340.992 0 0 1-0.426667 237.653333l-5.12 12.928-180.650666-104.32a428.202667 428.202667 0 0 1 177.664-142.762666l8.533333-3.541334z" /></svg>