<?xml version="1.0" standalone="no"?>
<!DOCTYPE svg PUBLIC "-//W3C//DTD SVG 1.1//EN" "http://www.w3.org/Graphics/SVG/1.1/DTD/svg11.dtd">
<svg class="icon" style="width: 1em;height: 1em;vertical-align: middle;fill: currentColor;overflow: hidden;" viewBox="0 0 1024 1024" version="1.1" xmlns="http://www.w3.org/2000/svg"><path d="M572.330667 451.669333l20.48 20.736 19.84 20.693334 19.584 20.992c147.541333 160.597333 233.472 307.968 196.565333 344.874666-17.066667 17.066667-57.856 7.850667-112.64-21.632a384.256 384.256 0 0 1-443.861333-25.258666l127.146666-127.146667a85.333333 85.333333 0 1 0-61.866666-66.944l1.493333 6.613333-127.104 127.146667a384.298667 384.298667 0 0 1-25.258667-443.946667c-29.525333-54.741333-38.741333-95.488-21.674666-112.597333 41.685333-41.642667 224 73.173333 407.296 256.426667z m271.530666-271.530666a85.333333 85.333333 0 0 1-6.997333 126.976 384.64 384.64 0 0 1 25.898667 361.386666c-50.730667-83.370667-130.986667-178.090667-230.101334-277.162666l-22.912-22.698667c-90.794667-88.704-177.322667-160.597333-254.208-207.36a384.64 384.64 0 0 1 361.429334 25.898667 85.333333 85.333333 0 0 1 126.890666-7.04z" /></svg>