<?xml version="1.0" standalone="no"?>
<!DOCTYPE svg PUBLIC "-//W3C//DTD SVG 1.1//EN" "http://www.w3.org/Graphics/SVG/1.1/DTD/svg11.dtd">
<svg class="icon" style="width: 1em;height: 1em;vertical-align: middle;fill: currentColor;overflow: hidden;" viewBox="0 0 1024 1024" version="1.1" xmlns="http://www.w3.org/2000/svg"><path d="M602.496 421.504c183.296 183.253333 291.370667 372.394667 241.365333 422.4-20.266667 20.224-63.402667 14.506667-119.765333-11.648a384.341333 384.341333 0 0 1-451.84-20.224l-1.621333 1.706667-60.330667-60.373334 1.621333-1.706666A384.256 384.256 0 0 1 191.786667 299.946667c-26.197333-56.405333-31.914667-99.541333-11.648-119.808 48.128-48.128 225.152 50.218667 401.792 221.098666l20.565333 20.266667z m-60.330667 60.330667C461.781333 401.450667 378.453333 334.592 308.736 293.12l-7.936 7.68a298.752 298.752 0 0 0-28.032 390.058667l78.762667-78.762667a85.333333 85.333333 0 1 1 60.416 60.373333l-78.848 78.762667a298.752 298.752 0 0 0 390.101333-28.032l7.637333-8.021333-2.261333-3.797334c-41.642667-68.906667-107.52-150.613333-186.410667-229.546666z m301.696-301.696a85.333333 85.333333 0 0 1-6.997333 126.976 384.64 384.64 0 0 1 28.245333 356.053333 903.168 903.168 0 0 0-59.136-98.389333 298.24 298.24 0 0 0-82.773333-263.978667 298.325333 298.325333 0 0 0-263.978667-82.773333 899.925333 899.925333 0 0 0-98.389333-59.136 384.682667 384.682667 0 0 1 356.138667 28.288 85.333333 85.333333 0 0 1 126.890666-7.04z" /></svg>