<?xml version="1.0" standalone="no"?>
<!DOCTYPE svg PUBLIC "-//W3C//DTD SVG 1.1//EN" "http://www.w3.org/Graphics/SVG/1.1/DTD/svg11.dtd">
<svg class="icon" style="width: 1em;height: 1em;vertical-align: middle;fill: currentColor;overflow: hidden;" viewBox="0 0 1024 1024" version="1.1" xmlns="http://www.w3.org/2000/svg"><path d="M170.666667 682.666667v170.666666h170.666666v85.333334H85.333333v-256h85.333334z m768 0v256h-256v-85.333334h170.666666v-170.666666h85.333334zM320 298.666667a192.085333 192.085333 0 0 0 149.333333 187.264V725.333333h85.333334l0.042666-239.445333A192.085333 192.085333 0 0 0 704 298.666667h85.333333a277.333333 277.333333 0 0 1-149.290666 246.058666L640 810.666667H384v-265.898667A277.333333 277.333333 0 0 1 234.666667 298.666667h85.333333zM512 213.333333a106.666667 106.666667 0 1 1 0 213.333334 106.666667 106.666667 0 0 1 0-213.333334zM341.333333 85.333333v85.333334l-170.666666-0.042667V341.333333H85.333333V85.333333h256z m597.333334 0v256h-85.333334V170.666667h-170.666666V85.333333h256z" /></svg>