<?xml version="1.0" standalone="no"?>
<!DOCTYPE svg PUBLIC "-//W3C//DTD SVG 1.1//EN" "http://www.w3.org/Graphics/SVG/1.1/DTD/svg11.dtd">
<svg class="icon" style="width: 1em;height: 1em;vertical-align: middle;fill: currentColor;overflow: hidden;" viewBox="0 0 1024 1024" version="1.1" xmlns="http://www.w3.org/2000/svg"><path d="M405.333333 469.333333l6.144 0.298667a64 64 0 0 1 57.6 57.557333L469.333333 533.333333l-0.298666 6.144a64 64 0 0 1-57.557334 57.6L405.333333 597.333333H256v85.333334h149.333333c72.533333 0 132.992-51.712 146.517334-120.277334l1.28-7.68L810.666667 554.666667c30.336 0 59.221333-6.357333 85.333333-17.749334V725.333333a128.042667 128.042667 0 0 1-85.333333 120.704V896a42.666667 42.666667 0 0 1-42.666667 42.666667H256a42.666667 42.666667 0 0 1-42.666667-42.666667v-49.92A128.042667 128.042667 0 0 1 128 725.333333v-170.666666a85.333333 85.333333 0 0 1 85.333333-85.333334h192zM938.666667 320V341.333333l-0.213334 7.509334a128 128 0 0 1-120.277333 120.277333L810.666667 469.333333h-270.378667a149.376 149.376 0 0 0-126.08-85.077333L405.333333 384H213.333333a169.813333 169.813333 0 0 0-85.376 22.869333L128 256a170.666667 170.666667 0 0 1 170.666667-170.666667h405.333333A234.666667 234.666667 0 0 1 938.666667 320z" /></svg>