<?xml version="1.0" standalone="no"?>
<!DOCTYPE svg PUBLIC "-//W3C//DTD SVG 1.1//EN" "http://www.w3.org/Graphics/SVG/1.1/DTD/svg11.dtd">
<svg class="icon" style="width: 1em;height: 1em;vertical-align: middle;fill: currentColor;overflow: hidden;" viewBox="0 0 1024 1024" version="1.1" xmlns="http://www.w3.org/2000/svg"><path d="M210.304 124.970667l60.330667 60.330666A340.266667 340.266667 0 0 0 170.666667 426.666667c0 94.293333 38.186667 179.626667 99.968 241.365333L210.346667 728.32A425.344 425.344 0 0 1 85.333333 426.666667a425.344 425.344 0 0 1 124.970667-301.696z m603.392 0A425.344 425.344 0 0 1 938.666667 426.666667a425.344 425.344 0 0 1-124.970667 301.696l-60.330667-60.330667A340.266667 340.266667 0 0 0 853.333333 426.666667c0-94.293333-38.186667-179.626667-99.968-241.365334L813.653333 125.013333zM330.965333 245.632l60.373334 60.373333A170.112 170.112 0 0 0 341.333333 426.666667c0 47.146667 19.114667 89.813333 50.005334 120.661333l-60.373334 60.373333A255.189333 255.189333 0 0 1 256 426.666667c0-70.698667 28.672-134.698667 74.965333-181.034667z m362.069334 0A255.189333 255.189333 0 0 1 768 426.666667a255.189333 255.189333 0 0 1-74.965333 181.034666l-60.373334-60.373333A170.112 170.112 0 0 0 682.666667 426.666667a170.112 170.112 0 0 0-50.005334-120.661334l60.373334-60.373333zM512 512a85.333333 85.333333 0 1 1 0-170.666667 85.333333 85.333333 0 0 1 0 170.666667z m0 85.333333c24.746667 0 45.952 17.621333 50.517333 41.941334L618.666667 938.666667h-213.333334l56.149334-299.392c4.565333-24.32 25.770667-41.941333 50.517333-41.941334z" /></svg>