<?xml version="1.0" standalone="no"?>
<!DOCTYPE svg PUBLIC "-//W3C//DTD SVG 1.1//EN" "http://www.w3.org/Graphics/SVG/1.1/DTD/svg11.dtd">
<svg class="icon" style="width: 1em;height: 1em;vertical-align: middle;fill: currentColor;overflow: hidden;" viewBox="0 0 1024 1024" version="1.1" xmlns="http://www.w3.org/2000/svg"><path d="M705.536 680.533333l90.453333-90.538666-135.722666-135.765334 150.826666-150.826666-90.453333-90.496-150.869333 150.826666-135.765334-135.765333L343.466667 318.464l362.069333 362.069333zM569.770667 243.072l120.661333-120.704a42.666667 42.666667 0 0 1 60.330667 0l150.869333 150.869333a42.666667 42.666667 0 0 1 0 60.330667l-120.704 120.661333 105.6 105.6a42.666667 42.666667 0 0 1 0 60.373334L554.666667 952.064a42.666667 42.666667 0 0 1-60.330667 0l-422.4-422.4a42.666667 42.666667 0 0 1 0-60.330667l331.861333-331.861333a42.666667 42.666667 0 0 1 60.373334 0l105.6 105.6z" /></svg>