<?xml version="1.0" standalone="no"?>
<!DOCTYPE svg PUBLIC "-//W3C//DTD SVG 1.1//EN" "http://www.w3.org/Graphics/SVG/1.1/DTD/svg11.dtd">
<svg class="icon" style="width: 1em;height: 1em;vertical-align: middle;fill: currentColor;overflow: hidden;" viewBox="0 0 1024 1024" version="1.1" xmlns="http://www.w3.org/2000/svg"><path d="M725.333333 853.333333H298.666667v42.666667a42.666667 42.666667 0 0 1-42.666667 42.666667H213.333333a42.666667 42.666667 0 0 1-42.666666-42.666667v-42.666667H128v-341.333333H85.333333V341.333333h42.666667V213.333333a85.333333 85.333333 0 0 1 85.333333-85.333333h597.333334a85.333333 85.333333 0 0 1 85.333333 85.333333v128h42.666667v170.666667h-42.666667v341.333333h-42.666667v42.666667a42.666667 42.666667 0 0 1-42.666666 42.666667h-42.666667a42.666667 42.666667 0 0 1-42.666667-42.666667v-42.666667z m85.333334-341.333333V213.333333H213.333333v298.666667h597.333334z m0 85.333333H213.333333v170.666667h597.333334v-170.666667zM256 640h170.666667v85.333333H256v-85.333333z m341.333333 0h170.666667v85.333333h-170.666667v-85.333333z" /></svg>