<?xml version="1.0" standalone="no"?>
<!DOCTYPE svg PUBLIC "-//W3C//DTD SVG 1.1//EN" "http://www.w3.org/Graphics/SVG/1.1/DTD/svg11.dtd">
<svg class="icon" style="width: 1em;height: 1em;vertical-align: middle;fill: currentColor;overflow: hidden;" viewBox="0 0 1024 1024" version="1.1" xmlns="http://www.w3.org/2000/svg"><path d="M384 42.666667v85.333333h256V42.666667h85.333333v85.333333h170.666667a42.666667 42.666667 0 0 1 42.666667 42.666667v682.666666a42.666667 42.666667 0 0 1-42.666667 42.666667H128a42.666667 42.666667 0 0 1-42.666667-42.666667V170.666667a42.666667 42.666667 0 0 1 42.666667-42.666667h170.666667V42.666667h85.333333z m469.333333 298.666666H170.666667v469.333334h682.666666V341.333333z m-211.797333 91.136l60.330667 60.330667-211.2 211.2-150.869334-150.869333L400.213333 492.8l90.496 90.538667 150.869334-150.869334z" /></svg>