<?xml version="1.0" standalone="no"?>
<!DOCTYPE svg PUBLIC "-//W3C//DTD SVG 1.1//EN" "http://www.w3.org/Graphics/SVG/1.1/DTD/svg11.dtd">
<svg class="icon" style="width: 1em;height: 1em;vertical-align: middle;fill: currentColor;overflow: hidden;" viewBox="0 0 1024 1024" version="1.1" xmlns="http://www.w3.org/2000/svg"><path d="M384 42.666667v85.333333h256V42.666667h85.333333v85.333333h170.666667a42.666667 42.666667 0 0 1 42.666667 42.666667v682.666666a42.666667 42.666667 0 0 1-42.666667 42.666667H128a42.666667 42.666667 0 0 1-42.666667-42.666667V170.666667a42.666667 42.666667 0 0 1 42.666667-42.666667h170.666667V42.666667h85.333333z m469.333333 384H170.666667v384h682.666666v-384z m-211.797333 48.469333l60.330667 60.330667-211.2 211.2-150.869334-150.869334L400.213333 535.466667l90.496 90.538666 150.869334-150.869333zM298.666667 213.333333H170.666667v128h682.666666V213.333333h-128v42.666667h-85.333333V213.333333H384v42.666667H298.666667V213.333333z" /></svg>