<?xml version="1.0" standalone="no"?>
<!DOCTYPE svg PUBLIC "-//W3C//DTD SVG 1.1//EN" "http://www.w3.org/Graphics/SVG/1.1/DTD/svg11.dtd">
<svg class="icon" style="width: 1em;height: 1em;vertical-align: middle;fill: currentColor;overflow: hidden;" viewBox="0 0 1024 1024" version="1.1" xmlns="http://www.w3.org/2000/svg"><path d="M725.333333 128h170.666667a42.666667 42.666667 0 0 1 42.666667 42.666667v682.666666a42.666667 42.666667 0 0 1-42.666667 42.666667H128a42.666667 42.666667 0 0 1-42.666667-42.666667V170.666667a42.666667 42.666667 0 0 1 42.666667-42.666667h170.666667V42.666667h85.333333v85.333333h256V42.666667h85.333333v85.333333z m128 341.333333H170.666667v341.333334h682.666666v-341.333334z m-213.333333-256H384v85.333334H298.666667V213.333333H170.666667v170.666667h682.666666V213.333333h-128v85.333334h-85.333333V213.333333z m-384 341.333334h85.333333v85.333333H256v-85.333333z m213.333333 0h85.333334v85.333333h-85.333334v-85.333333z m213.333334 0h85.333333v85.333333h-85.333333v-85.333333z" /></svg>