<?xml version="1.0" standalone="no"?>
<!DOCTYPE svg PUBLIC "-//W3C//DTD SVG 1.1//EN" "http://www.w3.org/Graphics/SVG/1.1/DTD/svg11.dtd">
<svg class="icon" style="width: 1em;height: 1em;vertical-align: middle;fill: currentColor;overflow: hidden;" viewBox="0 0 1024 1024" version="1.1" xmlns="http://www.w3.org/2000/svg"><path d="M384 128h256l85.333333 85.333333h170.666667a42.666667 42.666667 0 0 1 42.666667 42.666667v597.333333a42.666667 42.666667 0 0 1-42.666667 42.666667H128a42.666667 42.666667 0 0 1-42.666667-42.666667V256a42.666667 42.666667 0 0 1 42.666667-42.666667h170.666667l85.333333-85.333333z m242.517333 655.701333l-38.186666-76.373333A170.666667 170.666667 0 0 1 341.333333 554.666667h85.376L334.464 370.218667a256 256 0 0 0 292.053333 413.44zM397.482667 325.632l38.186666 76.373333A170.666667 170.666667 0 0 1 682.666667 554.666667h-85.376l92.202666 184.448a256 256 0 0 0-292.053333-413.44z" /></svg>