<?xml version="1.0" standalone="no"?>
<!DOCTYPE svg PUBLIC "-//W3C//DTD SVG 1.1//EN" "http://www.w3.org/Graphics/SVG/1.1/DTD/svg11.dtd">
<svg class="icon" style="width: 1em;height: 1em;vertical-align: middle;fill: currentColor;overflow: hidden;" viewBox="0 0 1024 1024" version="1.1" xmlns="http://www.w3.org/2000/svg"><path d="M835.669333 896H128a42.666667 42.666667 0 0 1-42.666667-42.666667V256a42.666667 42.666667 0 0 1 42.666667-42.666667h25.002667L59.434667 119.808l60.373333-60.373333 844.757333 844.8-60.373333 60.330666L835.669333 896zM322.389333 382.72a256 256 0 0 0 361.6 361.6l-60.458666-60.458667a170.666667 170.666667 0 0 1-240.725334-240.725333L322.346667 382.72zM938.666667 758.826667l-172.586667-172.586667a256 256 0 0 0-285.653333-285.653333L345.856 166.058667 384 128h256l85.333333 85.333333h170.666667a42.666667 42.666667 0 0 1 42.666667 42.666667v502.869333z m-362.325334-362.325334a171.221333 171.221333 0 0 1 93.781334 93.781334l-93.781334-93.781334z" /></svg>