<?xml version="1.0" standalone="no"?>
<!DOCTYPE svg PUBLIC "-//W3C//DTD SVG 1.1//EN" "http://www.w3.org/Graphics/SVG/1.1/DTD/svg11.dtd">
<svg class="icon" style="width: 1em;height: 1em;vertical-align: middle;fill: currentColor;overflow: hidden;" viewBox="0 0 1024 1024" version="1.1" xmlns="http://www.w3.org/2000/svg"><path d="M835.669333 896H128a42.666667 42.666667 0 0 1-42.666667-42.666667V256a42.666667 42.666667 0 0 1 42.666667-42.666667h25.002667L59.434667 119.808l60.373333-60.373333 844.757333 844.8-60.373333 60.330666L835.669333 896z m-597.333333-597.333333H170.666667v512h579.669333l-93.013333-93.013334A234.666667 234.666667 0 0 1 327.68 388.010667L238.336 298.666667z m150.357333 150.4a149.333333 149.333333 0 0 0 207.573334 207.573333L388.693333 449.066667zM938.666667 758.826667l-85.333334-85.333334V298.666667h-163.328l-85.333333-85.333334H419.328l-13.098667 13.098667-60.330666-60.330667L384 128h256l85.333333 85.333333h170.666667a42.666667 42.666667 0 0 1 42.666667 42.666667v502.869333zM480.554667 300.8a234.666667 234.666667 0 0 1 264.021333 264.021333L644.821333 465.066667a149.973333 149.973333 0 0 0-64.512-64.512L480.554667 300.8z" /></svg>