<?xml version="1.0" standalone="no"?>
<!DOCTYPE svg PUBLIC "-//W3C//DTD SVG 1.1//EN" "http://www.w3.org/Graphics/SVG/1.1/DTD/svg11.dtd">
<svg class="icon" style="width: 1em;height: 1em;vertical-align: middle;fill: currentColor;overflow: hidden;" viewBox="0 0 1024 1024" version="1.1" xmlns="http://www.w3.org/2000/svg"><path d="M85.333333 256c0-23.552 19.413333-42.666667 42.325334-42.666667h768.682666c23.381333 0 42.325333 18.986667 42.325334 42.666667v597.333333c0 23.552-19.413333 42.666667-42.325334 42.666667H127.658667A42.410667 42.410667 0 0 1 85.333333 853.333333V256z m85.333334 42.666667v512h682.666666V298.666667H170.666667z m426.666666 384a128 128 0 1 0 0-256 128 128 0 0 0 0 256z m0 85.333333a213.333333 213.333333 0 1 1 0-426.666667 213.333333 213.333333 0 0 1 0 426.666667zM170.666667 85.333333h256v85.333334H170.666667V85.333333z" /></svg>