<?xml version="1.0" standalone="no"?>
<!DOCTYPE svg PUBLIC "-//W3C//DTD SVG 1.1//EN" "http://www.w3.org/Graphics/SVG/1.1/DTD/svg11.dtd">
<svg class="icon" style="width: 1em;height: 1em;vertical-align: middle;fill: currentColor;overflow: hidden;" viewBox="0 0 1024 1024" version="1.1" xmlns="http://www.w3.org/2000/svg"><path d="M419.285333 928.554667L610.56 597.333333l150.698667 260.992A424.746667 424.746667 0 0 1 512 938.666667c-31.829333 0-62.848-3.498667-92.714667-10.112zM336.64 901.12A427.861333 427.861333 0 0 1 104.874667 640h382.506666L336.64 901.077333zM87.466667 554.666667a425.130667 425.130667 0 0 1 110.208-331.136L388.778667 554.666667H87.466667z m175.317333-388.992A424.746667 424.746667 0 0 1 512 85.333333c31.829333 0 62.848 3.498667 92.714667 10.112L413.44 426.666667 262.784 165.674667zM687.36 122.88A427.861333 427.861333 0 0 1 919.125333 384h-382.506666l150.741333-261.077333zM936.533333 469.333333a425.130667 425.130667 0 0 1-110.208 331.136L635.221333 469.333333h301.397334z" /></svg>