<?xml version="1.0" standalone="no"?>
<!DOCTYPE svg PUBLIC "-//W3C//DTD SVG 1.1//EN" "http://www.w3.org/Graphics/SVG/1.1/DTD/svg11.dtd">
<svg class="icon" style="width: 1em;height: 1em;vertical-align: middle;fill: currentColor;overflow: hidden;" viewBox="0 0 1024 1024" version="1.1" xmlns="http://www.w3.org/2000/svg"><path d="M843.861333 180.138667a256 256 0 0 1 0 362.026666l-301.653333 301.696a256.042667 256.042667 0 0 1-362.069333-362.026666l301.653333-301.696a256.042667 256.042667 0 0 1 362.069333 0z m-241.322666 482.688L361.173333 421.461333l-120.704 120.746667a170.666667 170.666667 0 1 0 241.365334 241.322667l120.704-120.746667z m180.992-422.357334a170.666667 170.666667 0 0 0-241.365334 0L421.546667 361.130667l241.365333 241.365333 120.661333-120.661333a170.666667 170.666667 0 0 0 0-241.365334z" /></svg>