<?xml version="1.0" standalone="no"?>
<!DOCTYPE svg PUBLIC "-//W3C//DTD SVG 1.1//EN" "http://www.w3.org/Graphics/SVG/1.1/DTD/svg11.dtd">
<svg class="icon" style="width: 1em;height: 1em;vertical-align: middle;fill: currentColor;overflow: hidden;" viewBox="0 0 1024 1024" version="1.1" xmlns="http://www.w3.org/2000/svg"><path d="M810.666667 896H213.333333v42.666667a42.666667 42.666667 0 0 1-42.666666 42.666666H128a42.666667 42.666667 0 0 1-42.666667-42.666666v-384l103.125334-171.904A85.333333 85.333333 0 0 1 261.632 341.333333h500.736a85.333333 85.333333 0 0 1 73.173333 41.429334L938.666667 554.666667v384a42.666667 42.666667 0 0 1-42.666667 42.666666h-42.666667a42.666667 42.666667 0 0 1-42.666666-42.666666v-42.666667zM184.832 554.666667h654.336l-76.8-128H261.632l-76.8 128zM277.333333 768a64 64 0 1 0 0-128 64 64 0 0 0 0 128z m469.333334 0a64 64 0 1 0 0-128 64 64 0 0 0 0 128zM232.106667 146.773333L277.333333 101.461333l45.226667 45.226667a64 64 0 1 1-90.496 0z m234.666666 0L512 101.461333l45.226667 45.226667a64 64 0 1 1-90.496 0z m234.666667 0l45.226667-45.269333 45.226666 45.226667a64 64 0 1 1-90.496 0z" /></svg>