<?xml version="1.0" standalone="no"?>
<!DOCTYPE svg PUBLIC "-//W3C//DTD SVG 1.1//EN" "http://www.w3.org/Graphics/SVG/1.1/DTD/svg11.dtd">
<svg class="icon" style="width: 1em;height: 1em;vertical-align: middle;fill: currentColor;overflow: hidden;" viewBox="0 0 1024 1024" version="1.1" xmlns="http://www.w3.org/2000/svg"><path d="M128 128h768a42.666667 42.666667 0 0 1 42.666667 42.666667v682.666666a42.666667 42.666667 0 0 1-42.666667 42.666667h-256a558.933333 558.933333 0 0 0-6.528-85.333333H853.333333V213.333333H170.666667v134.528A558.933333 558.933333 0 0 0 85.333333 341.333333V170.666667a42.666667 42.666667 0 0 1 42.666667-42.666667z m426.666667 768h-85.333334a384 384 0 0 0-384-384v-85.333333c259.2 0 469.333333 210.133333 469.333334 469.333333z m-170.666667 0H298.666667a213.333333 213.333333 0 0 0-213.333334-213.333333v-85.333334a298.666667 298.666667 0 0 1 298.666667 298.666667z m-170.666667 0H85.333333v-128a128 128 0 0 1 128 128z" /></svg>