<?xml version="1.0" standalone="no"?>
<!DOCTYPE svg PUBLIC "-//W3C//DTD SVG 1.1//EN" "http://www.w3.org/Graphics/SVG/1.1/DTD/svg11.dtd">
<svg class="icon" style="width: 1em;height: 1em;vertical-align: middle;fill: currentColor;overflow: hidden;" viewBox="0 0 1024 1024" version="1.1" xmlns="http://www.w3.org/2000/svg"><path d="M192 426.666667a149.333333 149.333333 0 1 1 0-298.666667 149.333333 149.333333 0 0 1 0 298.666667z m0-85.333334a64 64 0 1 0 0-128 64 64 0 0 0 0 128zM938.666667 426.666667h-85.333334a170.666667 170.666667 0 1 0-341.333333 0v213.333333a170.666667 170.666667 0 1 0 341.333333 0h85.333334a256 256 0 1 1-512 0v-213.333333a256 256 0 1 1 512 0z" /></svg>