<?xml version="1.0" standalone="no"?>
<!DOCTYPE svg PUBLIC "-//W3C//DTD SVG 1.1//EN" "http://www.w3.org/Graphics/SVG/1.1/DTD/svg11.dtd">
<svg class="icon" style="width: 1em;height: 1em;vertical-align: middle;fill: currentColor;overflow: hidden;" viewBox="0 0 1024 1024" version="1.1" xmlns="http://www.w3.org/2000/svg"><path d="M512 85.333333l183.125333 183.125334 45.269334-45.226667L687.829333 170.666667H853.333333v165.504l-52.608-52.608-45.226666 45.269333L938.666667 512l-183.125334 183.168 45.184 45.184L853.333333 687.829333V853.333333h-165.546666l52.565333-52.608-45.184-45.226666L512 938.666667l-183.168-183.168-45.269333 45.226666L336.170667 853.333333H170.666667v-165.546666l52.522666 52.565333 45.269334-45.226667L85.333333 512l183.168-183.168-45.312-45.269333L170.666667 336.170667V170.666667h165.504L283.562667 223.146667l45.312 45.312L512 85.333333z m0 486.954667l-122.88 122.837333 122.88 122.88 122.837333-122.88L512 572.245333zM328.832 389.12L205.994667 512l122.794666 122.794667 122.88-122.88-122.837333-122.752z m366.293333 0l-122.752 122.794667 122.794667 122.837333L818.005333 512l-122.88-122.837333zM512 205.994667L389.205333 328.832l122.837334 122.794667 122.752-122.837334L512 205.994667z" /></svg>