<?xml version="1.0" standalone="no"?>
<!DOCTYPE svg PUBLIC "-//W3C//DTD SVG 1.1//EN" "http://www.w3.org/Graphics/SVG/1.1/DTD/svg11.dtd">
<svg class="icon" style="width: 1em;height: 1em;vertical-align: middle;fill: currentColor;overflow: hidden;" viewBox="0 0 1024 1024" version="1.1" xmlns="http://www.w3.org/2000/svg"><path d="M275.413333 810.666667L85.333333 960V170.666667a42.666667 42.666667 0 0 1 42.666667-42.666667h768a42.666667 42.666667 0 0 1 42.666667 42.666667v597.333333a42.666667 42.666667 0 0 1-42.666667 42.666667H275.413333zM170.666667 784.426667L245.888 725.333333H853.333333V213.333333H170.666667v571.093334z m342.101333-157.226667l-143.317333-143.36a96 96 0 0 1 135.765333-135.765333l7.552 7.552 7.552-7.552a96 96 0 0 1 135.765333 135.765333l-143.36 143.317333z" /></svg>