<?xml version="1.0" standalone="no"?>
<!DOCTYPE svg PUBLIC "-//W3C//DTD SVG 1.1//EN" "http://www.w3.org/Graphics/SVG/1.1/DTD/svg11.dtd">
<svg class="icon" style="width: 1em;height: 1em;vertical-align: middle;fill: currentColor;overflow: hidden;" viewBox="0 0 1024 1024" version="1.1" xmlns="http://www.w3.org/2000/svg"><path d="M275.413333 810.666667L85.333333 960V170.666667a42.666667 42.666667 0 0 1 42.666667-42.666667h768a42.666667 42.666667 0 0 1 42.666667 42.666667v597.333333a42.666667 42.666667 0 0 1-42.666667 42.666667H275.413333z m72.106667-295.637334l-41.6 24.021334 42.666667 73.898666 41.642666-24.021333c21.376 21.76 48.64 37.845333 79.104 45.696V682.666667h85.333334v-48.042667a170.496 170.496 0 0 0 79.104-45.696l41.642666 24.021333 42.666667-73.898666-41.6-24.021334a170.837333 170.837333 0 0 0 0-91.392l41.6-24.021333-42.666667-73.898667-41.642666 24.021334A170.496 170.496 0 0 0 554.666667 304.042667V256h-85.333334v48.042667a170.496 170.496 0 0 0-79.104 45.696l-41.642666-24.021334-42.666667 73.898667 41.6 24.021333a170.837333 170.837333 0 0 0 0 91.392zM512 554.666667a85.333333 85.333333 0 1 1 0-170.666667 85.333333 85.333333 0 0 1 0 170.666667z" /></svg>