<?xml version="1.0" standalone="no"?>
<!DOCTYPE svg PUBLIC "-//W3C//DTD SVG 1.1//EN" "http://www.w3.org/Graphics/SVG/1.1/DTD/svg11.dtd">
<svg class="icon" style="width: 1em;height: 1em;vertical-align: middle;fill: currentColor;overflow: hidden;" viewBox="0 0 1024 1024" version="1.1" xmlns="http://www.w3.org/2000/svg"><path d="M896 128a42.666667 42.666667 0 0 1 42.666667 42.666667v597.333333a42.666667 42.666667 0 0 1-42.666667 42.666667H275.413333L85.333333 960V170.666667a42.666667 42.666667 0 0 1 42.666667-42.666667h768z m-42.666667 85.333333H170.666667v571.093334L245.888 725.333333H853.333333V213.333333z m-404.693333 102.912l19.072 29.354667c-71.168 38.528-69.930667 100.352-69.930667 113.664 6.613333-0.853333 13.568-1.024 20.48-0.384a75.136 75.136 0 0 1 68.821334 74.453333 74.666667 74.666667 0 0 1-74.666667 74.666667c-22.912 0-44.8-10.453333-58.624-25.173333-21.973333-23.296-33.792-49.493333-33.792-91.946667 0-74.666667 52.394667-141.568 128.64-174.634667z m213.333333 0l19.072 29.354667c-71.168 38.528-69.930667 100.352-69.930666 113.664 6.613333-0.853333 13.568-1.024 20.48-0.384a75.136 75.136 0 0 1 68.821333 74.453333 74.666667 74.666667 0 0 1-74.666667 74.666667c-22.912 0-44.8-10.453333-58.624-25.173333-21.973333-23.296-33.792-49.493333-33.792-91.946667 0-74.666667 52.394667-141.568 128.64-174.634667z" /></svg>