<?xml version="1.0" standalone="no"?>
<!DOCTYPE svg PUBLIC "-//W3C//DTD SVG 1.1//EN" "http://www.w3.org/Graphics/SVG/1.1/DTD/svg11.dtd">
<svg class="icon" style="width: 1em;height: 1em;vertical-align: middle;fill: currentColor;overflow: hidden;" viewBox="0 0 1024 1024" version="1.1" xmlns="http://www.w3.org/2000/svg"><path d="M442.24 846.208l82.346667-142.592a191.957333 191.957333 0 0 1-180.650667-98.773333L204.544 363.52a341.461333 341.461333 0 0 0 237.653333 482.688z m94.933333 6.229333A341.333333 341.333333 0 0 0 836.352 405.333333h-164.693333A191.146667 191.146667 0 0 1 704 512a191.146667 191.146667 0 0 1-27.392 98.901333l-139.434667 241.493334z m66.261334-285.482666l0.938666-1.621334a106.666667 106.666667 0 1 0-185.770666-1.792l1.024 1.792a106.624 106.624 0 0 0 183.808 1.621334z m-345.941334-282.453334l82.304 142.506667A192 192 0 0 1 512 320h282.24A340.992 340.992 0 0 0 512 170.666667a340.48 340.48 0 0 0-254.506667 113.877333zM512 938.666667C276.352 938.666667 85.333333 747.648 85.333333 512S276.352 85.333333 512 85.333333s426.666667 191.018667 426.666667 426.666667-191.018667 426.666667-426.666667 426.666667z" /></svg>