<?xml version="1.0" standalone="no"?>
<!DOCTYPE svg PUBLIC "-//W3C//DTD SVG 1.1//EN" "http://www.w3.org/Graphics/SVG/1.1/DTD/svg11.dtd">
<svg class="icon" style="width: 1em;height: 1em;vertical-align: middle;fill: currentColor;overflow: hidden;" viewBox="0 0 1024 1024" version="1.1" xmlns="http://www.w3.org/2000/svg"><path d="M853.333333 426.666667h128l-170.666666 213.333333-170.666667-213.333333h128V341.333333a128 128 0 0 0-128-128h-170.666667V128h170.666667a213.333333 213.333333 0 0 1 213.333333 213.333333v85.333334z m-298.666666-42.666667a42.666667 42.666667 0 0 1 42.666666 42.666667v426.666666a42.666667 42.666667 0 0 1-42.666666 42.666667H128a42.666667 42.666667 0 0 1-42.666667-42.666667V426.666667a42.666667 42.666667 0 0 1 42.666667-42.666667h426.666667z" /></svg>