<?xml version="1.0" standalone="no"?>
<!DOCTYPE svg PUBLIC "-//W3C//DTD SVG 1.1//EN" "http://www.w3.org/Graphics/SVG/1.1/DTD/svg11.dtd">
<svg class="icon" style="width: 1em;height: 1em;vertical-align: middle;fill: currentColor;overflow: hidden;" viewBox="0 0 1024 1024" version="1.1" xmlns="http://www.w3.org/2000/svg"><path d="M426.666667 170.666667V42.666667l213.333333 170.666666-213.333333 170.666667V256H341.333333a128 128 0 0 0-128 128v170.666667H128V384a213.333333 213.333333 0 0 1 213.333333-213.333333h85.333334z m-42.666667 298.666666a42.666667 42.666667 0 0 1 42.666667-42.666666h426.666666a42.666667 42.666667 0 0 1 42.666667 42.666666v426.666667a42.666667 42.666667 0 0 1-42.666667 42.666667H426.666667a42.666667 42.666667 0 0 1-42.666667-42.666667V469.333333z" /></svg>