<?xml version="1.0" standalone="no"?>
<!DOCTYPE svg PUBLIC "-//W3C//DTD SVG 1.1//EN" "http://www.w3.org/Graphics/SVG/1.1/DTD/svg11.dtd">
<svg class="icon" style="width: 1em;height: 1em;vertical-align: middle;fill: currentColor;overflow: hidden;" viewBox="0 0 1024 1024" version="1.1" xmlns="http://www.w3.org/2000/svg"><path d="M451.669333 170.666667L373.632 92.672 434.005333 32.298667 614.997333 213.333333l-180.992 181.034667-60.373333-60.373333L451.669333 256H341.333333a128 128 0 0 0-128 128v170.666667H128V384a213.333333 213.333333 0 0 1 213.333333-213.333333h110.336zM384 469.333333a42.666667 42.666667 0 0 1 42.666667-42.666666h426.666666a42.666667 42.666667 0 0 1 42.666667 42.666666v426.666667a42.666667 42.666667 0 0 1-42.666667 42.666667H426.666667a42.666667 42.666667 0 0 1-42.666667-42.666667V469.333333z m85.333333 42.666667v341.333333h341.333334v-341.333333h-341.333334z" /></svg>