<?xml version="1.0" standalone="no"?>
<!DOCTYPE svg PUBLIC "-//W3C//DTD SVG 1.1//EN" "http://www.w3.org/Graphics/SVG/1.1/DTD/svg11.dtd">
<svg class="icon" style="width: 1em;height: 1em;vertical-align: middle;fill: currentColor;overflow: hidden;" viewBox="0 0 1024 1024" version="1.1" xmlns="http://www.w3.org/2000/svg"><path d="M512 170.666667c259.2 0 469.333333 114.602667 469.333333 256v170.666666c0 141.397333-210.133333 256-469.333333 256-254.592 0-461.824-110.549333-469.12-248.448L42.666667 597.333333v-170.666666c0-141.397333 210.133333-256 469.333333-256z m0 512c-158.72 0-299.093333-42.965333-384-108.8V597.333333c0 80.298667 165.674667 170.666667 384 170.666667 213.76 0 377.088-86.613333 383.786667-165.632L896 597.333333l0.042667-23.466666C811.136 639.658667 670.762667 682.666667 512 682.666667z m0-426.666667c-218.325333 0-384 90.368-384 170.666667 0 80.298667 165.674667 170.666667 384 170.666666s384-90.368 384-170.666666c0-80.298667-165.674667-170.666667-384-170.666667z" /></svg>