<?xml version="1.0" standalone="no"?>
<!DOCTYPE svg PUBLIC "-//W3C//DTD SVG 1.1//EN" "http://www.w3.org/Graphics/SVG/1.1/DTD/svg11.dtd">
<svg class="icon" style="width: 1em;height: 1em;vertical-align: middle;fill: currentColor;overflow: hidden;" viewBox="0 0 1024 1024" version="1.1" xmlns="http://www.w3.org/2000/svg"><path d="M597.333333 85.333333a341.333333 341.333333 0 0 1 140.458667 652.501334A341.333333 341.333333 0 1 1 286.122667 286.165333 341.461333 341.461333 0 0 1 597.333333 85.333333z m-170.666666 256a256 256 0 1 0 0 512 256 256 0 0 0 0-512z m42.666666 42.666667v42.666667h85.333334v85.333333H384a21.333333 21.333333 0 0 0-3.84 42.325333L384 554.666667h85.333333a106.666667 106.666667 0 1 1 0 213.333333v42.666667H384v-42.666667H298.666667v-85.333333h170.666666a21.333333 21.333333 0 0 0 3.84-42.325334L469.333333 640H384a106.666667 106.666667 0 1 1 0-213.333333V384h85.333333z m128-213.333333a255.36 255.36 0 0 0-191.317333 85.888 341.333333 341.333333 0 0 1 361.386667 361.429333A256 256 0 0 0 597.333333 170.666667z" /></svg>