<?xml version="1.0" standalone="no"?>
<!DOCTYPE svg PUBLIC "-//W3C//DTD SVG 1.1//EN" "http://www.w3.org/Graphics/SVG/1.1/DTD/svg11.dtd">
<svg class="icon" style="width: 1em;height: 1em;vertical-align: middle;fill: currentColor;overflow: hidden;" viewBox="0 0 1024 1024" version="1.1" xmlns="http://www.w3.org/2000/svg"><path d="M696.746667 576A298.154667 298.154667 0 0 0 810.666667 341.333333h85.333333a383.445333 383.445333 0 0 1-156.245333 309.162667l107.861333 186.794667a85.333333 85.333333 0 0 1-31.232 116.565333l-150.485333-260.608A382.72 382.72 0 0 1 512 725.333333a382.72 382.72 0 0 1-153.898667-32.085333l-150.485333 260.608a85.333333 85.333333 0 0 1-31.232-116.565333l216.021333-374.186667A170.752 170.752 0 0 1 469.333333 176.042667V85.333333h85.333334v90.709334a170.752 170.752 0 0 1 76.928 287.061333L696.746667 576z m-73.813334 42.752l-65.194666-112.938667a170.837333 170.837333 0 0 1-91.392 0l-65.194667 112.938667a298.24 298.24 0 0 0 110.890667 21.248c39.168 0 76.586667-7.552 110.890666-21.248zM512 384a42.666667 42.666667 0 1 0 0-85.333333 42.666667 42.666667 0 0 0 0 85.333333z" /></svg>