<?xml version="1.0" standalone="no"?>
<!DOCTYPE svg PUBLIC "-//W3C//DTD SVG 1.1//EN" "http://www.w3.org/Graphics/SVG/1.1/DTD/svg11.dtd">
<svg class="icon" style="width: 1em;height: 1em;vertical-align: middle;fill: currentColor;overflow: hidden;" viewBox="0 0 1024 1024" version="1.1" xmlns="http://www.w3.org/2000/svg"><path d="M512 938.666667C276.48 938.666667 85.333333 747.52 85.333333 512S276.48 85.333333 512 85.333333s426.666667 191.146667 426.666667 426.666667-191.146667 426.666667-426.666667 426.666667z m0-85.333334c188.586667 0 341.333333-152.746667 341.333333-341.333333s-152.746667-341.333333-341.333333-341.333333-341.333333 152.746667-341.333333 341.333333 152.746667 341.333333 341.333333 341.333333z m0-128a213.248 213.248 0 0 1-182.954667-103.594666l73.130667-43.904A128 128 0 0 0 512 640c70.741333 0 128-57.258667 128-128s-57.258667-128-128-128a127.872 127.872 0 0 0-109.781333 62.122667L329.045333 402.261333A213.418667 213.418667 0 0 1 725.333333 512c0 117.76-95.573333 213.333333-213.333333 213.333333z" /></svg>