<?xml version="1.0" standalone="no"?>
<!DOCTYPE svg PUBLIC "-//W3C//DTD SVG 1.1//EN" "http://www.w3.org/Graphics/SVG/1.1/DTD/svg11.dtd">
<svg class="icon" style="width: 1em;height: 1em;vertical-align: middle;fill: currentColor;overflow: hidden;" viewBox="0 0 1024 1024" version="1.1" xmlns="http://www.w3.org/2000/svg"><path d="M401.92 187.733333a341.333333 341.333333 0 1 0 435.285333 422.826667c-145.066667 62.293333-309.248 84.48-492.586666 66.773333-30.336-176.042667-11.264-339.2 57.301333-489.6z m104.448-17.664a717.013333 717.013333 0 0 0-65.792 160.810667 255.146667 255.146667 0 0 1 175.573333 74.922667 255.018667 255.018667 0 0 1 74.453334 164.736c56.746667-14.549333 110.464-34.986667 161.28-61.141334a341.077333 341.077333 0 0 0-345.514667-339.328zM208.853333 813.098667C42.24 646.485333 42.24 376.32 208.853333 209.706667c166.613333-166.613333 436.778667-166.613333 603.392 0 166.613333 166.613333 166.613333 436.778667 0 603.392-166.613333 166.613333-436.778667 166.613333-603.392 0z m214.186667-396.501334a763.093333 763.093333 0 0 0-3.242667 180.437334 987.477333 987.477333 0 0 0 186.026667-9.386667 170.154667 170.154667 0 0 0-50.005333-121.514667 170.24 170.24 0 0 0-132.778667-49.536z" /></svg>