<?xml version="1.0" standalone="no"?>
<!DOCTYPE svg PUBLIC "-//W3C//DTD SVG 1.1//EN" "http://www.w3.org/Graphics/SVG/1.1/DTD/svg11.dtd">
<svg class="icon" style="width: 1em;height: 1em;vertical-align: middle;fill: currentColor;overflow: hidden;" viewBox="0 0 1024 1024" version="1.1" xmlns="http://www.w3.org/2000/svg"><path d="M85.333333 405.333333V170.666667a42.666667 42.666667 0 0 1 42.666667-42.666667h768a42.666667 42.666667 0 0 1 42.666667 42.666667v234.666666a106.666667 106.666667 0 1 0 0 213.333334V853.333333a42.666667 42.666667 0 0 1-42.666667 42.666667H128a42.666667 42.666667 0 0 1-42.666667-42.666667v-234.666666a106.666667 106.666667 0 1 0 0-213.333334zM597.333333 213.333333H170.666667v126.634667a192 192 0 0 1 0 344.064V810.666667h426.666666V213.333333z m85.333334 0v597.333334h170.666666v-126.634667a192 192 0 0 1 0-344.064V213.333333h-170.666666z" /></svg>