<?xml version="1.0" standalone="no"?>
<!DOCTYPE svg PUBLIC "-//W3C//DTD SVG 1.1//EN" "http://www.w3.org/Graphics/SVG/1.1/DTD/svg11.dtd">
<svg class="icon" style="width: 1em;height: 1em;vertical-align: middle;fill: currentColor;overflow: hidden;" viewBox="0 0 1024 1024" version="1.1" xmlns="http://www.w3.org/2000/svg"><path d="M426.666667 896H128a42.666667 42.666667 0 0 1-42.666667-42.666667V170.666667a42.666667 42.666667 0 0 1 42.666667-42.666667h298.666667a85.333333 85.333333 0 1 0 170.666666 0h298.666667a42.666667 42.666667 0 0 1 42.666667 42.666667v682.666666a42.666667 42.666667 0 0 1-42.666667 42.666667h-298.666667a85.333333 85.333333 0 1 0-170.666666 0z m-62.506667-85.333333A170.581333 170.581333 0 0 1 512 725.333333c63.146667 0 118.314667 34.304 147.84 85.333334H853.333333V213.333333h-193.493333A170.581333 170.581333 0 0 1 512 298.666667a170.581333 170.581333 0 0 1-147.84-85.333334H170.666667v597.333334h193.493333zM256 341.333333h85.333333v341.333334H256V341.333333z m426.666667 0h85.333333v341.333334h-85.333333V341.333333z" /></svg>