<?xml version="1.0" standalone="no"?>
<!DOCTYPE svg PUBLIC "-//W3C//DTD SVG 1.1//EN" "http://www.w3.org/Graphics/SVG/1.1/DTD/svg11.dtd">
<svg class="icon" style="width: 1em;height: 1em;vertical-align: middle;fill: currentColor;overflow: hidden;" viewBox="0 0 1024 1024" version="1.1" xmlns="http://www.w3.org/2000/svg"><path d="M512 85.333333c235.52 0 426.666667 191.146667 426.666667 426.666667s-191.146667 426.666667-426.666667 426.666667S85.333333 747.52 85.333333 512 276.48 85.333333 512 85.333333z m0 85.333334c-188.373333 0-341.333333 152.96-341.333333 341.333333s152.96 341.333333 341.333333 341.333333 341.333333-152.96 341.333333-341.333333-152.96-341.333333-341.333333-341.333333z m0 85.333333c117.802667 0 213.333333 114.602667 213.333333 256s-95.530667 256-213.333333 256-213.333333-114.602667-213.333333-256 95.530667-256 213.333333-256z m99.2 148.138667l-151.978667 263.381333c16.085333 9.728 33.962667 15.146667 52.778667 15.146667 70.698667 0 128-76.373333 128-170.666667 0-40.917333-10.794667-78.464-28.8-107.861333zM512 341.333333c-70.698667 0-128 76.373333-128 170.666667 0 40.917333 10.794667 78.464 28.8 107.861333l151.978667-263.381333A101.418667 101.418667 0 0 0 512 341.333333z" /></svg>