<?xml version="1.0" standalone="no"?>
<!DOCTYPE svg PUBLIC "-//W3C//DTD SVG 1.1//EN" "http://www.w3.org/Graphics/SVG/1.1/DTD/svg11.dtd">
<svg class="icon" style="width: 1em;height: 1em;vertical-align: middle;fill: currentColor;overflow: hidden;" viewBox="0 0 1024 1024" version="1.1" xmlns="http://www.w3.org/2000/svg"><path d="M512 85.333333c235.648 0 426.666667 191.018667 426.666667 426.666667s-191.018667 426.666667-426.666667 426.666667S85.333333 747.648 85.333333 512 276.352 85.333333 512 85.333333zM384 341.333333c-94.208 0-170.666667 76.458667-170.666667 170.666667a170.709333 170.709333 0 0 0 284.544 127.104l6.784-6.442667-60.330666-60.330666a85.333333 85.333333 0 1 1-5.333334-125.568l5.376 4.949333 60.330667-60.330667A170.154667 170.154667 0 0 0 384 341.333333z m298.666667 0c-94.208 0-170.666667 76.458667-170.666667 170.666667a170.709333 170.709333 0 0 0 284.544 127.104l6.784-6.442667-60.330667-60.330666a85.333333 85.333333 0 1 1-5.333333-125.568l5.376 4.949333 60.330667-60.330667A170.154667 170.154667 0 0 0 682.666667 341.333333z" /></svg>