<?xml version="1.0" standalone="no"?>
<!DOCTYPE svg PUBLIC "-//W3C//DTD SVG 1.1//EN" "http://www.w3.org/Graphics/SVG/1.1/DTD/svg11.dtd">
<svg class="icon" style="width: 1em;height: 1em;vertical-align: middle;fill: currentColor;overflow: hidden;" viewBox="0 0 1024 1024" version="1.1" xmlns="http://www.w3.org/2000/svg"><path d="M512 85.333333c235.648 0 426.666667 191.018667 426.666667 426.666667s-191.018667 426.666667-426.666667 426.666667S85.333333 747.648 85.333333 512 276.352 85.333333 512 85.333333z m0 85.333334a341.333333 341.333333 0 1 0 0 682.666666 341.333333 341.333333 0 0 0 0-682.666666z m85.333333 256a42.666667 42.666667 0 0 1 42.666667 42.666666v170.666667h-64v170.666667h-128v-170.666667H384v-170.666667a42.666667 42.666667 0 0 1 42.666667-42.666666h170.666666z m-85.333333-213.333334a85.333333 85.333333 0 1 1 0 170.666667 85.333333 85.333333 0 0 1 0-170.666667z" /></svg>