<?xml version="1.0" standalone="no"?>
<!DOCTYPE svg PUBLIC "-//W3C//DTD SVG 1.1//EN" "http://www.w3.org/Graphics/SVG/1.1/DTD/svg11.dtd">
<svg class="icon" style="width: 1em;height: 1em;vertical-align: middle;fill: currentColor;overflow: hidden;" viewBox="0 0 1024 1024" version="1.1" xmlns="http://www.w3.org/2000/svg"><path d="M512 85.333333c235.648 0 426.666667 191.018667 426.666667 426.666667 0 102.4-36.096 196.437333-96.256 269.994667l1.450666 1.536-60.330666 60.330666-1.536-1.450666A424.917333 424.917333 0 0 1 512 938.666667C276.352 938.666667 85.333333 747.648 85.333333 512S276.352 85.333333 512 85.333333zM170.666667 512a341.333333 341.333333 0 0 0 550.613333 269.653333l-101.333333-101.376A107.093333 107.093333 0 0 1 597.333333 682.666667h-42.666666v85.333333h-85.333334v-85.333333H362.666667v-85.333334H597.333333a21.333333 21.333333 0 0 0 3.84-42.325333L597.333333 554.666667h-170.666666a106.666667 106.666667 0 0 1-92.373334-160L242.304 302.677333A339.84 339.84 0 0 0 170.666667 512z m341.333333-341.333333c-78.848 0-151.466667 26.752-209.28 71.68L404.053333 343.68A107.093333 107.093333 0 0 1 426.666667 341.333333h42.666666V256h85.333334v85.333333h106.666666v85.333334H426.666667a21.333333 21.333333 0 0 0-3.84 42.325333L426.666667 469.333333h170.666666a106.666667 106.666667 0 0 1 92.373334 160l91.989333 91.946667A341.333333 341.333333 0 0 0 512 170.666667z" /></svg>