<?xml version="1.0" standalone="no"?>
<!DOCTYPE svg PUBLIC "-//W3C//DTD SVG 1.1//EN" "http://www.w3.org/Graphics/SVG/1.1/DTD/svg11.dtd">
<svg class="icon" style="width: 1em;height: 1em;vertical-align: middle;fill: currentColor;overflow: hidden;" viewBox="0 0 1024 1024" version="1.1" xmlns="http://www.w3.org/2000/svg"><path d="M725.333333 682.666667h85.333334V170.666667H384v85.333333h341.333333v426.666667z m0 85.333333v128c0 23.552-19.2 42.666667-42.965333 42.666667H170.965333A42.709333 42.709333 0 0 1 128 896l0.128-597.333333c0-23.552 19.2-42.666667 42.965333-42.666667H298.666667V128a42.666667 42.666667 0 0 1 42.666666-42.666667h512a42.666667 42.666667 0 0 1 42.666667 42.666667v597.333333a42.666667 42.666667 0 0 1-42.666667 42.666667h-128zM298.666667 682.666667v85.333333h85.333333v42.666667h85.333333v-42.666667h21.333334a106.666667 106.666667 0 1 0 0-213.333333h-128a21.333333 21.333333 0 1 1 0-42.666667H554.666667v-85.333333h-85.333334V384H384v42.666667h-21.333333a106.666667 106.666667 0 1 0 0 213.333333h128a21.333333 21.333333 0 1 1 0 42.666667H298.666667z" /></svg>