<?xml version="1.0" standalone="no"?>
<!DOCTYPE svg PUBLIC "-//W3C//DTD SVG 1.1//EN" "http://www.w3.org/Graphics/SVG/1.1/DTD/svg11.dtd">
<svg class="icon" style="width: 1em;height: 1em;vertical-align: middle;fill: currentColor;overflow: hidden;" viewBox="0 0 1024 1024" version="1.1" xmlns="http://www.w3.org/2000/svg"><path d="M512 85.333333c235.648 0 426.666667 191.018667 426.666667 426.666667s-191.018667 426.666667-426.666667 426.666667S85.333333 747.648 85.333333 512 276.352 85.333333 512 85.333333z m0 85.333334a341.333333 341.333333 0 1 0 0 682.666666 341.333333 341.333333 0 0 0 0-682.666666z m0 42.666666c43.434667 0 84.693333 9.258667 121.941333 25.941334L567.253333 305.92a213.333333 213.333333 0 0 0-206.122666 356.949333L300.8 723.2l-6.656-6.869333A298.666667 298.666667 0 0 1 512 213.333333z m272.725333 176.768c16.64 37.205333 25.941333 78.506667 25.941334 121.898667a297.898667 297.898667 0 0 1-87.466667 211.2l-60.330667-60.330667a212.992 212.992 0 0 0 55.210667-206.122666l66.645333-66.645334z m-91.733333-119.466666l60.373333 60.330666-158.890666 158.976A85.418667 85.418667 0 0 1 512 597.333333a85.333333 85.333333 0 1 1 22.058667-167.808l158.976-158.890666z" /></svg>