<?xml version="1.0" standalone="no"?>
<!DOCTYPE svg PUBLIC "-//W3C//DTD SVG 1.1//EN" "http://www.w3.org/Graphics/SVG/1.1/DTD/svg11.dtd">
<svg class="icon" style="width: 1em;height: 1em;vertical-align: middle;fill: currentColor;overflow: hidden;" viewBox="0 0 1024 1024" version="1.1" xmlns="http://www.w3.org/2000/svg"><path d="M512 85.333333c235.648 0 426.666667 191.018667 426.666667 426.666667s-191.018667 426.666667-426.666667 426.666667S85.333333 747.648 85.333333 512 276.352 85.333333 512 85.333333z m0 128a298.666667 298.666667 0 0 0-217.856 502.997334l6.656 6.826666 60.330667-60.288a213.333333 213.333333 0 0 1 206.122666-356.949333l66.688-66.645333A298.24 298.24 0 0 0 512 213.333333z m272.725333 176.768l-66.602666 66.645334c4.693333 17.621333 7.210667 36.138667 7.210666 55.253333 0 58.88-23.893333 112.213333-62.464 150.869333l60.330667 60.330667A297.898667 297.898667 0 0 0 810.666667 512a297.173333 297.173333 0 0 0-25.941334-121.898667z m-91.733333-119.466666l-158.933333 158.890666A85.418667 85.418667 0 0 0 426.666667 512a85.333333 85.333333 0 1 0 167.808-22.058667l158.890666-158.976-60.330666-60.330666z" /></svg>