<?xml version="1.0" standalone="no"?>
<!DOCTYPE svg PUBLIC "-//W3C//DTD SVG 1.1//EN" "http://www.w3.org/Graphics/SVG/1.1/DTD/svg11.dtd">
<svg class="icon" style="width: 1em;height: 1em;vertical-align: middle;fill: currentColor;overflow: hidden;" viewBox="0 0 1024 1024" version="1.1" xmlns="http://www.w3.org/2000/svg"><path d="M278.826667 128H896a42.666667 42.666667 0 0 1 42.666667 42.666667v682.666666a42.666667 42.666667 0 0 1-42.666667 42.666667H278.826667a42.666667 42.666667 0 0 1-35.498667-18.986667l-227.541333-341.333333a42.666667 42.666667 0 0 1 0-47.36l227.541333-341.333333A42.666667 42.666667 0 0 1 278.826667 128z m22.826666 85.333333l-199.082666 298.666667 199.082666 298.666667H853.333333V213.333333H301.653333zM554.666667 451.669333l120.661333-120.704 60.373333 60.373334L614.997333 512l120.704 120.661333-60.373333 60.373334L554.666667 572.330667l-120.661334 120.704-60.373333-60.373334L494.336 512 373.632 391.338667l60.373333-60.373334L554.666667 451.669333z" /></svg>