<?xml version="1.0" standalone="no"?>
<!DOCTYPE svg PUBLIC "-//W3C//DTD SVG 1.1//EN" "http://www.w3.org/Graphics/SVG/1.1/DTD/svg11.dtd">
<svg class="icon" style="width: 1em;height: 1em;vertical-align: middle;fill: currentColor;overflow: hidden;" viewBox="0 0 1024 1024" version="1.1" xmlns="http://www.w3.org/2000/svg"><path d="M512 149.973333L149.973333 512 512 874.026667 874.026667 512 512 149.973333z m30.165333-90.538666l422.4 422.4a42.666667 42.666667 0 0 1 0 60.330666l-422.4 422.4a42.666667 42.666667 0 0 1-60.330666 0l-422.4-422.4a42.666667 42.666667 0 0 1 0-60.330666l422.4-422.4a42.666667 42.666667 0 0 1 60.330666 0zM554.666667 426.666667V320l149.333333 149.333333-149.333333 149.333334V512h-128v128H341.333333v-170.666667a42.666667 42.666667 0 0 1 42.666667-42.666666h170.666667z" /></svg>