<?xml version="1.0" standalone="no"?>
<!DOCTYPE svg PUBLIC "-//W3C//DTD SVG 1.1//EN" "http://www.w3.org/Graphics/SVG/1.1/DTD/svg11.dtd">
<svg class="icon" style="width: 1em;height: 1em;vertical-align: middle;fill: currentColor;overflow: hidden;" viewBox="0 0 1024 1024" version="1.1" xmlns="http://www.w3.org/2000/svg"><path d="M593.664 622.08a383.914667 383.914667 0 0 1-20.650667 4.437333 301.226667 301.226667 0 0 1-113.664-0.426666c-6.570667-1.28-15.872-3.541333-27.861333-6.741334l-39.296 51.072c-96.981333-3.114667-133.845333-68.096-133.845333-68.096 0-144.256 63.189333-261.205333 63.189333-261.205333 63.189333-48.341333 123.306667-47.018667 123.306667-47.018667l17.194666 22.4a47.786667 47.786667 0 0 1 4.778667-0.426666 363.818667 363.818667 0 0 1 98.730667 0.426666l18.858666-22.4s60.16-1.322667 123.306667 47.061334c0 0 63.232 116.906667 63.232 261.162666 0 0-37.333333 64.938667-134.314667 68.096l-42.965333-48.384zM429.909333 469.333333C404.266667 469.333333 384 488.533333 384 512s20.693333 42.666667 45.909333 42.666667c25.6 0 45.866667-19.2 45.866667-42.666667 0.426667-23.466667-20.224-42.666667-45.866667-42.666667z m164.181334 0c-25.6 0-45.866667 19.2-45.866667 42.666667s20.693333 42.666667 45.866667 42.666667c25.642667 0 45.909333-19.2 45.909333-42.666667s-20.266667-42.666667-45.909333-42.666667zM896 981.333333l-212.906667-213.333333H810.666667V170.666667H213.333333v597.333333h469.461334l24.32 85.333333H213.333333a85.333333 85.333333 0 0 1-85.333333-85.333333V170.666667a85.333333 85.333333 0 0 1 85.333333-85.333334h597.333334a85.333333 85.333333 0 0 1 85.333333 85.333334v810.666666z" /></svg>