<?xml version="1.0" standalone="no"?>
<!DOCTYPE svg PUBLIC "-//W3C//DTD SVG 1.1//EN" "http://www.w3.org/Graphics/SVG/1.1/DTD/svg11.dtd">
<svg class="icon" style="width: 1em;height: 1em;vertical-align: middle;fill: currentColor;overflow: hidden;" viewBox="0 0 1024 1024" version="1.1" xmlns="http://www.w3.org/2000/svg"><path d="M119.808 59.434667l784.384 784.426666-60.330667 60.330667-159.872-159.872L512 916.693333l-361.813333-362.325333a256 256 0 0 1 1.450666-342.314667L59.434667 119.808l60.373333-60.373333z m92.672 436.48L512 795.904l111.658667-111.914667-411.52-411.52a170.709333 170.709333 0 0 0 0.341333 223.445334z m651.221333-292.949334a256 256 0 0 1 10.069334 351.402667l-69.76 69.802667-60.330667-60.330667 67.84-67.925333a170.624 170.624 0 0 0-8.234667-232.661334 170.581333 170.581333 0 0 0-234.24-6.528l-56.96 51.114667-57.002666-51.072a168.661333 168.661333 0 0 0-49.28-30.848l-96-96a255.573333 255.573333 0 0 1 202.24 63.317333 255.914667 255.914667 0 0 1 351.658666 9.728z" /></svg>