<?xml version="1.0" standalone="no"?>
<!DOCTYPE svg PUBLIC "-//W3C//DTD SVG 1.1//EN" "http://www.w3.org/Graphics/SVG/1.1/DTD/svg11.dtd">
<svg class="icon" style="width: 1em;height: 1em;vertical-align: middle;fill: currentColor;overflow: hidden;" viewBox="0 0 1024 1024" version="1.1" xmlns="http://www.w3.org/2000/svg"><path d="M512 85.333333c235.648 0 426.666667 191.018667 426.666667 426.666667s-191.018667 426.666667-426.666667 426.666667c-107.946667 0-206.506667-40.106667-281.642667-106.154667L64 853.333333l60.757333-162.005333A424.32 424.32 0 0 1 85.333333 512C85.333333 276.352 276.352 85.333333 512 85.333333zM341.333333 298.666667v426.666666h159.274667l11.221333-0.170666c144-4.394667 227.712-94.336 227.712-214.4v-1.152l-0.128-9.173334C735.146667 382.122667 648.96 298.666667 503.04 298.666667H341.333333z m163.456 104.874666c69.461333 0 115.584 39.594667 115.584 107.904v1.194667l-0.213333 7.808c-3.370667 64-48.554667 100.053333-115.370667 100.053333h-47.274666V403.541333h47.274666z" /></svg>