<?xml version="1.0" standalone="no"?>
<!DOCTYPE svg PUBLIC "-//W3C//DTD SVG 1.1//EN" "http://www.w3.org/Graphics/SVG/1.1/DTD/svg11.dtd">
<svg class="icon" style="width: 1em;height: 1em;vertical-align: middle;fill: currentColor;overflow: hidden;" viewBox="0 0 1024 1024" version="1.1" xmlns="http://www.w3.org/2000/svg"><path d="M852.864 493.738667a339.626667 339.626667 0 0 0-67.114667-185.642667 415.957333 415.957333 0 0 1-39.253333 37.12 561.365333 561.365333 0 0 1-141.354667 85.76c7.125333 14.933333 13.653333 29.397333 19.413334 43.050667v0.128a391.936 391.936 0 0 1 4.693333 11.52c64.597333-7.253333 132.693333-4.608 198.698667 4.309333 8.789333 1.194667 17.066667 2.474667 24.917333 3.754667z m-400.426667-317.866667a1969.664 1969.664 0 0 1 114.858667 182.186667c52.181333-20.565333 95.317333-46.506667 130.048-75.392a336.213333 336.213333 0 0 0 33.962667-32.213334A339.968 339.968 0 0 0 512 170.666667a343.466667 343.466667 0 0 0-59.562667 5.162666zM181.461333 426.538667a1246.293333 1246.293333 0 0 0 87.04-5.248 1345.28 1345.28 0 0 0 207.445334-35.072 2319.573333 2319.573333 0 0 0-115.2-180.352 342.101333 342.101333 0 0 0-179.285334 220.672z m65.28 300.288c16.554667-24.192 38.314667-51.413333 67.2-81.024 62.037333-63.573333 135.253333-113.066667 219.989334-140.373334l2.645333-0.768c-7.04-15.530667-13.653333-29.397333-20.309333-42.453333-78.336 22.826667-160.853333 37.077333-243.072 44.458667-40.106667 3.626667-76.074667 5.205333-102.528 5.461333a339.925333 339.925333 0 0 0 76.117333 214.698667z m393.472 101.546666a1533.738667 1533.738667 0 0 0-69.632-243.584c-85.418667 31.018667-153.472 76.373333-206.08 130.474667a416.853333 416.853333 0 0 0-56.192 70.613333A339.797333 339.797333 0 0 0 512 853.333333a340.352 340.352 0 0 0 128.213333-24.874666z m79.914667-45.866666a341.248 341.248 0 0 0 127.445333-207.786667c-14.506667-3.626667-32.896-7.253333-53.12-10.069333a512.981333 512.981333 0 0 0-135.68-1.408 1679.701333 1679.701333 0 0 1 61.354667 219.306666zM512 938.666667C276.352 938.666667 85.333333 747.648 85.333333 512S276.352 85.333333 512 85.333333s426.666667 191.018667 426.666667 426.666667-191.018667 426.666667-426.666667 426.666667z" /></svg>