<?xml version="1.0" standalone="no"?>
<!DOCTYPE svg PUBLIC "-//W3C//DTD SVG 1.1//EN" "http://www.w3.org/Graphics/SVG/1.1/DTD/svg11.dtd">
<svg class="icon" style="width: 1em;height: 1em;vertical-align: middle;fill: currentColor;overflow: hidden;" viewBox="0 0 1024 1024" version="1.1" xmlns="http://www.w3.org/2000/svg"><path d="M368.896 736.426667l144.725333 92.245333 144.725334-92.202667 79.36 50.56-224.085334 142.762667-224.085333-142.762667 79.36-50.56z m-37.418667-353.28l102.101334-66.261334-103.466667-67.157333L225.28 314.453333l106.24 68.693334z m78.506667 50.773333L512 500.010667l101.973333-66.005334L512 367.744l-102.016 66.218667z m180.522667 116.906667l103.424 66.901333 104.533333-64.085333-106.026667-68.778667-101.930666 65.92zM512 265.984l180.778667-117.248L958.293333 312.746667l-187.392 121.301333 187.434667 121.6-265.642667 162.944L512 601.6l-180.693333 116.906667-265.813334-162.858667 187.562667-121.642667L65.664 312.746667l265.557333-163.968L512 266.026667z m78.378667 50.858667L692.48 383.146667l106.197333-68.693334-104.789333-64.725333-103.509333 67.157333zM433.493333 550.826667l-101.973333-65.962667-106.069333 68.821333 104.576 64.085334 103.466666-66.944z" /></svg>