<?xml version="1.0" standalone="no"?>
<!DOCTYPE svg PUBLIC "-//W3C//DTD SVG 1.1//EN" "http://www.w3.org/Graphics/SVG/1.1/DTD/svg11.dtd">
<svg class="icon" style="width: 1em;height: 1em;vertical-align: middle;fill: currentColor;overflow: hidden;" viewBox="0 0 1024 1024" version="1.1" xmlns="http://www.w3.org/2000/svg"><path d="M640 85.333333l200.832 200.832a42.666667 42.666667 0 0 1 12.501333 30.165334V896a42.666667 42.666667 0 0 1-42.666666 42.666667H213.333333a42.666667 42.666667 0 0 1-42.666666-42.666667V128a42.666667 42.666667 0 0 1 42.666666-42.666667h426.666667z m-35.370667 85.333334H256v682.666666h512V334.037333L604.629333 170.666667zM512 320a128 128 0 0 1 85.717333 223.061333l-0.341333-0.341333 0.256 0.426667L537.386667 597.333333H640v85.333334H384v-61.994667l156.586667-140.970667A42.666667 42.666667 0 1 0 469.333333 448H384a128 128 0 0 1 128-128z" /></svg>