<?xml version="1.0" standalone="no"?>
<!DOCTYPE svg PUBLIC "-//W3C//DTD SVG 1.1//EN" "http://www.w3.org/Graphics/SVG/1.1/DTD/svg11.dtd">
<svg class="icon" style="width: 1em;height: 1em;vertical-align: middle;fill: currentColor;overflow: hidden;" viewBox="0 0 1024 1024" version="1.1" xmlns="http://www.w3.org/2000/svg"><path d="M170.666667 629.12a298.666667 298.666667 0 1 1 341.333333 0V896a42.666667 42.666667 0 0 1-42.666667 42.666667H213.333333a42.666667 42.666667 0 0 1-42.666666-42.666667v-266.88zM341.333333 597.333333A213.333333 213.333333 0 1 0 341.333333 170.666667a213.333333 213.333333 0 0 0 0 426.666666z m-42.666666 170.666667v85.333333h85.333333v-85.333333H298.666667z m42.666666-256a128 128 0 1 1 0-256 128 128 0 0 1 0 256z m256 213.333333v-55.125333A383.061333 383.061333 0 0 0 725.333333 384a382.549333 382.549333 0 0 0-97.792-256H896a42.666667 42.666667 0 0 1 42.666667 42.666667v512a42.666667 42.666667 0 0 1-42.666667 42.666666h-298.666667z m170.666667-426.666666v85.333333h85.333333V298.666667h-85.333333z" /></svg>