<?xml version="1.0" standalone="no"?>
<!DOCTYPE svg PUBLIC "-//W3C//DTD SVG 1.1//EN" "http://www.w3.org/Graphics/SVG/1.1/DTD/svg11.dtd">
<svg class="icon" style="width: 1em;height: 1em;vertical-align: middle;fill: currentColor;overflow: hidden;" viewBox="0 0 1024 1024" version="1.1" xmlns="http://www.w3.org/2000/svg"><path d="M495.274667 128H896a42.666667 42.666667 0 0 1 42.666667 42.666667v512a42.666667 42.666667 0 0 1-42.666667 42.666666h-298.666667v-85.333333h256V213.333333h-266.88A297.301333 297.301333 0 0 1 640 384a298.325333 298.325333 0 0 1-128 245.12V896a42.666667 42.666667 0 0 1-42.666667 42.666667H213.333333a42.666667 42.666667 0 0 1-42.666666-42.666667v-266.88A298.666667 298.666667 0 1 1 495.274667 128zM256 579.584V853.333333h170.666667v-273.749333a213.376 213.376 0 1 0-170.666667 0zM341.333333 512a128 128 0 1 1 0-256 128 128 0 0 1 0 256z m0-85.333333a42.666667 42.666667 0 1 0 0-85.333334 42.666667 42.666667 0 0 0 0 85.333334z m384-128h85.333334v85.333333h-85.333334V298.666667zM298.666667 725.333333h85.333333v85.333334H298.666667v-85.333334z" /></svg>