<?xml version="1.0" standalone="no"?>
<!DOCTYPE svg PUBLIC "-//W3C//DTD SVG 1.1//EN" "http://www.w3.org/Graphics/SVG/1.1/DTD/svg11.dtd">
<svg class="icon" style="width: 1em;height: 1em;vertical-align: middle;fill: currentColor;overflow: hidden;" viewBox="0 0 1024 1024" version="1.1" xmlns="http://www.w3.org/2000/svg"><path d="M512 85.333333c235.648 0 426.666667 191.018667 426.666667 426.666667s-191.018667 426.666667-426.666667 426.666667S85.333333 747.648 85.333333 512 276.352 85.333333 512 85.333333z m0 384c-85.333333 0-156.458667 14.208-213.333333 42.666667a213.333333 213.333333 0 0 0 426.666666 0c-56.874667-28.458667-128-42.666667-213.333333-42.666667zM362.666667 298.666667c-49.152 0-90.538667 33.28-102.912 78.506666L258.133333 384h209.066667A106.666667 106.666667 0 0 0 362.666667 298.666667z m298.666666 0c-49.152 0-90.538667 33.28-102.912 78.506666L556.8 384h209.066667a106.666667 106.666667 0 0 0-104.533334-85.333333z" /></svg>