<?xml version="1.0" standalone="no"?>
<!DOCTYPE svg PUBLIC "-//W3C//DTD SVG 1.1//EN" "http://www.w3.org/Graphics/SVG/1.1/DTD/svg11.dtd">
<svg class="icon" style="width: 1em;height: 1em;vertical-align: middle;fill: currentColor;overflow: hidden;" viewBox="0 0 1024 1024" version="1.1" xmlns="http://www.w3.org/2000/svg"><path d="M512 810.666667a64 64 0 1 1 0 128 64 64 0 0 1 0-128z m-234.666667 0a64 64 0 1 1 0 128 64 64 0 0 1 0-128z m469.333334 0a64 64 0 1 1 0 128 64 64 0 0 1 0-128zM768 128v85.333333H341.333333v170.666667h384v85.333333H341.333333v170.666667h426.666667v85.333333H256V128h512z" /></svg>