<?xml version="1.0" standalone="no"?>
<!DOCTYPE svg PUBLIC "-//W3C//DTD SVG 1.1//EN" "http://www.w3.org/Graphics/SVG/1.1/DTD/svg11.dtd">
<svg class="icon" style="width: 1em;height: 1em;vertical-align: middle;fill: currentColor;overflow: hidden;" viewBox="0 0 1024 1024" version="1.1" xmlns="http://www.w3.org/2000/svg"><path d="M512 810.666667a64 64 0 1 1 0 128 64 64 0 0 1 0-128z m-234.666667 0a64 64 0 1 1 0 128 64 64 0 0 1 0-128z m469.333334 0a64 64 0 1 1 0 128 64 64 0 0 1 0-128zM554.666667 85.333333v85.333334h256v85.333333h-83.968a777.472 777.472 0 0 1-154.496 268.885333 626.56 626.56 0 0 0 227.285333 129.792l-22.869333 82.346667A711.893333 711.893333 0 0 1 512 585.642667a712.362667 712.362667 0 0 1-264.618667 151.338666l-22.869333-82.304a627.2 627.2 0 0 0 227.285333-129.792 771.285333 771.285333 0 0 1-120.405333-183.466666h95.573333A683.989333 683.989333 0 0 0 512 464.042667 689.834667 689.834667 0 0 0 636.16 256H213.333333V170.666667h256V85.333333h85.333334z" /></svg>