<?xml version="1.0" standalone="no"?>
<!DOCTYPE svg PUBLIC "-//W3C//DTD SVG 1.1//EN" "http://www.w3.org/Graphics/SVG/1.1/DTD/svg11.dtd">
<svg class="icon" style="width: 1em;height: 1em;vertical-align: middle;fill: currentColor;overflow: hidden;" viewBox="0 0 1024 1024" version="1.1" xmlns="http://www.w3.org/2000/svg"><path d="M368.213333 330.837333c-9.216 8.576-23.296 9.258667-31.701333 9.258667h-90.026667c-26.026667 0-41.557333 0-52.053333 1.408-5.717333 0.725333-12.714667 3.584-16.256 4.992-1.408 0.682667-1.408 0-0.725333-0.682667l205.482666-210.773333c0.725333-0.725333 1.408-0.725333 0.725334 0.725333a73.984 73.984 0 0 0-4.949334 16.298667c-1.408 10.624-1.408 26.24-1.408 52.48v94.378667c0 8.533333-0.725333 22.741333-9.130666 31.914666z m199.765334 605.184c-23.893333-15.616-36.565333-36.181333-41.514667-48.938666a104.234667 104.234667 0 0 1-7.722667-39.04 107.221333 107.221333 0 0 1 106.965334-107.093334c17.578667 0 31.658667 14.165333 31.658666 31.914667a31.36 31.36 0 0 1-16.213333 27.648 40.362667 40.362667 0 0 1-11.946667 4.266667c-3.498667 0.725333-16.896 2.133333-23.168 7.808a33.109333 33.109333 0 0 0-12.714666 24.832 39.253333 39.253333 0 0 0 11.264 27.690666c12.672 12.757333 29.568 19.84 47.872 19.84a86.869333 86.869333 0 0 0 86.528-87.253333c0-43.264-28.842667-81.621333-66.858667-98.602667-5.632-2.858667-14.762667-4.992-23.210667-7.125333a286.677333 286.677333 0 0 0-21.12-3.541333c-29.568-3.584-103.424-26.965333-108.373333-92.928 0 0-21.76 99.328-65.450667 126.293333-4.181333 2.133333-9.813333 4.266667-16.170666 5.674667-6.314667 1.408-13.312 2.133333-15.488 2.133333-71.04 4.266667-146.346667-18.474667-198.4-72.362667 0 0-35.2-29.098667-53.461334-110.677333-4.224-19.882667-12.672-55.381333-17.578666-88.746667-2.133333-11.989333-2.858667-21.248-3.541334-29.781333 0-34.730667 21.12-58.154667 47.829334-61.653333h143.573333c24.576 0 38.698667-6.4 47.829333-14.933334 11.946667-11.349333 14.805333-27.690667 14.805334-46.848V154.922667c3.413333-26.24 26.752-48.256 61.184-48.256h16.896c7.04 0 15.488 0.725333 23.210666 1.408 5.632 0.725333 10.538667 2.133333 18.986667 4.266666 42.922667 10.666667 52.053333 54.613333 52.053333 54.613334l121.770667 21.333333c38.698667 7.082667 134.4 13.482667 152.661333 110.677333 42.922667 231.253333 16.896 455.466667 14.805334 455.466667-30.293333 218.496-210.389333 207.829333-210.389334 207.829333a146.176 146.176 0 0 1-86.570666-26.24z m111.872-439.850666c-1.408 3.584-2.816 7.808-2.133334 9.941333 0.768 2.133333 2.176 2.816 3.584 3.541333 8.448 4.266667 22.485333 6.4 42.922667 8.533334 20.394667 2.133333 34.474667 3.541333 43.605333 2.133333 1.408 0 2.858667-0.725333 4.266667-2.858667s0.682667-6.4 0.682667-9.941333c-2.133333-19.157333-19.712-33.322667-42.922667-36.181333-23.253333-2.133333-42.922667 7.125333-50.005333 24.832z" /></svg>