<?xml version="1.0" standalone="no"?>
<!DOCTYPE svg PUBLIC "-//W3C//DTD SVG 1.1//EN" "http://www.w3.org/Graphics/SVG/1.1/DTD/svg11.dtd">
<svg class="icon" style="width: 1em;height: 1em;vertical-align: middle;fill: currentColor;overflow: hidden;" viewBox="0 0 1024 1024" version="1.1" xmlns="http://www.w3.org/2000/svg"><path d="M229.248 192.426667A425.045333 425.045333 0 0 1 512 85.333333c235.648 0 426.666667 191.018667 426.666667 426.666667a424.704 424.704 0 0 1-76.501334 243.84L746.666667 512H853.333333A341.333333 341.333333 0 0 0 267.690667 273.621333l-38.4-81.152z m565.504 639.146666A425.045333 425.045333 0 0 1 512 938.666667C276.352 938.666667 85.333333 747.648 85.333333 512c0-90.666667 28.288-174.72 76.501334-243.84L277.333333 512H170.666667a341.333333 341.333333 0 0 0 585.642666 238.378667l38.4 81.152zM554.666667 577.493333h128v85.333334h-128v85.333333h-85.333334v-85.333333H341.333333v-85.333334h128v-42.666666H341.333333v-85.333334h110.336L361.130667 358.997333 421.546667 298.666667 512 389.162667 602.496 298.666667l60.373333 60.330666-90.538666 90.538667H682.666667v85.333333h-128v42.666667z" /></svg>