<?xml version="1.0" standalone="no"?>
<!DOCTYPE svg PUBLIC "-//W3C//DTD SVG 1.1//EN" "http://www.w3.org/Graphics/SVG/1.1/DTD/svg11.dtd">
<svg class="icon" style="width: 1em;height: 1em;vertical-align: middle;fill: currentColor;overflow: hidden;" viewBox="0 0 1024 1024" version="1.1" xmlns="http://www.w3.org/2000/svg"><path d="M826.666667 644.394667A341.376 341.376 0 0 0 342.613333 215.594667l-42.325333-74.112A426.496 426.496 0 0 1 725.333333 142.506667c191.573333 110.592 264.96 347.392 175.658667 544.853333l57.258667 33.024-177.706667 94.464-7.04-201.130667 53.162667 30.677334zM197.333333 379.605333a341.376 341.376 0 0 0 484.053334 428.8l42.325333 74.112A426.496 426.496 0 0 1 298.666667 881.493333C107.093333 770.901333 33.706667 534.101333 123.008 336.64L65.706667 303.658667l177.706666-94.464 7.04 201.130666-53.162666-30.677333zM362.666667 597.333333H597.333333a21.333333 21.333333 0 1 0 0-42.666666h-170.666666a106.666667 106.666667 0 1 1 0-213.333334h42.666666V298.666667h85.333334v42.666666h106.666666v85.333334H426.666667a21.333333 21.333333 0 1 0 0 42.666666h170.666666a106.666667 106.666667 0 1 1 0 213.333334h-42.666666v42.666666h-85.333334v-42.666666H362.666667v-85.333334z" /></svg>