<?xml version="1.0" standalone="no"?>
<!DOCTYPE svg PUBLIC "-//W3C//DTD SVG 1.1//EN" "http://www.w3.org/Graphics/SVG/1.1/DTD/svg11.dtd">
<svg class="icon" style="width: 1em;height: 1em;vertical-align: middle;fill: currentColor;overflow: hidden;" viewBox="0 0 1024 1024" version="1.1" xmlns="http://www.w3.org/2000/svg"><path d="M896 298.666667v597.034666A42.666667 42.666667 0 0 1 853.632 938.666667H170.368A42.368 42.368 0 0 1 128 896.341333V127.658667C128 104.746667 147.072 85.333333 170.581333 85.333333h511.957334L896 298.666667zM341.333333 341.333333v238.933334c0 36.266667 19.029333 70.101333 50.645334 90.197333L512 746.666667l120.021333-76.202667A107.093333 107.093333 0 0 0 682.666667 580.266667V341.333333H341.333333z m85.333334 85.333334h170.666666v153.6c0 6.741333-3.84 13.568-11.093333 18.176L512 645.546667l-74.24-47.146667c-7.253333-4.608-11.093333-11.434667-11.093333-18.176V426.666667z" /></svg>