<?xml version="1.0" standalone="no"?>
<!DOCTYPE svg PUBLIC "-//W3C//DTD SVG 1.1//EN" "http://www.w3.org/Graphics/SVG/1.1/DTD/svg11.dtd">
<svg class="icon" style="width: 1em;height: 1em;vertical-align: middle;fill: currentColor;overflow: hidden;" viewBox="0 0 1024 1024" version="1.1" xmlns="http://www.w3.org/2000/svg"><path d="M639.872 85.333333L896 341.333333l0.042667 181.76a233.429333 233.429333 0 0 0-85.333334-44.928L810.666667 384h-213.333334V170.666667H213.333333v682.666666h215.893334a201.813333 201.813333 0 0 0 34.858666 85.333334H170.368a42.368 42.368 0 0 1-42.069333-37.376L128 896.341333V127.658667c0-21.248 16.512-39.552 37.76-42.026667L170.752 85.333333h469.12zM746.666667 554.666667a149.333333 149.333333 0 0 1 149.333333 149.333333l-0.042667 4.394667a117.333333 117.333333 0 0 1-24.789333 230.058666L864 938.666667h-234.666667l-7.168-0.213334a117.333333 117.333333 0 0 1-24.704-230.058666L597.333333 704a149.333333 149.333333 0 0 1 149.333334-149.333333z m0 85.333333a64 64 0 0 0-62.848 51.84l-0.853334 5.973333L682.666667 704v69.12l-61.610667 17.322667a32 32 0 0 0 3.413333 62.549333l4.650667 0.341333h235.093333a32 32 0 0 0 8.106667-62.890666l-43.221333-12.074667L810.666667 773.12V704l-0.298667-6.144A64 64 0 0 0 746.666667 640z" /></svg>