<?xml version="1.0" standalone="no"?>
<!DOCTYPE svg PUBLIC "-//W3C//DTD SVG 1.1//EN" "http://www.w3.org/Graphics/SVG/1.1/DTD/svg11.dtd">
<svg class="icon" style="width: 1em;height: 1em;vertical-align: middle;fill: currentColor;overflow: hidden;" viewBox="0 0 1024 1024" version="1.1" xmlns="http://www.w3.org/2000/svg"><path d="M481.706667 853.333333a296.96 296.96 0 0 0 41.173333 85.333334H170.368A42.666667 42.666667 0 0 1 128 896.341333V127.658667C128 104.277333 147.072 85.333333 170.624 85.333333H682.666667l213.333333 213.333334v199.424a296.533333 296.533333 0 0 0-85.333333-25.728V341.333333h-170.666667V170.666667H213.333333v682.666666h268.373334zM768 981.333333a213.333333 213.333333 0 1 1 0-426.666666 213.333333 213.333333 0 0 1 0 426.666666z m-55.168-97.792a128 128 0 0 0 170.709333-170.709333l-170.709333 170.666667z m-60.373333-60.373333l170.709333-170.666667a128 128 0 0 0-170.709333 170.709334z" /></svg>