<?xml version="1.0" standalone="no"?>
<!DOCTYPE svg PUBLIC "-//W3C//DTD SVG 1.1//EN" "http://www.w3.org/Graphics/SVG/1.1/DTD/svg11.dtd">
<svg class="icon" style="width: 1em;height: 1em;vertical-align: middle;fill: currentColor;overflow: hidden;" viewBox="0 0 1024 1024" version="1.1" xmlns="http://www.w3.org/2000/svg"><path d="M121.984 122.752l536.32-76.586667a21.333333 21.333333 0 0 1 24.362667 21.12v889.429334a21.333333 21.333333 0 0 1-24.32 21.12L121.941333 901.248a42.666667 42.666667 0 0 1-36.650666-42.24V164.992a42.666667 42.666667 0 0 1 36.650666-42.24zM170.666667 202.026667v619.946666l426.666666 60.970667V141.056L170.666667 202.026667zM725.333333 810.666667h128V213.333333h-128V128h170.666667a42.666667 42.666667 0 0 1 42.666667 42.666667v682.666666a42.666667 42.666667 0 0 1-42.666667 42.666667h-170.666667v-85.333333z m-290.133333-298.666667l119.466667 170.666667h-102.4L384 585.130667 315.733333 682.666667H213.333333l119.466667-170.666667L213.333333 341.333333h102.4L384 438.869333 452.266667 341.333333H554.666667l-119.466667 170.666667z" /></svg>