<?xml version="1.0" standalone="no"?>
<!DOCTYPE svg PUBLIC "-//W3C//DTD SVG 1.1//EN" "http://www.w3.org/Graphics/SVG/1.1/DTD/svg11.dtd">
<svg class="icon" style="width: 1em;height: 1em;vertical-align: middle;fill: currentColor;overflow: hidden;" viewBox="0 0 1024 1024" version="1.1" xmlns="http://www.w3.org/2000/svg"><path d="M896 650.368v245.973333a42.368 42.368 0 0 1-42.368 42.325334H170.368A42.666667 42.666667 0 0 1 128 895.701333V384h256a42.666667 42.666667 0 0 0 42.666667-42.666667V85.333333h426.752c23.509333 0 42.581333 19.413333 42.581333 42.325334v160.64l-383.957333 384-0.256 180.821333 181.162666 0.256L896 650.368z m33.194667-274.56l60.330666 60.330667L657.664 768l-60.416-0.085333 0.085333-60.245334 331.861334-331.861333zM128 298.666667l213.333333-213.205334V298.666667H128z" /></svg>