<?xml version="1.0" standalone="no"?>
<!DOCTYPE svg PUBLIC "-//W3C//DTD SVG 1.1//EN" "http://www.w3.org/Graphics/SVG/1.1/DTD/svg11.dtd">
<svg class="icon" style="width: 1em;height: 1em;vertical-align: middle;fill: currentColor;overflow: hidden;" viewBox="0 0 1024 1024" version="1.1" xmlns="http://www.w3.org/2000/svg"><path d="M597.333333 341.333333V170.666667H213.333333v682.666666h597.333334V384h-128v197.12c0 36.010667-19.029333 69.674667-50.645334 89.642667L512 746.581333 391.978667 670.72C360.362667 650.794667 341.333333 617.130667 341.333333 581.12V341.333333h256z m298.666667 0v554.368A42.666667 42.666667 0 0 1 853.632 938.666667H170.368A42.368 42.368 0 0 1 128 896.341333V127.658667C128 104.746667 147.157333 85.333333 170.752 85.333333h469.12L896 341.333333z m-469.333333 239.786667c0 6.4 3.712 12.970667 10.88 17.493333L512 645.632l74.453333-47.018667c7.168-4.522667 10.88-11.093333 10.88-17.493333V426.666667h-170.666666v154.453333z" /></svg>