<?xml version="1.0" standalone="no"?>
<!DOCTYPE svg PUBLIC "-//W3C//DTD SVG 1.1//EN" "http://www.w3.org/Graphics/SVG/1.1/DTD/svg11.dtd">
<svg class="icon" style="width: 1em;height: 1em;vertical-align: middle;fill: currentColor;overflow: hidden;" viewBox="0 0 1024 1024" version="1.1" xmlns="http://www.w3.org/2000/svg"><path d="M639.872 85.333333L896 341.333333l0.042667 181.76A233.216 233.216 0 0 0 746.666667 469.333333l-9.429334 0.170667a234.794667 234.794667 0 0 0-218.752 179.413333l-0.682666 3.157334-1.28 0.853333A202.666667 202.666667 0 0 0 464.128 938.666667H170.368a42.368 42.368 0 0 1-42.069333-37.376L128 896.341333V127.658667c0-21.248 16.512-39.552 37.76-42.026667L170.752 85.333333h469.12zM746.666667 554.666667a149.333333 149.333333 0 0 1 149.333333 149.333333l-0.042667 4.394667a117.333333 117.333333 0 0 1-24.789333 230.058666L864 938.666667h-234.666667l-7.168-0.213334a117.333333 117.333333 0 0 1-24.704-230.058666L597.333333 704a149.333333 149.333333 0 0 1 149.333334-149.333333z" /></svg>