<?xml version="1.0" standalone="no"?>
<!DOCTYPE svg PUBLIC "-//W3C//DTD SVG 1.1//EN" "http://www.w3.org/Graphics/SVG/1.1/DTD/svg11.dtd">
<svg class="icon" style="width: 1em;height: 1em;vertical-align: middle;fill: currentColor;overflow: hidden;" viewBox="0 0 1024 1024" version="1.1" xmlns="http://www.w3.org/2000/svg"><path d="M682.666667 85.333333l213.333333 213.333334v597.034666A42.666667 42.666667 0 0 1 853.632 938.666667H170.368A42.666667 42.666667 0 0 1 128 896.341333V127.658667C128 104.277333 147.072 85.333333 170.624 85.333333H682.666667z m-42.666667 85.333334H213.333333v682.666666h597.333334V341.333333h-170.666667V170.666667z m-85.333333 256v213.333333h-42.666667v-213.333333h42.666667z m-85.333334 0v42.666666H384a42.666667 42.666667 0 0 0-42.666667 42.666667v42.666667a42.666667 42.666667 0 0 0 42.666667 42.666666h42.666667v-42.666666H384v-42.666667h85.333333v85.333333a42.666667 42.666667 0 0 1-42.666666 42.666667H384a85.333333 85.333333 0 0 1-85.333333-85.333333v-42.666667a85.333333 85.333333 0 0 1 85.333333-85.333333h85.333333z m256 0v42.666666h-85.333333v42.666667h85.333333v42.666667h-85.333333v85.333333h-42.666667v-213.333333h128z" /></svg>