<?xml version="1.0" standalone="no"?>
<!DOCTYPE svg PUBLIC "-//W3C//DTD SVG 1.1//EN" "http://www.w3.org/Graphics/SVG/1.1/DTD/svg11.dtd">
<svg class="icon" style="width: 1em;height: 1em;vertical-align: middle;fill: currentColor;overflow: hidden;" viewBox="0 0 1024 1024" version="1.1" xmlns="http://www.w3.org/2000/svg"><path d="M640 170.666667H213.333333v682.666666h597.333334V341.333333h-170.666667V170.666667zM128 127.658667C128 104.277333 147.072 85.333333 170.624 85.333333H682.666667l213.333333 213.333334v597.034666A42.666667 42.666667 0 0 1 853.632 938.666667H170.368A42.666667 42.666667 0 0 1 128 896.341333V127.658667z m449.237333 488.704a170.752 170.752 0 0 1-207.36-267.690667 170.666667 170.666667 0 0 1 267.690667 207.36l94.293333 94.293333-60.330666 60.373334-94.293334-94.293334z m-26.368-86.698667a85.333333 85.333333 0 1 0-120.661333-120.661333 85.333333 85.333333 0 0 0 120.661333 120.661333z" /></svg>