<?xml version="1.0" standalone="no"?>
<!DOCTYPE svg PUBLIC "-//W3C//DTD SVG 1.1//EN" "http://www.w3.org/Graphics/SVG/1.1/DTD/svg11.dtd">
<svg class="icon" style="width: 1em;height: 1em;vertical-align: middle;fill: currentColor;overflow: hidden;" viewBox="0 0 1024 1024" version="1.1" xmlns="http://www.w3.org/2000/svg"><path d="M366.72 546.645333a149.76 149.76 0 0 1 0-69.248l-42.325333-24.448 42.666666-73.898666 42.325334 24.448A149.162667 149.162667 0 0 1 469.333333 368.853333V320h85.333334v48.853333c22.698667 6.741333 43.178667 18.773333 59.946666 34.645334l42.325334-24.448 42.666666 73.898666-42.325333 24.448a149.76 149.76 0 0 1 0 69.205334l42.325333 24.448-42.666666 73.898666-42.325334-24.448a149.162667 149.162667 0 0 1-59.946666 34.645334V704h-85.333334v-48.853333a149.162667 149.162667 0 0 1-59.946666-34.645334l-42.325334 24.448-42.666666-73.898666 42.325333-24.405334zM512 576a64 64 0 1 0 0-128 64 64 0 0 0 0 128zM640 170.666667H213.333333v682.666666h597.333334V341.333333h-170.666667V170.666667zM128 127.658667C128 104.277333 147.072 85.333333 170.624 85.333333H682.666667l213.333333 213.333334v597.034666A42.666667 42.666667 0 0 1 853.632 938.666667H170.368A42.666667 42.666667 0 0 1 128 896.341333V127.658667z" /></svg>