<?xml version="1.0" standalone="no"?>
<!DOCTYPE svg PUBLIC "-//W3C//DTD SVG 1.1//EN" "http://www.w3.org/Graphics/SVG/1.1/DTD/svg11.dtd">
<svg class="icon" style="width: 1em;height: 1em;vertical-align: middle;fill: currentColor;overflow: hidden;" viewBox="0 0 1024 1024" version="1.1" xmlns="http://www.w3.org/2000/svg"><path d="M896 128a42.666667 42.666667 0 0 1 42.666667 42.666667v682.666666a42.666667 42.666667 0 0 1-42.666667 42.666667H128a42.666667 42.666667 0 0 1-42.666667-42.666667V170.666667a42.666667 42.666667 0 0 1 42.666667-42.666667h768z m-42.666667 85.333333h-361.173333c-29.44 84.352-44.16 198.144-44.16 341.333334h128c-4.906667 39.253333-6.4 80.128-4.565333 122.752 52.309333-9.002667 115.370667-33.152 171.818666-72.96l48.426667 71.04c-70.058667 46.72-140.928 75.904-212.309333 87.168 2.218667 15.786667 4.821333 31.786667 7.850666 48H853.333333V213.333333zM279.68 604.501333l-47.36 70.997334C324.352 736.853333 417.792 768 512 768v-85.333333c-76.458667 0-153.685333-25.728-232.32-78.165334zM725.333333 298.666667a42.666667 42.666667 0 0 1 42.666667 42.666666v42.666667a42.666667 42.666667 0 0 1-85.333333 0V341.333333a42.666667 42.666667 0 0 1 42.666666-42.666666zM298.666667 298.666667c-23.552 0-42.666667 19.285333-42.666667 42.666666v42.666667a42.666667 42.666667 0 0 0 85.333333 0V341.333333a42.666667 42.666667 0 0 0-42.666666-42.666666z" /></svg>