<?xml version="1.0" standalone="no"?>
<!DOCTYPE svg PUBLIC "-//W3C//DTD SVG 1.1//EN" "http://www.w3.org/Graphics/SVG/1.1/DTD/svg11.dtd">
<svg class="icon" style="width: 1em;height: 1em;vertical-align: middle;fill: currentColor;overflow: hidden;" viewBox="0 0 1024 1024" version="1.1" xmlns="http://www.w3.org/2000/svg"><path d="M682.666667 745.472A255.061333 255.061333 0 0 0 853.333333 810.666667h85.333334v85.333333h-85.333334a339.754667 339.754667 0 0 1-170.666666-45.653333A339.626667 339.626667 0 0 1 512 896a339.754667 339.754667 0 0 1-170.666667-45.653333A339.626667 339.626667 0 0 1 170.666667 896H85.333333v-85.333333h85.333334c65.578667 0 125.44-24.661333 170.666666-65.194667A255.061333 255.061333 0 0 0 512 810.666667c65.578667 0 125.44-24.661333 170.666667-65.194667z m-146.218667-680.106667l4.266667 3.413334L981.333333 469.333333h-128v256a212.992 212.992 0 0 1-170.666666-85.333333 212.906667 212.906667 0 0 1-170.666667 85.333333 212.992 212.992 0 0 1-170.666667-85.333333 212.906667 212.906667 0 0 1-170.666666 85.333333l-0.042667-256H42.666667l440.618666-400.554666a42.666667 42.666667 0 0 1 48.64-6.186667l4.522667 2.773333z" /></svg>