<?xml version="1.0" standalone="no"?>
<!DOCTYPE svg PUBLIC "-//W3C//DTD SVG 1.1//EN" "http://www.w3.org/Graphics/SVG/1.1/DTD/svg11.dtd">
<svg class="icon" style="width: 1em;height: 1em;vertical-align: middle;fill: currentColor;overflow: hidden;" viewBox="0 0 1024 1024" version="1.1" xmlns="http://www.w3.org/2000/svg"><path d="M529.664 213.333333H896a42.666667 42.666667 0 0 1 42.666667 42.666667v597.333333a42.666667 42.666667 0 0 1-42.666667 42.666667H128a42.666667 42.666667 0 0 1-42.666667-42.666667V170.666667a42.666667 42.666667 0 0 1 42.666667-42.666667h316.330667l85.333333 85.333333zM170.666667 213.333333v597.333334h682.666666V298.666667h-358.997333l-85.333333-85.333334H170.666667z m195.882666 375.850667a149.674667 149.674667 0 0 1 0-69.205333l-42.282666-24.405334 42.666666-73.898666 42.282667 24.448a149.12 149.12 0 0 1 59.904-34.645334V362.666667h85.333333v48.810666c22.698667 6.784 43.093333 18.773333 59.861334 34.645334l42.325333-24.448 42.666667 73.856-42.282667 24.448a149.674667 149.674667 0 0 1 0 69.205333l42.282667 24.405333-42.666667 73.856-42.282667-24.405333a149.12 149.12 0 0 1-59.904 34.602667v48.853333h-85.333333V697.6a149.12 149.12 0 0 1-59.904-34.602667l-42.282667 24.405334-42.666666-73.813334 42.282666-24.448z m145.237334 29.354667a64 64 0 1 0 0-127.914667 64 64 0 0 0 0 127.914667z" /></svg>