<?xml version="1.0" standalone="no"?>
<!DOCTYPE svg PUBLIC "-//W3C//DTD SVG 1.1//EN" "http://www.w3.org/Graphics/SVG/1.1/DTD/svg11.dtd">
<svg class="icon" style="width: 1em;height: 1em;vertical-align: middle;fill: currentColor;overflow: hidden;" viewBox="0 0 1024 1024" version="1.1" xmlns="http://www.w3.org/2000/svg"><path d="M938.666667 426.666667H512v314.965333c0 60.117333 26.965333 116.650667 72.746667 154.368H128a42.666667 42.666667 0 0 1-42.666667-42.666667V170.666667a42.666667 42.666667 0 0 1 42.666667-42.666667h316.330667l85.333333 85.333333H896a42.666667 42.666667 0 0 1 42.666667 42.666667v170.666667z m-341.333334 85.333333h341.333334v229.632c0 38.272-19.029333 73.984-50.645334 95.146667L768 917.290667l-120.021333-80.426667A114.56 114.56 0 0 1 597.333333 741.674667V512z" /></svg>