<?xml version="1.0" standalone="no"?>
<!DOCTYPE svg PUBLIC "-//W3C//DTD SVG 1.1//EN" "http://www.w3.org/Graphics/SVG/1.1/DTD/svg11.dtd">
<svg class="icon" style="width: 1em;height: 1em;vertical-align: middle;fill: currentColor;overflow: hidden;" viewBox="0 0 1024 1024" version="1.1" xmlns="http://www.w3.org/2000/svg"><path d="M529.664 213.333333H896a42.666667 42.666667 0 0 1 42.666667 42.666667v597.333333a42.666667 42.666667 0 0 1-42.666667 42.666667H128a42.666667 42.666667 0 0 1-42.666667-42.666667V170.666667a42.666667 42.666667 0 0 1 42.666667-42.666667h316.330667l85.333333 85.333333zM640 554.666667v-42.666667a128 128 0 0 0-256 0v42.666667H341.333333v170.666666h341.333334v-170.666666h-42.666667z m-85.333333 0h-85.333334v-42.666667a42.666667 42.666667 0 0 1 85.333334 0v42.666667z" /></svg>