<?xml version="1.0" standalone="no"?>
<!DOCTYPE svg PUBLIC "-//W3C//DTD SVG 1.1//EN" "http://www.w3.org/Graphics/SVG/1.1/DTD/svg11.dtd">
<svg class="icon" style="width: 1em;height: 1em;vertical-align: middle;fill: currentColor;overflow: hidden;" viewBox="0 0 1024 1024" version="1.1" xmlns="http://www.w3.org/2000/svg"><path d="M742.784 810.666667c-33.109333-102.357333-97.152-165.76-182.016-239.018667A467.370667 467.370667 0 0 1 853.333333 469.333333V128h43.008c23.381333 0 42.325333 18.986667 42.325334 42.368v683.264a42.666667 42.666667 0 0 1-42.325334 42.368H127.658667A42.368 42.368 0 0 1 85.333333 853.632V170.368A42.666667 42.666667 0 0 1 127.658667 128H256V42.666667h85.333333v170.666666H170.666667v298.666667c222.72 0 412.245333 105.045333 482.688 298.666667h89.429333zM768 42.666667v170.666666h-341.333333V128h256V42.666667h85.333333z m-64 384a64 64 0 1 1 0-128 64 64 0 0 1 0 128z" /></svg>