<?xml version="1.0" standalone="no"?>
<!DOCTYPE svg PUBLIC "-//W3C//DTD SVG 1.1//EN" "http://www.w3.org/Graphics/SVG/1.1/DTD/svg11.dtd">
<svg class="icon" style="width: 1em;height: 1em;vertical-align: middle;fill: currentColor;overflow: hidden;" viewBox="0 0 1024 1024" version="1.1" xmlns="http://www.w3.org/2000/svg"><path d="M341.333333 42.666667v170.666666H170.666667v597.333334h682.666666V128h43.008c23.381333 0 42.325333 18.986667 42.325334 42.368v683.264a42.666667 42.666667 0 0 1-42.325334 42.368H127.658667A42.368 42.368 0 0 1 85.333333 853.632V170.368A42.666667 42.666667 0 0 1 127.658667 128H256V42.666667h85.333333z m170.666667 298.666666l170.666667 170.666667h-128v170.666667h-85.333334v-170.666667H341.333333l170.666667-170.666667z m256-298.666666v170.666666h-341.333333V128h256V42.666667h85.333333z" /></svg>