<?xml version="1.0" standalone="no"?>
<!DOCTYPE svg PUBLIC "-//W3C//DTD SVG 1.1//EN" "http://www.w3.org/Graphics/SVG/1.1/DTD/svg11.dtd">
<svg class="icon" style="width: 1em;height: 1em;vertical-align: middle;fill: currentColor;overflow: hidden;" viewBox="0 0 1024 1024" version="1.1" xmlns="http://www.w3.org/2000/svg"><path d="M725.333333 170.666667a256 256 0 0 1 256 256v170.666666a256 256 0 0 1-256 256H298.666667a256 256 0 0 1-256-256v-170.666666a256 256 0 0 1 256-256h426.666666z m-298.666666 213.333333H341.333333v85.333333H256v85.333334h85.290667L341.333333 640h85.333334l-0.042667-85.333333H512v-85.333334h-85.333333V384z m341.333333 170.666667h-85.333333v85.333333h85.333333v-85.333333z m-85.333333-170.666667h-85.333334v85.333333h85.333334V384z" /></svg>