<?xml version="1.0" standalone="no"?>
<!DOCTYPE svg PUBLIC "-//W3C//DTD SVG 1.1//EN" "http://www.w3.org/Graphics/SVG/1.1/DTD/svg11.dtd">
<svg class="icon" style="width: 1em;height: 1em;vertical-align: middle;fill: currentColor;overflow: hidden;" viewBox="0 0 1024 1024" version="1.1" xmlns="http://www.w3.org/2000/svg"><path d="M512 85.333333C277.333333 85.333333 85.333333 277.333333 85.333333 512s192 426.666667 426.666667 426.666667 426.666667-192 426.666667-426.666667S746.666667 85.333333 512 85.333333zM274.304 749.696c-64-64-97.536-149.333333-97.536-231.594667l332.202667 329.130667c-85.333333-3.029333-170.666667-33.536-234.666667-97.536z m310.826667 88.405333l-399.232-399.232c33.536-149.333333 167.637333-262.101333 326.101333-262.101333 112.768 0 210.304 54.869333 271.232 137.130667l-45.696 39.637333C685.653333 283.434667 603.434667 237.653333 512 237.653333c-118.869333 0-219.434667 76.202667-259.029333 182.869334l350.464 350.464c88.362667-30.464 155.434667-106.666667 176.768-198.058667h-146.304V512h213.333333c0 158.464-112.768 292.565333-262.101333 326.101333z" /></svg>