<?xml version="1.0" standalone="no"?>
<!DOCTYPE svg PUBLIC "-//W3C//DTD SVG 1.1//EN" "http://www.w3.org/Graphics/SVG/1.1/DTD/svg11.dtd">
<svg class="icon" style="width: 1em;height: 1em;vertical-align: middle;fill: currentColor;overflow: hidden;" viewBox="0 0 1024 1024" version="1.1" xmlns="http://www.w3.org/2000/svg"><path d="M512 85.333333a384 384 0 0 1 384 384v320a149.333333 149.333333 0 0 1-272.64 84.309334 127.957333 127.957333 0 0 1-222.848 0 149.333333 149.333333 0 0 1-272.298667-76.074667L128 789.290667V469.333333a384 384 0 0 1 384-384z m0 85.333334a298.666667 298.666667 0 0 0-298.496 288.426666L213.333333 469.333333v317.696l0.085334 5.888a64 64 0 0 0 112.853333 37.546667l3.754667-4.949333a85.333333 85.333333 0 0 1 144.768 6.058666 42.624 42.624 0 0 0 74.24 0.128 85.333333 85.333333 0 0 1 140.629333-11.861333l4.138667 5.546667a64 64 0 0 0 116.608-29.909334L810.666667 789.333333V469.333333a298.666667 298.666667 0 0 0-298.666667-298.666666z m170.666667 384a170.666667 170.666667 0 0 1-341.12 8.533333L341.333333 554.666667h85.333334a85.333333 85.333333 0 1 0 170.666666 0h85.333334z m-170.666667-256a85.333333 85.333333 0 1 1 0 170.666666 85.333333 85.333333 0 0 1 0-170.666666z" /></svg>