<?xml version="1.0" standalone="no"?>
<!DOCTYPE svg PUBLIC "-//W3C//DTD SVG 1.1//EN" "http://www.w3.org/Graphics/SVG/1.1/DTD/svg11.dtd">
<svg class="icon" style="width: 1em;height: 1em;vertical-align: middle;fill: currentColor;overflow: hidden;" viewBox="0 0 1024 1024" version="1.1" xmlns="http://www.w3.org/2000/svg"><path d="M618.666667 85.333333a149.333333 149.333333 0 0 1 134.954666 213.376L896 298.666667a42.666667 42.666667 0 0 1 42.666667 42.666666v170.666667a42.666667 42.666667 0 0 1-42.666667 42.666667h-42.666667v341.333333a42.666667 42.666667 0 0 1-42.666666 42.666667H213.333333a42.666667 42.666667 0 0 1-42.666666-42.666667v-341.333333H128a42.666667 42.666667 0 0 1-42.666667-42.666667V341.333333a42.666667 42.666667 0 0 1 42.666667-42.666666l142.378667 0.042666a149.333333 149.333333 0 0 1 241.664-168.533333A148.48 148.48 0 0 1 618.666667 85.333333zM768 554.666667H256v298.666666h512v-298.666666z m85.333333-170.666667H170.666667v85.333333h682.666666V384zM405.333333 170.666667a64 64 0 0 0-6.144 127.701333L405.333333 298.666667H469.333333V234.666667a64 64 0 0 0-57.856-63.701334L405.333333 170.666667z m213.333334 0l-6.144 0.298666a64 64 0 0 0-57.6 57.557334L554.666667 234.666667V298.666667h64l6.144-0.298667a64 64 0 0 0 0-127.402667L618.666667 170.666667z" /></svg>