<?xml version="1.0" standalone="no"?>
<!DOCTYPE svg PUBLIC "-//W3C//DTD SVG 1.1//EN" "http://www.w3.org/Graphics/SVG/1.1/DTD/svg11.dtd">
<svg class="icon" style="width: 1em;height: 1em;vertical-align: middle;fill: currentColor;overflow: hidden;" viewBox="0 0 1024 1024" version="1.1" xmlns="http://www.w3.org/2000/svg"><path d="M87.466667 554.666667h233.685333a763.733333 763.733333 0 0 0 124.8 378.88A426.88 426.88 0 0 1 87.466667 554.666667z m0-85.333334a426.88 426.88 0 0 1 358.485333-378.88A763.733333 763.733333 0 0 0 321.152 469.333333H87.466667z m849.066666 0h-233.685333a763.733333 763.733333 0 0 0-124.8-378.88A426.88 426.88 0 0 1 936.533333 469.333333z m0 85.333334a426.88 426.88 0 0 1-358.485333 378.88A763.733333 763.733333 0 0 0 702.848 554.666667h233.728zM406.613333 554.666667h210.773334A678.741333 678.741333 0 0 1 512 878.592 678.741333 678.741333 0 0 1 406.613333 554.666667z m0-85.333334A678.741333 678.741333 0 0 1 512 145.408 678.741333 678.741333 0 0 1 617.386667 469.333333H406.613333z" /></svg>