<?xml version="1.0" standalone="no"?>
<!DOCTYPE svg PUBLIC "-//W3C//DTD SVG 1.1//EN" "http://www.w3.org/Graphics/SVG/1.1/DTD/svg11.dtd">
<svg class="icon" style="width: 1em;height: 1em;vertical-align: middle;fill: currentColor;overflow: hidden;" viewBox="0 0 1024 1024" version="1.1" xmlns="http://www.w3.org/2000/svg"><path d="M170.666667 73.984a42.666667 42.666667 0 0 1 21.376 5.76l682.837333 395.349333a42.666667 42.666667 0 0 1 0 73.813334L192.042667 944.256A42.666667 42.666667 0 0 1 128 907.349333V116.650667a42.666667 42.666667 0 0 1 42.666667-42.666667z m353.792 498.346667l-191.914667 191.914666 243.157333-140.757333-51.2-51.2zM213.333333 261.034667v501.76l250.88-250.88L213.333333 261.034667z m438.784 183.552L584.789333 512l67.328 67.285333L768.341333 512l-116.266666-67.370667z m-319.573333-185.002667l192 192 51.157333-51.2-243.157333-140.8z" /></svg>