<?xml version="1.0" standalone="no"?>
<!DOCTYPE svg PUBLIC "-//W3C//DTD SVG 1.1//EN" "http://www.w3.org/Graphics/SVG/1.1/DTD/svg11.dtd">
<svg class="icon" style="width: 1em;height: 1em;vertical-align: middle;fill: currentColor;overflow: hidden;" viewBox="0 0 1024 1024" version="1.1" xmlns="http://www.w3.org/2000/svg"><path d="M304.298667 884.778667A426.538667 426.538667 0 0 1 85.333333 512C85.333333 276.352 276.352 85.333333 512 85.333333s426.666667 191.018667 426.666667 426.666667a426.538667 426.538667 0 0 1-218.965334 372.778667l-38.229333-76.416a341.333333 341.333333 0 1 0-338.986667 0l-38.186666 76.416z m76.458666-152.917334a256 256 0 1 1 262.442667 0l-38.314667-76.672a170.666667 170.666667 0 1 0-185.770666 0l-38.357334 76.672zM512 682.666667l128 256H384l128-256z" /></svg>