<?xml version="1.0" standalone="no"?>
<!DOCTYPE svg PUBLIC "-//W3C//DTD SVG 1.1//EN" "http://www.w3.org/Graphics/SVG/1.1/DTD/svg11.dtd">
<svg class="icon" style="width: 1em;height: 1em;vertical-align: middle;fill: currentColor;overflow: hidden;" viewBox="0 0 1024 1024" version="1.1" xmlns="http://www.w3.org/2000/svg"><path d="M398.08 490.666667h92.586667A192 192 0 0 1 682.666667 682.666667H383.957333L384 725.333333h341.333333v-42.666666a237.994667 237.994667 0 0 0-37.802666-128H810.666667a213.333333 213.333333 0 0 1 192.682666 121.642666C902.442667 809.472 739.072 896 554.666667 896c-117.802667 0-217.6-25.173333-298.666667-69.333333v-396.970667A297.258667 297.258667 0 0 1 398.08 490.666667zM170.666667 384a42.666667 42.666667 0 0 1 42.368 37.674667L213.333333 426.666667v384a42.666667 42.666667 0 0 1-42.666666 42.666666H85.333333a42.666667 42.666667 0 0 1-42.666666-42.666666v-384a42.666667 42.666667 0 0 1 42.666666-42.666667h85.333334z m411.562666-231.466667L597.333333 167.68l15.104-15.104a106.666667 106.666667 0 1 1 150.826667 150.869333L597.333333 469.333333l-165.973333-165.973333a106.666667 106.666667 0 1 1 150.869333-150.826667z" /></svg>