<?xml version="1.0" standalone="no"?>
<!DOCTYPE svg PUBLIC "-//W3C//DTD SVG 1.1//EN" "http://www.w3.org/Graphics/SVG/1.1/DTD/svg11.dtd">
<svg class="icon" style="width: 1em;height: 1em;vertical-align: middle;fill: currentColor;overflow: hidden;" viewBox="0 0 1024 1024" version="1.1" xmlns="http://www.w3.org/2000/svg"><path d="M213.333333 466.688A341.504 341.504 0 0 0 509.354667 170.666667H213.333333v296.021333z m0 85.888V853.333333h597.333334V170.666667h-215.466667A426.794667 426.794667 0 0 1 213.333333 552.533333zM170.666667 85.333333h682.666666a42.666667 42.666667 0 0 1 42.666667 42.666667v768a42.666667 42.666667 0 0 1-42.666667 42.666667H170.666667a42.666667 42.666667 0 0 1-42.666667-42.666667V128a42.666667 42.666667 0 0 1 42.666667-42.666667z m469.333333 597.333334h85.333333v85.333333h-85.333333v-85.333333z" /></svg>