<?xml version="1.0" standalone="no"?>
<!DOCTYPE svg PUBLIC "-//W3C//DTD SVG 1.1//EN" "http://www.w3.org/Graphics/SVG/1.1/DTD/svg11.dtd">
<svg class="icon" style="width: 1em;height: 1em;vertical-align: middle;fill: currentColor;overflow: hidden;" viewBox="0 0 1024 1024" version="1.1" xmlns="http://www.w3.org/2000/svg"><path d="M512 810.666667a64 64 0 1 1 0 128 64 64 0 0 1 0-128z m320 0a64 64 0 1 1 0 128 64 64 0 0 1 0-128z m-640 0a64 64 0 1 1 0 128 64 64 0 0 1 0-128zM725.333333 298.666667a213.333333 213.333333 0 0 1 0 426.666666c-78.677333 0-149.76-44.373333-213.333333-133.205333C448.426667 680.96 377.344 725.333333 298.666667 725.333333A213.333333 213.333333 0 0 1 298.666667 298.666667c78.677333 0 149.76 44.373333 213.333333 133.205333C575.573333 343.04 646.656 298.666667 725.333333 298.666667zM298.666667 384a128 128 0 0 0 0 256c53.504 0 107.093333-37.333333 160.384-121.770667l3.797333-6.272-3.84-6.186666c-51.072-80.896-102.4-118.613333-153.642667-121.6L298.666667 384z m426.666666 0c-53.504 0-107.093333 37.333333-160.384 121.770667l-3.84 6.229333 3.84 6.229333c51.114667 80.896 102.4 118.613333 153.685334 121.6L725.333333 640a128 128 0 0 0 0-256z m-213.333333-298.666667a64 64 0 1 1 0 128 64 64 0 0 1 0-128zM192 85.333333a64 64 0 1 1 0 128 64 64 0 0 1 0-128z m640 0a64 64 0 1 1 0 128 64 64 0 0 1 0-128z" /></svg>