<?xml version="1.0" standalone="no"?>
<!DOCTYPE svg PUBLIC "-//W3C//DTD SVG 1.1//EN" "http://www.w3.org/Graphics/SVG/1.1/DTD/svg11.dtd">
<svg class="icon" style="width: 1em;height: 1em;vertical-align: middle;fill: currentColor;overflow: hidden;" viewBox="0 0 1024 1024" version="1.1" xmlns="http://www.w3.org/2000/svg"><path d="M853.333333 85.333333a42.666667 42.666667 0 0 1 42.666667 42.666667v768a42.666667 42.666667 0 0 1-42.666667 42.666667H256a42.666667 42.666667 0 0 1-42.666667-42.666667v-85.333333H128v-85.333334h85.333333v-85.333333H128v-85.333333h85.333333v-85.333334H128V384h85.333333V298.666667H128V213.333333h85.333333V128a42.666667 42.666667 0 0 1 42.666667-42.666667h597.333333z m-256 256h-85.333333v128H384v85.333334h127.957333L512 682.666667h85.333333l-0.042666-128H725.333333v-85.333334h-128V341.333333z" /></svg>