<?xml version="1.0" standalone="no"?>
<!DOCTYPE svg PUBLIC "-//W3C//DTD SVG 1.1//EN" "http://www.w3.org/Graphics/SVG/1.1/DTD/svg11.dtd">
<svg class="icon" style="width: 1em;height: 1em;vertical-align: middle;fill: currentColor;overflow: hidden;" viewBox="0 0 1024 1024" version="1.1" xmlns="http://www.w3.org/2000/svg"><path d="M256 810.666667h512V390.698667l-256-232.704-256 232.704V810.666667z m554.666667 85.333333H213.333333a42.666667 42.666667 0 0 1-42.666666-42.666667v-384H42.666667l440.618666-400.554666a42.666667 42.666667 0 0 1 57.429334 0L981.333333 469.333333h-128v384a42.666667 42.666667 0 0 1-42.666666 42.666667zM341.333333 426.666667a298.666667 298.666667 0 0 1 298.666667 298.666666h-85.333333a213.333333 213.333333 0 0 0-213.333334-213.333333v-85.333333z m0 170.666666a128 128 0 0 1 128 128H341.333333v-128z" /></svg>