<?xml version="1.0" standalone="no"?>
<!DOCTYPE svg PUBLIC "-//W3C//DTD SVG 1.1//EN" "http://www.w3.org/Graphics/SVG/1.1/DTD/svg11.dtd">
<svg class="icon" style="width: 1em;height: 1em;vertical-align: middle;fill: currentColor;overflow: hidden;" viewBox="0 0 1024 1024" version="1.1" xmlns="http://www.w3.org/2000/svg"><path d="M781.994667 181.589333l-60.714667 60.714667a341.418667 341.418667 0 0 0-523.605333 402.944l103.125333-103.125333a213.418667 213.418667 0 0 1 328.832-208.128l-62.464 62.464a128 128 0 0 0-170.709333 170.709333l-275.2 275.2c-1.450667-149.333333-25.216-205.312-33.621334-285.952a425.813333 425.813333 0 0 1 122.666667-346.112c156.416-156.416 404.096-165.973333 571.733333-28.714667z m120.746666 0.085334c1.450667 149.333333 25.216 205.269333 33.621334 285.909333a425.813333 425.813333 0 0 1-122.666667 346.112c-156.416 156.416-404.096 165.973333-571.733333 28.714667l60.757333-60.714667a341.418667 341.418667 0 0 0 523.605333-402.944l-103.125333 103.125333a213.418667 213.418667 0 0 1-328.832 208.128l62.464-62.464a128 128 0 0 0 170.709333-170.709333l275.2-275.2z" /></svg>