<?xml version="1.0" standalone="no"?>
<!DOCTYPE svg PUBLIC "-//W3C//DTD SVG 1.1//EN" "http://www.w3.org/Graphics/SVG/1.1/DTD/svg11.dtd">
<svg class="icon" style="width: 1em;height: 1em;vertical-align: middle;fill: currentColor;overflow: hidden;" viewBox="0 0 1024 1024" version="1.1" xmlns="http://www.w3.org/2000/svg"><path d="M902.741333 181.674667c1.450667 149.333333 25.216 205.269333 33.621334 285.909333a425.813333 425.813333 0 0 1-122.666667 346.112c-156.416 156.416-404.096 165.973333-571.733333 28.714667l121.685333-121.728a256.085333 256.085333 0 0 0 357.034667-357.034667l182.058666-181.973333z m-120.746666-0.085334l-121.642667 121.728a256.085333 256.085333 0 0 0-357.034667 357.034667l-182.058666 181.973333c-1.450667-149.333333-25.216-205.269333-33.621334-285.909333a425.813333 425.813333 0 0 1 122.666667-346.112c156.416-156.416 404.096-165.973333 571.733333-28.714667zM512 341.333333c94.293333 0 170.666667 76.373333 170.666667 170.666667s-76.373333 170.666667-170.666667 170.666667-170.666667-76.373333-170.666667-170.666667 76.373333-170.666667 170.666667-170.666667z m0 106.666667a64 64 0 1 0 0.042667 128.042667A64 64 0 0 0 512 448z" /></svg>