<?xml version="1.0" standalone="no"?>
<!DOCTYPE svg PUBLIC "-//W3C//DTD SVG 1.1//EN" "http://www.w3.org/Graphics/SVG/1.1/DTD/svg11.dtd">
<svg class="icon" style="width: 1em;height: 1em;vertical-align: middle;fill: currentColor;overflow: hidden;" viewBox="0 0 1024 1024" version="1.1" xmlns="http://www.w3.org/2000/svg"><path d="M128 128h768a42.666667 42.666667 0 0 1 42.666667 42.666667v682.666666a42.666667 42.666667 0 0 1-42.666667 42.666667H128a42.666667 42.666667 0 0 1-42.666667-42.666667V170.666667a42.666667 42.666667 0 0 1 42.666667-42.666667z m192 352V384H256v256h64v-96h85.333333V640H469.333333V384H405.333333v96h-85.333333zM693.333333 640H725.333333a42.666667 42.666667 0 0 0 42.666667-42.666667v-170.666666a42.666667 42.666667 0 0 0-42.666667-42.666667h-128a42.666667 42.666667 0 0 0-42.666666 42.666667v170.666666a42.666667 42.666667 0 0 0 42.666666 42.666667h32v64h64V640z m-74.666666-192h85.333333v128h-85.333333v-128z" /></svg>