<?xml version="1.0" standalone="no"?>
<!DOCTYPE svg PUBLIC "-//W3C//DTD SVG 1.1//EN" "http://www.w3.org/Graphics/SVG/1.1/DTD/svg11.dtd">
<svg class="icon" style="width: 1em;height: 1em;vertical-align: middle;fill: currentColor;overflow: hidden;" viewBox="0 0 1024 1024" version="1.1" xmlns="http://www.w3.org/2000/svg"><path d="M512 554.666667a213.333333 213.333333 0 1 1-0.042667 426.709333A213.333333 213.333333 0 0 1 512 554.666667z m42.666667 85.333333h-85.333334v85.290667L384 725.333333v85.333334l85.333333-0.042667V896h85.333334v-85.376L640 810.666667v-85.333334l-85.333333-0.042666V640z m298.666666-512a42.666667 42.666667 0 0 1 42.666667 42.666667v256a42.666667 42.666667 0 0 1-42.666667 42.666666H170.666667a42.666667 42.666667 0 0 1-42.666667-42.666666V170.666667a42.666667 42.666667 0 0 1 42.666667-42.666667h682.666666zM213.333333 213.333333v170.666667h597.333334V213.333333H213.333333z" /></svg>