<?xml version="1.0" standalone="no"?>
<!DOCTYPE svg PUBLIC "-//W3C//DTD SVG 1.1//EN" "http://www.w3.org/Graphics/SVG/1.1/DTD/svg11.dtd">
<svg class="icon" style="width: 1em;height: 1em;vertical-align: middle;fill: currentColor;overflow: hidden;" viewBox="0 0 1024 1024" version="1.1" xmlns="http://www.w3.org/2000/svg"><path d="M170.666667 128h682.666666a42.666667 42.666667 0 0 1 42.666667 42.666667v682.666666a42.666667 42.666667 0 0 1-42.666667 42.666667H170.666667a42.666667 42.666667 0 0 1-42.666667-42.666667V170.666667a42.666667 42.666667 0 0 1 42.666667-42.666667z m42.666666 85.333333v597.333334h597.333334V213.333333H213.333333z m84.821334 386.773334l32.853333-139.562667H280.064l15.445333-59.306667h122.368l-48.298666 199.253334a131.029333 131.029333 0 0 0-4.522667 30.72c0 12.714667 6.016 16.469333 15.445333 18.645333 5.76 1.365333 51.541333 0.426667 76.416-57.173333l31.744-132.138667h-51.541333l15.488-59.306667h110.08l-14.122667 67.328c19.285333-37.546667 57.941333-73.173333 95.914667-73.173333 40.533333 0 74.069333 30.037333 74.069333 87.68 0 14.72-1.962667 30.762667-7.082666 48.853333l-20.608 77.013334a92.117333 92.117333 0 0 0-3.242667 20.778666c0 13.397333 5.162667 20.053333 14.805333 20.053334 9.685333 0 21.930667-7.338667 36.096-48.213334l28.330667 11.392c-16.768 60.970667-47.018667 86.4-85.034667 86.4-44.416 0-65.664-27.434667-65.664-64.981333 0-10.666667 1.28-22.101333 4.522667-33.493333l21.248-79.061334a83.626667 83.626667 0 0 0 3.2-24.106666c0-25.429333-14.805333-40.874667-38.613333-40.874667-30.293333 0-50.261333 22.613333-60.544 66.133333l-41.216 172.032h-72.106667l12.928-54.058666c-21.205333 36.266667-50.645333 58.666667-86.954667 58.666666-43.776 0-64.384-26.24-64.384-65.792 0-10.026667 1.28-22.314667 3.84-33.706666z m69.845333-232.106667a48 48 0 1 1 0-96 48 48 0 0 1 0 96z" /></svg>