<?xml version="1.0" standalone="no"?>
<!DOCTYPE svg PUBLIC "-//W3C//DTD SVG 1.1//EN" "http://www.w3.org/Graphics/SVG/1.1/DTD/svg11.dtd">
<svg class="icon" style="width: 1em;height: 1em;vertical-align: middle;fill: currentColor;overflow: hidden;" viewBox="0 0 1024 1024" version="1.1" xmlns="http://www.w3.org/2000/svg"><path d="M796.288 462.506667a22.442667 22.442667 0 0 1-22.442667 22.4h-62.378666v40.021333h62.378666a22.4 22.4 0 1 1 0 44.757333H689.066667a22.442667 22.442667 0 0 1-22.272-22.357333V377.685333c0-12.245333 10.026667-22.4 22.4-22.4h84.821333a22.4 22.4 0 0 1-0.128 44.8h-62.378667v40.021334h62.378667c12.416 0 22.442667 10.112 22.442667 22.4z m-174.848 106.026666a22.954667 22.954667 0 0 1-7.082667 1.066667 21.973333 21.973333 0 0 1-18.133333-8.874667l-86.869333-117.930666v104.533333a22.4 22.4 0 0 1-44.672 0V377.685333a22.272 22.272 0 0 1 22.186666-22.314666c6.912 0 13.312 3.669333 17.578667 9.002666l87.552 118.4V377.685333c0-12.245333 10.026667-22.4 22.4-22.4 12.245333 0 22.4 10.154667 22.4 22.4v169.642667a22.357333 22.357333 0 0 1-15.36 21.205333z m-211.2 1.152a22.442667 22.442667 0 0 1-22.314667-22.357333V377.685333c0-12.245333 10.069333-22.4 22.4-22.4 12.330667 0 22.357333 10.154667 22.357334 22.4v169.642667a22.485333 22.485333 0 0 1-22.442667 22.357333z m-65.28 0H260.181333a22.528 22.528 0 0 1-22.4-22.357333V377.685333a22.485333 22.485333 0 0 1 44.8 0v147.2h62.464a22.4 22.4 0 0 1 0 44.8zM512 109.738667c-235.221333 0-426.666667 155.434667-426.666667 346.368 0 171.093333 151.808 314.410667 356.821334 341.632 13.866667 2.901333 32.810667 9.173333 37.589333 20.992 4.266667 10.666667 2.816 27.221333 1.365333 38.4l-5.845333 36.266666c-1.578667 10.666667-8.533333 42.154667 37.290667 22.912 45.909333-19.157333 245.930667-144.981333 335.530666-247.978666C909.354667 601.130667 938.666667 532.352 938.666667 456.106667c0-190.933333-191.488-346.368-426.666667-346.368z" /></svg>