<?xml version="1.0" standalone="no"?>
<!DOCTYPE svg PUBLIC "-//W3C//DTD SVG 1.1//EN" "http://www.w3.org/Graphics/SVG/1.1/DTD/svg11.dtd">
<svg class="icon" style="width: 1em;height: 1em;vertical-align: middle;fill: currentColor;overflow: hidden;" viewBox="0 0 1024 1024" version="1.1" xmlns="http://www.w3.org/2000/svg"><path d="M938.666667 456.106667c0 76.245333-29.312 145.066667-90.581334 212.224-89.6 102.997333-289.621333 228.821333-335.530666 247.978666-45.824 19.242667-38.869333-12.245333-37.290667-22.912l5.845333-36.266666c1.450667-11.178667 2.901333-27.733333-1.365333-38.4-4.778667-11.818667-23.722667-18.090667-37.589333-20.992C237.141333 770.517333 85.333333 627.2 85.333333 456.106667c0-190.933333 191.445333-346.368 426.666667-346.368 235.178667 0 426.666667 155.434667 426.666667 346.368z m-153.6 154.666666c47.488-52.053333 68.266667-100.736 68.266666-154.666666 0-139.434667-149.76-261.034667-341.333333-261.034667s-341.333333 121.6-341.333333 261.034667c0 123.946667 116.394667 234.965333 282.709333 257.024l6.272 1.109333c45.994667 9.642667 80.384 26.197333 99.370667 72.874667l1.536 4.096c77.056-50.176 178.090667-127.146667 224.469333-180.437334z m-11.178667-170.666666a22.442667 22.442667 0 0 1 0 44.8h-62.421333v40.021333h62.378666a22.4 22.4 0 1 1 0 44.757333H689.066667a22.442667 22.442667 0 0 1-22.272-22.357333V377.685333c0-12.245333 10.026667-22.4 22.4-22.4h84.821333a22.4 22.4 0 0 1-0.128 44.8h-62.378667v40.021334h62.378667z m-137.088 107.221333a22.357333 22.357333 0 0 1-22.442667 22.272 21.973333 21.973333 0 0 1-18.133333-8.874667l-86.869333-117.930666v104.533333a22.4 22.4 0 0 1-44.672 0V377.685333a22.272 22.272 0 0 1 22.186666-22.314666c6.912 0 13.312 3.669333 17.578667 9.002666l87.552 118.4V377.685333c0-12.245333 10.026667-22.4 22.4-22.4 12.245333 0 22.4 10.154667 22.4 22.4v169.642667z m-204.117333 0a22.485333 22.485333 0 0 1-22.442667 22.357333 22.442667 22.442667 0 0 1-22.314667-22.357333V377.685333c0-12.245333 10.069333-22.4 22.4-22.4 12.330667 0 22.357333 10.154667 22.357334 22.4v169.642667z m-87.68 22.357333H260.138667a22.528 22.528 0 0 1-22.4-22.357333V377.685333a22.485333 22.485333 0 0 1 44.8 0v147.2h62.464a22.4 22.4 0 0 1 0 44.8z" /></svg>