<?xml version="1.0" standalone="no"?>
<!DOCTYPE svg PUBLIC "-//W3C//DTD SVG 1.1//EN" "http://www.w3.org/Graphics/SVG/1.1/DTD/svg11.dtd">
<svg class="icon" style="width: 1em;height: 1em;vertical-align: middle;fill: currentColor;overflow: hidden;" viewBox="0 0 1024 1024" version="1.1" xmlns="http://www.w3.org/2000/svg"><path d="M170.666667 128h682.666666a42.666667 42.666667 0 0 1 42.666667 42.666667v682.666666a42.666667 42.666667 0 0 1-42.666667 42.666667H170.666667a42.666667 42.666667 0 0 1-42.666667-42.666667V170.666667a42.666667 42.666667 0 0 1 42.666667-42.666667z m42.666666 85.333333v597.333334h597.333334V213.333333H213.333333z m106.666667 170.666667a64 64 0 1 1 0-128 64 64 0 0 1 0 128z m-42.666667 42.666667h85.333334v320h-85.333334V426.666667z m234.666667 18.346666c24.917333-24.106667 54.016-39.68 85.333333-39.68 88.362667 0 149.333333 71.637333 149.333334 160v181.333334h-85.333334v-181.333334a74.666667 74.666667 0 0 0-149.333333 0v181.333334h-85.333333V426.666667h85.333333v18.346666z" /></svg>