<?xml version="1.0" standalone="no"?>
<!DOCTYPE svg PUBLIC "-//W3C//DTD SVG 1.1//EN" "http://www.w3.org/Graphics/SVG/1.1/DTD/svg11.dtd">
<svg class="icon" style="width: 1em;height: 1em;vertical-align: middle;fill: currentColor;overflow: hidden;" viewBox="0 0 1024 1024" version="1.1" xmlns="http://www.w3.org/2000/svg"><path d="M938.709333 725.333333c-0.042667 170.666667-0.042667 170.666667-170.666666 170.666667-170.666667 0-213.333333-128-213.333334-256 0-16.128-0.768-39.168-1.109333-66.133333l86.314667 49.877333L640 640c0 118.442667 34.816 170.666667 128 170.666667 48.64 0 68.693333-0.298667 83.754667-1.621334 1.28-14.976 1.578667-35.072 1.578666-83.712 0-136.746667-29.994667-257.408-78.293333-337.066666-35.754667-58.965333-68.821333-78.634667-86.698667-72.661334-12.501333 4.181333-25.813333 27.733333-35.456 69.248l-76.373333-44.074666c15.744-51.072 41.898667-91.776 84.821333-106.112 128-42.666667 277.461333 170.666667 277.333334 490.666666zM362.666667 234.666667c42.965333 14.336 69.12 55.04 84.864 106.112L371.157333 384.853333c-9.642667-41.514667-22.997333-65.066667-35.456-69.248-17.92-5.973333-50.986667 13.653333-86.698666 72.618667C200.661333 467.925333 170.666667 588.586667 170.666667 725.333333c0 48.64 0.298667 68.693333 1.621333 83.712 14.976 1.322667 35.072 1.621333 83.712 1.621334 93.184 0 128-52.224 128-170.666667l0.170667-16.298667 86.314666-49.834666c-0.426667 27.008-1.152 50.005333-1.152 66.133333 0 128-42.666667 256-213.333333 256s-170.666667 0-170.666667-170.666667C85.333333 405.333333 234.666667 192 362.666667 234.666667zM554.666667 85.333333v316.672l200.362666 115.712-42.666666 73.898667L512 475.946667l-200.362667 115.669333-42.666666-73.898667L469.333333 402.005333V85.333333h85.333334z" /></svg>