<?xml version="1.0" standalone="no"?>
<!DOCTYPE svg PUBLIC "-//W3C//DTD SVG 1.1//EN" "http://www.w3.org/Graphics/SVG/1.1/DTD/svg11.dtd">
<svg class="icon" style="width: 1em;height: 1em;vertical-align: middle;fill: currentColor;overflow: hidden;" viewBox="0 0 1024 1024" version="1.1" xmlns="http://www.w3.org/2000/svg"><path d="M362.666667 234.666667c60.245333 20.053333 87.381333 92.117333 99.285333 171.648l-192.981333 111.402666 42.666666 73.898667 158.293334-91.349333C471.893333 558.037333 469.333333 610.474667 469.333333 640c0 128-42.666667 256-213.333333 256s-170.666667 0-170.666667-170.666667C85.333333 405.333333 234.666667 192 362.666667 234.666667zM938.709333 725.333333v18.602667c-0.213333 152.064-6.4 152.064-170.666666 152.064-170.666667 0-213.333333-128-213.333334-256 0-29.482667-2.56-81.92-0.597333-139.690667l158.293333 91.306667 42.666667-73.898667-192.981333-111.36c11.904-79.573333 39.04-151.594667 99.285333-171.690666 128-42.666667 277.333333 170.666667 277.333333 490.666666zM554.666667 85.333333v384h-85.333334V85.333333h85.333334z" /></svg>