<?xml version="1.0" standalone="no"?>
<!DOCTYPE svg PUBLIC "-//W3C//DTD SVG 1.1//EN" "http://www.w3.org/Graphics/SVG/1.1/DTD/svg11.dtd">
<svg class="icon" style="width: 1em;height: 1em;vertical-align: middle;fill: currentColor;overflow: hidden;" viewBox="0 0 1024 1024" version="1.1" xmlns="http://www.w3.org/2000/svg"><path d="M938.666667 597.333333h-85.333334V308.821333l-338.261333 302.933334L170.666667 307.882667V810.666667h469.333333v85.333333H128a42.666667 42.666667 0 0 1-42.666667-42.666667V170.666667a42.666667 42.666667 0 0 1 42.666667-42.666667h768a42.666667 42.666667 0 0 1 42.666667 42.666667v426.666666zM192.469333 213.333333l322.133334 284.245334L832.085333 213.333333H192.469333z m721.194667 597.333334l90.538667 90.496-60.373334 60.373333L853.333333 870.997333l-90.496 90.538667-60.373333-60.373333L793.002667 810.666667l-90.538667-90.496 60.373333-60.373334L853.333333 750.336l90.496-90.538667 60.373334 60.373334L913.664 810.666667z" /></svg>