<?xml version="1.0" standalone="no"?>
<!DOCTYPE svg PUBLIC "-//W3C//DTD SVG 1.1//EN" "http://www.w3.org/Graphics/SVG/1.1/DTD/svg11.dtd">
<svg class="icon" style="width: 1em;height: 1em;vertical-align: middle;fill: currentColor;overflow: hidden;" viewBox="0 0 1024 1024" version="1.1" xmlns="http://www.w3.org/2000/svg"><path d="M853.333333 308.821333l-338.261333 302.933334L170.666667 307.882667V810.666667h384v85.333333H128a42.666667 42.666667 0 0 1-42.666667-42.666667V170.666667a42.666667 42.666667 0 0 1 42.666667-42.666667h768a42.666667 42.666667 0 0 1 42.666667 42.666667v298.666666h-85.333334V308.821333zM832.042667 213.333333H192.469333l322.133334 284.245334L832.085333 213.333333zM938.666667 725.333333h42.666666v213.333334h-341.333333v-213.333334h42.666667v-42.666666a128 128 0 0 1 256 0v42.666666z m-85.333334 0v-42.666666a42.666667 42.666667 0 0 0-85.333333 0v42.666666h85.333333z" /></svg>