<?xml version="1.0" standalone="no"?>
<!DOCTYPE svg PUBLIC "-//W3C//DTD SVG 1.1//EN" "http://www.w3.org/Graphics/SVG/1.1/DTD/svg11.dtd">
<svg class="icon" style="width: 1em;height: 1em;vertical-align: middle;fill: currentColor;overflow: hidden;" viewBox="0 0 1024 1024" version="1.1" xmlns="http://www.w3.org/2000/svg"><path d="M853.333333 618.666667v384L711.125333 896H597.333333v-170.666667h113.792L853.333333 618.666667zM896 128a42.666667 42.666667 0 0 1 42.666667 42.666667v449.237333A256 256 0 0 0 526.506667 896H128.085333a42.666667 42.666667 0 0 1-42.666666-42.666667V170.666667a42.666667 42.666667 0 0 1 42.666666-42.666667h768z m0 597.333333a85.333333 85.333333 0 0 1 6.4 170.453334L896 896v-170.666667zM240.938667 266.154667L185.728 331.178667l329.386667 279.68 323.456-279.893334-55.808-64.554666-268.202667 232.021333-273.621333-232.277333z" /></svg>