<?xml version="1.0" standalone="no"?>
<!DOCTYPE svg PUBLIC "-//W3C//DTD SVG 1.1//EN" "http://www.w3.org/Graphics/SVG/1.1/DTD/svg11.dtd">
<svg class="icon" style="width: 1em;height: 1em;vertical-align: middle;fill: currentColor;overflow: hidden;" viewBox="0 0 1024 1024" version="1.1" xmlns="http://www.w3.org/2000/svg"><path d="M802.261333 362.368A214.314667 214.314667 0 0 0 938.666667 379.733333V853.333333a42.666667 42.666667 0 0 1-42.666667 42.666667H128a42.666667 42.666667 0 0 1-42.666667-42.666667V170.666667a42.666667 42.666667 0 0 1 42.666667-42.666667h558.933333c-2.816 13.781333-4.266667 28.074667-4.266666 42.666667a212.48 212.48 0 0 0 50.901333 138.282666l-218.965333 189.525334-273.664-232.32-55.210667 65.024 329.386667 279.68 287.146666-248.490667zM896 298.666667a128 128 0 1 1 0-256 128 128 0 0 1 0 256z" /></svg>