<?xml version="1.0" standalone="no"?>
<!DOCTYPE svg PUBLIC "-//W3C//DTD SVG 1.1//EN" "http://www.w3.org/Graphics/SVG/1.1/DTD/svg11.dtd">
<svg class="icon" style="width: 1em;height: 1em;vertical-align: middle;fill: currentColor;overflow: hidden;" viewBox="0 0 1024 1024" version="1.1" xmlns="http://www.w3.org/2000/svg"><path d="M938.666667 512a213.418667 213.418667 0 0 0-337.066667 128H554.666667v256H128a42.666667 42.666667 0 0 1-42.666667-42.666667V170.666667a42.666667 42.666667 0 0 1 42.666667-42.666667h768a42.666667 42.666667 0 0 1 42.666667 42.666667v341.333333z m-424.106667-13.525333L240.981333 266.154667 185.728 331.178667l329.386667 279.68 323.456-279.893334-55.808-64.554666-268.16 232.064zM938.666667 725.333333h42.666666v213.333334h-341.333333v-213.333334h42.666667v-42.666666a128 128 0 0 1 256 0v42.666666z m-85.333334 0v-42.666666a42.666667 42.666667 0 0 0-85.333333 0v42.666666h85.333333z" /></svg>