<?xml version="1.0" standalone="no"?>
<!DOCTYPE svg PUBLIC "-//W3C//DTD SVG 1.1//EN" "http://www.w3.org/Graphics/SVG/1.1/DTD/svg11.dtd">
<svg class="icon" style="width: 1em;height: 1em;vertical-align: middle;fill: currentColor;overflow: hidden;" viewBox="0 0 1024 1024" version="1.1" xmlns="http://www.w3.org/2000/svg"><path d="M651.349333 492.970667l187.221334-162.048-55.808-64.512-268.16 232.064-273.664-232.32-55.210667 65.024 328.618667 279.04A297.258667 297.258667 0 0 0 469.333333 768c0 45.824 10.325333 89.173333 28.757334 128H128a42.666667 42.666667 0 0 1-42.666667-42.666667V170.666667a42.666667 42.666667 0 0 1 42.666667-42.666667h768a42.666667 42.666667 0 0 1 42.666667 42.666667v352.213333A297.301333 297.301333 0 0 0 768 469.333333c-41.386667 0-80.810667 8.405333-116.650667 23.637334z m61.44 390.570666a128 128 0 0 0 170.709334-170.709333l-170.666667 170.666667z m-60.330666-60.373333l170.709333-170.666667a128 128 0 0 0-170.709333 170.709334zM768 981.333333a213.333333 213.333333 0 1 1 0-426.666666 213.333333 213.333333 0 0 1 0 426.666666z" /></svg>