<?xml version="1.0" standalone="no"?>
<!DOCTYPE svg PUBLIC "-//W3C//DTD SVG 1.1//EN" "http://www.w3.org/Graphics/SVG/1.1/DTD/svg11.dtd">
<svg class="icon" style="width: 1em;height: 1em;vertical-align: middle;fill: currentColor;overflow: hidden;" viewBox="0 0 1024 1024" version="1.1" xmlns="http://www.w3.org/2000/svg"><path d="M938.666667 569.216A256 256 0 0 0 611.882667 896H128a42.666667 42.666667 0 0 1-42.666667-42.666667V170.666667a42.666667 42.666667 0 0 1 42.666667-42.666667h768a42.666667 42.666667 0 0 1 42.666667 42.666667v398.549333z m-424.106667-70.741333L240.981333 266.154667 185.728 331.178667l329.386667 279.68 323.456-279.893334-55.808-64.554666-268.16 232.064z m212.906667 335.573333a128.725333 128.725333 0 0 1 0-46.762667l-43.264-25.002666 42.666666-73.898667 43.264 25.002667c11.861333-10.154667 25.557333-18.133333 40.533334-23.466667V640h85.333333v49.92c14.976 5.333333 28.672 13.312 40.533333 23.466667l43.264-25.002667 42.666667 73.898667-43.264 25.002666a128.725333 128.725333 0 0 1 0 46.762667l43.264 25.002667-42.666667 73.898666-43.264-25.002666a127.872 127.872 0 0 1-40.533333 23.466666V981.333333h-85.333333v-49.92a127.872 127.872 0 0 1-40.533334-23.466666l-43.264 25.002666-42.666666-73.898666 43.264-25.002667zM853.333333 853.333333a42.666667 42.666667 0 1 0 0-85.333333 42.666667 42.666667 0 0 0 0 85.333333z" /></svg>