<?xml version="1.0" standalone="no"?>
<!DOCTYPE svg PUBLIC "-//W3C//DTD SVG 1.1//EN" "http://www.w3.org/Graphics/SVG/1.1/DTD/svg11.dtd">
<svg class="icon" style="width: 1em;height: 1em;vertical-align: middle;fill: currentColor;overflow: hidden;" viewBox="0 0 1024 1024" version="1.1" xmlns="http://www.w3.org/2000/svg"><path d="M512 780.544a311.466667 311.466667 0 1 1 0-537.088 311.466667 311.466667 0 1 1 0 537.088z m72.618667-59.050667a226.133333 226.133333 0 1 0 0-418.986666A310.314667 310.314667 0 0 1 665.6 512c0 80.64-30.677333 154.197333-80.981333 209.493333z m-145.237334-418.986666a226.133333 226.133333 0 1 0 0 418.986666A310.314667 310.314667 0 0 1 358.4 512c0-80.64 30.677333-154.197333 80.981333-209.493333zM512 350.08A225.450667 225.450667 0 0 0 443.733333 512c0 63.488 26.154667 120.832 68.266667 161.92A225.450667 225.450667 0 0 0 580.266667 512 225.450667 225.450667 0 0 0 512 350.08z" /></svg>