<?xml version="1.0" standalone="no"?>
<!DOCTYPE svg PUBLIC "-//W3C//DTD SVG 1.1//EN" "http://www.w3.org/Graphics/SVG/1.1/DTD/svg11.dtd">
<svg class="icon" style="width: 1em;height: 1em;vertical-align: middle;fill: currentColor;overflow: hidden;" viewBox="0 0 1024 1024" version="1.1" xmlns="http://www.w3.org/2000/svg"><path d="M907.008 596.906667c-11.690667 60.16-104.789333 126.08-211.712 138.837333-55.722667 6.656-110.634667 12.8-169.173333 10.069333-95.701333-4.394667-171.264-22.826667-171.264-22.826666 0 9.301333 0.597333 18.176 1.706666 26.453333 12.458667 94.506667 93.696 100.138667 170.666667 102.826667 77.653333 2.645333 146.773333-19.2 146.773333-19.2l3.242667 70.229333s-54.357333 29.184-151.125333 34.56c-53.333333 2.901333-119.594667-1.365333-196.778667-21.76-167.381333-44.330667-196.181333-222.72-200.576-403.797333-1.322667-53.76-0.512-104.405333-0.512-146.773334 0-185.173333 121.301333-239.402667 121.301333-239.402666 61.141333-28.074667 166.058667-39.893333 275.2-40.789334h2.645334c109.098667 0.853333 214.101333 12.714667 275.242666 40.789334 0 0 121.301333 54.272 121.301334 239.36 0 0 1.536 136.576-16.938667 231.424z m-126.122667-217.045334c0-45.824-11.648-82.218667-35.072-109.141333-24.192-26.922667-55.808-40.746667-95.104-40.746667-45.44 0-79.829333 17.493333-102.613333 52.394667l-22.101333 37.12-22.144-37.12C481.109333 247.466667 446.72 229.973333 401.28 229.973333c-39.296 0-70.954667 13.824-95.104 40.746667-23.424 26.922667-35.072 63.317333-35.072 109.141333v224.128h88.789333V386.432c0-45.866667 19.285333-69.12 57.898667-69.12 42.666667 0 64.042667 27.605333 64.042667 82.218667v119.04h88.32v-119.04c0-54.613333 21.333333-82.218667 64-82.218667 38.613333 0 57.941333 23.253333 57.941333 69.12v217.6h88.746667V379.818667z" /></svg>