<?xml version="1.0" standalone="no"?>
<!DOCTYPE svg PUBLIC "-//W3C//DTD SVG 1.1//EN" "http://www.w3.org/Graphics/SVG/1.1/DTD/svg11.dtd">
<svg class="icon" style="width: 1em;height: 1em;vertical-align: middle;fill: currentColor;overflow: hidden;" viewBox="0 0 1024 1024" version="1.1" xmlns="http://www.w3.org/2000/svg"><path d="M128.768 512.341333c-1.365333-53.76-0.512-104.448-0.512-146.858666 0-185.088 121.301333-239.36 121.301333-239.36 61.141333-28.074667 166.058667-39.893333 275.2-40.789334h2.645334c109.098667 0.853333 214.101333 12.714667 275.242666 40.789334 0 0 121.301333 54.272 121.301334 239.36 0 0 1.536 136.576-16.896 231.424-11.733333 60.16-104.832 126.08-211.754667 138.837333-55.722667 6.656-110.634667 12.8-169.173333 10.069333-95.701333-4.394667-171.264-22.826667-171.264-22.826666 0 9.301333 0.597333 18.176 1.706666 26.453333 3.584 27.008 12.757333 46.72 25.813334 61.226667 32.682667 36.266667 89.856 39.68 144.853333 41.557333 77.653333 2.688 146.773333-19.157333 146.773333-19.157333l3.242667 70.229333s-54.357333 29.184-151.125333 34.56c-53.333333 2.901333-119.594667-1.365333-196.778667-21.76-65.365333-17.322667-109.568-55.04-139.52-105.429333-46.634667-78.634667-58.368-187.989333-61.056-298.325334z m140.8 210.645334v-108.714667l105.557333 25.813333a876.373333 876.373333 0 0 0 55.594667 10.453334c32.128 4.949333 65.621333 8.533333 99.328 10.026666 43.477333 2.005333 81.109333-0.725333 155.136-9.557333 70.954667-8.490667 134.314667-51.029333 138.069333-70.4 3.498667-18.005333 6.442667-39.338667 8.789334-63.232a1433.6 1433.6 0 0 0 5.845333-95.786667c0.64-21.76 0.853333-40.32 0.725333-53.589333v-2.517333c0-61.013333-15.744-104.021333-41.088-134.741334a128.341333 128.341333 0 0 0-24.917333-23.381333c-3.84-2.730667-5.76-3.797333-5.546667-3.712-43.221333-19.84-131.968-32.085333-239.658666-32.981333h-1.962667c-108.373333 0.853333-197.12 13.141333-241.066667 33.365333 0.981333-0.426667-0.896 0.597333-4.778666 3.328a128.341333 128.341333 0 0 0-24.917334 23.381333c-25.344 30.72-41.088 73.770667-41.088 134.741334 0 9.898667 0 16.938667-0.128 37.333333a3305.941333 3305.941333 0 0 0 0.597334 107.434667c2.304 93.738667 11.264 163.626667 29.866666 215.082666 9.045333 25.045333 20.138667 45.653333 33.28 61.866667a243.2 243.2 0 0 1-7.68-64.213333zM344.917333 271.786667a48.768 48.768 0 1 1 0 97.578666 48.768 48.768 0 0 1 0-97.578666z" /></svg>