<?xml version="1.0" standalone="no"?>
<!DOCTYPE svg PUBLIC "-//W3C//DTD SVG 1.1//EN" "http://www.w3.org/Graphics/SVG/1.1/DTD/svg11.dtd">
<svg class="icon" style="width: 1em;height: 1em;vertical-align: middle;fill: currentColor;overflow: hidden;" viewBox="0 0 1024 1024" version="1.1" xmlns="http://www.w3.org/2000/svg"><path d="M512 298.666667a341.333333 341.333333 0 1 1 0 682.666666 341.333333 341.333333 0 0 1 0-682.666666z m0 149.333333l-56.448 114.346667-126.165333 18.346666 91.306666 88.96-21.546666 125.696L512 736l112.853333 59.306667-21.546666-125.653334 91.306666-89.002666-126.165333-18.346667L512 448z m42.666667-362.709333L768 85.333333v128l-58.154667 48.554667A423.893333 423.893333 0 0 0 554.666667 215.424V85.333333z m-85.333334 0v130.133333a423.893333 423.893333 0 0 0-155.136 46.421333L256 213.333333V85.333333l213.333333-0.042666z" /></svg>