<?xml version="1.0" standalone="no"?>
<!DOCTYPE svg PUBLIC "-//W3C//DTD SVG 1.1//EN" "http://www.w3.org/Graphics/SVG/1.1/DTD/svg11.dtd">
<svg class="icon" style="width: 1em;height: 1em;vertical-align: middle;fill: currentColor;overflow: hidden;" viewBox="0 0 1024 1024" version="1.1" xmlns="http://www.w3.org/2000/svg"><path d="M810.666667 85.333333v85.333334h-85.333334v128a128 128 0 0 1 128 128v469.333333a42.666667 42.666667 0 0 1-42.666666 42.666667H213.333333a42.666667 42.666667 0 0 1-42.666666-42.666667V426.666667a128 128 0 0 1 128-128V170.666667H213.333333V85.333333h597.333334z m-85.333334 298.666667H298.666667a42.666667 42.666667 0 0 0-42.666667 42.666667v426.666666h512V426.666667a42.666667 42.666667 0 0 0-42.666667-42.666667z m-170.666666 85.333333v85.333334h85.333333v85.333333h-85.376L554.666667 725.333333h-85.333334l-0.042666-85.333333H384v-85.333333h85.333333v-85.333334h85.333334z m85.333333-298.666666H384v128h256V170.666667z" /></svg>