<?xml version="1.0" standalone="no"?>
<!DOCTYPE svg PUBLIC "-//W3C//DTD SVG 1.1//EN" "http://www.w3.org/Graphics/SVG/1.1/DTD/svg11.dtd">
<svg class="icon" style="width: 1em;height: 1em;vertical-align: middle;fill: currentColor;overflow: hidden;" viewBox="0 0 1024 1024" version="1.1" xmlns="http://www.w3.org/2000/svg"><path d="M469.333333 85.333333a341.418667 341.418667 0 0 1 338.517334 297.173334l96 150.997333c6.314667 9.941333 5.034667 24.746667-9.6 31.061333L810.666667 600.32V725.333333a85.333333 85.333333 0 0 1-85.333334 85.333334h-85.290666L640 938.666667H256v-157.610667c0-50.346667-18.602667-98.005333-53.077333-141.013333A341.333333 341.333333 0 0 1 469.333333 85.333333z m0 85.333334a256 256 0 0 0-199.850666 416C316.16 644.864 341.333333 711.125333 341.333333 781.056V853.333333h213.333334l0.085333-128H725.333333v-181.248l66.133334-28.330666-65.834667-103.466667-2.432-18.858667A256.042667 256.042667 0 0 0 469.333333 170.666667z m-22.613333 160.554666l22.613333 22.613334 22.613334-22.613334a74.666667 74.666667 0 1 1 105.6 105.557334L469.333333 565.034667l-128.213333-128.256a74.666667 74.666667 0 1 1 105.6-105.557334z" /></svg>