<?xml version="1.0" standalone="no"?>
<!DOCTYPE svg PUBLIC "-//W3C//DTD SVG 1.1//EN" "http://www.w3.org/Graphics/SVG/1.1/DTD/svg11.dtd">
<svg class="icon" style="width: 1em;height: 1em;vertical-align: middle;fill: currentColor;overflow: hidden;" viewBox="0 0 1024 1024" version="1.1" xmlns="http://www.w3.org/2000/svg"><path d="M469.333333 85.333333a341.418667 341.418667 0 0 1 338.517334 297.173334l96 150.997333c6.314667 9.941333 5.034667 24.746667-9.6 31.061333L810.666667 600.32V725.333333a85.333333 85.333333 0 0 1-85.333334 85.333334h-85.290666L640 938.666667H256v-157.610667c0-50.346667-18.602667-98.005333-53.077333-141.013333A341.333333 341.333333 0 0 1 469.333333 85.333333z m-22.613333 245.888a74.666667 74.666667 0 1 0-105.6 105.557334L469.333333 565.034667l128.213334-128.256a74.666667 74.666667 0 1 0-105.6-105.557334l-22.613334 22.613334-22.613333-22.613334z" /></svg>