<?xml version="1.0" standalone="no"?>
<!DOCTYPE svg PUBLIC "-//W3C//DTD SVG 1.1//EN" "http://www.w3.org/Graphics/SVG/1.1/DTD/svg11.dtd">
<svg class="icon" style="width: 1em;height: 1em;vertical-align: middle;fill: currentColor;overflow: hidden;" viewBox="0 0 1024 1024" version="1.1" xmlns="http://www.w3.org/2000/svg"><path d="M896 853.333333a42.666667 42.666667 0 0 1-42.666667 42.666667H170.666667a42.666667 42.666667 0 0 1-42.666667-42.666667V170.666667a42.666667 42.666667 0 0 1 42.666667-42.666667h682.666666a42.666667 42.666667 0 0 1 42.666667 42.666667v682.666666z m-85.333333-384V213.333333h-255.957334v85.333334H640l-128 128-128-128h85.333333V213.333333H213.333333v256h85.333334v85.333334H213.333333v256h256v-85.333334H384l128-128 128 128h-85.290667v85.333334H810.666667v-256h-85.333334v-85.333334h85.333334z m-341.333334 85.333334H384v-85.333334h85.333333v85.333334z m170.666667 0h-85.333333v-85.333334h85.333333v85.333334z" /></svg>