<?xml version="1.0" standalone="no"?>
<!DOCTYPE svg PUBLIC "-//W3C//DTD SVG 1.1//EN" "http://www.w3.org/Graphics/SVG/1.1/DTD/svg11.dtd">
<svg class="icon" style="width: 1em;height: 1em;vertical-align: middle;fill: currentColor;overflow: hidden;" viewBox="0 0 1024 1024" version="1.1" xmlns="http://www.w3.org/2000/svg"><path d="M512 85.333333c240.384 0 426.666667 176.085333 426.666667 413.866667 0 237.781333-186.282667 413.866667-426.666667 413.866667a464.810667 464.810667 0 0 1-123.52-16.384 34.133333 34.133333 0 0 0-22.784 1.664l-84.650667 37.376a34.133333 34.133333 0 0 1-47.914666-30.165334l-2.346667-75.946666a34.005333 34.005333 0 0 0-11.434667-24.32C136.32 731.093333 85.333333 623.658667 85.333333 499.2 85.333333 261.418667 271.658667 85.333333 512 85.333333zM255.786667 620.245333c-12.032 19.072 11.434667 40.576 29.397333 26.922667l134.613333-102.144a25.6 25.6 0 0 1 30.848 0l99.712 74.666667a64 64 0 0 0 92.544-17.066667l125.312-198.826667c12.032-19.114667-11.434667-40.618667-29.397333-27.008l-134.613333 102.229334a25.6 25.6 0 0 1-30.848 0l-99.712-74.666667a64 64 0 0 0-92.544 17.066667l-125.312 198.826666z" /></svg>