<?xml version="1.0" standalone="no"?>
<!DOCTYPE svg PUBLIC "-//W3C//DTD SVG 1.1//EN" "http://www.w3.org/Graphics/SVG/1.1/DTD/svg11.dtd">
<svg class="icon" style="width: 1em;height: 1em;vertical-align: middle;fill: currentColor;overflow: hidden;" viewBox="0 0 1024 1024" version="1.1" xmlns="http://www.w3.org/2000/svg"><path d="M789.333333 85.333333a192 192 0 0 1 37.674667 380.288l0.469333 1.152a341.333333 341.333333 0 0 1-304.853333 471.722667L512 938.666667a341.333333 341.333333 0 0 1-314.965333-473.088A191.957333 191.957333 0 0 1 234.666667 85.333333a192 192 0 0 1 191.701333 181.504l3.114667-0.810666A342.101333 342.101333 0 0 1 512 256l10.666667 0.170667a341.333333 341.333333 0 0 1 74.922666 10.666666A192 192 0 0 1 789.333333 85.333333zM512 341.333333a256 256 0 1 0 0 512 256 256 0 0 0 0-512zM234.666667 170.666667a106.666667 106.666667 0 0 0 0 213.333333l6.997333-0.213333 4.394667-0.426667A343.210667 343.210667 0 0 1 324.010667 312.32l14.08-8.789333A106.666667 106.666667 0 0 0 234.666667 170.666667z m554.666666 0a106.666667 106.666667 0 0 0-105.216 124.416l1.834667 8.533333 1.194667 0.682667a343.04 343.04 0 0 1 90.794666 79.018666A106.666667 106.666667 0 1 0 789.333333 170.666667z" /></svg>