<?xml version="1.0" standalone="no"?>
<!DOCTYPE svg PUBLIC "-//W3C//DTD SVG 1.1//EN" "http://www.w3.org/Graphics/SVG/1.1/DTD/svg11.dtd">
<svg class="icon" style="width: 1em;height: 1em;vertical-align: middle;fill: currentColor;overflow: hidden;" viewBox="0 0 1024 1024" version="1.1" xmlns="http://www.w3.org/2000/svg"><path d="M128 128h768a42.666667 42.666667 0 0 1 42.666667 42.666667v682.666666a42.666667 42.666667 0 0 1-42.666667 42.666667H128a42.666667 42.666667 0 0 1-42.666667-42.666667V170.666667a42.666667 42.666667 0 0 1 42.666667-42.666667z m42.666667 85.333333v597.333334h682.666666V213.333333H170.666667z m384 341.333334h128v85.333333h-128v85.333333h-85.333334v-85.333333H341.333333v-85.333333h128v-42.666667H341.333333v-85.333333h110.336L361.130667 336.170667 421.546667 275.797333 512 366.336l90.496-90.538667 60.373333 60.373334L572.330667 426.666667H682.666667v85.333333h-128v42.666667z" /></svg>