<?xml version="1.0" standalone="no"?>
<!DOCTYPE svg PUBLIC "-//W3C//DTD SVG 1.1//EN" "http://www.w3.org/Graphics/SVG/1.1/DTD/svg11.dtd">
<svg class="icon" style="width: 1em;height: 1em;vertical-align: middle;fill: currentColor;overflow: hidden;" viewBox="0 0 1024 1024" version="1.1" xmlns="http://www.w3.org/2000/svg"><path d="M356.906667 426.666667L477.866667 341.333333H725.333333v85.333334h-219.477333L384 512H85.333333v-85.333333h271.573334z m39.082666 215.893333l124.8-45.44 29.184 80.213333-124.8 45.397334a192 192 0 1 1-29.184-80.213334zM234.666667 853.333333a106.666667 106.666667 0 1 0 0-213.333333 106.666667 106.666667 0 0 0 0 213.333333z m554.666666 85.333334a192 192 0 1 1 0-384 192 192 0 0 1 0 384z m0-85.333334a106.666667 106.666667 0 1 0 0-213.333333 106.666667 106.666667 0 0 0 0 213.333333zM170.666667 469.333333h256l110.933333-73.941333 11.946667-44.629333 82.432 22.101333-82.005334 304.256-77.738666-37.888 5.034666-18.773333L384 682.666667l-42.666667-85.333334H170.666667v-128z m515.925333-213.333333H853.333333v128h-120.149333l81.92 225.109333-80.213333 29.184L642.389333 384H640v-6.485333L580.266667 213.333333H469.333333V128h170.666667l46.592 128z" /></svg>