<?xml version="1.0" standalone="no"?>
<!DOCTYPE svg PUBLIC "-//W3C//DTD SVG 1.1//EN" "http://www.w3.org/Graphics/SVG/1.1/DTD/svg11.dtd">
<svg class="icon" style="width: 1em;height: 1em;vertical-align: middle;fill: currentColor;overflow: hidden;" viewBox="0 0 1024 1024" version="1.1" xmlns="http://www.w3.org/2000/svg"><path d="M475.349333 85.333333h73.301334c85.930667 0 132.010667 11.861333 173.738666 34.176a232.618667 232.618667 0 0 1 96.768 96.768c22.314667 41.728 34.176 87.808 34.176 173.738667v243.968c0 85.930667-11.861333 132.010667-34.176 173.738667a232.618667 232.618667 0 0 1-96.768 96.768c-41.728 22.314667-87.808 34.176-173.738666 34.176H475.306667c-85.930667 0-132.010667-11.861333-173.738667-34.176A232.618667 232.618667 0 0 1 204.8 807.722667c-22.272-41.728-34.133333-87.808-34.133333-173.738667V389.973333c0-85.930667 11.861333-132.010667 34.176-173.738666A232.618667 232.618667 0 0 1 301.653333 119.509333C343.338667 97.194667 389.418667 85.333333 475.349333 85.333333zM469.333333 256v213.333333h85.333334V256h-85.333334z" /></svg>