<?xml version="1.0" standalone="no"?>
<!DOCTYPE svg PUBLIC "-//W3C//DTD SVG 1.1//EN" "http://www.w3.org/Graphics/SVG/1.1/DTD/svg11.dtd">
<svg class="icon" style="width: 1em;height: 1em;vertical-align: middle;fill: currentColor;overflow: hidden;" viewBox="0 0 1024 1024" version="1.1" xmlns="http://www.w3.org/2000/svg"><path d="M481.706667 162.730667l86.186666 243.498666 16.853334 47.616 0.298666-205.226666 0.426667-205.568h182.186667L768 506.496c0.128 255.146667-0.128 464.64-0.64 465.066667-0.512 0.384-8.917333 0-18.602667-1.152a2078.805333 2078.805333 0 0 0-142.506666-12.032 621.653333 621.653333 0 0 1-27.136-1.621334c-0.128-0.170667-11.648-32.512-33.109334-93.184v-0.170666l-91.477333-258.602667-14.506667-40.704-0.341333 195.669333c-0.256 186.24-0.426667 196.693333-2.432 196.693334-6.954667 0-66.986667 3.84-87.04 5.802666-13.141333 1.152-39.509333 3.84-58.453333 6.186667-19.029333 2.176-34.816 3.626667-35.114667 3.328C256.256 971.52 256 762.325333 256 507.008V42.752h0.213333V42.666667h182.954667l1.194667 3.413333c0.298667 0.682667 2.773333 7.509333 6.698666 18.645333l27.349334 75.861334 7.381333 21.162666-0.042667 0.981334z" /></svg>