<?xml version="1.0" standalone="no"?>
<!DOCTYPE svg PUBLIC "-//W3C//DTD SVG 1.1//EN" "http://www.w3.org/Graphics/SVG/1.1/DTD/svg11.dtd">
<svg class="icon" style="width: 1em;height: 1em;vertical-align: middle;fill: currentColor;overflow: hidden;" viewBox="0 0 1024 1024" version="1.1" xmlns="http://www.w3.org/2000/svg"><path d="M512 640a341.376 341.376 0 0 1 338.688 298.666667H173.312A341.376 341.376 0 0 1 512 640z m-77.354667 97.28A257.066667 257.066667 0 0 0 290.133333 853.333333H512l-77.354667-116.053333z m154.752 0L512 853.333333h221.824a256.853333 256.853333 0 0 0-144.426667-116.053333zM768 85.333333v256A256 256 0 1 1 256 341.333333V85.333333h512zM341.333333 341.333333c0 94.293333 76.373333 170.666667 170.666667 170.666667s170.666667-76.373333 170.666667-170.666667H341.333333z m341.333334-170.666666H341.333333v85.333333h341.333334V170.666667z" /></svg>