<?xml version="1.0" standalone="no"?>
<!DOCTYPE svg PUBLIC "-//W3C//DTD SVG 1.1//EN" "http://www.w3.org/Graphics/SVG/1.1/DTD/svg11.dtd">
<svg class="icon" style="width: 1em;height: 1em;vertical-align: middle;fill: currentColor;overflow: hidden;" viewBox="0 0 1024 1024" version="1.1" xmlns="http://www.w3.org/2000/svg"><path d="M371.626667 271.573333c-47.274667 55.68-77.781333 138.069333-79.914667 230.4v20.053334c2.176 92.373333 32.682667 174.634667 79.872 230.4 61.184 79.445333 152.149333 129.877333 253.866667 129.877333a307.541333 307.541333 0 0 0 170.88-52.309333 424.106667 424.106667 0 0 1-304.597334 108.16A426.581333 426.581333 0 0 1 85.333333 512C85.333333 276.309333 276.394667 85.333333 512 85.333333h1.578667a425.386667 425.386667 0 0 1 282.794666 108.629334 308.864 308.864 0 0 0-171.008-52.309334c-101.632 0-192.597333 50.474667-253.866666 129.92h0.085333zM938.666667 512a425.344 425.344 0 0 1-142.293334 318.037333c-109.44 53.333333-211.413333 16.042667-245.205333-7.253333 107.52-23.637333 188.714667-153.6 188.714667-310.784 0-157.226667-81.194667-287.146667-188.714667-310.741333 33.749333-23.253333 135.765333-60.586667 245.205333-7.296A425.258667 425.258667 0 0 1 938.666667 512z" /></svg>