<?xml version="1.0" standalone="no"?>
<!DOCTYPE svg PUBLIC "-//W3C//DTD SVG 1.1//EN" "http://www.w3.org/Graphics/SVG/1.1/DTD/svg11.dtd">
<svg class="icon" style="width: 1em;height: 1em;vertical-align: middle;fill: currentColor;overflow: hidden;" viewBox="0 0 1024 1024" version="1.1" xmlns="http://www.w3.org/2000/svg"><path d="M362.453333 881.792h66.176l22.954667-144.042667a119.68 119.68 0 0 1 118.186667-100.949333h21.333333c114.218667 0 173.226667-41.941333 194.133333-149.461333 8.874667-45.482667 4.992-73.813333-7.296-89.685334-51.498667 130.304-161.706667 177.493333-297.045333 177.493334h-37.717333c-16.384 0-33.877333 8.917333-36.352 24.746666l-44.373334 281.898667z m-210.944-12.544a23.509333 23.509333 0 0 1-23.210666-27.178667L242.346667 118.442667A39.253333 39.253333 0 0 1 281.173333 85.333333h274.090667c94.378667 0 168.192 19.925333 209.024 66.474667 37.12 42.24 47.914667 88.917333 37.162667 157.525333 15.36 8.149333 28.501333 18.133333 39.082666 30.122667 34.901333 39.808 41.728 96.426667 28.501334 164.266667-31.573333 162.346667-139.776 218.453333-277.930667 218.453333h-21.333333a34.346667 34.346667 0 0 0-33.877334 28.970667l-29.952 187.008a34.304 34.304 0 0 1-33.877333 28.970666H286.72a20.608 20.608 0 0 1-20.352-23.808l11.690667-74.069333H151.466667z m291.669334-379.477333h37.717333c136.106667 0 208.853333-51.712 233.941333-180.437334 0.853333-4.309333 1.578667-8.661333 2.261334-13.184 7.082667-45.226667 2.133333-66.261333-16.981334-88.021333-19.84-22.613333-68.394667-37.461333-144.896-37.461333h-234.666666L223.829333 783.914667h66.602667l31.146667-197.461334 0.298666 0.042667a124.373333 124.373333 0 0 1 121.301334-96.725333z" /></svg>