<?xml version="1.0" standalone="no"?>
<!DOCTYPE svg PUBLIC "-//W3C//DTD SVG 1.1//EN" "http://www.w3.org/Graphics/SVG/1.1/DTD/svg11.dtd">
<svg class="icon" style="width: 1em;height: 1em;vertical-align: middle;fill: currentColor;overflow: hidden;" viewBox="0 0 1024 1024" version="1.1" xmlns="http://www.w3.org/2000/svg"><path d="M240.469333 542.165333l77.994667 78.037334L378.88 559.786667l-78.08-77.952 60.330667-60.330667 78.037333 77.994667 60.330667-60.330667L421.546667 361.130667l60.330666-60.330667 77.909334 78.08 60.373333-60.373333-78.037333-77.994667 120.704-120.661333a42.666667 42.666667 0 0 1 60.330666 0l180.992 180.992a42.666667 42.666667 0 0 1 0 60.330666L361.130667 904.192a42.666667 42.666667 0 0 1-60.330667 0L119.808 723.2a42.666667 42.666667 0 0 1 0-60.330667l120.661333-120.704z m362.026667 241.322667l181.034667-180.992L896 714.965333V896h-180.992l-112.512-112.512zM240.469333 421.461333L119.765333 300.8a42.666667 42.666667 0 0 1 0-60.373333l120.704-120.661334a42.666667 42.666667 0 0 1 60.330667 0l120.746667 120.661334-181.077334 181.034666z" /></svg>