<?xml version="1.0" standalone="no"?>
<!DOCTYPE svg PUBLIC "-//W3C//DTD SVG 1.1//EN" "http://www.w3.org/Graphics/SVG/1.1/DTD/svg11.dtd">
<svg class="icon" style="width: 1em;height: 1em;vertical-align: middle;fill: currentColor;overflow: hidden;" viewBox="0 0 1024 1024" version="1.1" xmlns="http://www.w3.org/2000/svg"><path d="M399.616 455.765333a450.389333 450.389333 0 0 0 168.618667 168.618667l37.717333-52.821333a42.666667 42.666667 0 0 1 55.210667-12.629334 487.338667 487.338667 0 0 0 195.541333 58.197334 42.666667 42.666667 0 0 1 39.296 42.538666v190.378667a42.666667 42.666667 0 0 1-38.314667 42.453333A661.76 661.76 0 0 1 789.333333 896C424.106667 896 128 599.893333 128 234.666667c0-22.954667 1.152-45.738667 3.498667-68.352A42.666667 42.666667 0 0 1 173.952 128h190.378667a42.666667 42.666667 0 0 1 42.538666 39.296A487.338667 487.338667 0 0 0 465.066667 362.837333a42.666667 42.666667 0 0 1-12.629334 55.210667l-52.821333 37.717333z m-107.605333-28.032l81.066666-57.898666A572.16 572.16 0 0 1 326.272 213.333333H213.76c-0.256 7.082667-0.384 14.208-0.384 21.333334C213.333333 552.789333 471.210667 810.666667 789.333333 810.666667c7.125333 0 14.250667-0.128 21.333334-0.426667v-112.512a572.16 572.16 0 0 1-156.501334-46.805333l-57.898666 81.066666a530.858667 530.858667 0 0 1-67.754667-32l-2.474667-1.408a535.722667 535.722667 0 0 1-200.618666-200.618666l-1.408-2.474667a530.858667 530.858667 0 0 1-32-67.754667z" /></svg>