<?xml version="1.0" standalone="no"?>
<!DOCTYPE svg PUBLIC "-//W3C//DTD SVG 1.1//EN" "http://www.w3.org/Graphics/SVG/1.1/DTD/svg11.dtd">
<svg class="icon" style="width: 1em;height: 1em;vertical-align: middle;fill: currentColor;overflow: hidden;" viewBox="0 0 1024 1024" version="1.1" xmlns="http://www.w3.org/2000/svg"><path d="M896 700.586667v150.869333a42.666667 42.666667 0 0 1-39.68 42.581333c-18.645333 1.28-33.877333 1.962667-45.653333 1.962667-377.045333 0-682.666667-305.621333-682.666667-682.666667 0-11.776 0.64-27.008 1.962667-45.653333A42.666667 42.666667 0 0 1 172.544 128H323.413333a21.333333 21.333333 0 0 1 21.248 19.2c0.981333 9.813333 1.877333 17.621333 2.730667 23.552A593.109333 593.109333 0 0 0 398.933333 341.461333c4.053333 8.533333 1.408 18.730667-6.272 24.192l-92.074666 65.792a556.672 556.672 0 0 0 292.010666 292.010667l65.706667-91.904a19.712 19.712 0 0 1 24.448-6.357333 593.109333 593.109333 0 0 0 170.666667 51.413333c5.930667 0.853333 13.738667 1.792 23.466666 2.730667a21.333333 21.333333 0 0 1 19.157334 21.248z" /></svg>