<?xml version="1.0" standalone="no"?>
<!DOCTYPE svg PUBLIC "-//W3C//DTD SVG 1.1//EN" "http://www.w3.org/Graphics/SVG/1.1/DTD/svg11.dtd">
<svg class="icon" style="width: 1em;height: 1em;vertical-align: middle;fill: currentColor;overflow: hidden;" viewBox="0 0 1024 1024" version="1.1" xmlns="http://www.w3.org/2000/svg"><path d="M768 85.333333a42.666667 42.666667 0 0 1 42.666667 42.666667l0.042666 302.933333A213.418667 213.418667 0 0 0 558.933333 597.333333H512v341.333334H256a42.666667 42.666667 0 0 1-42.666667-42.666667V128a42.666667 42.666667 0 0 1 42.666667-42.666667h512z m0 426.666667a128 128 0 0 1 128 128v42.666667h42.666667v213.333333a42.666667 42.666667 0 0 1-42.666667 42.666667h-256a42.666667 42.666667 0 0 1-42.666667-42.666667v-213.333333h42.666667v-42.666667a128 128 0 0 1 128-128z m0 85.333333c-21.888 0-42.666667 19.2-42.666667 42.666667v42.666667h85.333334v-42.666667a42.666667 42.666667 0 0 0-42.666667-42.666667z" /></svg>