<?xml version="1.0" standalone="no"?>
<!DOCTYPE svg PUBLIC "-//W3C//DTD SVG 1.1//EN" "http://www.w3.org/Graphics/SVG/1.1/DTD/svg11.dtd">
<svg class="icon" style="width: 1em;height: 1em;vertical-align: middle;fill: currentColor;overflow: hidden;" viewBox="0 0 1024 1024" version="1.1" xmlns="http://www.w3.org/2000/svg"><path d="M490.666667 85.333333a405.333333 405.333333 0 0 1 405.333333 405.333334 403.626667 403.626667 0 0 1-42.794667 181.504l105.088 105.130666a42.666667 42.666667 0 0 1 0 60.330667l-120.661333 120.661333a42.666667 42.666667 0 0 1-60.330667 0l-105.130666-105.088A403.626667 403.626667 0 0 1 490.666667 896a405.333333 405.333333 0 0 1 0-810.666667z m226.261333 571.221334l-60.330667 60.330666 150.869334 150.826667 60.330666-60.330667-150.869333-150.826666z m79.530667-260.48l-400.384 400.384A320.426667 320.426667 0 0 0 490.666667 810.666667a319.146667 319.146667 0 0 0 116.906666-22.016l-41.472-41.557334a42.666667 42.666667 0 0 1 0-60.330666l120.661334-120.661334a42.666667 42.666667 0 0 1 60.330666 0l41.557334 41.472A319.146667 319.146667 0 0 0 810.666667 490.666667c0-32.938667-4.992-64.682667-14.208-94.592z" /></svg>