<?xml version="1.0" standalone="no"?>
<!DOCTYPE svg PUBLIC "-//W3C//DTD SVG 1.1//EN" "http://www.w3.org/Graphics/SVG/1.1/DTD/svg11.dtd">
<svg class="icon" style="width: 1em;height: 1em;vertical-align: middle;fill: currentColor;overflow: hidden;" viewBox="0 0 1024 1024" version="1.1" xmlns="http://www.w3.org/2000/svg"><path d="M362.24 818.816c1.024-14.336 3.072-28.629333 6.144-42.709333 2.688-12.586667 10.837333-48.213333 22.784-99.84l0.298667-1.28 16.512-71.168c3.370667-14.506667 5.973333-25.770667 7.722666-29.525334a147.626667 147.626667 0 0 1-12.117333-60.714666c0-57.045333 32.256-101.248 74.069333-101.248 15.36-0.256 30.037333 6.4 40.192 18.176 10.154667 11.733333 14.848 27.477333 12.885334 42.496 0 19.328-3.626667 34.048-19.328 86.826666-3.029333 10.154667-5.12 17.237333-7.082667 24.362667-2.176 8.021333-4.053333 15.274667-5.632 22.272-4.096 16.469333-0.341333 34.005333 10.112 47.189333a51.2 51.2 0 0 0 42.922667 19.456c63.658667 0 110.933333-84.693333 110.933333-194.048 0-84.053333-55.04-139.690667-146.432-139.690666A165.461333 165.461333 0 0 0 392.533333 388.266667a176.213333 176.213333 0 0 0-50.986666 126.336 108.928 108.928 0 0 0 21.845333 70.144c7.722667 5.973333 10.666667 16.341333 7.466667 25.173333-1.749333 7.168-5.973333 23.552-7.509334 29.013333a17.493333 17.493333 0 0 1-9.216 12.672 16.554667 16.554667 0 0 1-15.146666 0.085334c-49.493333-20.437333-76.629333-75.861333-76.629334-146.773334 0-127.36 106.282667-238.250667 264.192-238.250666 133.76 0 233.856 99.370667 233.856 219.306666 0 150.698667-82.432 260.437333-200.106666 260.437334a107.008 107.008 0 0 1-87.296-40.917334l-1.834667 7.552-8.832 36.352-0.085333 0.298667c-6.229333 25.6-10.581333 43.392-12.288 50.090667-4.522667 15.146667-10.24 29.994667-17.066667 44.373333a341.333333 341.333333 0 1 0-70.656-25.301333zM512 938.666667C276.352 938.666667 85.333333 747.648 85.333333 512S276.352 85.333333 512 85.333333s426.666667 191.018667 426.666667 426.666667-191.018667 426.666667-426.666667 426.666667z" /></svg>