<?xml version="1.0" standalone="no"?>
<!DOCTYPE svg PUBLIC "-//W3C//DTD SVG 1.1//EN" "http://www.w3.org/Graphics/SVG/1.1/DTD/svg11.dtd">
<svg class="icon" style="width: 1em;height: 1em;vertical-align: middle;fill: currentColor;overflow: hidden;" viewBox="0 0 1024 1024" version="1.1" xmlns="http://www.w3.org/2000/svg"><path d="M570.453333 89.344A426.794667 426.794667 0 0 0 341.418667 903.253333a330.965333 330.965333 0 0 1 6.954666-97.834666c7.893333-35.797333 55.296-233.088 55.296-233.088a159.530667 159.530667 0 0 1-13.824-67.285334c0-63.36 36.565333-110.634667 82.048-110.634666a56.917333 56.917333 0 0 1 57.258667 64.341333c0 38.4-24.661333 96.512-37.546667 151.04a65.877333 65.877333 0 0 0 67.2 82.048c80.981333 0 135.253333-103.722667 135.253334-226.176 0-93.866667-62.165333-164.181333-176.768-164.181333a202.496 202.496 0 0 0-210.346667 204.544 126.293333 126.293333 0 0 0 27.648 84.053333 20.48 20.48 0 0 1 6.912 23.637333c-1.962667 7.850667-6.912 26.581333-8.874667 33.450667a15.104 15.104 0 0 1-21.76 10.837333c-59.050667-23.637333-86.869333-88.618667-86.869333-162.816 0-121.472 101.717333-266.88 305.237333-266.88 161.962667 0 269.653333 118.485333 269.653334 245.205334 0 166.784-92.885333 292.181333-230.144 292.181333a122.069333 122.069333 0 0 1-104.704-53.162667s-24.661333 98.816-29.525334 117.504a342.442667 342.442667 0 0 1-43.477333 90.922667c39.381333 11.946667 80.298667 17.92 121.429333 17.749333a426.154667 426.154667 0 0 0 426.496-426.794666 426.752 426.752 0 0 0-368.426666-422.528z" /></svg>