<?xml version="1.0" standalone="no"?>
<!DOCTYPE svg PUBLIC "-//W3C//DTD SVG 1.1//EN" "http://www.w3.org/Graphics/SVG/1.1/DTD/svg11.dtd">
<svg class="icon" style="width: 1em;height: 1em;vertical-align: middle;fill: currentColor;overflow: hidden;" viewBox="0 0 1024 1024" version="1.1" xmlns="http://www.w3.org/2000/svg"><path d="M554.666667 768v85.333333h256v85.333334h-256a85.333333 85.333333 0 0 1-85.333334-85.333334v-85.333333H341.333333a170.666667 170.666667 0 0 1-170.666666-170.666667v-170.666666h682.666666v170.666666a170.666667 170.666667 0 0 1-170.666666 170.666667h-128z m128-512h128a42.666667 42.666667 0 0 1 42.666666 42.666667v85.333333H170.666667V298.666667a42.666667 42.666667 0 0 1 42.666666-42.666667h128V85.333333h85.333334v170.666667h170.666666V85.333333h85.333334v170.666667z m-170.666667 362.666667a42.666667 42.666667 0 1 0 0-85.333334 42.666667 42.666667 0 0 0 0 85.333334z" /></svg>