<?xml version="1.0" standalone="no"?>
<!DOCTYPE svg PUBLIC "-//W3C//DTD SVG 1.1//EN" "http://www.w3.org/Graphics/SVG/1.1/DTD/svg11.dtd">
<svg class="icon" style="width: 1em;height: 1em;vertical-align: middle;fill: currentColor;overflow: hidden;" viewBox="0 0 1024 1024" version="1.1" xmlns="http://www.w3.org/2000/svg"><path d="M810.666667 640V213.333333H213.333333v426.666667h597.333334zM128 170.368C128 146.986667 146.986667 128 170.368 128h683.264c23.381333 0 42.368 18.986667 42.368 42.368v683.264a42.410667 42.410667 0 0 1-42.368 42.368H170.368A42.410667 42.410667 0 0 1 128 853.632V170.368zM512 512a85.333333 85.333333 0 1 0 0-170.666667 85.333333 85.333333 0 0 0 0 170.666667z m0 85.333333a170.666667 170.666667 0 1 1 0-341.333333 170.666667 170.666667 0 0 1 0 341.333333zM256 256h85.333333v85.333333H256V256z m0 469.333333v85.333334h512v-85.333334H256z" /></svg>