<?xml version="1.0" standalone="no"?>
<!DOCTYPE svg PUBLIC "-//W3C//DTD SVG 1.1//EN" "http://www.w3.org/Graphics/SVG/1.1/DTD/svg11.dtd">
<svg class="icon" style="width: 1em;height: 1em;vertical-align: middle;fill: currentColor;overflow: hidden;" viewBox="0 0 1024 1024" version="1.1" xmlns="http://www.w3.org/2000/svg"><path d="M128 298.666667l360.32-240.213334a42.666667 42.666667 0 0 1 47.36 0L896 298.666667v597.333333a42.666667 42.666667 0 0 1-42.666667 42.666667H170.666667a42.666667 42.666667 0 0 1-42.666667-42.666667V298.666667z m85.333333 45.653333V853.333333h597.333334V344.32l-298.666667-199.082667L213.333333 344.32zM341.333333 682.666667h341.333334v85.333333H341.333333v-85.333333z m0-128h341.333334v85.333333H341.333333v-85.333333z m170.666667-85.333334a85.333333 85.333333 0 1 1 0-170.666666 85.333333 85.333333 0 0 1 0 170.666666z" /></svg>