<?xml version="1.0" standalone="no"?>
<!DOCTYPE svg PUBLIC "-//W3C//DTD SVG 1.1//EN" "http://www.w3.org/Graphics/SVG/1.1/DTD/svg11.dtd">
<svg class="icon" style="width: 1em;height: 1em;vertical-align: middle;fill: currentColor;overflow: hidden;" viewBox="0 0 1024 1024" version="1.1" xmlns="http://www.w3.org/2000/svg"><path d="M450.816 725.333333A202.112 202.112 0 0 0 426.666667 821.333333c0 43.648 13.824 84.181333 37.418666 117.333334H298.666667v-213.333334h152.149333z m295.850667-170.666666a149.333333 149.333333 0 0 1 149.333333 149.333333l-0.042667 4.394667a117.333333 117.333333 0 0 1-24.789333 230.058666L864 938.666667h-234.666667l-7.168-0.213334a117.333333 117.333333 0 0 1-24.704-230.058666L597.333333 704a149.333333 149.333333 0 0 1 149.333334-149.333333zM896 341.333333a42.666667 42.666667 0 0 1 42.666667 42.666667l0.042666 185.429333A233.898667 233.898667 0 0 0 746.666667 469.333333l-9.429334 0.170667A234.794667 234.794667 0 0 0 520.832 640H213.333333v213.333333H128a42.666667 42.666667 0 0 1-42.666667-42.666666V384a42.666667 42.666667 0 0 1 42.666667-42.666667h768zM341.333333 426.666667H213.333333v85.333333h128v-85.333333z m384-341.333334a42.666667 42.666667 0 0 1 42.666667 42.666667v128H256V128a42.666667 42.666667 0 0 1 42.666667-42.666667h426.666666z" /></svg>