<?xml version="1.0" standalone="no"?>
<!DOCTYPE svg PUBLIC "-//W3C//DTD SVG 1.1//EN" "http://www.w3.org/Graphics/SVG/1.1/DTD/svg11.dtd">
<svg class="icon" style="width: 1em;height: 1em;vertical-align: middle;fill: currentColor;overflow: hidden;" viewBox="0 0 1024 1024" version="1.1" xmlns="http://www.w3.org/2000/svg"><path d="M298.666667 725.333333h426.666666v213.333334H298.666667v-213.333334z m512 128v-213.333333H213.333333v213.333333H128a42.666667 42.666667 0 0 1-42.666667-42.666666V384a42.666667 42.666667 0 0 1 42.666667-42.666667h768a42.666667 42.666667 0 0 1 42.666667 42.666667v426.666667a42.666667 42.666667 0 0 1-42.666667 42.666666h-85.333333zM213.333333 426.666667v85.333333h128v-85.333333H213.333333z m85.333334-341.333334h426.666666a42.666667 42.666667 0 0 1 42.666667 42.666667v128H256V128a42.666667 42.666667 0 0 1 42.666667-42.666667z" /></svg>