<?xml version="1.0" standalone="no"?>
<!DOCTYPE svg PUBLIC "-//W3C//DTD SVG 1.1//EN" "http://www.w3.org/Graphics/SVG/1.1/DTD/svg11.dtd">
<svg class="icon" style="width: 1em;height: 1em;vertical-align: middle;fill: currentColor;overflow: hidden;" viewBox="0 0 1024 1024" version="1.1" xmlns="http://www.w3.org/2000/svg"><path d="M512 810.666667a64 64 0 1 1-0.042667 128.042666A64 64 0 0 1 512 810.666667z m0-725.333334a256 256 0 0 1 256 256c0 92.373333-32.128 140.373333-114.090667 210.048C571.690667 621.226667 554.666667 652.672 554.666667 725.333333h-85.333334c0-105.557333 33.578667-157.653333 129.322667-238.976C663.381333 431.36 682.666667 402.517333 682.666667 341.333333c0-94.293333-76.373333-170.666667-170.666667-170.666666S341.333333 247.04 341.333333 341.333333v42.666667H256V341.333333a256 256 0 0 1 256-256z" /></svg>