<?xml version="1.0" standalone="no"?><!DOCTYPE svg PUBLIC "-//W3C//DTD SVG 1.1//EN" "http://www.w3.org/Graphics/SVG/1.1/DTD/svg11.dtd"><svg t="1783650680006" class="icon" viewBox="0 0 1024 1024" version="1.1" xmlns="http://www.w3.org/2000/svg" p-id="1149" xmlns:xlink="http://www.w3.org/1999/xlink" width="200" height="200"><path d="M118.390154 78.769231a39.384615 39.384615 0 0 1 78.769231 0v157.538461a78.769231 78.769231 0 0 1 78.76923 78.769231v236.307692a78.769231 78.769231 0 0 1-78.76923 78.769231v157.538462a39.384615 39.384615 0 1 1-78.769231 0v-157.538462a78.769231 78.769231 0 0 1-78.769231-78.769231V315.076923a78.769231 78.769231 0 0 1 78.769231-78.769231V78.769231z m78.769231 472.615384V315.076923h-78.769231v236.307692h78.769231zM866.697846 39.384615a39.384615 39.384615 0 0 0-39.384615 39.384616v157.538461a78.769231 78.769231 0 0 0-78.769231 78.769231v236.307692a78.769231 78.769231 0 0 0 78.769231 78.769231v157.538462a39.384615 39.384615 0 1 0 78.769231 0v-157.538462a78.769231 78.769231 0 0 0 78.76923-78.769231V315.076923a78.769231 78.769231 0 0 0-78.76923-78.769231V78.769231a39.384615 39.384615 0 0 0-39.384616-39.384616z m39.384616 275.692308v236.307692h-78.769231V315.076923h78.769231z" fill="#333333" p-id="1150"></path><path d="M472.851692 315.076923a39.384615 39.384615 0 1 1 78.769231 0v118.153846a78.769231 78.769231 0 0 1 78.769231 78.769231v236.307692a78.769231 78.769231 0 0 1-78.769231 78.769231v118.153846a39.384615 39.384615 0 1 1-78.769231 0v-118.153846a78.769231 78.769231 0 0 1-78.76923-78.769231v-236.307692a78.769231 78.769231 0 0 1 78.76923-78.769231V315.076923z m78.769231 196.923077h-78.769231v236.307692h78.769231v-236.307692z" fill="#E40F0F" p-id="1151"></path></svg>