<?xml version="1.0" standalone="no"?>
<!DOCTYPE svg PUBLIC "-//W3C//DTD SVG 1.1//EN" "http://www.w3.org/Graphics/SVG/1.1/DTD/svg11.dtd">
<svg class="icon" style="width: 1em;height: 1em;vertical-align: middle;fill: currentColor;overflow: hidden;" viewBox="0 0 1024 1024" version="1.1" xmlns="http://www.w3.org/2000/svg"><path d="M512 170.666667c259.2 0 469.333333 210.133333 469.333333 469.333333v213.333333h-128v-213.333333a341.333333 341.333333 0 0 0-330.666666-341.162667L512 298.666667a341.333333 341.333333 0 0 0-341.162667 330.666666L170.666667 640v213.333333H42.666667v-213.333333C42.666667 380.8 252.8 170.666667 512 170.666667z m0 170.666666a298.666667 298.666667 0 0 1 298.666667 298.666667v213.333333h-128v-213.333333a170.666667 170.666667 0 0 0-162.133334-170.453333L512 469.333333a170.666667 170.666667 0 0 0-170.453333 162.133334L341.333333 640v213.333333H213.333333v-213.333333a298.666667 298.666667 0 0 1 298.666667-298.666667z m0 170.666667a128 128 0 0 1 128 128v213.333333H384v-213.333333a128 128 0 0 1 128-128z" /></svg>