<?xml version="1.0" standalone="no"?>
<!DOCTYPE svg PUBLIC "-//W3C//DTD SVG 1.1//EN" "http://www.w3.org/Graphics/SVG/1.1/DTD/svg11.dtd">
<svg class="icon" style="width: 1em;height: 1em;vertical-align: middle;fill: currentColor;overflow: hidden;" viewBox="0 0 1024 1024" version="1.1" xmlns="http://www.w3.org/2000/svg"><path d="M834.645333 516.138667l65.322667 113.194666a149.333333 149.333333 0 0 1-129.28 224H682.666667v106.666667L469.333333 810.666667l213.333334-149.333334V768h87.978666a64 64 0 0 0 55.466667-96l-65.365333-113.194667 73.898666-42.666666zM311.637333 389.717333l22.613334 259.413334-92.330667-53.333334-43.989333 76.202667A64 64 0 0 0 253.354667 768H384v85.333333H253.354667a149.333333 149.333333 0 0 1-129.322667-224l43.946667-76.245333-92.330667-53.290667 235.946667-110.08z m275.029334-263.04c22.698667 13.098667 41.557333 31.957333 54.656 54.656l43.946666 76.16 92.416-53.333333-22.613333 259.456-236.032-110.08 92.373333-53.333333-43.989333-76.202667a64 64 0 0 0-110.848 0L391.210667 337.194667l-73.898667-42.666667L382.72 181.333333a149.333333 149.333333 0 0 1 203.989333-54.656z" /></svg>