<?xml version="1.0" standalone="no"?>
<!DOCTYPE svg PUBLIC "-//W3C//DTD SVG 1.1//EN" "http://www.w3.org/Graphics/SVG/1.1/DTD/svg11.dtd">
<svg class="icon" style="width: 1em;height: 1em;vertical-align: middle;fill: currentColor;overflow: hidden;" viewBox="0 0 1024 1024" version="1.1" xmlns="http://www.w3.org/2000/svg"><path d="M604.714667 416.554667A425.813333 425.813333 0 0 0 810.666667 304.682667V170.666667H213.333333v134.016a425.813333 425.813333 0 0 0 205.952 111.872 106.666667 106.666667 0 0 1 185.429334 0z m8.874666 85.333333a106.709333 106.709333 0 0 1-203.178666 0A509.44 509.44 0 0 1 213.333333 415.957333V853.333333h597.333334V415.914667a509.44 509.44 0 0 1-197.077334 86.016zM170.666667 85.333333h682.666666a42.666667 42.666667 0 0 1 42.666667 42.666667v768a42.666667 42.666667 0 0 1-42.666667 42.666667H170.666667a42.666667 42.666667 0 0 1-42.666667-42.666667V128a42.666667 42.666667 0 0 1 42.666667-42.666667z" /></svg>