<?xml version="1.0" standalone="no"?>
<!DOCTYPE svg PUBLIC "-//W3C//DTD SVG 1.1//EN" "http://www.w3.org/Graphics/SVG/1.1/DTD/svg11.dtd">
<svg class="icon" style="width: 1em;height: 1em;vertical-align: middle;fill: currentColor;overflow: hidden;" viewBox="0 0 1024 1024" version="1.1" xmlns="http://www.w3.org/2000/svg"><path d="M473.685333 333.44l32.042667-150.869333a85.333333 85.333333 0 0 1 101.248-65.706667l136.362667 29.013333a85.333333 85.333333 0 1 1-17.749334 83.456l-136.362666-29.013333-28.416 133.76c76.117333 5.845333 151.765333 31.146667 220.288 72.533333a136.192 136.192 0 0 1 202.282666 114.048v0.896a136.192 136.192 0 0 1-51.498666 108.8 121.813333 121.813333 0 0 1-0.341334 5.248c0 170.581333-189.866667 299.946667-418.090666 299.946667-227.498667 0-414.208-129.024-414.08-296.661333a226.56 226.56 0 0 1-0.426667-7.722667 136.192 136.192 0 0 1 147.370667-228.266667 488.362667 488.362667 0 0 1 227.370666-69.461333z m396.202667 235.776c17.408-8.661333 28.330667-26.453333 28.202667-45.866667a50.858667 50.858667 0 0 0-86.016-34.389333l-24.96 23.893333-28.586667-19.413333c-68.906667-46.848-147.285333-73.6-223.146667-75.264h-42.922666c-80 1.237333-155.776 25.6-223.445334 71.466667l-28.288 19.2-24.917333-23.466667a50.858667 50.858667 0 1 0-56.064 83.285333l27.008 12.373334-2.304 29.653333c-0.554667 7.253333-0.554667 14.464 0.128 24.917333 0 115.626667 143.189333 214.613333 328.874667 214.613334 186.496 0 332.757333-99.669333 332.885333-217.856a141.226667 141.226667 0 0 0 0-21.674667l-2.218667-28.672 25.770667-12.8zM298.666667 576a64 64 0 1 1 128 0 64 64 0 0 1-128 0z m298.666666 0a64 64 0 1 1 128 0 64 64 0 0 1-128 0z m-84.650666 217.728c-59.605333 0-118.058667-15.786667-165.632-51.626667a18.090667 18.090667 0 0 1 25.472-25.472c40.32 29.568 90.581333 42.24 139.477333 42.24s99.413333-11.733333 140.117333-40.917333a18.730667 18.730667 0 0 1 31.232 8.789333 20.010667 20.010667 0 0 1-5.077333 18.048c-29.184 34.005333-105.984 48.938667-165.589333 48.938667z" /></svg>