<?xml version="1.0" standalone="no"?>
<!DOCTYPE svg PUBLIC "-//W3C//DTD SVG 1.1//EN" "http://www.w3.org/Graphics/SVG/1.1/DTD/svg11.dtd">
<svg class="icon" style="width: 1em;height: 1em;vertical-align: middle;fill: currentColor;overflow: hidden;" viewBox="0 0 1024 1024" version="1.1" xmlns="http://www.w3.org/2000/svg"><path d="M512 85.333333c235.648 0 426.666667 191.018667 426.666667 426.666667s-191.018667 426.666667-426.666667 426.666667a424.96 424.96 0 0 1-272.341333-98.218667l-10.410667-8.917333 38.485333-81.152a341.333333 341.333333 0 1 0-96.853333-249.045334L170.666667 512h106.666666l-115.456 243.882667A424.704 424.704 0 0 1 85.333333 512C85.333333 276.352 276.352 85.333333 512 85.333333z m42.666667 170.666667v85.333333h106.666666v85.333334H426.666667a21.333333 21.333333 0 0 0-3.84 42.325333L426.666667 469.333333h170.666666a106.666667 106.666667 0 1 1 0 213.333334h-42.666666v85.333333h-85.333334v-85.333333H362.666667v-85.333334H597.333333a21.333333 21.333333 0 0 0 3.84-42.325333L597.333333 554.666667h-170.666666a106.666667 106.666667 0 1 1 0-213.333334h42.666666V256h85.333334z" /></svg>