<?xml version="1.0" standalone="no"?>
<!DOCTYPE svg PUBLIC "-//W3C//DTD SVG 1.1//EN" "http://www.w3.org/Graphics/SVG/1.1/DTD/svg11.dtd">
<svg class="icon" style="width: 1em;height: 1em;vertical-align: middle;fill: currentColor;overflow: hidden;" viewBox="0 0 1024 1024" version="1.1" xmlns="http://www.w3.org/2000/svg"><path d="M512 85.333333c235.648 0 426.666667 191.018667 426.666667 426.666667s-191.018667 426.666667-426.666667 426.666667S85.333333 747.648 85.333333 512 276.352 85.333333 512 85.333333z m21.333333 213.333334H341.333333v426.666666h85.333334v-128h94.592l93.013333 128h105.472l-108.8-149.76a149.333333 149.333333 0 0 0-69.418667-276.736L533.333333 298.666667z m0 85.333333a64 64 0 0 1 63.701334 57.856L597.333333 448l-0.298666 6.144a64 64 0 0 1-57.557334 57.6L533.333333 512H426.666667V384h106.666666z" /></svg>