<?xml version="1.0" standalone="no"?>
<!DOCTYPE svg PUBLIC "-//W3C//DTD SVG 1.1//EN" "http://www.w3.org/Graphics/SVG/1.1/DTD/svg11.dtd">
<svg class="icon" style="width: 1em;height: 1em;vertical-align: middle;fill: currentColor;overflow: hidden;" viewBox="0 0 1024 1024" version="1.1" xmlns="http://www.w3.org/2000/svg"><path d="M768 85.333333a42.666667 42.666667 0 0 1 42.666667 42.666667v768a42.666667 42.666667 0 0 1-42.666667 42.666667H256a42.666667 42.666667 0 0 1-42.666667-42.666667V128a42.666667 42.666667 0 0 1 42.666667-42.666667h512z m-128 554.666667h-85.333333v85.333333h85.333333v-85.333333z m-170.666667 0H384v85.333333h85.333333v-85.333333z m85.333334-384h-85.333334v85.333333H384v85.333334h85.290667L469.333333 512h85.333334l-0.042667-85.333333H640V341.333333h-85.333333V256z" /></svg>