<?xml version="1.0" standalone="no"?>
<!DOCTYPE svg PUBLIC "-//W3C//DTD SVG 1.1//EN" "http://www.w3.org/Graphics/SVG/1.1/DTD/svg11.dtd">
<svg class="icon" style="width: 1em;height: 1em;vertical-align: middle;fill: currentColor;overflow: hidden;" viewBox="0 0 1024 1024" version="1.1" xmlns="http://www.w3.org/2000/svg"><path d="M725.333333 512a42.666667 42.666667 0 0 1 42.666667 42.666667v384H256v-384a42.666667 42.666667 0 0 1 42.666667-42.666667h426.666666z m-298.666666 85.333333H341.333333v85.333334h85.333334v-85.333334z m85.333333-341.333333a256 256 0 0 1 229.034667 141.482667l-76.373334 38.186666a170.666667 170.666667 0 0 0-305.365333 0l-76.330667-38.186666A256 256 0 0 1 512 256z m0-170.666667a426.666667 426.666667 0 0 1 381.696 235.818667l-76.330667 38.186667A341.333333 341.333333 0 0 0 512 170.666667a341.333333 341.333333 0 0 0-305.365333 188.672l-76.373334-38.186667A426.666667 426.666667 0 0 1 512 85.333333z" /></svg>