<?xml version="1.0" standalone="no"?>
<!DOCTYPE svg PUBLIC "-//W3C//DTD SVG 1.1//EN" "http://www.w3.org/Graphics/SVG/1.1/DTD/svg11.dtd">
<svg class="icon" style="width: 1em;height: 1em;vertical-align: middle;fill: currentColor;overflow: hidden;" viewBox="0 0 1024 1024" version="1.1" xmlns="http://www.w3.org/2000/svg"><path d="M384 420.693333L254.634667 512 384 603.306667V420.693333z m81.408 318.421334a21.333333 21.333333 0 0 1-29.696 5.12l-304.341333-214.826667a21.333333 21.333333 0 0 1 0-34.816l304.341333-214.869333a21.333333 21.333333 0 0 1 33.621333 17.450666v429.653334a21.333333 21.333333 0 0 1-3.925333 12.288zM768 603.306667V420.693333L638.634667 512 768 603.306667z m-252.629333-73.898667a21.333333 21.333333 0 0 1 0-34.816l304.341333-214.869333a21.333333 21.333333 0 0 1 33.621333 17.450666v429.653334a21.333333 21.333333 0 0 1-33.621333 17.450666l-304.341333-214.869333z" /></svg>