<?xml version="1.0" standalone="no"?>
<!DOCTYPE svg PUBLIC "-//W3C//DTD SVG 1.1//EN" "http://www.w3.org/Graphics/SVG/1.1/DTD/svg11.dtd">
<svg class="icon" style="width: 1em;height: 1em;vertical-align: middle;fill: currentColor;overflow: hidden;" viewBox="0 0 1024 1024" version="1.1" xmlns="http://www.w3.org/2000/svg"><path d="M512 455.125333l393.514667-262.357333a21.333333 21.333333 0 0 1 33.152 17.749333v602.965334a21.333333 21.333333 0 0 1-33.152 17.749333L512 568.874667v244.608a21.333333 21.333333 0 0 1-33.152 17.749333L26.624 529.749333a21.333333 21.333333 0 0 1 0-35.498666l452.224-301.482667a21.333333 21.333333 0 0 1 33.152 17.749333v244.608z m-85.333333 238.762667V330.112L153.856 512 426.666667 693.888z m426.666666 0V330.112L580.522667 512 853.333333 693.888z" /></svg>