<?xml version="1.0" standalone="no"?>
<!DOCTYPE svg PUBLIC "-//W3C//DTD SVG 1.1//EN" "http://www.w3.org/Graphics/SVG/1.1/DTD/svg11.dtd">
<svg class="icon" style="width: 1em;height: 1em;vertical-align: middle;fill: currentColor;overflow: hidden;" viewBox="0 0 1024 1024" version="1.1" xmlns="http://www.w3.org/2000/svg"><path d="M512 85.333333c235.648 0 426.666667 191.018667 426.666667 426.666667 0 91.136-28.586667 175.616-77.269334 244.949333L725.333333 512h128a341.333333 341.333333 0 1 0-104.96 246.272l42.581334 76.586667A425.002667 425.002667 0 0 1 512 938.666667C276.352 938.666667 85.333333 747.648 85.333333 512S276.352 85.333333 512 85.333333z m0 213.333334a128 128 0 0 1 128 128v42.666666h42.666667v213.333334H341.333333v-213.333334h42.666667v-42.666666a128 128 0 0 1 128-128z m0 85.333333a42.666667 42.666667 0 0 0-42.368 37.674667L469.333333 426.666667v42.666666h85.333334v-42.666666a42.666667 42.666667 0 0 0-37.674667-42.368L512 384z" /></svg>