<?xml version="1.0" standalone="no"?>
<!DOCTYPE svg PUBLIC "-//W3C//DTD SVG 1.1//EN" "http://www.w3.org/Graphics/SVG/1.1/DTD/svg11.dtd">
<svg class="icon" style="width: 1em;height: 1em;vertical-align: middle;fill: currentColor;overflow: hidden;" viewBox="0 0 1024 1024" version="1.1" xmlns="http://www.w3.org/2000/svg"><path d="M896 810.666667v85.333333h-85.333333v-85.333333h85.333333z m-170.666667 0v85.333333h-85.333333v-85.333333h85.333333z m-170.666666 0v85.333333h-85.333334v-85.333333h85.333334z m-170.666667 0v85.333333H298.666667v-85.333333h85.333333z m-170.666667 0v85.333333H128v-85.333333h85.333333z m682.666667-170.666667v85.333333h-85.333333v-85.333333h85.333333zM213.333333 640v85.333333H128v-85.333333h85.333333z m0-170.666667v85.333334H128v-85.333334h85.333333z m469.333334-341.333333a213.418667 213.418667 0 0 1 213.12 204.074667L896 341.333333v213.333334h-85.333333V341.333333a128.426667 128.426667 0 0 0-120.490667-127.786666L682.666667 213.333333h-213.333334V128h213.333334zM213.333333 298.666667v85.333333H128V298.666667h85.333333z m0-170.666667v85.333333H128V128h85.333333z m170.666667 0v85.333333H298.666667V128h85.333333z" /></svg>