<?xml version="1.0" standalone="no"?>
<!DOCTYPE svg PUBLIC "-//W3C//DTD SVG 1.1//EN" "http://www.w3.org/Graphics/SVG/1.1/DTD/svg11.dtd">
<svg class="icon" style="width: 1em;height: 1em;vertical-align: middle;fill: currentColor;overflow: hidden;" viewBox="0 0 1024 1024" version="1.1" xmlns="http://www.w3.org/2000/svg"><path d="M725.333333 810.666667h85.333334v-213.333334h-384V213.333333H213.333333v85.333334h85.333334v85.333333H213.333333v85.333333h128v85.333334H213.333333v85.333333h85.333334v85.333333H213.333333v85.333334h85.333334v-85.333334h85.333333v85.333334h85.333333v-128h85.333334v128h85.333333v-85.333334h85.333333v85.333334z m-213.333333-298.666667h341.333333a42.666667 42.666667 0 0 1 42.666667 42.666667v298.666666a42.666667 42.666667 0 0 1-42.666667 42.666667H170.666667a42.666667 42.666667 0 0 1-42.666667-42.666667V170.666667a42.666667 42.666667 0 0 1 42.666667-42.666667h298.666666a42.666667 42.666667 0 0 1 42.666667 42.666667v341.333333z" /></svg>