<?xml version="1.0" standalone="no"?>
<!DOCTYPE svg PUBLIC "-//W3C//DTD SVG 1.1//EN" "http://www.w3.org/Graphics/SVG/1.1/DTD/svg11.dtd">
<svg class="icon" style="width: 1em;height: 1em;vertical-align: middle;fill: currentColor;overflow: hidden;" viewBox="0 0 1024 1024" version="1.1" xmlns="http://www.w3.org/2000/svg"><path d="M270.634667 623.829333L149.973333 744.533333l150.826667 150.826667L874.026667 322.133333 723.2 171.306667l-90.538667 90.496 60.373334 60.330666-60.373334 60.330667-60.330666-60.330667-90.496 90.538667 90.496 90.453333L512 563.541333l-90.496-90.496-90.538667 90.496 60.373334 60.330667-60.373334 60.373333-60.330666-60.373333zM753.365333 80.768l211.2 211.2a42.666667 42.666667 0 0 1 0 60.330667l-633.6 633.6a42.666667 42.666667 0 0 1-60.330666 0l-211.2-211.2a42.666667 42.666667 0 0 1 0-60.330667l633.6-633.6a42.666667 42.666667 0 0 1 60.330666 0z" /></svg>