<?xml version="1.0" standalone="no"?>
<!DOCTYPE svg PUBLIC "-//W3C//DTD SVG 1.1//EN" "http://www.w3.org/Graphics/SVG/1.1/DTD/svg11.dtd">
<svg class="icon" style="width: 1em;height: 1em;vertical-align: middle;fill: currentColor;overflow: hidden;" viewBox="0 0 1024 1024" version="1.1" xmlns="http://www.w3.org/2000/svg"><path d="M640 896h-85.333333v-128h-85.333334v128H384v-85.333333H298.666667v85.333333H170.666667a42.666667 42.666667 0 0 1-42.666667-42.666667v-128h85.333333v-85.333333H128v-85.333333h128v-85.333334H128V384h85.333333V298.666667H128V170.666667a42.666667 42.666667 0 0 1 42.666667-42.666667h256a42.666667 42.666667 0 0 1 42.666666 42.666667v384h384a42.666667 42.666667 0 0 1 42.666667 42.666666v256a42.666667 42.666667 0 0 1-42.666667 42.666667h-128v-85.333333h-85.333333v85.333333z" /></svg>