<?xml version="1.0" standalone="no"?>
<!DOCTYPE svg PUBLIC "-//W3C//DTD SVG 1.1//EN" "http://www.w3.org/Graphics/SVG/1.1/DTD/svg11.dtd">
<svg class="icon" style="width: 1em;height: 1em;vertical-align: middle;fill: currentColor;overflow: hidden;" viewBox="0 0 1024 1024" version="1.1" xmlns="http://www.w3.org/2000/svg"><path d="M759.978667 277.461333l-187.648 294.869334-294.869334 187.648A340.181333 340.181333 0 0 0 469.333333 850.688V768h85.333334v82.688a339.626667 339.626667 0 0 0 166.656-69.034667l-58.453334-58.453333 60.330667-60.330667 58.453333 58.453334A339.626667 339.626667 0 0 0 850.688 554.666667H768v-85.333334h82.688a340.181333 340.181333 0 0 0-90.709333-191.872z m-13.44-13.44A340.181333 340.181333 0 0 0 554.666667 173.312V256h-85.333334V173.312A339.626667 339.626667 0 0 0 302.677333 242.346667l58.453334 58.453333L300.8 361.130667l-58.453333-58.453334A339.626667 339.626667 0 0 0 173.312 469.333333H256v85.333334H173.312a340.181333 340.181333 0 0 0 90.709333 191.872l187.648-294.869334 294.869334-187.648zM512 938.666667C276.352 938.666667 85.333333 747.648 85.333333 512S276.352 85.333333 512 85.333333s426.666667 191.018667 426.666667 426.666667-191.018667 426.666667-426.666667 426.666667z" /></svg>