<?xml version="1.0" standalone="no"?>
<!DOCTYPE svg PUBLIC "-//W3C//DTD SVG 1.1//EN" "http://www.w3.org/Graphics/SVG/1.1/DTD/svg11.dtd">
<svg class="icon" style="width: 1em;height: 1em;vertical-align: middle;fill: currentColor;overflow: hidden;" viewBox="0 0 1024 1024" version="1.1" xmlns="http://www.w3.org/2000/svg"><path d="M712.533333 290.133333l-260.864 161.536L290.133333 712.533333l-4.437333-4.437333-60.373333 60.330667 30.208 30.208 60.330666-60.373334L311.466667 733.866667l260.864-161.493334L733.866667 311.466667l4.437333 4.437333 60.373333-60.330667-30.208-30.208-60.330666 60.373334 4.437333 4.437333zM512 938.666667C276.352 938.666667 85.333333 747.648 85.333333 512S276.352 85.333333 512 85.333333s426.666667 191.018667 426.666667 426.666667-191.018667 426.666667-426.666667 426.666667z m-21.333333-810.666667v85.333333h42.666666V128h-42.666666z m0 682.666667v85.333333h42.666666v-85.333333h-42.666666zM345.344 165.376l32.64 78.848 39.424-16.298667-32.64-78.848-39.424 16.298667z m261.248 630.698667l32.64 78.848 39.424-16.298667-32.64-78.848-39.424 16.298667z m32.64-646.997334l-32.64 78.848 39.424 16.298667 32.64-78.848-39.424-16.298667zM378.026667 779.776l-32.64 78.848 39.424 16.298667 32.64-78.848-39.424-16.298667zM896 490.666667h-85.333333v42.666666h85.333333v-42.666666z m-682.666667 0H128v42.666666h85.333333v-42.666666z m659.541334 154.24l-78.293334-33.877334-16.938666 39.168 78.293333 33.877334 16.938667-39.168zM246.357333 373.802667L168.106667 339.925333l-16.938667 39.168 78.293333 33.877334 16.938667-39.168z m612.266667-28.458667l-78.848 32.64 16.298667 39.424 78.848-32.64-16.298667-39.424zM227.925333 606.592l-78.848 32.64 16.298667 39.424 78.848-32.64-16.298667-39.424z m570.709334 161.834667l-60.373334-60.330667-30.165333 30.165333 60.330667 60.373334 30.208-30.208zM315.904 285.738667L255.573333 225.365333l-30.208 30.208 60.373334 60.330667 30.165333-30.165333z m166.741333 196.906666l154.069334-95.36-95.36 154.026667-58.709334-58.666667z" /></svg>