<?xml version="1.0" standalone="no"?>
<!DOCTYPE svg PUBLIC "-//W3C//DTD SVG 1.1//EN" "http://www.w3.org/Graphics/SVG/1.1/DTD/svg11.dtd">
<svg class="icon" style="width: 1em;height: 1em;vertical-align: middle;fill: currentColor;overflow: hidden;" viewBox="0 0 1024 1024" version="1.1" xmlns="http://www.w3.org/2000/svg"><path d="M256 85.333333c0 21.888 20.906667 42.666667 42.666667 42.666667h426.666666c21.888 0 42.666667-20.906667 42.666667-42.666667h85.333333a128 128 0 0 1-128 128h-170.666666l0.042666 87.978667A341.418667 341.418667 0 0 1 853.333333 640v256a42.666667 42.666667 0 0 1-42.666666 42.666667H213.333333a42.666667 42.666667 0 0 1-42.666666-42.666667v-256a341.376 341.376 0 0 1 298.666666-338.688V213.333333H298.666667C227.84 213.333333 170.666667 156.16 170.666667 85.333333h85.333333z m256 298.666667c-138.154667 0-256 117.76-256 256v213.333333h512v-213.333333c0-138.154667-117.845333-256-256-256z m0 85.333333c31.658667 0 61.269333 8.618667 86.698667 23.637334l-116.906667 116.864a42.666667 42.666667 0 0 0 56.32 63.872l4.053333-3.541334 116.906667-116.864A170.624 170.624 0 0 1 512 810.666667c-94.293333 0-170.666667-76.373333-170.666667-170.666667s76.373333-170.666667 170.666667-170.666667z" /></svg>