<?xml version="1.0" standalone="no"?>
<!DOCTYPE svg PUBLIC "-//W3C//DTD SVG 1.1//EN" "http://www.w3.org/Graphics/SVG/1.1/DTD/svg11.dtd">
<svg class="icon" style="width: 1em;height: 1em;vertical-align: middle;fill: currentColor;overflow: hidden;" viewBox="0 0 1024 1024" version="1.1" xmlns="http://www.w3.org/2000/svg"><path d="M512 602.496l-98.858667 98.858667a170.666667 170.666667 0 1 1-90.496-90.496L421.546667 512 179.626667 270.208a85.333333 85.333333 0 0 1 0-120.704l30.208-30.165333L512 421.546667l302.122667-302.165334 30.208 30.165334a85.333333 85.333333 0 0 1 0 120.704L602.453333 512l98.858667 98.858667a170.666667 170.666667 0 1 1-90.496 90.496L512 602.453333zM256 853.333333a85.333333 85.333333 0 1 0 0-170.666666 85.333333 85.333333 0 0 0 0 170.666666z m512 0a85.333333 85.333333 0 1 0 0-170.666666 85.333333 85.333333 0 0 0 0 170.666666z" /></svg>