<?xml version="1.0" standalone="no"?>
<!DOCTYPE svg PUBLIC "-//W3C//DTD SVG 1.1//EN" "http://www.w3.org/Graphics/SVG/1.1/DTD/svg11.dtd">
<svg class="icon" style="width: 1em;height: 1em;vertical-align: middle;fill: currentColor;overflow: hidden;" viewBox="0 0 1024 1024" version="1.1" xmlns="http://www.w3.org/2000/svg"><path d="M413.141333 322.645333L512 421.546667l271.957333-272a85.333333 85.333333 0 0 1 120.704 0l30.165334 30.165333L413.141333 701.354667a170.666667 170.666667 0 1 1-90.496-90.496L421.546667 512 322.645333 413.141333a170.666667 170.666667 0 1 1 90.496-90.496zM256 341.333333a85.333333 85.333333 0 1 0 0-170.666666 85.333333 85.333333 0 0 0 0 170.666666z m0 512a85.333333 85.333333 0 1 0 0-170.666666 85.333333 85.333333 0 0 0 0 170.666666z m406.826667-281.045333l272 272.042667-30.165334 30.165333a85.333333 85.333333 0 0 1-120.704 0l-211.626666-211.669333 90.453333-90.538667z" /></svg>