<?xml version="1.0" standalone="no"?>
<!DOCTYPE svg PUBLIC "-//W3C//DTD SVG 1.1//EN" "http://www.w3.org/Graphics/SVG/1.1/DTD/svg11.dtd">
<svg class="icon" style="width: 1em;height: 1em;vertical-align: middle;fill: currentColor;overflow: hidden;" viewBox="0 0 1024 1024" version="1.1" xmlns="http://www.w3.org/2000/svg"><path d="M341.333333 170.666667v247.168a106.666667 106.666667 0 0 1-31.146666 75.306666L256 547.541333V853.333333h512V170.666667H341.333333zM298.666667 85.333333h512a42.666667 42.666667 0 0 1 42.666666 42.666667v768a42.666667 42.666667 0 0 1-42.666666 42.666667H213.333333a42.666667 42.666667 0 0 1-42.666666-42.666667v-366.08a42.666667 42.666667 0 0 1 12.458666-30.122667l66.645334-66.901333A21.333333 21.333333 0 0 0 256 417.834667V128a42.666667 42.666667 0 0 1 42.666667-42.666667z m341.333333 128h85.333333v170.666667h-85.333333V213.333333z m-128 0h85.333333v170.666667h-85.333333V213.333333zM384 213.333333h85.333333v170.666667H384V213.333333z" /></svg>