<?xml version="1.0" standalone="no"?>
<!DOCTYPE svg PUBLIC "-//W3C//DTD SVG 1.1//EN" "http://www.w3.org/Graphics/SVG/1.1/DTD/svg11.dtd">
<svg class="icon" style="width: 1em;height: 1em;vertical-align: middle;fill: currentColor;overflow: hidden;" viewBox="0 0 1024 1024" version="1.1" xmlns="http://www.w3.org/2000/svg"><path d="M469.333333 128a42.666667 42.666667 0 0 1 42.666667 42.666667v85.333333h213.333333a42.666667 42.666667 0 0 1 42.666667 42.666667v213.333333h85.333333a42.666667 42.666667 0 0 1 42.666667 42.666667v298.666666a42.666667 42.666667 0 0 1-42.666667 42.666667h-298.666666a42.666667 42.666667 0 0 1-42.666667-42.666667v-85.333333H298.666667a42.666667 42.666667 0 0 1-42.666667-42.666667v-213.333333H170.666667a42.666667 42.666667 0 0 1-42.666667-42.666667V170.666667a42.666667 42.666667 0 0 1 42.666667-42.666667h298.666666z m213.333334 213.333333h-170.666667v128a42.666667 42.666667 0 0 1-42.666667 42.666667H341.333333v170.666667h170.666667v-128a42.666667 42.666667 0 0 1 42.666667-42.666667h128V341.333333z" /></svg>