<?xml version="1.0" standalone="no"?>
<!DOCTYPE svg PUBLIC "-//W3C//DTD SVG 1.1//EN" "http://www.w3.org/Graphics/SVG/1.1/DTD/svg11.dtd">
<svg class="icon" style="width: 1em;height: 1em;vertical-align: middle;fill: currentColor;overflow: hidden;" viewBox="0 0 1024 1024" version="1.1" xmlns="http://www.w3.org/2000/svg"><path d="M134.869333 190.677333a277.333333 277.333333 0 0 1 377.173334-13.994666 277.333333 277.333333 0 0 1 391.594666 390.570666l-331.306666 332.373334a85.333333 85.333333 0 0 1-116.010667 4.352l-4.693333-4.309334-331.264-332.416a277.333333 277.333333 0 0 1 14.506666-376.576z m60.330667 60.330667a192 192 0 0 0-6.229333 264.96l6.229333 6.570667L512 839.338667l226.261333-226.304-150.826666-150.826667-45.226667 45.226667a128 128 0 1 1-181.077333-180.992l89.685333-89.728a192.042667 192.042667 0 0 0-249.045333 8.064l-6.570667 6.229333z m362.069333 120.661333a42.666667 42.666667 0 0 1 60.330667 0l180.992 180.992 30.208-30.122666a192 192 0 0 0-265.002667-277.76l-6.528 6.229333-135.765333 135.765333a42.666667 42.666667 0 0 0-3.328 56.618667l3.328 3.712a42.666667 42.666667 0 0 0 56.618667 3.328l3.712-3.328 75.434666-75.434667z" /></svg>