<?xml version="1.0" standalone="no"?>
<!DOCTYPE svg PUBLIC "-//W3C//DTD SVG 1.1//EN" "http://www.w3.org/Graphics/SVG/1.1/DTD/svg11.dtd">
<svg class="icon" style="width: 1em;height: 1em;vertical-align: middle;fill: currentColor;overflow: hidden;" viewBox="0 0 1024 1024" version="1.1" xmlns="http://www.w3.org/2000/svg"><path d="M370.602667 170.666667l111.232-111.232a42.666667 42.666667 0 0 1 60.330666 0L653.397333 170.666667H810.666667a42.666667 42.666667 0 0 1 42.666666 42.666666v157.269334l111.232 111.232a42.666667 42.666667 0 0 1 0 60.330666L853.333333 653.397333V810.666667a42.666667 42.666667 0 0 1-42.666666 42.666666h-157.269334l-111.232 111.232a42.666667 42.666667 0 0 1-60.330666 0L370.602667 853.333333H213.333333a42.666667 42.666667 0 0 1-42.666666-42.666666v-157.269334l-111.232-111.232a42.666667 42.666667 0 0 1 0-60.330666L170.666667 370.602667V213.333333a42.666667 42.666667 0 0 1 42.666666-42.666666h157.269334zM256 256v149.973333L149.973333 512 256 618.026667V768h149.973333L512 874.026667 618.026667 768H768v-149.973333L874.026667 512 768 405.973333V256h-149.973333L512 149.973333 405.973333 256H256z m256 426.666667a170.666667 170.666667 0 1 1 0-341.333334 170.666667 170.666667 0 0 1 0 341.333334z m0-85.333334a85.333333 85.333333 0 1 0 0-170.666666 85.333333 85.333333 0 0 0 0 170.666666z" /></svg>