<?xml version="1.0" standalone="no"?>
<!DOCTYPE svg PUBLIC "-//W3C//DTD SVG 1.1//EN" "http://www.w3.org/Graphics/SVG/1.1/DTD/svg11.dtd">
<svg class="icon" style="width: 1em;height: 1em;vertical-align: middle;fill: currentColor;overflow: hidden;" viewBox="0 0 1024 1024" version="1.1" xmlns="http://www.w3.org/2000/svg"><path d="M213.333333 341.333333a128 128 0 1 1 0-256 128 128 0 0 1 0 256z m597.333334 0a128 128 0 1 1 0-256 128 128 0 0 1 0 256z m0 597.333334a128 128 0 1 1 0-256 128 128 0 0 1 0 256zM213.333333 938.666667a128 128 0 1 1 0-256 128 128 0 0 1 0 256zM384 170.666667h256v85.333333H384V170.666667z m0 597.333333h256v85.333333H384v-85.333333zM170.666667 384h85.333333v256H170.666667V384z m597.333333 0h85.333333v256h-85.333333V384z" /></svg>