<?xml version="1.0" standalone="no"?>
<!DOCTYPE svg PUBLIC "-//W3C//DTD SVG 1.1//EN" "http://www.w3.org/Graphics/SVG/1.1/DTD/svg11.dtd">
<svg class="icon" style="width: 1em;height: 1em;vertical-align: middle;fill: currentColor;overflow: hidden;" viewBox="0 0 1024 1024" version="1.1" xmlns="http://www.w3.org/2000/svg"><path d="M298.666667 170.666667v298.666666l213.333333-106.666666 213.333333 106.666666V170.666667h128a42.666667 42.666667 0 0 1 42.666667 42.666666v682.666667a42.666667 42.666667 0 0 1-42.666667 42.666667H170.666667a42.666667 42.666667 0 0 1-42.666667-42.666667V213.333333a42.666667 42.666667 0 0 1 42.666667-42.666666h128z m213.333333 170.666666L320 128h384L512 341.333333z m42.666667 138.069334l-42.666667-21.333334-42.666667 21.333334V853.333333h85.333334v-373.930666zM640 597.333333v85.333334h170.666667v-85.333334h-170.666667z" /></svg>