<?xml version="1.0" standalone="no"?>
<!DOCTYPE svg PUBLIC "-//W3C//DTD SVG 1.1//EN" "http://www.w3.org/Graphics/SVG/1.1/DTD/svg11.dtd">
<svg class="icon" style="width: 1em;height: 1em;vertical-align: middle;fill: currentColor;overflow: hidden;" viewBox="0 0 1024 1024" version="1.1" xmlns="http://www.w3.org/2000/svg"><path d="M512 85.333333a256 256 0 0 1 256 256v42.666667h170.666667v85.333333h-49.792l-32.298667 387.541334a42.666667 42.666667 0 0 1-42.496 39.125333H209.92a42.666667 42.666667 0 0 1-42.496-39.125333L135.082667 469.333333H85.333333V384h170.666667V341.333333a256 256 0 0 1 256-256z m42.666667 469.333334h-85.333334v170.666666h85.333334v-170.666666z m-170.666667 0H298.666667v170.666666h85.333333v-170.666666z m341.333333 0h-85.333333v170.666666h85.333333v-170.666666z m-213.333333-384a170.666667 170.666667 0 0 0-170.453333 162.133333L341.333333 341.333333v42.666667h341.333334V341.333333a170.666667 170.666667 0 0 0-162.133334-170.453333L512 170.666667z" /></svg>