<?xml version="1.0" standalone="no"?>
<!DOCTYPE svg PUBLIC "-//W3C//DTD SVG 1.1//EN" "http://www.w3.org/Graphics/SVG/1.1/DTD/svg11.dtd">
<svg class="icon" style="width: 1em;height: 1em;vertical-align: middle;fill: currentColor;overflow: hidden;" viewBox="0 0 1024 1024" version="1.1" xmlns="http://www.w3.org/2000/svg"><path d="M170.666667 682.666667V170.666667H85.333333V85.333333h128a42.666667 42.666667 0 0 1 42.666667 42.666667v512h530.688l85.333333-341.333333H341.333333V213.333333h585.386667a42.666667 42.666667 0 0 1 41.386667 53.034667l-106.666667 426.666667a42.666667 42.666667 0 0 1-41.386667 32.298666H213.333333a42.666667 42.666667 0 0 1-42.666666-42.666666z m85.333333 298.666666a85.333333 85.333333 0 1 1 0-170.666666 85.333333 85.333333 0 0 1 0 170.666666z m512 0a85.333333 85.333333 0 1 1 0-170.666666 85.333333 85.333333 0 0 1 0 170.666666z" /></svg>