<?xml version="1.0" standalone="no"?>
<!DOCTYPE svg PUBLIC "-//W3C//DTD SVG 1.1//EN" "http://www.w3.org/Graphics/SVG/1.1/DTD/svg11.dtd">
<svg class="icon" style="width: 1em;height: 1em;vertical-align: middle;fill: currentColor;overflow: hidden;" viewBox="0 0 1024 1024" version="1.1" xmlns="http://www.w3.org/2000/svg"><path d="M512 128c182.784 0 350.72 63.872 482.56 170.496L512 896 29.44 298.538667A764.458667 764.458667 0 0 1 512 128z m0 298.666667c-80.981333 0-157.141333 20.48-223.616 56.618666l223.573333 276.906667 223.658667-276.906667A466.688 466.688 0 0 0 512 426.666667z m0-213.333334c-129.194667 0-252.714667 35.925333-359.253333 102.058667l81.237333 100.565333C315.733333 368.512 410.666667 341.333333 512 341.333333s196.266667 27.178667 278.016 74.624L871.253333 315.306667A679.594667 679.594667 0 0 0 512 213.333333z" /></svg>