<?xml version="1.0" standalone="no"?>
<!DOCTYPE svg PUBLIC "-//W3C//DTD SVG 1.1//EN" "http://www.w3.org/Graphics/SVG/1.1/DTD/svg11.dtd">
<svg class="icon" style="width: 1em;height: 1em;vertical-align: middle;fill: currentColor;overflow: hidden;" viewBox="0 0 1024 1024" version="1.1" xmlns="http://www.w3.org/2000/svg"><path d="M512 128c182.784 0 350.72 63.872 482.56 170.496L512 896 29.44 298.538667A764.458667 764.458667 0 0 1 512 128z m0 384c-60.586667 0-117.930667 14.08-168.917333 39.04L512 760.192l168.874667-209.152A382.293333 382.293333 0 0 0 512 512z m0-298.666667c-129.194667 0-252.714667 35.925333-359.253333 102.058667l135.594666 167.893333A467.328 467.328 0 0 1 512 426.666667c80.981333 0 157.141333 20.48 223.616 56.618666L871.253333 315.306667A679.594667 679.594667 0 0 0 512 213.333333z" /></svg>