<?xml version="1.0" standalone="no"?>
<!DOCTYPE svg PUBLIC "-//W3C//DTD SVG 1.1//EN" "http://www.w3.org/Graphics/SVG/1.1/DTD/svg11.dtd">
<svg class="icon" style="width: 1em;height: 1em;vertical-align: middle;fill: currentColor;overflow: hidden;" viewBox="0 0 1024 1024" version="1.1" xmlns="http://www.w3.org/2000/svg"><path d="M213.333333 85.333333h426.666667l200.832 200.832a42.666667 42.666667 0 0 1 12.501333 30.165334V896a42.666667 42.666667 0 0 1-42.666666 42.666667H213.333333a42.666667 42.666667 0 0 1-42.666666-42.666667V128a42.666667 42.666667 0 0 1 42.666666-42.666667z m341.333334 682.666667v-341.333333H341.333333v85.333333h128v256h85.333334z m-213.333334-213.333333v85.333333h85.333334v-85.333333H341.333333z m256 0v85.333333h85.333334v-85.333333h-85.333334z m0-128v85.333333h85.333334v-85.333333h-85.333334z m-256 256v85.333333h85.333334v-85.333333H341.333333z m256 0v85.333333h85.333334v-85.333333h-85.333334z" /></svg>