<?xml version="1.0" standalone="no"?>
<!DOCTYPE svg PUBLIC "-//W3C//DTD SVG 1.1//EN" "http://www.w3.org/Graphics/SVG/1.1/DTD/svg11.dtd">
<svg class="icon" style="width: 1em;height: 1em;vertical-align: middle;fill: currentColor;overflow: hidden;" viewBox="0 0 1024 1024" version="1.1" xmlns="http://www.w3.org/2000/svg"><path d="M513.365333 512L384 420.693333v182.613334L513.365333 512zM320 748.16a21.333333 21.333333 0 0 1-21.333333-21.333333V297.173333a21.333333 21.333333 0 0 1 33.621333-17.450666l304.341333 214.869333a21.333333 21.333333 0 0 1 0 34.816l-304.341333 214.869333a21.333333 21.333333 0 0 1-12.288 3.882667zM682.666667 298.666667a42.666667 42.666667 0 0 1 85.333333 0v426.666666a42.666667 42.666667 0 1 1-85.333333 0V298.666667z" /></svg>