<?xml version="1.0" standalone="no"?>
<!DOCTYPE svg PUBLIC "-//W3C//DTD SVG 1.1//EN" "http://www.w3.org/Graphics/SVG/1.1/DTD/svg11.dtd">
<svg class="icon" style="width: 1em;height: 1em;vertical-align: middle;fill: currentColor;overflow: hidden;" viewBox="0 0 1024 1024" version="1.1" xmlns="http://www.w3.org/2000/svg"><path d="M567.893333 870.4a362.666667 362.666667 0 0 1-414.293333-414.293333 224 224 0 0 1 302.506667-302.506667 362.666667 362.666667 0 0 1 414.293333 414.293333 224 224 0 0 1-302.506667 302.506667z m-53.674666-138.410667h-1.706667c122.538667 0 183.594667-59.136 183.594667-138.368 0-51.114667-23.509333-105.429333-116.309334-126.208l-84.608-18.773333c-32.213333-7.338667-69.205333-17.066667-69.205333-47.573333s26.453333-51.754667 73.557333-51.754667c95.146667 0 86.485333 65.194667 133.589334 65.194667 24.576 0 46.634667-14.592 46.634666-39.68 0-58.453333-93.738667-102.4-173.056-102.4-86.229333 0-178.048 36.650667-178.048 134.144 0 46.848 16.810667 96.853333 109.226667 120.021333l114.730667 28.629333c34.816 8.618667 43.434667 28.117333 43.434666 45.738667 0 29.312-29.184 57.941333-81.834666 57.941333-103.125333 0-88.661333-79.232-143.957334-79.232-24.746667 0-42.794667 16.981333-42.794666 41.429334 0 47.530667 57.685333 110.848 186.752 110.848z" /></svg>