<?xml version="1.0" standalone="no"?>
<!DOCTYPE svg PUBLIC "-//W3C//DTD SVG 1.1//EN" "http://www.w3.org/Graphics/SVG/1.1/DTD/svg11.dtd">
<svg class="icon" style="width: 1em;height: 1em;vertical-align: middle;fill: currentColor;overflow: hidden;" viewBox="0 0 1024 1024" version="1.1" xmlns="http://www.w3.org/2000/svg"><path d="M554.837333 786.048a85.333333 85.333333 0 0 1 52.778667 8.832 138.666667 138.666667 0 0 0 187.264-187.264 85.333333 85.333333 0 0 1-8.832-52.778667 277.333333 277.333333 0 0 0-316.885333-316.885333 85.333333 85.333333 0 0 1-52.778667-8.832A138.666667 138.666667 0 0 0 229.12 416.426667a85.333333 85.333333 0 0 1 8.832 52.778666 277.333333 277.333333 0 0 0 316.885333 316.885334zM512 874.666667a362.666667 362.666667 0 0 1-358.4-418.56 224 224 0 0 1 302.506667-302.506667 362.666667 362.666667 0 0 1 414.293333 414.293333 224 224 0 0 1-302.506667 302.506667c-18.218667 2.816-36.906667 4.266667-55.893333 4.266667z m2.261333-149.333334C394.666667 725.333333 341.333333 666.453333 341.333333 622.336c0-22.698667 16.64-38.485333 39.594667-38.485333 51.2 0 37.845333 73.6 133.333333 73.6 48.768 0 75.776-26.624 75.776-53.802667 0-16.384-8.021333-34.474667-40.234666-42.496l-106.24-26.581333c-85.589333-21.504-101.12-67.925333-101.12-111.445334C342.442667 332.672 427.434667 298.666667 507.306667 298.666667c73.386667 0 160.256 40.789333 160.256 95.061333 0 23.253333-20.48 36.821333-43.178667 36.821333-43.648 0-35.626667-60.501333-123.733333-60.501333-43.648 0-68.096 19.712-68.096 48.042667 0 28.288 34.261333 37.376 64.085333 44.16l78.336 17.450666C660.906667 498.986667 682.666667 549.376 682.666667 596.864 682.666667 670.421333 626.133333 725.333333 512.64 725.333333h1.621333z" /></svg>