<?xml version="1.0" standalone="no"?>
<!DOCTYPE svg PUBLIC "-//W3C//DTD SVG 1.1//EN" "http://www.w3.org/Graphics/SVG/1.1/DTD/svg11.dtd">
<svg class="icon" style="width: 1em;height: 1em;vertical-align: middle;fill: currentColor;overflow: hidden;" viewBox="0 0 1024 1024" version="1.1" xmlns="http://www.w3.org/2000/svg"><path d="M446.464 366.762667c11.306667 0 20.48 89.856 20.48 200.704l-0.042667 14.976c-0.810667 103.850667-9.642667 185.728-20.437333 185.728-10.922667 0-19.84-83.84-20.48-189.44v-15.018667c0.213333-109.141333 9.301333-196.949333 20.48-196.949333z m-70.997333 40.96c11.050667 0 20.053333 76.8 20.48 172.970666v14.506667c-0.426667 96.170667-9.429333 172.970667-20.48 172.970667-10.88 0-19.797333-74.88-20.48-169.386667v-14.506667l0.085333-14.506666c1.066667-91.008 9.813333-162.048 20.394667-162.048z m-70.997334 0c10.88 0 19.797333 74.88 20.48 169.386666v14.506667l-0.085333 14.506667c-1.066667 91.008-9.813333 162.048-20.394667 162.048-11.050667 0-20.053333-76.8-20.48-172.970667v-14.506667c0.426667-96.170667 9.429333-172.970667 20.48-172.970666z m-70.997333 24.576c11.306667 0 20.48 75.178667 20.48 167.936l-0.085333 14.293333c-0.853333 86.058667-9.685333 153.642667-20.394667 153.642667-11.178667 0-20.224-73.258667-20.48-164.352v-7.168c0.256-91.093333 9.301333-164.352 20.48-164.352zM162.474667 506.026667c11.306667 0 20.48 58.666667 20.48 131.072v6.741333c-0.554667 69.248-9.514667 124.330667-20.48 124.330667-11.306667 0-20.48-58.666667-20.48-131.072v-6.741334c0.554667-69.248 9.514667-124.330667 20.48-124.330666z m460.117333-204.8c110.08 0 201.386667 80.469333 218.368 185.770666a143.36 143.36 0 1 1 42.368 281.130667l-2.688 0.042667h-348.16a32.768 32.768 0 0 1-32.768-32.768V338.474667a220.16 220.16 0 0 1 122.88-37.248zM91.477333 497.834667c11.306667 0 20.48 56.832 20.48 126.976v6.656c-0.597333 66.986667-9.514667 120.32-20.48 120.32-11.093333 0-20.181333-55.04-20.48-123.648v-3.328c0-70.144 9.173333-126.976 20.48-126.976z m-70.997333 40.96c11.306667 0 20.48 40.362667 20.48 90.112v5.589333c-0.682667 47.146667-9.6 84.522667-20.48 84.522667-11.306667 0-20.48-40.362667-20.48-90.112v-5.589334c0.682667-47.146667 9.6-84.522667 20.48-84.522666z" /></svg>