<?xml version="1.0" standalone="no"?>
<!DOCTYPE svg PUBLIC "-//W3C//DTD SVG 1.1//EN" "http://www.w3.org/Graphics/SVG/1.1/DTD/svg11.dtd">
<svg class="icon" style="width: 1em;height: 1em;vertical-align: middle;fill: currentColor;overflow: hidden;" viewBox="0 0 1024 1024" version="1.1" xmlns="http://www.w3.org/2000/svg"><path d="M485.888 85.376l77.269333 0.213333 36.010667 0.597334c305.536 6.997333 338.688 64.512 339.498667 412.458666l-0.256 64.512-0.597334 36.010667c-6.997333 305.536-64.512 338.688-412.458666 339.498667l-64.512-0.256-37.888-0.64c-292.394667-6.954667-333.952-60.928-337.365334-374.613334L85.333333 498.816l0.256-37.973333 0.597334-36.906667c7.04-300.928 63.445333-336.938667 399.701333-338.56zM602.453333 171.093333L464.298667 170.666667l-56.405334 0.426666c-234.197333 3.498667-236.544 34.986667-237.184 315.861334l0.042667 92.8 0.426667 44.373333c3.797333 212.565333 33.834667 227.968 273.066666 229.077333l147.370667-0.085333 33.109333-0.384c217.941333-3.882667 228.138667-35.712 228.608-293.418667l-0.128-117.034666-0.512-45.013334c-4.010667-204.629333-33.493333-224-250.24-226.261333zM352 298.666667A373.333333 373.333333 0 0 1 725.333333 672v24.874667a28.458667 28.458667 0 0 1-28.458666 28.458666h-156.416a28.458667 28.458667 0 0 1-28.458667-28.458666v-24.874667A160 160 0 0 0 352 512h-24.874667A28.458667 28.458667 0 0 1 298.666667 483.541333V327.125333C298.666667 311.424 311.424 298.666667 327.125333 298.666667h24.874667z" /></svg>