<?xml version="1.0" standalone="no"?>
<!DOCTYPE svg PUBLIC "-//W3C//DTD SVG 1.1//EN" "http://www.w3.org/Graphics/SVG/1.1/DTD/svg11.dtd">
<svg class="icon" style="width: 1em;height: 1em;vertical-align: middle;fill: currentColor;overflow: hidden;" viewBox="0 0 1024 1024" version="1.1" xmlns="http://www.w3.org/2000/svg"><path d="M385.365333 512L256 420.693333v182.613334L385.365333 512z m-181.077333 232.277333A21.333333 21.333333 0 0 1 170.666667 726.826667V297.173333a21.333333 21.333333 0 0 1 33.621333-17.450666l304.341333 214.869333a21.333333 21.333333 0 0 1 0 34.816l-304.341333 214.869333zM640 603.306667L769.365333 512 640 420.693333v182.613334z m-85.333333-306.133334a21.333333 21.333333 0 0 1 33.621333-17.450666l304.341333 214.869333a21.333333 21.333333 0 0 1 0 34.816l-304.341333 214.869333a21.333333 21.333333 0 0 1-33.621333-17.450666V297.173333z" /></svg>