<?xml version="1.0" standalone="no"?>
<!DOCTYPE svg PUBLIC "-//W3C//DTD SVG 1.1//EN" "http://www.w3.org/Graphics/SVG/1.1/DTD/svg11.dtd">
<svg class="icon" style="width: 1em;height: 1em;vertical-align: middle;fill: currentColor;overflow: hidden;" viewBox="0 0 1024 1024" version="1.1" xmlns="http://www.w3.org/2000/svg"><path d="M725.333333 554.666667a170.666667 170.666667 0 1 1-170.666666 170.666666h-85.333334a170.666667 170.666667 0 1 1-22.826666-85.333333h130.986666A170.581333 170.581333 0 0 1 725.333333 554.666667zM298.666667 640a85.333333 85.333333 0 1 0 0 170.666667 85.333333 85.333333 0 0 0 0-170.666667z m426.666666 0a85.333333 85.333333 0 1 0 0 170.666667 85.333333 85.333333 0 0 0 0-170.666667zM682.666667 128a170.666667 170.666667 0 0 1 170.666666 170.666667v128h85.333334v85.333333H85.333333v-85.333333h85.333334V298.666667a170.666667 170.666667 0 0 1 170.666666-170.666667h341.333334z m0 85.333333H341.333333c-44.970667 0-85.333333 40.533333-85.333333 85.333334v128h512V298.666667c0-44.970667-40.533333-85.333333-85.333333-85.333334z" /></svg>