<?xml version="1.0" standalone="no"?>
<!DOCTYPE svg PUBLIC "-//W3C//DTD SVG 1.1//EN" "http://www.w3.org/Graphics/SVG/1.1/DTD/svg11.dtd">
<svg class="icon" style="width: 1em;height: 1em;vertical-align: middle;fill: currentColor;overflow: hidden;" viewBox="0 0 1024 1024" version="1.1" xmlns="http://www.w3.org/2000/svg"><path d="M512 85.333333c235.648 0 426.666667 191.018667 426.666667 426.666667s-191.018667 426.666667-426.666667 426.666667S85.333333 747.648 85.333333 512 276.352 85.333333 512 85.333333zM341.333333 554.666667l-168.021333 0.042666A341.504 341.504 0 0 0 469.333333 850.688V682.666667a128 128 0 0 1-128-128z m509.354667 0.042666L682.666667 554.666667a128 128 0 0 1-128 128l0.042666 168.021333a341.504 341.504 0 0 0 295.978667-295.978667zM512 170.666667a341.376 341.376 0 0 0-338.688 298.666666H341.333333a42.666667 42.666667 0 0 1 42.666667-42.666666h256a42.666667 42.666667 0 0 1 42.666667 42.666666h168.021333A341.376 341.376 0 0 0 512 170.666667z" /></svg>