<?xml version="1.0" standalone="no"?>
<!DOCTYPE svg PUBLIC "-//W3C//DTD SVG 1.1//EN" "http://www.w3.org/Graphics/SVG/1.1/DTD/svg11.dtd">
<svg class="icon" style="width: 1em;height: 1em;vertical-align: middle;fill: currentColor;overflow: hidden;" viewBox="0 0 1024 1024" version="1.1" xmlns="http://www.w3.org/2000/svg"><path d="M640 42.666667a42.666667 42.666667 0 0 1 42.666667 42.666666v213.333334h42.666666V256h85.333334v42.666667h42.666666a42.666667 42.666667 0 0 1 42.666667 42.666666v512a42.666667 42.666667 0 0 1-42.666667 42.666667h-42.666666v42.666667h-85.333334v-42.666667H298.666667v42.666667H213.333333v-42.666667H170.666667a42.666667 42.666667 0 0 1-42.666667-42.666667V341.333333a42.666667 42.666667 0 0 1 42.666667-42.666666h42.666666V256h85.333334v42.666667h42.666666V85.333333a42.666667 42.666667 0 0 1 42.666667-42.666666h256z m170.666667 341.333333H213.333333v426.666667h597.333334V384zM384 426.666667v341.333333H298.666667v-341.333333h85.333333z m170.666667 0v341.333333h-85.333334v-341.333333h85.333334z m170.666666 0v341.333333h-85.333333v-341.333333h85.333333z m-128-298.666667h-170.666666v170.666667h170.666666V128z" /></svg>