<?xml version="1.0" standalone="no"?>
<!DOCTYPE svg PUBLIC "-//W3C//DTD SVG 1.1//EN" "http://www.w3.org/Graphics/SVG/1.1/DTD/svg11.dtd">
<svg class="icon" style="width: 1em;height: 1em;vertical-align: middle;fill: currentColor;overflow: hidden;" viewBox="0 0 1024 1024" version="1.1" xmlns="http://www.w3.org/2000/svg"><path d="M270.549333 597.333333A256 256 0 1 1 512 768v-170.666667H270.549333zM256 853.333333h384v85.333334H256v-85.333334z m-213.333333-384h128v85.333334H42.666667v-85.333334z m42.666666 213.333334h341.333334v85.333333H85.333333v-85.333333z m384-640h85.333334v128h-85.333334V42.666667zM149.973333 210.304l60.330667-60.330667L300.8 240.469333 240.469333 300.8 149.973333 210.346667zM723.2 783.530667l60.330667-60.330667 90.496 90.496-60.330667 60.330667-90.496-90.496z m90.496-633.6l60.330667 60.373333-90.496 90.496-60.330667-60.330667 90.496-90.496zM981.333333 469.333333v85.333334h-128v-85.333334h128z" /></svg>