<?xml version="1.0" standalone="no"?>
<!DOCTYPE svg PUBLIC "-//W3C//DTD SVG 1.1//EN" "http://www.w3.org/Graphics/SVG/1.1/DTD/svg11.dtd">
<svg class="icon" style="width: 1em;height: 1em;vertical-align: middle;fill: currentColor;overflow: hidden;" viewBox="0 0 1024 1024" version="1.1" xmlns="http://www.w3.org/2000/svg"><path d="M725.333333 85.333333v85.333334h128.298667c23.381333 0 42.368 18.986667 42.368 42.368v683.264a42.410667 42.410667 0 0 1-42.368 42.368H170.368A42.410667 42.410667 0 0 1 128 896.298667V213.034667C128 189.653333 146.986667 170.666667 170.368 170.666667H298.666667V85.333333h426.666666zM298.666667 256H213.333333v597.333333h597.333334V256h-85.333334v85.333333H298.666667V256z m85.333333 426.666667v85.333333H298.666667v-85.333333h85.333333z m0-128v85.333333H298.666667v-85.333333h85.333333z m0-128v85.333333H298.666667v-85.333333h85.333333z m256-256H384v85.333333h256V170.666667z" /></svg>