<?xml version="1.0" standalone="no"?>
<!DOCTYPE svg PUBLIC "-//W3C//DTD SVG 1.1//EN" "http://www.w3.org/Graphics/SVG/1.1/DTD/svg11.dtd">
<svg class="icon" style="width: 1em;height: 1em;vertical-align: middle;fill: currentColor;overflow: hidden;" viewBox="0 0 1024 1024" version="1.1" xmlns="http://www.w3.org/2000/svg"><path d="M256 170.666667v170.666666h512V170.666667h85.632c23.381333 0 42.368 18.986667 42.368 42.368v683.264a42.410667 42.410667 0 0 1-42.368 42.368H170.368A42.410667 42.410667 0 0 1 128 896.298667V213.034667C128 189.653333 146.986667 170.666667 170.368 170.666667H256z m128 554.666666H298.666667v85.333334h85.333333v-85.333334z m0-128H298.666667v85.333334h85.333333v-85.333334z m0-128H298.666667v85.333334h85.333333v-85.333334z m298.666667-384v170.666667H341.333333V85.333333h341.333334z" /></svg>