<?xml version="1.0" standalone="no"?>
<!DOCTYPE svg PUBLIC "-//W3C//DTD SVG 1.1//EN" "http://www.w3.org/Graphics/SVG/1.1/DTD/svg11.dtd">
<svg class="icon" style="width: 1em;height: 1em;vertical-align: middle;fill: currentColor;overflow: hidden;" viewBox="0 0 1024 1024" version="1.1" xmlns="http://www.w3.org/2000/svg"><path d="M619.306667 213.333333l111.189333-111.232a42.666667 42.666667 0 0 1 60.373333 0l180.992 181.034667a42.666667 42.666667 0 0 1 0 60.330667L810.666667 504.661333V896a42.666667 42.666667 0 0 1-42.666667 42.666667H256a42.666667 42.666667 0 0 1-42.666667-42.666667v-391.338667L52.138667 343.466667a42.666667 42.666667 0 0 1 0-60.330667l180.992-181.034667a42.666667 42.666667 0 0 1 60.373333 0L404.693333 213.333333h214.613334z m35.328 85.333334H369.365333L263.338667 192.64 142.634667 313.301333 298.666667 469.333333v384h426.666666v-384l156.032-156.032-120.704-120.661333L654.634667 298.666667z" /></svg>