<?xml version="1.0" standalone="no"?>
<!DOCTYPE svg PUBLIC "-//W3C//DTD SVG 1.1//EN" "http://www.w3.org/Graphics/SVG/1.1/DTD/svg11.dtd">
<svg class="icon" style="width: 1em;height: 1em;vertical-align: middle;fill: currentColor;overflow: hidden;" viewBox="0 0 1024 1024" version="1.1" xmlns="http://www.w3.org/2000/svg"><path d="M877.056 146.944a170.666667 170.666667 0 0 1 0 241.365333l-349.866667 349.866667a170.624 170.624 0 0 1-101.845333 48.938667l-144.128 15.957333-98.048 98.133333a42.666667 42.666667 0 0 1-60.330667-60.373333l98.048-98.090667 16-144.085333c4.266667-38.528 21.546667-74.453333 48.938667-101.845333l349.866667-349.866667a170.666667 170.666667 0 0 1 241.365333 0z m-180.992 60.330667l-349.866667 349.866666a85.12 85.12 0 0 0-24.490666 50.901334l-11.776 106.026666 106.026666-11.776c19.2-2.133333 37.205333-10.752 50.901334-24.448l18.005333-18.048L424.533333 599.466667l60.330667-60.330667 60.330667 60.330667 60.330666-60.330667-60.330666-60.330667 60.330666-60.330666 60.373334 60.330666 60.330666-60.373333-60.330666-60.330667L726.186667 297.813333l60.330666 60.330667 30.165334-30.165333a85.333333 85.333333 0 1 0-120.661334-120.661334z" /></svg>