<?xml version="1.0" standalone="no"?>
<!DOCTYPE svg PUBLIC "-//W3C//DTD SVG 1.1//EN" "http://www.w3.org/Graphics/SVG/1.1/DTD/svg11.dtd">
<svg class="icon" style="width: 1em;height: 1em;vertical-align: middle;fill: currentColor;overflow: hidden;" viewBox="0 0 1024 1024" version="1.1" xmlns="http://www.w3.org/2000/svg"><path d="M896 128a42.666667 42.666667 0 0 1 42.666667 42.666667v234.666666a106.666667 106.666667 0 1 0 0 213.333334V853.333333a42.666667 42.666667 0 0 1-42.666667 42.666667H128a42.666667 42.666667 0 0 1-42.666667-42.666667v-234.666666a106.666667 106.666667 0 1 0 0-213.333334V170.666667a42.666667 42.666667 0 0 1 42.666667-42.666667h768z m-42.666667 85.333333H170.666667v126.634667l6.656 3.456a192 192 0 0 1 99.84 159.573333L277.333333 512a191.957333 191.957333 0 0 1-100.010666 168.533333L170.666667 684.032V810.666667h682.666666v-126.677334l-6.656-3.413333a192 192 0 0 1-99.84-159.573333L746.666667 512c0-72.704 40.405333-135.978667 100.010666-168.533333L853.333333 339.925333V213.333333z" /></svg>