<?xml version="1.0" standalone="no"?>
<!DOCTYPE svg PUBLIC "-//W3C//DTD SVG 1.1//EN" "http://www.w3.org/Graphics/SVG/1.1/DTD/svg11.dtd">
<svg class="icon" style="width: 1em;height: 1em;vertical-align: middle;fill: currentColor;overflow: hidden;" viewBox="0 0 1024 1024" version="1.1" xmlns="http://www.w3.org/2000/svg"><path d="M227.413333 139.562667a149.333333 149.333333 0 0 1 181.504 211.754666l456.917334 456.96-60.330667 60.330667-456.96-456.96a149.418667 149.418667 0 0 1-211.712-181.546667L232.277333 325.546667a64 64 0 1 0 90.496-90.496L227.370667 139.52z m442.325334 80.384l135.765333-75.434667 60.330667 60.330667-75.434667 135.765333-75.434667 15.104-90.453333 90.496-60.373333-60.330667 90.496-90.496 15.104-75.434666z m-286.634667 346.965333l60.330667 60.330667-226.261334 226.261333a42.666667 42.666667 0 0 1-63.658666-56.618667l3.328-3.712 226.261333-226.261333z" /></svg>