<?xml version="1.0" standalone="no"?>
<!DOCTYPE svg PUBLIC "-//W3C//DTD SVG 1.1//EN" "http://www.w3.org/Graphics/SVG/1.1/DTD/svg11.dtd">
<svg class="icon" style="width: 1em;height: 1em;vertical-align: middle;fill: currentColor;overflow: hidden;" viewBox="0 0 1024 1024" version="1.1" xmlns="http://www.w3.org/2000/svg"><path d="M224 128h576A96 96 0 0 1 896 224v576A96 96 0 0 1 800 896H224A96 96 0 0 1 128 800V224A96 96 0 0 1 224 128z m337.92 145.92v245.76c0 25.429333 20.650667 46.08 46.08 46.08h142.08a46.08 46.08 0 0 0 46.08-46.08V273.92a46.08 46.08 0 0 0-46.08-46.08h-142.08a46.08 46.08 0 0 0-46.08 46.08z m-334.08 0v437.76c0 25.429333 20.650667 46.08 46.08 46.08h142.08a46.08 46.08 0 0 0 46.08-46.08V273.92a46.08 46.08 0 0 0-46.08-46.08H273.92a46.08 46.08 0 0 0-46.08 46.08z" /></svg>