<?xml version="1.0" standalone="no"?>
<!DOCTYPE svg PUBLIC "-//W3C//DTD SVG 1.1//EN" "http://www.w3.org/Graphics/SVG/1.1/DTD/svg11.dtd">
<svg class="icon" style="width: 1em;height: 1em;vertical-align: middle;fill: currentColor;overflow: hidden;" viewBox="0 0 1024 1024" version="1.1" xmlns="http://www.w3.org/2000/svg"><path d="M652.8 236.8a123.733333 123.733333 0 0 0-123.733333 121.472l-1.194667 67.2a25.6 25.6 0 0 1-29.013333 24.874667l-66.602667-9.045334c-87.637333-11.946667-171.605333-52.309333-252.16-119.424-25.514667 141.226667 24.32 239.061333 144.341333 314.538667l74.538667 46.848a25.6 25.6 0 0 1 1.450667 42.368L332.501333 775.253333c40.405333 2.517333 78.762667 0.725333 110.592-5.589333 201.301333-40.192 335.146667-191.658667 335.146667-441.514667 0-20.394667-43.178667-91.349333-125.44-91.349333z m-209.066667 119.893333a209.066667 209.066667 0 0 1 357.76-143.146666c30.336-0.213333 56.149333 7.466667 113.877334-27.52-14.293333 69.973333-21.333333 100.352-51.797334 142.122666 0 326.058667-200.405333 484.608-403.754666 525.184-139.434667 27.818667-342.186667-17.877333-400.298667-78.549333 29.610667-2.304 149.930667-15.232 219.477333-66.133333C220.16 669.866667-14.037333 532.053333 139.861333 161.536c72.234667 84.352 145.493333 141.781333 219.733334 172.245333 49.408 20.266667 61.525333 19.84 84.181333 22.954667z" /></svg>