<?xml version="1.0" standalone="no"?>
<!DOCTYPE svg PUBLIC "-//W3C//DTD SVG 1.1//EN" "http://www.w3.org/Graphics/SVG/1.1/DTD/svg11.dtd">
<svg class="icon" style="width: 1em;height: 1em;vertical-align: middle;fill: currentColor;overflow: hidden;" viewBox="0 0 1024 1024" version="1.1" xmlns="http://www.w3.org/2000/svg"><path d="M753.237333 72.533333l-118.698666 108.074667a389.845333 389.845333 0 0 1 148.906666 84.181333c149.845333 136.533333 149.845333 357.888 0 494.421334-110.592 100.693333-281.514667 164.778667-512.682666 192.256l118.698666-108.074667a389.845333 389.845333 0 0 1-148.906666-84.181333c-149.845333-136.533333-150.741333-357.077333 0-494.421334C351.146667 164.096 522.112 100.010667 753.28 72.533333zM512 256c-164.949333 0-298.666667 114.602667-298.666667 256s133.717333 256 298.666667 256 298.666667-114.602667 298.666667-256-133.717333-256-298.666667-256z m0 98.133333c94.293333 0 170.666667 70.698667 170.666667 157.866667s-76.373333 157.866667-170.666667 157.866667-170.666667-70.698667-170.666667-157.866667 76.373333-157.866667 170.666667-157.866667z m0 85.333334c-48.554667 0-85.333333 34.005333-85.333333 72.533333 0 38.528 36.778667 72.533333 85.333333 72.533333s85.333333-34.005333 85.333333-72.533333c0-38.528-36.778667-72.533333-85.333333-72.533333z" /></svg>