<?xml version="1.0" standalone="no"?>
<!DOCTYPE svg PUBLIC "-//W3C//DTD SVG 1.1//EN" "http://www.w3.org/Graphics/SVG/1.1/DTD/svg11.dtd">
<svg class="icon" style="width: 1em;height: 1em;vertical-align: middle;fill: currentColor;overflow: hidden;" viewBox="0 0 1024 1024" version="1.1" xmlns="http://www.w3.org/2000/svg"><path d="M341.333333 85.333333v85.333334H213.333333l-0.042666 426.666666h597.333333L810.666667 170.666667h-128V85.333333h170.666666a42.666667 42.666667 0 0 1 42.666667 42.666667v768a42.666667 42.666667 0 0 1-42.666667 42.666667H170.666667a42.666667 42.666667 0 0 1-42.666667-42.666667V128a42.666667 42.666667 0 0 1 42.666667-42.666667h170.666666z m469.290667 597.333334h-597.333333L213.333333 853.333333h597.333334l-0.042667-170.666666zM725.333333 725.333333v85.333334h-85.333333v-85.333334h85.333333zM512 85.333333l170.666667 170.666667h-128v213.333333h-85.333334V256H341.333333l170.666667-170.666667z" /></svg>