<?xml version="1.0" standalone="no"?>
<!DOCTYPE svg PUBLIC "-//W3C//DTD SVG 1.1//EN" "http://www.w3.org/Graphics/SVG/1.1/DTD/svg11.dtd">
<svg class="icon" style="width: 1em;height: 1em;vertical-align: middle;fill: currentColor;overflow: hidden;" viewBox="0 0 1024 1024" version="1.1" xmlns="http://www.w3.org/2000/svg"><path d="M761.216 668.117333l7.509333 7.552 7.594667-7.552a96 96 0 0 1 135.765333 135.765334l-143.36 143.317333-143.274666-143.317333a96 96 0 0 1 135.765333-135.765334zM512 597.333333v85.333334a256 256 0 0 0-256 256H170.666667a341.333333 341.333333 0 0 1 330.666666-341.162667L512 597.333333z m0-554.666666c141.44 0 256 114.56 256 256a255.914667 255.914667 0 0 1-246.4 255.829333L512 554.666667c-141.44 0-256-114.56-256-256a255.914667 255.914667 0 0 1 246.4-255.829334L512 42.666667z m0 85.333333C417.706667 128 341.333333 204.373333 341.333333 298.666667s76.373333 170.666667 170.666667 170.666666 170.666667-76.373333 170.666667-170.666666-76.373333-170.666667-170.666667-170.666667z" /></svg>