<?xml version="1.0" standalone="no"?>
<!DOCTYPE svg PUBLIC "-//W3C//DTD SVG 1.1//EN" "http://www.w3.org/Graphics/SVG/1.1/DTD/svg11.dtd">
<svg class="icon" style="width: 1em;height: 1em;vertical-align: middle;fill: currentColor;overflow: hidden;" viewBox="0 0 1024 1024" version="1.1" xmlns="http://www.w3.org/2000/svg"><path d="M682.666667 170.666667a42.666667 42.666667 0 0 1 42.666666 42.666666v179.2l222.421334-155.733333a21.333333 21.333333 0 0 1 33.578666 17.493333v515.413334a21.333333 21.333333 0 0 1-33.578666 17.493333L725.333333 631.466667V810.666667a42.666667 42.666667 0 0 1-42.666666 42.666666H85.333333a42.666667 42.666667 0 0 1-42.666666-42.666666V213.333333a42.666667 42.666667 0 0 1 42.666666-42.666666h597.333334z m-42.666667 85.333333H128v512h512V256zM384 341.333333l170.666667 170.666667h-128v170.666667H341.333333v-170.666667H213.333333l170.666667-170.666667z m512 35.882667l-170.666667 119.466667v30.634666l170.666667 119.466667V377.173333z" /></svg>