<?xml version="1.0" standalone="no"?>
<!DOCTYPE svg PUBLIC "-//W3C//DTD SVG 1.1//EN" "http://www.w3.org/Graphics/SVG/1.1/DTD/svg11.dtd">
<svg class="icon" style="width: 1em;height: 1em;vertical-align: middle;fill: currentColor;overflow: hidden;" viewBox="0 0 1024 1024" version="1.1" xmlns="http://www.w3.org/2000/svg"><path d="M554.666667 256V170.666667H213.333333V85.333333h426.666667v170.666667h42.666667a42.666667 42.666667 0 0 1 42.666666 42.666667v93.866666l222.421334-155.733333a21.333333 21.333333 0 0 1 33.578666 17.493333v515.413334a21.333333 21.333333 0 0 1-33.578666 17.493333L725.333333 631.466667V810.666667a42.666667 42.666667 0 0 1-42.666666 42.666666H85.333333a42.666667 42.666667 0 0 1-42.666666-42.666666V298.666667a42.666667 42.666667 0 0 1 42.666666-42.666667h469.333334z m85.333333 85.333333H128v426.666667h512V341.333333z m85.333333 185.984l170.666667 119.466667V377.173333l-170.666667 119.466667v30.634667zM213.333333 426.666667h85.333334v85.333333H213.333333v-85.333333z" /></svg>