<?xml version="1.0" standalone="no"?>
<!DOCTYPE svg PUBLIC "-//W3C//DTD SVG 1.1//EN" "http://www.w3.org/Graphics/SVG/1.1/DTD/svg11.dtd">
<svg class="icon" style="width: 1em;height: 1em;vertical-align: middle;fill: currentColor;overflow: hidden;" viewBox="0 0 1024 1024" version="1.1" xmlns="http://www.w3.org/2000/svg"><path d="M42.666667 170.666667h938.666666v85.333333H42.666667V170.666667z m0 597.333333h938.666666v85.333333H42.666667v-85.333333z m794.538666-131.669333l-7.424-37.12h-83.157333l-13.226667 36.821333-66.645333 0.128c42.88-102.656 74.666667-178.773333 95.402667-228.181333 5.418667-12.928 15.061333-19.498667 29.226666-19.413334 10.837333 0.085333 28.544 0.085333 53.12 0L896 636.245333l-58.794667 0.128z m-71.850666-87.978667h53.589333l-20.053333-93.013333-33.536 93.013333zM335.872 388.522667l66.986667 0.085333-103.552 247.722667-67.84-0.042667c-22.912-88.32-39.765333-153.856-50.517334-196.48-3.285333-13.098667-9.813333-22.229333-22.442666-26.538667-11.221333-3.84-29.909333-9.813333-56.106667-17.877333v-6.826667h107.050667c18.517333 0 29.312 8.96 32.810666 27.306667l26.453334 140.330667 67.157333-167.68z m159.018667 0.085333l-52.906667 247.68-63.786667-0.085333 52.906667-247.68 63.786667 0.085333zM624.256 384c19.029333 0 43.093333 5.888 56.917333 11.392l-11.178666 51.370667c-12.501333-5.034667-33.066667-11.818667-50.346667-11.52-25.173333 0.384-40.704 10.922667-40.704 21.034666 0 16.384 26.965333 24.661333 54.784 42.624 31.701333 20.48 35.84 38.826667 35.456 58.794667-0.426667 41.429333-35.456 82.304-109.397333 82.304-33.749333-0.512-45.909333-3.328-73.386667-13.056l11.605333-53.589333c27.989333 11.690667 39.893333 15.402667 63.786667 15.402666 21.973333 0 40.789333-8.832 40.96-24.234666 0.085333-10.965333-6.613333-16.384-31.232-29.952-24.618667-13.525333-59.093333-32.256-58.666667-69.973334C513.408 416.384 559.232 384 624.213333 384z" /></svg>