<?xml version="1.0" standalone="no"?>
<!DOCTYPE svg PUBLIC "-//W3C//DTD SVG 1.1//EN" "http://www.w3.org/Graphics/SVG/1.1/DTD/svg11.dtd">
<svg class="icon" style="width: 1em;height: 1em;vertical-align: middle;fill: currentColor;overflow: hidden;" viewBox="0 0 1024 1024" version="1.1" xmlns="http://www.w3.org/2000/svg"><path d="M827.306667 134.869333l60.288 60.330667-105.6 105.6 105.6 105.6L781.994667 512l105.6 105.642667-105.6 105.6 105.6 105.6-60.330667 60.330666-165.930667-165.973333 105.6-105.557333L661.333333 512l105.6-105.6L661.333333 300.8l165.973334-165.930667zM554.666667 850.986667a21.333333 21.333333 0 0 1-34.858667 16.512L293.973333 682.624 128 682.666667a42.666667 42.666667 0 0 1-42.666667-42.666667V384a42.666667 42.666667 0 0 1 42.666667-42.666667l110.250667-0.085333-161.109334-161.109333 60.330667-60.330667L554.666667 537.002667v313.984zM323.584 426.581333L170.666667 426.666667v170.666666l153.728-0.042666L469.333333 715.904v-143.573333L323.584 426.581333z m226.261333-267.093333a21.333333 21.333333 0 0 1 4.821334 13.525333v243.285334l-85.333334-85.333334V308.053333l-12.629333 10.282667-60.629333-60.586667 123.733333-101.248a21.333333 21.333333 0 0 1 30.037333 2.986667z" /></svg>