<?xml version="1.0" standalone="no"?>
<!DOCTYPE svg PUBLIC "-//W3C//DTD SVG 1.1//EN" "http://www.w3.org/Graphics/SVG/1.1/DTD/svg11.dtd">
<svg class="icon" style="width: 1em;height: 1em;vertical-align: middle;fill: currentColor;overflow: hidden;" viewBox="0 0 1024 1024" version="1.1" xmlns="http://www.w3.org/2000/svg"><path d="M853.333333 298.666667V213.333333H170.666667v597.333334h682.666666v-85.333334h-341.333333a42.666667 42.666667 0 0 1-42.666667-42.666666V341.333333a42.666667 42.666667 0 0 1 42.666667-42.666666h341.333333zM128 128h768a42.666667 42.666667 0 0 1 42.666667 42.666667v682.666666a42.666667 42.666667 0 0 1-42.666667 42.666667H128a42.666667 42.666667 0 0 1-42.666667-42.666667V170.666667a42.666667 42.666667 0 0 1 42.666667-42.666667z m426.666667 256v256h298.666666V384h-298.666666z m85.333333 85.333333h128v85.333334h-128v-85.333334z" /></svg>