<?xml version="1.0" standalone="no"?>
<!DOCTYPE svg PUBLIC "-//W3C//DTD SVG 1.1//EN" "http://www.w3.org/Graphics/SVG/1.1/DTD/svg11.dtd">
<svg class="icon" style="width: 1em;height: 1em;vertical-align: middle;fill: currentColor;overflow: hidden;" viewBox="0 0 1024 1024" version="1.1" xmlns="http://www.w3.org/2000/svg"><path d="M85.504 938.666667l57.685333-211.968A424.704 424.704 0 0 1 85.333333 512C85.333333 276.352 276.352 85.333333 512 85.333333s426.666667 191.018667 426.666667 426.666667-191.018667 426.666667-426.666667 426.666667a424.704 424.704 0 0 1-214.613333-57.813334L85.504 938.666667zM358.016 311.808a41.002667 41.002667 0 0 0-15.829333 4.266667 55.168 55.168 0 0 0-12.544 9.728c-5.12 4.821333-8.021333 9.002667-11.136 13.056A116.437333 116.437333 0 0 0 294.4 410.453333c0.085333 20.906667 5.546667 41.258667 14.08 60.288 17.450667 38.485333 46.165333 79.232 84.096 116.992 9.130667 9.088 18.048 18.218667 27.648 26.709334a403.114667 403.114667 0 0 0 163.84 87.296l24.277333 3.712c7.893333 0.426667 15.786667-0.170667 23.722667-0.554667a84.906667 84.906667 0 0 0 35.541333-9.856 206.08 206.08 0 0 0 16.341334-9.386667s1.834667-1.194667 5.333333-3.84c5.76-4.266667 9.301333-7.296 14.08-12.288 3.541333-3.669333 6.613333-7.978667 8.96-12.885333 3.328-6.954667 6.656-20.224 8.021333-31.274667 1.024-8.448 0.725333-13.056 0.597334-15.914666-0.170667-4.565333-3.968-9.301333-8.106667-11.306667l-24.832-11.136s-37.12-16.170667-59.776-26.496a21.248 21.248 0 0 0-7.552-1.749333 20.565333 20.565333 0 0 0-16.128 5.418666v-0.085333c-0.213333 0-3.072 2.432-33.92 39.808a14.933333 14.933333 0 0 1-15.701333 5.546667 60.416 60.416 0 0 1-8.149334-2.816c-5.290667-2.218667-7.125333-3.072-10.752-4.650667l-0.213333-0.085333a256.426667 256.426667 0 0 1-66.986667-42.666667c-5.376-4.693333-10.368-9.813333-15.488-14.762667a268.629333 268.629333 0 0 1-43.52-54.101333l-2.517333-4.053333a39.381333 39.381333 0 0 1-4.352-8.746667c-1.621333-6.272 2.602667-11.306667 2.602667-11.306667s10.368-11.349333 15.189333-17.493333a186.88 186.88 0 0 0 11.221333-15.914667c5.034667-8.106667 6.613333-16.426667 3.968-22.869333-11.946667-29.184-24.32-58.24-37.034666-87.082667-2.517333-5.717333-9.984-9.813333-16.768-10.624-2.304-0.256-4.608-0.512-6.912-0.682666a144.426667 144.426667 0 0 0-17.194667 0.170666z" /></svg>