<?xml version="1.0" standalone="no"?>
<!DOCTYPE svg PUBLIC "-//W3C//DTD SVG 1.1//EN" "http://www.w3.org/Graphics/SVG/1.1/DTD/svg11.dtd">
<svg class="icon" style="width: 1em;height: 1em;vertical-align: middle;fill: currentColor;overflow: hidden;" viewBox="0 0 1024 1024" version="1.1" xmlns="http://www.w3.org/2000/svg"><path d="M341.333333 441.216v93.610667A170.624 170.624 0 1 0 574.506667 768h93.568A256.085333 256.085333 0 0 1 170.666667 682.666667a256.128 256.128 0 0 1 170.666666-241.450667zM512 725.333333a128 128 0 0 1-128-128v-170.666666a128 128 0 1 1 256 0v213.333333h61.184a85.333333 85.333333 0 0 1 69.376 35.669333l3.797333 5.76 115.541334 192.64-73.130667 43.861334L701.141333 725.333333H512z m0-640a106.666667 106.666667 0 0 1 0 213.333334 106.666667 106.666667 0 0 1 0-213.333334z" /></svg>