<?xml version="1.0" standalone="no"?>
<!DOCTYPE svg PUBLIC "-//W3C//DTD SVG 1.1//EN" "http://www.w3.org/Graphics/SVG/1.1/DTD/svg11.dtd">
<svg class="icon" style="width: 1em;height: 1em;vertical-align: middle;fill: currentColor;overflow: hidden;" viewBox="0 0 1024 1024" version="1.1" xmlns="http://www.w3.org/2000/svg"><path d="M512 768c30.464 0 58.453333 10.666667 80.469333 28.416L512 896l-80.469333-99.584A127.445333 127.445333 0 0 1 512 768zM119.808 59.434667l754.218667 754.261333-60.330667 60.330667-157.098667-157.013334-10.538666 13.056A212.48 212.48 0 0 0 512 682.666667a212.48 212.48 0 0 0-134.016 47.36l-80.426667-99.584a339.754667 339.754667 0 0 1 197.205334-75.349334l-75.648-75.605333a425.088 425.088 0 0 0-175.189334 84.565333L163.413333 464.512A553.984 553.984 0 0 1 316.416 376.746667L251.093333 311.466667a640 640 0 0 0-141.226666 86.656L29.397333 298.538667a768.768 768.768 0 0 1 125.952-82.858667L59.434667 119.808l60.373333-60.373333zM686.250667 506.453333l-165.034667-164.992L512 341.333333c132.053333 0 253.312 46.122667 348.586667 123.178667l-80.469334 99.584a426.666667 426.666667 0 0 0-93.866666-57.685333zM512 128c182.826667 0 350.72 63.872 482.56 170.538667L914.176 398.08A637.312 637.312 0 0 0 512 256c-24.405333 0-48.469333 1.365333-72.106667 4.010667L329.514667 149.802667A770.304 770.304 0 0 1 512 128z" /></svg>