<?xml version="1.0" standalone="no"?>
<!DOCTYPE svg PUBLIC "-//W3C//DTD SVG 1.1//EN" "http://www.w3.org/Graphics/SVG/1.1/DTD/svg11.dtd">
<svg class="icon" style="width: 1em;height: 1em;vertical-align: middle;fill: currentColor;overflow: hidden;" viewBox="0 0 1024 1024" version="1.1" xmlns="http://www.w3.org/2000/svg"><path d="M29.44 298.538667A764.8 764.8 0 0 1 512 128c182.826667 0 350.72 63.872 482.56 170.538667L914.133333 398.08A637.312 637.312 0 0 0 512 256C359.68 256 219.733333 309.248 109.866667 398.08L29.44 298.538667z m134.016 165.973333A552.362667 552.362667 0 0 1 512 341.333333a552.533333 552.533333 0 0 1 348.544 123.136l-80.426667 99.584A424.874667 424.874667 0 0 0 512 469.333333c-101.546667 0-194.816 35.498667-268.117333 94.72l-80.426667-99.584z m134.058667 165.973333A339.925333 339.925333 0 0 1 512 554.666667c81.237333 0 155.861333 28.373333 214.485333 75.776l-80.426666 99.584A212.48 212.48 0 0 0 512 682.666667a212.48 212.48 0 0 0-134.058667 47.36l-80.426666-99.584z m134.058666 165.973334A127.445333 127.445333 0 0 1 512 768c30.464 0 58.453333 10.666667 80.426667 28.416L512 896l-80.426667-99.584z" /></svg>