<?xml version="1.0" standalone="no"?>
<!DOCTYPE svg PUBLIC "-//W3C//DTD SVG 1.1//EN" "http://www.w3.org/Graphics/SVG/1.1/DTD/svg11.dtd">
<svg class="icon" style="width: 1em;height: 1em;vertical-align: middle;fill: currentColor;overflow: hidden;" viewBox="0 0 1024 1024" version="1.1" xmlns="http://www.w3.org/2000/svg"><path d="M29.44 298.538667A764.8 764.8 0 0 1 512 128c182.826667 0 350.72 63.872 482.56 170.538667l-53.589333 66.389333A679.808 679.808 0 0 0 512 213.333333C349.482667 213.333333 200.277333 270.08 83.029333 364.928L29.44 298.538667z m134.016 165.973333A552.362667 552.362667 0 0 1 512 341.333333a552.533333 552.533333 0 0 1 348.544 123.136l-53.632 66.389334A467.370667 467.370667 0 0 0 512 426.666667c-111.701333 0-214.314667 39.04-294.912 104.192l-53.632-66.389334z m134.058667 165.973333A339.925333 339.925333 0 0 1 512 554.666667c81.237333 0 155.861333 28.373333 214.485333 75.776l-53.632 66.389333A254.933333 254.933333 0 0 0 512 640c-60.928 0-116.906667 21.290667-160.853333 56.832l-53.632-66.389333z m134.058666 165.973334A127.445333 127.445333 0 0 1 512 768c30.464 0 58.453333 10.666667 80.426667 28.416L512 896l-80.426667-99.584z" /></svg>