<?xml version="1.0" standalone="no"?>
<!DOCTYPE svg PUBLIC "-//W3C//DTD SVG 1.1//EN" "http://www.w3.org/Graphics/SVG/1.1/DTD/svg11.dtd">
<svg class="icon" style="width: 1em;height: 1em;vertical-align: middle;fill: currentColor;overflow: hidden;" viewBox="0 0 1024 1024" version="1.1" xmlns="http://www.w3.org/2000/svg"><path d="M873.045333 137.813333c6.528 0 13.098667 3.328 16.384 6.613334a20.906667 20.906667 0 0 1 0 19.669333l-259.285333 459.52 164.096 301.909333a20.906667 20.906667 0 0 1 0 19.712 25.088 25.088 0 0 1-16.384 6.570667h-118.186667c-16.384 0-26.24-13.141333-32.810666-22.997333l-167.381334-305.237334C469.333333 610.474667 722.048 160.853333 722.048 160.853333c6.570667-13.098667 16.426667-22.954667 32.853333-22.954666h118.144zM380.714667 298.666667c16.426667 0 26.24 13.141333 32.853333 22.954666l82.005333 141.141334c-6.528 6.570667-128 223.146667-128 223.146666-6.528 9.898667-16.384 23.04-32.810666 23.04H219.904a25.088 25.088 0 0 1-16.426667-6.570666 20.906667 20.906667 0 0 1 0-19.712l121.429334-219.904-78.762667-137.813334a20.906667 20.906667 0 0 1 0-19.712A25.088 25.088 0 0 1 262.570667 298.666667h118.186666z" /></svg>