<?xml version="1.0" standalone="no"?>
<!DOCTYPE svg PUBLIC "-//W3C//DTD SVG 1.1//EN" "http://www.w3.org/Graphics/SVG/1.1/DTD/svg11.dtd">
<svg class="icon" style="width: 1em;height: 1em;vertical-align: middle;fill: currentColor;overflow: hidden;" viewBox="0 0 1024 1024" version="1.1" xmlns="http://www.w3.org/2000/svg"><path d="M836.522667 298.453333c-3.242667-12.714667-12.458667-22.314667-22.997334-25.258666C794.88 267.946667 704 256 512 256s-282.794667 11.946667-301.610667 17.194667c-10.410667 2.901333-19.626667 12.501333-22.912 25.258666C182.826667 316.544 170.666667 392.362667 170.666667 512s12.16 195.413333 16.810666 213.589333c3.242667 12.672 12.458667 22.272 22.954667 25.173334C229.205333 756.053333 320 768 512 768s282.837333-11.946667 301.610667-17.194667c10.410667-2.901333 19.626667-12.501333 22.912-25.258666C841.173333 707.456 853.333333 631.466667 853.333333 512s-12.16-195.413333-16.810666-213.546667z m82.645333-21.205333C938.666667 353.28 938.666667 512 938.666667 512s0 158.72-19.498667 234.752c-10.837333 42.026667-42.538667 75.093333-82.688 86.272C763.562667 853.333333 512 853.333333 512 853.333333s-251.434667 0-324.48-20.309333c-40.32-11.349333-71.978667-44.373333-82.688-86.272C85.333333 670.72 85.333333 512 85.333333 512s0-158.72 19.498667-234.752c10.837333-42.026667 42.538667-75.093333 82.688-86.272C260.565333 170.666667 512 170.666667 512 170.666667s251.562667 0 324.48 20.309333c40.32 11.349333 71.978667 44.373333 82.688 86.272zM426.666667 661.333333v-298.666666l256 149.333333-256 149.333333z" /></svg>