<svg xmlns="http://www.w3.org/2000/svg" viewBox="0 0 1024 1024" width="1024" height="1024">
  <path fill="#ffffff" d="M664.250054 368.541681c10.015098 0 19.892049 0.732687 29.67281 1.795903-26.647917-122.810047-159.358354-214.077703-310.826188-214.077703-169.353083 0-308.085774 114.232694-308.085774 259.274068 0 83.708494 46.165448 152.460344 123.281791 205.78483l-30.80868 91.730162 107.688651-53.442491c38.558178 7.53665 69.459898 15.323399 107.924193 15.323399 9.663887 0 19.230821-0.470657 28.752821-1.225509-6.025779-20.36584-9.522859-41.723782-9.522859-63.862493C402.26692 485.505346 517.749613 368.541681 664.250054 368.541681zM546.971642 248.980873c23.199341 0 38.557154 15.120372 38.557154 38.063858 0 22.846436-15.357814 38.159373-38.557154 38.159373-23.107748 0-46.202564-15.312937-46.202564-38.159373C500.769078 264.101245 523.863894 248.980873 546.971642 248.980873zM283.021917 325.200052c-23.107748 0-46.349765-15.312937-46.349765-38.159373 0-22.943486 23.242017-38.063858 46.349765-38.063858 23.107748 0 38.558178 15.120372 38.558178 38.063858C321.580095 309.887115 306.129665 325.200052 283.021917 325.200052zM946.95532 608.145332c0-121.888049-121.895212-221.236128-258.894139-221.236128-144.925302 0-259.147438 99.348079-259.147438 221.236128 0 122.064078 114.222136 221.262735 259.147438 221.262735 30.280687 0 60.830573-7.576093 91.302918-15.263866l83.454871 45.809382-22.947583-76.183763C900.003953 732.43313 946.95532 674.876423 946.95532 608.145332zM598.722826 569.995677c-15.357814 0-30.80868-15.237349-30.80868-30.628798 0-15.137395 15.450866-30.525778 30.80868-30.525778 23.296934 0 38.557154 15.388383 38.557154 30.525778C637.27998 554.758328 622.01976 569.995677 598.722826 569.995677zM776.913486 569.995677c-15.229013 0-30.577057-15.237349-30.577057-30.628798 0-15.137395 15.348043-30.525778 30.577057-30.525778 23.107748 0 38.558178 15.388383 38.558178 30.525778C815.471664 554.758328 800.021234 569.995677 776.913486 569.995677z"/>
</svg>
