<?xml version="1.0" standalone="no"?><!DOCTYPE svg PUBLIC "-//W3C//DTD SVG 1.1//EN" "http://www.w3.org/Graphics/SVG/1.1/DTD/svg11.dtd"><svg t="1783653595792" class="icon" viewBox="0 0 1024 1024" version="1.1" xmlns="http://www.w3.org/2000/svg" p-id="2858" xmlns:xlink="http://www.w3.org/1999/xlink" width="200" height="200"><path d="M880.62 414.939c-4.488-17.094-21.987-27.312-39.077-22.825-17.094 4.488-27.312 21.984-22.825 39.078 6.859 26.124 10.337 53.21 10.337 80.506 0 174.274-141.781 316.055-316.055 316.055-174.273 0-316.055-141.781-316.055-316.055 0-174.273 141.782-316.055 316.055-316.055a316.62 316.62 0 0 1 105.792 18.177l-52.681 22.685c-16.231 6.99-23.725 25.815-16.734 42.047 5.213 12.108 17.011 19.353 29.406 19.353 4.223 0 8.516-0.841 12.641-2.617l117.563-50.624c16.231-6.99 23.725-25.815 16.734-42.047L675.098 85.053c-6.988-16.231-25.812-23.725-42.047-16.735-16.231 6.99-23.725 25.815-16.734 42.047l17.652 40.995A380.708 380.708 0 0 0 513 131.643c-51.293 0-101.069 10.053-147.944 29.88-45.26 19.144-85.902 46.542-120.795 81.436s-62.292 75.535-81.436 120.795c-19.827 46.876-29.88 96.651-29.88 147.944 0 51.293 10.053 101.069 29.88 147.944 19.143 45.261 46.542 85.902 81.436 120.796 34.893 34.893 75.535 62.292 120.795 81.436 46.875 19.827 96.651 29.88 147.944 29.88s101.068-10.053 147.944-29.88c45.261-19.144 85.901-46.543 120.795-81.436 34.894-34.894 62.292-75.535 81.436-120.796 19.827-46.875 29.88-96.65 29.88-147.944 0-32.778-4.184-65.332-12.435-96.759z" p-id="2859"></path></svg>