<?xml version="1.0" standalone="no"?><!DOCTYPE svg PUBLIC "-//W3C//DTD SVG 1.1//EN" "http://www.w3.org/Graphics/SVG/1.1/DTD/svg11.dtd"><svg t="1783654059326" class="icon" viewBox="0 0 1024 1024" version="1.1" xmlns="http://www.w3.org/2000/svg" p-id="12618" xmlns:xlink="http://www.w3.org/1999/xlink" width="200" height="200"><path d="M839.93 285.718c5.258-5.246 11.167-11.165 15.006-17.923 28.762-35.707 32.198-89.755 8.064-128.98-24.312-39.51-60.35-59.544-107.103-59.544H177.253c-11.213 0-22.8 0-32.89 3.182-24.706 5.976-47.309 20.578-63.69 41.156C63.987 144.56 54.8 170.46 54.8 196.534c0 33.835 12.893 63.821 36.317 84.475 74.405 71.852 148.69 146.108 220.57 217.993v237.254l0.124 1.997c3.907 31.238 27.638 48.302 56.362 35.966l0.5-0.235c15.541-7.767 24.45-23.409 24.45-42.917V487.155c0-16.464-5.074-29.89-15.086-39.902-35.904-35.909-71.28-73.224-105.485-109.316-35.266-37.21-71.736-75.686-109.853-113.803l-1.867-1.886-2.25-1.11c-0.53-0.364-1.7-1.89-2.588-3.056-0.975-1.263-1.925-2.458-2.923-3.548-6.582-8.433-7.97-15.6-4.897-25.271 5.343-12.092 16.057-25.969 29.074-25.969h583.834c7.109 0 13.963 3.84 19.295 10.819 6.917 9.058 9.49 21.034 6.644 31.489-1.45 5.784-3.864 8.404-11.156 15.71-80.394 77.794-157.185 154.579-238.482 235.872l-0.432 0.437c-8.237 8.227-17.688 20.203-17.688 39.907V907.52c0 5.04 0 19.243 10.382 30.61 0 0 3.153 7.118 16.747 12.287 16.8 6.385 33.211-0.888 33.211-0.888l4.286-3.206c16.81-12.614 16.81-32.26 16.81-44.001v-387.75c40.2-40.103 81.855-79.113 122.165-116.86 41.05-38.428 79.814-74.736 117.067-111.994z m89.82 525.284H709.184c-23.043 0-36.815 18.724-36.815 36.83v10.388c0 23.05 18.715 36.82 36.815 36.82H929.75c23.054 0 36.825-18.72 36.825-36.821V847.83c0-22.026-14.798-36.83-36.825-36.83z m0-132.327H709.184c-23.043 0-36.815 18.725-36.815 36.83v7.772c0 23.059 18.715 36.834 36.815 36.834H929.75c23.054 0 36.825-18.724 36.825-36.834v-7.772c0-18.105-13.77-36.83-36.825-36.83z m0-127.147H709.184c-23.043 0-36.815 18.724-36.815 36.83v5.19c0 23.043 18.715 36.82 36.815 36.82H929.75c23.054 0 36.825-18.72 36.825-36.82v-5.19c0-22.03-14.798-36.83-36.825-36.83z" p-id="12619"></path></svg>