<?xml version="1.0" standalone="no"?><!DOCTYPE svg PUBLIC "-//W3C//DTD SVG 1.1//EN" "http://www.w3.org/Graphics/SVG/1.1/DTD/svg11.dtd"><svg t="1783653484907" class="icon" viewBox="0 0 1024 1024" version="1.1" xmlns="http://www.w3.org/2000/svg" p-id="2684" xmlns:xlink="http://www.w3.org/1999/xlink" width="200" height="200"><path d="M950.847 905.591l-262.631-262.63a350.096 350.096 0 0 0 54.441-88.956c18.363-43.417 27.675-89.519 27.675-137.024 0-47.505-9.312-93.607-27.675-137.024-17.73-41.92-43.106-79.561-75.424-111.877-32.316-32.317-69.957-57.693-111.877-75.424C511.94 74.292 465.838 64.98 418.333 64.98c-47.506 0-93.607 9.311-137.024 27.675-41.919 17.731-79.561 43.107-111.877 75.424-32.316 32.316-57.693 69.958-75.423 111.877-18.364 43.417-27.675 89.519-27.675 137.024 0 47.506 9.311 93.607 27.675 137.024 17.73 41.92 43.107 79.561 75.423 111.877 32.317 32.317 69.958 57.693 111.878 75.424 43.417 18.363 89.518 27.675 137.024 27.675 47.505 0 93.607-9.312 137.024-27.675 31.777-13.44 61.088-31.283 87.491-53.203l262.743 262.744c6.249 6.248 14.438 9.372 22.628 9.372s16.379-3.124 22.628-9.372c12.495-12.496 12.495-32.758-0.001-45.255zM418.333 704.98c-158.804 0-288-129.196-288-288s129.196-288 288-288c158.803 0 288 129.196 288 288s-129.197 288-288 288z" p-id="2685"></path></svg>