<?xml version="1.0" standalone="no"?><!DOCTYPE svg PUBLIC "-//W3C//DTD SVG 1.1//EN" "http://www.w3.org/Graphics/SVG/1.1/DTD/svg11.dtd"><svg t="1783652471896" class="icon" viewBox="0 0 1024 1024" version="1.1" xmlns="http://www.w3.org/2000/svg" p-id="1500" xmlns:xlink="http://www.w3.org/1999/xlink" width="200" height="200"><path d="M295.07 735.52c-42.96 0-81.11-27.5-94.41-69l-46.54-145.29c-14.09-43.97 3.67-91.37 43.19-115.26l313.86-189.76c19.91-12.04 43.83-14.26 65.62-6.1 21.79 8.16 38.36 25.56 45.46 47.72L734.7 608.84c7.1 22.16 3.72 45.94-9.27 65.25-12.99 19.31-33.75 31.4-56.95 33.17l-365.7 27.95c-2.59 0.2-5.16 0.3-7.72 0.3z m255.17-490.23c-6.39 0-12.72 1.74-18.37 5.15L218 440.2c-23.6 14.27-34.2 42.57-25.79 68.83l46.54 145.29c8.41 26.26 33.49 43.13 60.98 41.03l365.7-27.95 1.52 19.94-1.52-19.94c10.92-0.83 20.7-6.53 26.81-15.62s7.71-20.29 4.36-30.72L584.15 270.05c-3.34-10.43-11.14-18.62-21.4-22.46a35.6 35.6 0 0 0-12.52-2.28z" fill="#333333" p-id="1501"></path><path d="M744.01 433.56c-8.46 0-16.32-5.41-19.04-13.9-3.37-10.52 2.43-21.78 12.94-25.15l72.99-23.38c10.52-3.37 21.78 2.43 25.15 12.95 3.37 10.52-2.43 21.78-12.94 25.15l-72.99 23.38c-2.03 0.65-4.09 0.96-6.11 0.96zM705.89 314.5c-6.55 0-12.97-3.21-16.8-9.12-6.01-9.27-3.37-21.65 5.89-27.66l66.63-43.23c9.27-6.01 21.65-3.37 27.66 5.89s3.37 21.65-5.89 27.66l-66.63 43.23a19.921 19.921 0 0 1-10.87 3.22zM782.14 552.62c-10.64 0-19.49-8.38-19.96-19.11-0.49-11.04 8.05-20.38 19.09-20.87l79.35-3.54c11.04-0.48 20.38 8.05 20.87 19.09 0.49 11.04-8.05 20.38-19.09 20.87l-79.35 3.54c-0.3 0.01-0.61 0.02-0.91 0.02z" fill="#E83245" p-id="1502"></path><path d="M442.21 829.8c-17.55 0-33.4-11.14-39.22-27.92l-28.51-82.25c-3.62-10.44 1.91-21.83 12.35-25.45 10.44-3.61 21.83 1.91 25.45 12.35l28.51 82.25c0.22 0.65 0.86 1.05 1.54 1.01l88.69-6.49-20.15-62.89c-3.37-10.52 2.43-21.78 12.94-25.15 10.52-3.37 21.78 2.43 25.15 12.95l22.88 71.42c3.1 9.68 1.62 20.07-4.07 28.49-5.69 8.43-14.77 13.68-24.9 14.42l-97.62 7.14c-1.01 0.07-2.03 0.11-3.03 0.11z m91.54-37.96z" fill="#333333" p-id="1503"></path></svg>