<?xml version="1.0" standalone="no"?><!DOCTYPE svg PUBLIC "-//W3C//DTD SVG 1.1//EN" "http://www.w3.org/Graphics/SVG/1.1/DTD/svg11.dtd"><svg t="1783666241850" class="icon" viewBox="0 0 1024 1024" version="1.1" xmlns="http://www.w3.org/2000/svg" p-id="17940" xmlns:xlink="http://www.w3.org/1999/xlink" width="200" height="200"><path d="M986 361.2l0.3-0.2L844 108l3.1-0.7c12.9-2.8 22-14.4 22-27.9V66.6c0-18.1-16.4-31.7-33.8-27.8L179.1 183.1c-12.9 2.8-22 14.4-22 27.9v12.9c0 17.6 15.5 30.7 32.3 28L39.9 517.7l0.3 0.2H5.7c0 90.4 93.3 163.7 208.4 163.7s208.4-73.3 208.4-163.7H393l0.3-0.2-155.4-276.3 240.3-52.9v735c-116.7 9.2-145 62.3-145 62.3h360.5s-28.4-53.3-145.7-62.4V173.2l217.5-47.9L633 361.1l0.3 0.2h-29.6c0 90.4 93.3 163.7 208.4 163.7s208.4-73.3 208.4-163.7H986zM88.1 517.9l128.5-228.5 128.5 228.5h-257z m593.1-156.7l128.5-228.5 128.5 228.5h-257z" p-id="17941"></path></svg>