<?xml version="1.0" standalone="no"?><!DOCTYPE svg PUBLIC "-//W3C//DTD SVG 1.1//EN" "http://www.w3.org/Graphics/SVG/1.1/DTD/svg11.dtd"><svg t="1783654546178" class="icon" viewBox="0 0 1024 1024" version="1.1" xmlns="http://www.w3.org/2000/svg" p-id="13672" xmlns:xlink="http://www.w3.org/1999/xlink" width="200" height="200"><path d="M799.346456 0h-696.482765C46.179836 0 0.094631 45.51742 0.094631 101.53886v699.794843c0 55.926809 46.085205 101.53886 102.674429 101.53886h696.482765c56.589225 0 102.674429-45.51742 102.67443-101.53886V101.53886C902.020885 45.51742 855.935681 0 799.346456 0z m35.202661 801.144441c0 19.304685-15.897976 35.108031-35.486553 35.108031H103.052953c-19.588578 0-35.486554-15.708715-35.486554-35.108031v-699.321689c0-19.304685 15.897976-35.108031 35.486554-35.108031h696.009611c19.588578 0 35.486554 15.708715 35.486553 35.108031v699.321689z" p-id="13673"></path><path d="M766.414934 659.103595H136.457629c-18.547639 0-33.593938 14.857037-33.593938 33.215414 0 18.263746 15.046299 33.215414 33.593938 33.215415H766.509565c18.547639 0 33.593938-14.857037 33.593937-33.215415-0.094631-18.358377-15.046299-33.215414-33.688568-33.215414zM131.158303 572.516403h64.822105v-48.072451h165.887811v40.123463h66.336198l-0.283892-14.478514c-1.040939-51.573792-1.608724-110.339525-1.608724-174.499214s0.567785-122.830792 1.608724-174.499215l0.283892-14.573145h-297.140745l0.283893 14.478514c1.040939 57.15701 1.608724 119.14019 1.608724 184.151558 0 65.105998-0.567785 123.303946-1.608724 172.89049l-0.189262 14.478514z m230.709916-189.16699v85.356991H195.885778v-85.356991h165.982441z m0-139.580445v83.748267H195.885778v-83.748267h165.982441z" p-id="13674"></path><path d="M919.527585 121.127437h-16.844284v66.714722h16.560392c19.588578 0 35.486554 15.708715 35.486554 35.10803v699.32169c0 19.304685-15.897976 35.108031-35.486554 35.10803H223.234082c-19.588578 0-35.486554-15.708715-35.486554-35.10803V902.777932h-67.471768v19.683208c0 55.926809 46.085205 101.53886 102.674429 101.53886h696.482765c56.589225 0 102.674429-45.51742 102.67443-101.53886V222.666297c0.094631-56.02144-45.990574-101.53886-102.579799-101.53886zM745.312263 191.53276H532.676832c-18.547639 0-33.593938 14.857037-33.593938 33.215415 0 18.263746 15.046299 33.215414 33.593938 33.215414h212.730062c18.547639 0 33.593938-14.857037 33.593938-33.215414-0.094631-18.358377-15.046299-33.215414-33.688569-33.215415z" p-id="13675"></path><path d="M745.312263 345.497089H532.676832c-18.547639 0-33.593938 14.857037-33.593938 33.215414 0 18.263746 15.046299 33.215414 33.593938 33.215415h212.730062c18.547639 0 33.593938-14.857037 33.593938-33.215415-0.094631-18.358377-15.046299-33.215414-33.688569-33.215414zM745.312263 499.556048H532.676832c-18.547639 0-33.593938 14.857037-33.593938 33.215415 0 18.263746 15.046299 33.215414 33.593938 33.215414h212.730062c18.547639 0 33.593938-14.857037 33.593938-33.215414-0.094631-18.358377-15.046299-33.215414-33.688569-33.215415z" p-id="13676"></path></svg>