<?xml version="1.0" standalone="no"?><!DOCTYPE svg PUBLIC "-//W3C//DTD SVG 1.1//EN" "http://www.w3.org/Graphics/SVG/1.1/DTD/svg11.dtd"><svg t="1783666021618" class="icon" viewBox="0 0 1024 1024" version="1.1" xmlns="http://www.w3.org/2000/svg" p-id="14769" xmlns:xlink="http://www.w3.org/1999/xlink" width="200" height="200"><path d="M806 158H214c-49.6 0-90 40.4-90 90v528c0 49.6 40.4 90 90 90h592c49.6 0 90-40.4 90-90V248c0-49.6-40.4-90-90-90z m42 618c0 23.2-18.8 42-42 42H214c-23.2 0-42-18.8-42-42V248c0-23.2 18.8-42 42-42h592c23.2 0 42 18.8 42 42v528z" fill="#AAAAAA" p-id="14770"></path><path d="M753 669H273c-13.3 0-24 10.7-24 24s10.7 24 24 24h480c13.3 0 24-10.7 24-24s-10.7-24-24-24zM273 569c6.1 0 12.3-2.3 17-7l99-99 85 85c8.7 8.7 22.5 9.4 32.1 1.7l216.4-175-8.2 70.4c-1.5 13.2 7.9 25.1 21.1 26.6 0.9 0.1 1.9 0.2 2.8 0.2 12 0 22.4-9 23.8-21.2l14.6-125.2c0.7-6.3-1.1-12.7-5-17.7s-9.7-8.2-16-8.9l-125.2-14.6c-13.2-1.5-25.1 7.9-26.6 21.1-1.5 13.2 7.9 25.1 21.1 26.6l64.9 7.5-197.1 159.3L406 412c-9.4-9.4-24.6-9.4-33.9 0L256 528c-9.4 9.4-9.4 24.6 0 33.9 4.7 4.8 10.9 7.1 17 7.1z" fill="#AAAAAA" p-id="14771"></path></svg>