<?xml version="1.0" standalone="no"?><!DOCTYPE svg PUBLIC "-//W3C//DTD SVG 1.1//EN" "http://www.w3.org/Graphics/SVG/1.1/DTD/svg11.dtd"><svg t="1783652865389" class="icon" viewBox="0 0 1024 1024" version="1.1" xmlns="http://www.w3.org/2000/svg" p-id="1380" xmlns:xlink="http://www.w3.org/1999/xlink" width="200" height="200"><path d="M806.4 861.867c-12.8 0-21.333-8.534-21.333-21.334V768c0-34.133-12.8-64-38.4-89.6S691.2 640 657.067 640H366.933c-34.133 0-64 12.8-89.6 38.4-25.6 25.6-38.4 55.467-38.4 89.6v72.533c0 12.8-8.533 21.334-21.333 21.334s-21.333-8.534-21.333-21.334V768c0-42.667 17.066-85.333 51.2-119.467 29.866-29.866 72.533-51.2 119.466-51.2h294.4c46.934 0 85.334 17.067 119.467 51.2C810.667 678.4 832 721.067 832 768v72.533c0 12.8-12.8 21.334-25.6 21.334zM512 494.933c-93.867 0-166.4-76.8-166.4-166.4 0-93.866 76.8-166.4 166.4-166.4 93.867 0 166.4 76.8 166.4 166.4 0 93.867-72.533 166.4-166.4 166.4z m0-290.133c-68.267 0-123.733 55.467-123.733 123.733S443.733 452.267 512 452.267 635.733 396.8 635.733 328.533 580.267 204.8 512 204.8z" fill="#515151" p-id="1381"></path></svg>