<?xml version="1.0" standalone="no"?><!DOCTYPE svg PUBLIC "-//W3C//DTD SVG 1.1//EN" "http://www.w3.org/Graphics/SVG/1.1/DTD/svg11.dtd"><svg t="1783652807514" class="icon" viewBox="0 0 1024 1024" version="1.1" xmlns="http://www.w3.org/2000/svg" p-id="1224" xmlns:xlink="http://www.w3.org/1999/xlink" width="200" height="200"><path d="M768 896H256c-25.6 0-47.543-10.971-65.829-25.6s-25.6-40.229-25.6-65.829V402.286c0-7.315 3.658-10.972 7.315-14.629l329.143-256c7.314-3.657 14.628-3.657 21.942 0l329.143 256c3.657 3.657 7.315 7.314 7.315 14.629V804.57c0 25.6-10.972 47.543-25.6 65.829S793.6 896 768 896z m-128-36.571h128c14.629 0 29.257-7.315 40.229-14.629s14.628-25.6 14.628-40.229V409.6L512 168.229 201.143 409.6v394.971c0 14.629 7.314 29.258 14.628 40.229s25.6 14.629 40.229 14.629h128V512c0-10.971 7.314-18.286 18.286-18.286h219.428C632.686 493.714 640 501.03 640 512v347.429z m-219.429 0H603.43V530.286H420.57v329.143z" fill="#515151" p-id="1225"></path></svg>