<?xml version="1.0" standalone="no"?><!DOCTYPE svg PUBLIC "-//W3C//DTD SVG 1.1//EN" "http://www.w3.org/Graphics/SVG/1.1/DTD/svg11.dtd"><svg t="1783667002101" class="icon" viewBox="0 0 1024 1024" version="1.1" xmlns="http://www.w3.org/2000/svg" p-id="3284" xmlns:xlink="http://www.w3.org/1999/xlink" width="200" height="200"><path d="M639.2 826.1h-10.6v-27.6c0-14.7-13.5-26.7-30.1-26.7H183.3c-16.6 0-30.2 11.9-30.2 26.7v27.6h-10.6c-19.9 0-36.1 15.8-36.1 35.5v62.5c0 19.5 16.1 35.5 36.1 35.5h496.7c20 0 36.1-16 36.1-35.5v-62.5c0-19.7-16.1-35.5-36.1-35.5z m102.1-532c10.6-13.6 8-33.4-5.7-43.9L503.1 70.4c-13.7-10.5-33.4-8-43.9 5.8-3.5 4.6-5.4 9.8-6.1 15l274.2 213.1c5.4-2 10.3-5.3 14-10.2zM147.4 532.6L380 712.3c13.7 10.5 33.4 8 43.8-5.7 3.6-4.7 5.6-10.1 6.2-15.5L153.6 479.5c-4.5 2.1-8.6 5-11.9 9.2-10.5 13.8-8 33.3 5.7 43.9z m753.4 133.5L618.9 452.4 711 334.8c4.3-5.4 7-11.6 8.2-17.7l-267.5-204c-6.3 2.7-12 7-16.6 12.7L343 243.4l-10.2-7.7c-19.1-14.4-46.4-10.9-61.1 7.8L253 267.3c-14.7 18.7-11.1 45.6 8 60.1l10.1 7.7-95.3 121.5c-3.6 4.6-5.9 9.5-7.4 14.8l271.9 204.2c4.2-2.6 8.1-5.9 11.3-9.8l95.3-121.6 281.9 213.6c19.2 14.6 46.5 11 61.1-7.6l18.7-24c14.9-18.9 11.3-45.8-7.8-60.1z" fill="#dbdbdb" p-id="3285"></path></svg>